<svg xmlns="http://www.w3.org/2000/svg" id="_レイヤー_2" version="1.1" viewBox="0 0 396.47192 831.47125" width="396px" height="831px" class="lg:!max-h-[405px] hoverScaleIllustration rectangleModalImage" role="img" aria-label="コンビワーク1 アイソメトリック イラスト"><title>コンビワーク1 アイソメトリック イラスト</title><g id="_3"><g><path d="M179.31581,757.7884c-16.912,9.76417-58.04249,1.8483-91.8675-17.68059s-47.5357-43.2756-30.6237-53.0397,58.04249-1.8483,91.8675,17.68059c33.82499,19.52888,47.5357,43.2756,30.6237,53.0397Z" opacity=".05"/><path d="M304.2722,827.28904c-16.912,9.76417-58.04248,1.8483-91.8675-17.68059-33.82499-19.52888-47.5357-43.2756-30.6237-53.0397s58.0425-1.8483,91.8675,17.68059,47.5357,43.2756,30.6237,53.0397Z" opacity=".05"/><g><path d="M298.10021,234.95079s6.2956-8.84081-5.4627-12.0236c-15.25921-4.1305-39.25899-.2771-47.14889,1.3142-13.96971,2.8174,39.80051,26.8149,47.14889,26.45019s5.4627-15.7407,5.4627-15.7407v-.0001Z" fill="#ffd6d6"/><path d="M303.2046,404.71065c-4.56499-16.8901-13.67531-61.55708-13.2712-76.99111.41771-15.951,13.29389-26.61859,13.9946-52.7466.41031-15.29711.1264-27.03819-1.7239-29.0039-9.8428-10.45771-26.27479-22.3323-31.6024-23.62539l-.00019-.00111-8.918-5.0058s-28.70969,113.3153-24.1489,136.20379c0,0,.00191-.0045.002-.00511-.4674,4.17068-.70379,7.69939-.65041,10.37529.5435,27.2501,4.7072,109.14367,14.7167,115.33419,10.00959,6.1898,57.9338-24.36519,57.27439-38.7931-.2569-5.62279-2.7577-24.95559-5.6727-35.74108v-.00008Z" fill="#353e5a"/><path d="M106.58842,147.90208c1.0645,1.3279,2.2386,4.1525,2.2386,5.9188s-8.4245.8753-8.4245.8753l6.186-6.794-.0001-.0001Z" fill="#ffd6d6"/><g><g><path d="M83.29442,135.82208c-.9405-1.0754-12.6542-9.6504-25.44699-19.5869-12.7185-9.8787-24.2648,49.892-15.439,60.3697,15.6763,18.6104,30.6314,37.58989,40.8827,59.9014,12.5721,27.3629,27.2088-73.46059,27.6621-82.5199,0,0-23.05919-12.9053-27.6588-18.16439v.00009Z" fill="#151e31"/><g><path d="M45.11353,122.26359c6.9696-14.0079-17.6178-94.47559-25.4844-101.26809-1.5318-1.3226-5.8788.104-7.0959,4.8004-5.8669,22.6374,7.3835,82.42509,15.44,94.24368,9.7279,14.2705,17.1403,2.224,17.1403,2.22401Z" fill="#ffd6d6"/><path d="M27.89313,7.2028c.7589,2.0275,6.4119,3.7197,5.926,6.3601-.8099,4.4007-5.7418,8.8261-11.2018,12.9207-9.0714,6.803-16.6226,2.0988-18.2697-.6539C-2.80757,13.872-1.23587,11.2056,9.84293,4.7601,17.83943.1079,23.68083-4.05,27.89313,7.2028Z" fill="#ffd6d6"/></g><path d="M58.65953,122.87618c-7.7023-10.93369-36.7148-22.6591-33.827-10.6988,1.0874,4.5036,12.1,27.4819,21.4914,31.1202,5.8619,2.2709,14.4003-17.4907,12.3357-20.4214h-.0001Z" fill="#ffd6d6"/></g><g><g><path d="M177.86552,338.24017s18.13089,12.2652,7.18361,57.61817-83.11929-12.6128-83.11929-12.6128l52.8248-45.00537h23.1109-.00002Z" fill="#434856"/><g><g><path d="M109.90342,714.23623s-3.6747-.80009-4.058-1.5667,2.7284-2.1196,2.7284-2.1196l1.3296,1.55586v2.13043Z" fill="#9a8d80"/><path d="M124.00632,700.60723c1.4588-6.073,1.6018-12.4044-2.60529-17.92686-7.0303-9.2279-18.9838-5.36011-25.4898-1.85692s-8.4993,10.4351-26.4062,20.82229c-4.5249,2.62466-27.6285,14.23279-20.5049,23.43139,5.125,6.61781,20.9556,4.53728,36.1719,1.44867,12.9992-2.63847,20.8588-15.32631,23.9765-14.53583.4547.2227-.1239,1.838.7547,2.24617,1.9277.89699,14.4616-5.72517,14.731-8.3255.2368-2.29156.369-3.06808-.628-5.3035l.0001.00008Z" fill="#4a4c58"/></g><path d="M114.38182,641.98007c7.4372,11.43402-1.1282,32.55981,4.0028,39.66438,6.5483,9.06723-10.1257,17.02782-14.0235,16.26381-.9149-.17929.7127-2.6989,1.2171-4.68178.5723-2.24953-12.7954-7.85744-15.1313-6.28029-1.335.90141,3.8968-2.99797,6.9588-4.71847,1.2379-.69557,2.7621-1.74744,3.1683-2.23106,2.5116-2.99004-5.0939-31.53801-6.4401-34.8072s17.0346-8.14949,20.24791-3.20938Z" fill="#ffd6d6"/><path d="M132.34062,498.29146s-4.6687,94.7203-4.0292,170.88923c.0363,4.31869-16.4555,9.29527-21.10929,9.50531-5.6907.25681-20.73299-4.89563-20.2896-12.91397,2.5434-45.99559-7.7531-132.22579-8.9257-172.08308-2.0163-68.5369,54.35369,4.6027,54.35369,4.6027l.0001-.00019Z" fill="#434856"/><path d="M77.21752,349.71558c-.5144,106.96399-7.3701,196.81841,27.77689,198.89757,45.1451,2.67059,27.8695-130.81729,32.58549-177.51158,6.42-63.5659-60.22399-50.17429-60.36239-21.38599Z" fill="#434856"/></g><path d="M121.07612,405.54745c-21.0221-.0185-3.6659,127.4549,7.3311,190.24778l-7.3311-190.24778Z" fill="#1a1a1a" opacity=".1"/><g><path d="M161.62902,743.81173s-3.6747-.80009-4.058-1.5667,2.7284-2.1196,2.7284-2.1196l1.32959,1.55586v2.13043Z" fill="#9a8d80"/><path d="M175.73202,730.18273c1.4588-6.073,1.60179-12.4044-2.6053-17.92686-7.0303-9.2279-18.9838-5.36011-25.4898-1.85692s-8.4993,10.4351-26.4062,20.82229c-4.5249,2.62466-27.6285,14.23279-20.50489,23.43139,5.125,6.61781,20.9556,4.53728,36.17189,1.44867,12.9992-2.63847,20.8588-15.32631,23.9765-14.53583.45469.2227-.1239,1.838.7547,2.24617,1.9277.89699,14.46159-5.72517,14.73101-8.3255.2368-2.29156.369-3.06808-.62799-5.3035l.0001.00008Z" fill="#4a4c58"/></g><path d="M166.10752,671.55557c7.43719,11.43402-1.1282,32.55981,4.0028,39.66438,6.54829,9.06723-10.1257,17.02782-14.02349,16.26381-.9149-.17929.7127-2.6989,1.2171-4.68178.5723-2.24953-12.7954-7.85744-15.1313-6.28029-1.335.90141,3.8968-2.99797,6.9588-4.71847,1.2379-.69557,2.7621-1.74744,3.1683-2.23106,2.5116-2.99004-5.0939-31.53801-6.4401-34.8072s17.03461-8.14949,20.2479-3.20938Z" fill="#ffd6d6"/><path d="M181.38872,527.20416s-4.66869,94.7203-4.0292,170.88919c.0363,4.31869-16.4555,9.29527-21.10929,9.50531-5.6907.25681-20.73299-4.89563-20.2896-12.91397,2.5434-45.99563-10.53389-117.168-9.6522-157.0328.6862-31.02619,55.08029-10.44769,55.08029-10.44769v-.00004Z" fill="#434856"/><path d="M119.79852,375.51605c-.5144,106.96399-.9029,199.93059,34.244,202.00968,45.1451,2.67059,21.40229-133.92951,26.1184-180.62376,6.42-63.5659-60.22399-50.17429-60.36239-21.38599v.00008Z" fill="#434856"/></g><g><polygon points="100.25072 173.22088 100.25072 173.22088 100.80942 170.09169 100.25072 173.22088" fill="#ccccd5"/><path d="M79.73182,202.09608c-.5417-14.35631,7.3929-43.4801,31.2213-48.10959,29.825.6232,31.4865,4.2307,42.2577,8.8112,10.77121,4.5805,22.2066,23.0516,23.2249,34.5507.58359,6.5893.99871,15.57911.9741,19.8575-.09859,17.21781-3.90089,21.9852-1.5908,64.6924.36739,6.79081,5.13361,26.4117,9.2301,43.90449,3.11729,13.31138,8.01531,32.79689,8.1226,37.04998-6.5897,3.7339-14.06521,5.48199-21.6,9.6608-7.93209,4.39911-15.9955,11.14502-25.85829,11.49528-14.9313.5304-26.91649-12.17811-45.2883-17.10289-14.869-3.98579-27.4203-12.53799-28.0251-16.24481-1.064-6.52149,3.6394-15.46532,4.2832-24.8584.6709-9.78929-1.3502-20.5925-.2486-31.60721,4.9225-49.21749,3.839-77.7431,3.2973-92.09939l-.00009-.00006Z" fill="#151e31"/><path d="M153.25171,273.23427c1.0469-36.2817,13.91009-50.47889,24.1581-56.02849-.09859,17.21781-3.90089,21.9852-1.5908,64.6924.36739,6.79081,5.13361,26.4117,9.2301,43.90449-15.30899-4.85809-32.79609-17.9549-31.7974-52.56839Z" opacity=".1"/><path d="M108.68212,158.35048c2.1072-2.3863,4.5341-2.4608,4.5341-2.4608,0,0,1.5355-9.7485,1.5769-10.5052l27.23779-2.433s-.9081,15.7543,1.1325,17.14331c3.8804,2.6412,10.6702,1.4493,8.6702,7.4493s-26.0443,15.42009-37.04429,11.4201-8.2143-18.2274-6.1072-20.6137Z" fill="#fcc"/><g><path d="M99.46012,85.18019c-7.4599,8.79559-2.18,31.342-2.18,31.342,0,0-3.6849,26.4102,19.8903,35.641,18.7417,7.33829,36.0377-12.065,36.0377-12.065,0,0,28.107-50.6011-4.1464-63.96289s-42.14169.2493-49.60159,9.04489Z" fill="#ffd6d6"/><path d="M175.03442,82.36809c-6.09131-7.7661-11.2241-7.7661-15.6997-13.5571-4.4751-5.7915-8.0288-10.2666-15.0049-11.583-6.0161-1.1348-19.6611-1.9683-26.3433,5.8418-2.3931-.7578-7.8647-2.0894-14.9951-1.2852-9.6797,1.0918-14.897,13.8501-13.0962,21.9692,1.8013,8.1187-2.4673,9.8691-2.4673,9.8691,0,0-.8989,3.1289,4.647.9312.0591.4673.1162.9414.1655,1.4307.5825,5.7959,5.0396,20.5371,5.0396,20.5371l-1.1348-17.5107c-.0571-.8848.6064-1.5508,1.3794-1.6411,5.2446,6.6665,19.6689,9.6392,19.6689,9.6392-1.6758-4.6201-1.4844-10.146-.9863-14.1377,5.625,9.228,18.9199,19.1494,22.72609,19.30569l.7646-2.7061c2.3765,3.8784,5.9468,4.5352,5.9468,4.5352l1.5819,8.5724,2.9181-1.1369s6.2305-18.3311,10.61079-12.74219c3.67121,4.6844-1.1838,19.0097-6.296,23.232-3.732,3.0824-4.1662-.2472-4.539.1772-2.3027,2.6221,3.2876,7.9892,3.2876,7.9892,0,0,9.78121-10.7217,15.1016-25.52l.0029-.0005s3.6577-9.0439,5.8955-9.3076c2.2373-.2632,6.917-15.1362.82621-22.9019h.0001Z" fill="#3b435a"/></g></g></g><path d="M83.80903,144.54629c.9661-1.3521,2.9017-2.8086,7.124-5.1467,4.4429-2.4603,17.7155,8.0486,16.2625,10.7468-1.6698,3.1009-2.7776,1.0201-9.9313,9.1353-11.1461,12.64399-19.0194-6.948-13.4551-14.7354h-.0001Z" fill="#ffd6d6"/><path d="M155.01261,163.68809s23.40699,8.2435,36.52169,18.0756c8.35329,6.26249,17.1816,12.3164,24.9126,35.7246,4.0398,12.2319,20.895,40.7077.6225,48.41169-17.7351,6.73981-14.2634-54.3674-59.8637-28.13579l-2.193-74.07609h-.0001Z" fill="#151e31"/></g><g><g><path d="M297.1024,400.72388s18.13089,12.2652,7.18361,57.61821c-10.9473,45.35289-83.11929-12.6128-83.11929-12.6128l52.8248-45.00537h23.1109l-.00002-.00004Z" fill="#3b435a"/><g><g><path d="M229.14021,776.7199s-3.6747-.80009-4.058-1.5667,2.7284-2.1196,2.7284-2.1196l1.32959,1.55586v2.13043Z" fill="#9a8d80"/><path d="M243.24321,763.0909c1.4588-6.073,1.60179-12.4044-2.6053-17.92686-7.0303-9.2279-18.9838-5.36011-25.4898-1.85692s-8.4993,10.4351-26.40619,20.82229c-4.5249,2.62466-27.6285,14.23279-20.50489,23.43139,5.12501,6.61781,20.9556,4.53728,36.17189,1.44867,12.99919-2.63847,20.8588-15.32631,23.9765-14.53583.45469.2227-.1239,1.838.7547,2.24617,1.9277.89699,14.46159-5.72517,14.73101-8.3255.2368-2.29156.369-3.06808-.62799-5.3035l.0001.00008Z" fill="#4a4c58"/></g><path d="M233.61871,704.46374c7.43719,11.43402-1.1282,32.55981,4.0028,39.66438,6.54831,9.06723-10.12569,17.02782-14.02349,16.26381-.9149-.17929.7127-2.6989,1.2171-4.68178.5723-2.24953-12.79539-7.85744-15.1313-6.28029-1.33499.90141,3.89681-2.99797,6.95881-4.71847,1.23791-.69557,2.76211-1.74744,3.1683-2.23106,2.5116-2.99004-5.0939-31.53801-6.4401-34.8072s17.03461-8.14949,20.2479-3.20938Z" fill="#ffd6d6"/><path d="M251.5774,560.77525s-4.66869,94.7203-4.0292,170.88919c.0363,4.31869-16.4555,9.29527-21.10929,9.50531-5.69071.25681-20.73299-4.89563-20.28959-12.91397,2.54339-45.99556-7.7531-132.22579-8.9257-172.08308-2.0163-68.5369,54.35369,4.6027,54.35369,4.6027l.0001-.00015Z" fill="#3b435a"/><path d="M196.4544,412.19925c-.51439,106.96399-7.37011,196.81841,27.77691,198.89757,45.14511,2.67059,27.86949-130.81729,32.5855-177.51158,6.42-63.5659-60.22399-50.17429-60.36239-21.38599h-.00002Z" fill="#3b435a"/></g><path d="M240.31291,468.03115c-21.02209-.0185-3.6659,127.4549,7.3311,190.24775l-7.3311-190.24778v.00004Z" fill="#1a1a1a" opacity=".1"/><g><path d="M280.8659,806.29555s-3.6747-.80009-4.058-1.5667,2.7284-2.1196,2.7284-2.1196l1.32959,1.55586v2.13043Z" fill="#9a8d80"/><path d="M294.96889,792.66655c1.4588-6.073,1.60179-12.4044-2.6053-17.92686-7.0303-9.2279-18.9838-5.36011-25.4898-1.85692s-8.4993,10.4351-26.40619,20.82229c-4.5249,2.62466-27.6285,14.23279-20.50489,23.43139,5.12501,6.61781,20.9556,4.53728,36.17189,1.44867,12.99919-2.63847,20.8588-15.32631,23.9765-14.53583.45469.2227-.1239,1.838.7547,2.24617,1.9277.89699,14.46159-5.72517,14.73101-8.3255.2368-2.29156.369-3.06808-.62799-5.3035l.0001.00008Z" fill="#4a4c58"/></g><path d="M285.3443,734.03931c7.43719,11.43402-1.1282,32.55981,4.0028,39.66438,6.54829,9.06723-10.12569,17.02782-14.02349,16.26381-.9149-.17929.7127-2.6989,1.2171-4.68178.5723-2.24953-12.79539-7.85744-15.1313-6.28029-1.33499.90141,3.89681-2.99797,6.95881-4.71847,1.23791-.69557,2.76211-1.74744,3.1683-2.23106,2.5116-2.99004-5.0939-31.53801-6.4401-34.8072s17.03461-8.14949,20.2479-3.20938Z" fill="#ffd6d6"/><path d="M300.62559,589.68783s-4.66869,94.7203-4.0292,170.88919c.0363,4.31869-16.4555,9.29527-21.10929,9.50531-5.69071.25681-20.73299-4.89563-20.28959-12.91397,2.54339-45.99563-10.5339-117.16796-9.65219-157.0328.68621-31.02619,55.08029-10.44769,55.08029-10.44769l-.00002-.00004Z" fill="#3b435a"/><path d="M239.0354,437.99976c-.51439,106.96399-.9029,199.93055,34.244,202.00964,45.14509,2.67059,21.4023-133.92951,26.11839-180.62376,6.42-63.5659-60.22399-50.17429-60.36239-21.38599v.00011Z" fill="#3b435a"/></g><polygon points="219.43042 235.70457 219.43042 235.70457 219.989 232.57538 219.43042 235.70457" fill="#ccccd5"/><g><path d="M292.82141,283.45548c.54831-10.273,10.50609-16.83201,8.333-24.84051-1.7277-6.366-4.76829-13.0616-10.0481-19.26319-11.54171-13.5568-23.25359-19.9645-51.2087-23.85929-4.7373-.66-15.963-2.9215-25.73259,6.2233-13.1702,12.3286-6.38399,49.6232-6.38399,74.28029s3.88,50.03049-5.4257,102.2725c-9.37759,52.6453,21.99619,46.01131,67.85961,52.6453,20.7484,3.00121,17.6382-27.50488,23.74889-33.22601,8.11779-7.60029,1.25931-28.90781-.99421-39.53758-.4125-1.94592-.7505-4.16389-.9749-6.72279-.38549-4.3951-10.70999-11.58901-10.21351-18.38901,1.07071-14.6727,10.7963-65.01069,11.04031-69.58309l-.0001.00008Z" fill="#151e31"/><path d="M261.68351,217.33667s-12.9849-3.7982-28.24159-4.076l-1.1314,2.8241,29.8732,5.6311-.5002-4.3791v-.0001Z" fill="#545456"/></g><path d="M232.71981,215.70867c-2.24319.67789-8.24869,2.5309-9.1861,7.8738s-3.2295,15.51571,8.15519,18.93209c17.80689,5.34361,26.1845-2.0146,28.93179-5.63459,8.9855-11.84021,1.89791-16.09119-4.2045-19.8883s-21.6946-1.88789-23.69631-1.283h-.00008Z" fill="#fcc"/><g><path d="M214.85061,345.99186c-.0503-3.56049-.30701-7.0903-.71461-10.606-3.88639-75.30759,19.30589-122.12498,19.30589-122.12498l-3.98769-.6196-2.0952,1.24319c-5.57951.62059-12.3036,3.7681-17.5118,7.12789,0,0-13.61191,15.6719-13.61191,61.1201,0,18.6602,5.64051,46.54541,6.12011,60.8398.07771,2.31541-.69151,10.53909-.69151,10.53909l-1.7769,13.64159s-.3475,2.4482-.91129,6.45561c-.4867-.16361-.88341-.21-1.1194-.0684-1.42429.85449-4.55521,9.53998-3.5594,11.07471.30491.4697,1.39009,1.51508,2.7639,2.68951-2.8771,20.7056-6.9243,50.44818-6.9775,54.29538-.11869,8.5762,6.78949,15.24761,12.2722,14.92039,5.48269-.32761,11.4193-84.30217,12.4321-105.57277.0775-1.62601.08659-3.2407.0658-4.85111.00641.0391.0107.06592.0107.06592-.0049-.0576-.0086-.1133-.01341-.1704l-.00008.00008Z" fill="#353e5a"/><path d="M201.582,389.46915c2.1413-5.22881,3.39701-10.20481,2.16261-12.05891s-4.6843-4.40338-5.8884-3.87001c-1.51859.6728-4.71559,9.65698-3.55949,11.0746,1.23051,1.5089,6.59889,6.5303,7.28531,4.85432h-.00002Z" fill="#fff" opacity=".05"/><path d="M233.44191,213.26069s-25.42101,51.30781-18.57799,132.90147c0,0-16.4961-101.4968-9.06139-112.38339l10.7163-3.0257-5.75939-7.01599,18.6948-11.0963,3.9876.61979.00008.00013Z" fill="#fff" opacity=".05"/><g opacity=".05"><path d="M211.50062,348.91408c1.4459.60249,2.61351,2.41791,2.6096,4.0448-.00389,1.6275-1.1779,2.45731-2.62381,1.85478s-2.61351-2.4081-2.6096-4.03561c.00389-1.62701,1.1779-2.46651,2.62381-1.86401v.00004Z"/></g><g opacity=".05"><path d="M209.35672,376.35716c1.4459.60249,2.61351,2.41791,2.6096,4.0448-.00389,1.6275-1.1779,2.45731-2.62381,1.85478s-2.61351-2.4081-2.6096-4.03561c.00389-1.62701,1.1779-2.46651,2.62381-1.86401v.00004Z"/></g></g><path d="M234.6621,204.98878c-1.65211,7.5218-5.77181,16.00349,0,18.62699s20.8806,1.8652,25.4676-1.283-.2737-19.7052-1.98299-21.27929-23.48459,3.9353-23.48459,3.9353h-.00002Z" fill="#fcc"/><g><path d="M304.3832,405.62916c-2.8912-10.69889-4.8109-32.4662-9.7249-51.44748-2.84361-10.98511-4.87301-20.8044-4.72469-26.4624.33939-12.96261,8.8171-22.572,12.39139-39.6887.82399-3.9459,1.4716-8.1628,1.6028-13.0579.4108-15.2972.12699-27.038-1.72359-29.0039-9.84249-10.4578-26.275-22.33221-31.60219-23.62551l-.00059-.0012-8.91781-5.00549s-28.70969,113.3154-24.1486,136.20358c0,0,.00179-.00431.00179-.00488-.46749,4.17049-.7037,7.69958-.6506,10.3754.5438,27.24979,4.70699,109.1437,14.7168,115.33389s59.11209-23.44631,58.45291-37.87441c-.257-5.6226-2.75761-24.9554-5.67261-35.741h-.00011Z" fill="#353e5a"/><g opacity=".1"><path d="M283.40041,310.65806c-.39431,11.59418,7.01349,32.54091,11.2579,43.52357-2.84361-10.98511-4.87301-20.8044-4.72469-26.4624.33939-12.96261,8.8171-22.572,12.39139-39.6887-18.0946-1.73651-18.5425,11.4056-18.9246,22.6276v-.00008Z"/></g><path d="M256.26271,395.94788c-1.00109,3.06782-.3668,9.29378,1.9832,9.7765s28.7301-6.59149,31.5365-9.8605-.73999-11.4703-2.87729-11.24432-29.8332,8.84849-30.64239,11.32831h-.00002Z" fill="#fff" opacity=".05"/><path d="M270.60151,222.34268l-8.918-5.00601s-28.70969,113.31561-24.1489,136.20368c0,0,39.45629-94.96528,36.91469-102.5899l-8.89549-9.95449,9.01319-4.44771-3.96561-14.20549.00011-.00008Z" fill="#fff" opacity=".05"/></g><g><path d="M220.44002,147.66388c-7.45991,8.7956-2.18,31.34199-2.18,31.34199,0,0-3.6849,26.4102,19.89031,35.641,18.7417,7.33829,36.03769-12.06499,36.03769-12.06499,0,0,28.10699-50.6011-4.1465-63.96289s-42.1417.2493-49.60159,9.04489h.0001Z" fill="#ffd6d6"/><path d="M241.262,125.92899c24.3391-5.6952,38.8022,5.6553,39.5943,12.2561,6.46879,3.0364,12.17029,10.7736,11.76029,22.4959-.7896,22.57669-18.42859,41.9009-18.42859,41.9009,0,0-3.7923-6.57419-.37901-5.8482,4.31709.91829,12.30659-19.9612,7.9262-25.5501-4.3803-5.58889-10.61069,12.74219-10.61069,12.74219l-3.7023,4.87631-.79781-12.31199s-2.91059-1.315-7.71761-9.39079c-4.28591-7.2002-21.18379-15.12009-25.94909-14.0822-5.06189,1.1025-16.5781,7.42519-16.4975,8.67029l.08261,4.7744s-2.74-2.19749-3.32279-7.993c-.5925-5.8912-.62201-25.8325,28.04189-32.5397l.0001-.0001Z" fill="#3b435a"/></g></g><path d="M326.02718,221.21979c7.38861-26.12699,30.51288-72.0384,39.6202-71.9338s15.16682,3.0977,20.07038,8.3125c4.90356,5.2148-26.08799,75.88539-31.1512,77.6051s-32.34401-.5303-28.53939-13.9838Z" fill="#353e5a"/><path d="M367.38491,147.96679c-1.50711-5.4507-6.64791-12.35-3.3992-16.6285s6.4471-4.0775,6.94111-6.0116-.56091-5.995,9.5367-6.0284,15.18829,8.8921,15.97519,15.582-12.6181,21.5432-20.87368,22.5144-8.1802-9.4279-8.1802-9.4279h.00008Z" fill="#ffd6d6"/><path d="M368.29341,148.82288s-3.6515,3.7345-3.48549,6.2242,2.0747,6.63911,7.22011,6.47321,8.6309-2.3137,9.29481-4.0615.74692-8.138.74692-8.138l-13.77621-.4979h-.00015Z" fill="#ffd6d6"/><path d="M356.60839,217.85019c-7.229-1.1273-12.56962-10.116-21.3586-4.4696-32.07149,20.60301-48.6004,22.94229-48.6004,22.94229,0,0-29.6887,46.76389-13.18729,56.56919l-2.37551,26.579c.3174-11.96529,10.99369-21.0754,20.43461-26.82499,34.26029-11.96409,84.90409-71.70509,65.0872-74.79589Z" fill="#353e5a"/><path d="M175.12102,263.05307s-.2511-21.95709,1.37341-31.4472,15.5755-11.65159,28.5977-15.3013c3.47811-.97481,22.2669-2.4201,22.2669-2.4201,0,0-16.46789,7.978-18.16191,10.133-1.28389,1.6333,4.7456,1.222,3.3148,3.7505-2.06459,3.64849-4.26491,1.28851-6.67379,4.80749-4.0329,5.8914-4.636,23.321-6.6975,25.37639-8.05599,8.03249-23.09959,4.6982-24.0196,5.1013v-.00008Z" fill="#353e5a"/><path d="M299.1555,247.40007c.6292-2.328,3.2132-7.31171.39089-18.15059-2.0241-7.7733-18.05439-2.3838-18.33521.07-.54911,4.79731,1.40209,3.8253-3.0752,18.78771-5.02741,16.80031,19.65441,4.3441,21.01949-.707l.00002-.00011Z" fill="#ffd6d6"/><path d="M277.6805,230.13258c-6.2084,5.41941-12.77639,15.50831-6.9524,14.23031s16.8342-8.0084,16.95181-11.56019-6.45559-5.76361-9.99941-2.6701v-.00002Z" fill="#ffd6d6"/></g></g></g></svg>