<svg xmlns="http://www.w3.org/2000/svg" xmlns:xlink="http://www.w3.org/1999/xlink" version="1.1" id="_レイヤー_2" x="0px" y="0px" viewBox="0 0 1187.48987 1401.95471" enable-background="new 0 0 1187.48987 1401.95471" width="1187px" height="1402px" class="lg:!max-h-[405px] hoverScaleIllustration rectangleModalImage" role="img" aria-label="考える男性2(上半身) アイソメトリック イラスト"><title>考える男性2(上半身) アイソメトリック イラスト</title><g id="_男性_上半身_"><g><g><g><path fill="#E5E5E5" d="M383.83426,595.69403c-11.41138-19.79498-50.23239-22.97009-49.966-9.39734&#10;&#9;&#9;&#9;&#9;&#9;c0.23471,11.96576,31.08371,48.86353,45.98239,42.03363C388.32294,624.44641,390.35693,607.00903,383.83426,595.69403z"/><path fill="#E5E5E5" d="M344.57477,497.73203c-10.7648-30.72318-55.97278-51.41446-80.79489-56.57169&#10;&#9;&#9;&#9;&#9;&#9;c-6.93579-1.44098-45.62428-9.4791-46.41399,12.9014c-0.89799,25.4491,47.1884,90.80661,85.95198,97.26236&#10;&#9;&#9;&#9;&#9;&#9;c29.80942,4.96448,51.13522-25.3988,41.2569-53.5921V497.73203z"/><path fill="#E5E5E5" d="M209.85588,378.83316c11.0255,6.5314,72.52647,42.9642,83.15981,16.75061&#10;&#9;&#9;&#9;&#9;&#9;c3.03448-7.48071,1.939-20.10941-2.3822-35.37241c2.8273,0.84451,5.63971,1.5657,8.4133,2.02771&#10;&#9;&#9;&#9;&#9;&#9;c45.13458,7.51678,77.42447-38.45639,62.46759-81.14429c-6.00949-17.15161-19.1192-32.22969-35.147-44.83389&#10;&#9;&#9;&#9;&#9;&#9;c0.4783-9.6669-0.46259-19.86-3.14059-30.40271C308.57629,148.1812,245.82809,89.57091,201.27921,66.0575&#10;&#9;&#9;&#9;&#9;&#9;c-11.49892-6.0691-36.601-17.61-62.9642-15.1223c-1.595-2.9697-3.3125-5.8525-5.17439-8.6125&#10;&#9;&#9;&#9;&#9;&#9;C108.89309,6.3806,65.6969-4.4659,40.8549,1.5777C33.9901,3.2479,19.0584,8.5112,9.6406,27.4335&#10;&#9;&#9;&#9;&#9;&#9;c-1.394,2.801-22.6044,47.43779,2.7144,95.59c8.4163,16.00629,20.3436,29.1838,33.50919,39.18478&#10;&#9;&#9;&#9;&#9;&#9;c-11.1158,17.24561-16.2441,44.82251-2.3786,73.8447c14.7527,30.87932,48.77229,58.71739,63.82979,52.6454&#10;&#9;&#9;&#9;&#9;&#9;c1.0775-0.4343,2.02951-1.10431,2.9262-1.87561c22.2799,36.48779,69.17699,73.97958,99.61428,92.01028L209.85588,378.83316z"/></g><path fill="#FFFFFF" d="M230.17596,191.60008c0,26.8976-11.7421,29.9599-20.267,32.47328&#10;&#9;&#9;&#9;&#9;c-7.5743,1.9686-12.12102,3.27901-12.12102,19.68091c0,6.99779-4.9221,9.8414-10.9843,6.3414&#10;&#9;&#9;&#9;&#9;c-6.05881-3.498-10.98431-12.02721-10.98431-19.02501c0-29.30379,12.12102-32.80161,21.02481-35.0963&#10;&#9;&#9;&#9;&#9;c7.38489-1.85921,11.36319-3.06218,11.36319-17.05789c0-6.56039-3.9783-20.228-18.7515-28.75729&#10;&#9;&#9;&#9;&#9;c-15.34149-8.85741-18.74809,3.82768-18.74809,9.51309c0,6.9978-4.92551,9.83951-10.9843,6.34138&#10;&#9;&#9;&#9;&#9;c-6.06221-3.5-10.9843-12.02719-10.9843-19.02499c0-22.5247,15.1487-36.95959,40.71671-22.19789&#10;&#9;&#9;&#9;&#9;c15.53088,8.9668,25.18921,21.9783,30.30411,31.27299c6.62709,11.69901,10.41599,24.8217,10.41599,35.53619L230.17596,191.60008z&#10;&#9;&#9;&#9;&#9; M198.73528,282.35275c-0.18939,7.32599-5.30099,9.8414-11.93149,6.01331c-6.43771-3.7168-11.7421-12.24591-11.7421-19.6813&#10;&#9;&#9;&#9;&#9;c0-7.4353,5.30438-9.8414,11.7421-6.12457C193.43428,266.38828,198.54588,274.80807,198.73528,282.35275z"/></g><g><path fill="#FFD3D4" d="M631.25043,714.36493c-34.94397,40.50745-109.75568,372.66315-45.33276,390.95612&#10;&#9;&#9;&#9;&#9;c43.9137,12.46936,78.51526-159.16736,125.96118-297.94971c48.65948-142.33203-45.68445-133.51373-80.62842-93.00635V714.36493z"/><path fill="#15233E" d="M685.75006,1067.28198c0,0-201.56821-118.03259-136.85608-192.70032&#10;&#9;&#9;&#9;&#9;c55.4823-64.01807,34.85431-283.60547,201.66547-295.79553C769.63,577.39252,741.70526,1027.43323,685.75006,1067.28198&#10;&#9;&#9;&#9;&#9;L685.75006,1067.28198z"/><path opacity="0.1" d="M642.75793,1019.80579&#10;&#9;&#9;&#9;&#9;c-31.07135,4.45776-22.27966-267.62573,11.60431-259.01117S654.29474,1018.1507,642.75793,1019.80579z" enable-background="new"/></g><g><polygon fill="#CDCDD5" points="722.75085,651.3916 722.75085,651.3916 724.98541,638.87476"/><path fill="#15233E" d="M754.51514,1313.13452c124.04297,71.61707,239.96289,98.43347,338.60156,85.8125&#10;&#9;&#9;&#9;&#9;c-4.6366-28.08972-20.50586-91.67969-31.17188-137.22852c-16.38672-69.9707-35.45117-148.45508-36.91992-175.61719&#10;&#9;&#9;&#9;&#9;c-9.24017-170.83002,5.96875-189.89832,6.36328-258.76941c0.09778-17.11328-1.5625-53.07227-3.89648-79.42969&#10;&#9;&#9;&#9;&#9;c-4.07416-45.99609-49.81635-119.88086-92.90033-138.20306c-43.08405-18.3222-49.73053-32.75201-169.03131-35.24408&#10;&#9;&#9;&#9;&#9;c-95.3125,18.51758-127.05267,135.01166-124.88477,192.4375c2.16797,57.42572,6.5,171.52728-13.18951,368.39832&#10;&#9;&#9;&#9;&#9;c-3.11328,31.12292-0.00195,61.81641,1.15234,90.96484c40.73438,32.75769,82.79486,62.00586,125.87695,86.87891&#10;&#9;&#9;&#9;&#9;L754.51514,1313.13452z"/><path opacity="0.1" d="M934.7547,1051.44519&#10;&#9;&#9;&#9;&#9;c4.1875-145.12683,55.64038-201.91553,96.63263-224.11395c-0.39429,68.87097-15.60358,87.94092-6.36328,258.76959&#10;&#9;&#9;&#9;&#9;c1.46948,27.16333,20.53442,105.64697,36.92041,175.61792c-61.23608-19.43262-131.18433-71.8197-127.18958-210.27356H934.7547z" enable-background="new"/><path fill="#FFC9CA" d="M756.47614,591.90985c8.42871-9.54523,18.1366-9.84332,18.1366-9.84332s6.14191-38.9939,6.30737-42.02063&#10;&#9;&#9;&#9;&#9;l108.95111-9.73206c0,0-3.63226,63.01721,4.53003,68.57312c15.52167,10.56488,42.68097,5.7973,34.68103,29.7973&#10;&#9;&#9;&#9;&#9;c-8,24-104.17743,61.68048-148.17743,45.68042c-44-15.99994-32.85718-72.90936-24.42871-82.45477V591.90985z"/><g><path fill="#FFD3D4" d="M759.9035,277.19547c-39.54742,23.7529-48.4696,115.94757-48.4696,115.94757&#10;&#9;&#9;&#9;&#9;&#9;s-47.84412,95.33188,29.63202,160.55038c61.59149,51.84698,152.01392,0.5246,152.01392,0.5246&#10;&#9;&#9;&#9;&#9;&#9;s171.40686-155.65088,66.35199-247.65421s-159.98096-53.12128-199.52826-29.36838L759.9035,277.19547z"/><path fill="#3C4358" d="M866.67603,221.56279c99.51947,9.64861,139.75342,71.2075,134.28589,97.23198&#10;&#9;&#9;&#9;&#9;&#9;c20.61255,19.80292,32.28723,56.43161,15.69489,100.31738c-31.95648,84.52271-123.57703,135.1058-123.57703,135.1058&#10;&#9;&#9;&#9;&#9;&#9;s-5.93323-29.77295,6.0672-22.64313c15.17804,9.01782,72.23505-59.83734,62.80957-86.63208&#10;&#9;&#9;&#9;&#9;&#9;c-9.42542-26.7941-56.54822,34.66299-56.54822,34.66299l-20.28259,13.7247l12.77313-47.66971&#10;&#9;&#9;&#9;&#9;&#9;c0,0-9.34015-8.71619-17.19165-45.48019c-7.00018-32.77789-60.85999-84.46286-80.24554-86.64426&#10;&#9;&#9;&#9;&#9;&#9;c-20.59241-2.3172-72.33527,6.86276-73.62701,11.68347l-5.81262,18.1947c0,0-7.56171-11.84079-2.33435-34.54599&#10;&#9;&#9;&#9;&#9;&#9;c5.31348-23.0799,30.78534-98.66888,147.9884-87.30559L866.67603,221.56279z"/></g></g><path fill="#FFD3D4" d="M542.11273,1029.1864c-41.41629-39.03223,162.90125-410.72778,205.04553-388.28864&#10;&#9;&#9;&#9;c58.72034,31.26477-81.43146,312.38873-127.33295,374.45844c-45.90143,62.06958-77.71246,13.8302-77.71246,13.8302H542.11273z"/><path fill="#FFD3D4" d="M791.04309,656.43488c-8.72174,17.73114-26.72638,22.46515-57.47461,14.79688&#10;&#9;&#9;&#9;c-31.92871-7.96252-32.31842-42.28436-28.55457-52.77307c25.5954-71.32739,53.90735-68.7793,80.44543-64.66827&#10;&#9;&#9;&#9;c26.53827,4.11096,23.73645,65.74017,5.58362,102.64447H791.04309z"/><g><g><path fill="#FFD3D4" d="M1091.04456,827.0896c26.65063,46.38617,8.21204,404.67297-58.50806,410.44922&#10;&#9;&#9;&#9;&#9;&#9;c-45.47955,3.93738-35.59729-190.71594-55.93402-335.96771C955.74554,752.60413,1064.39392,780.70337,1091.04456,827.0896z"/><path fill="#FFD3D4" d="M1045.63489,1230.7251c-34.44073,45.30603-418.94897-114.6062-405.27289-157.48755&#10;&#9;&#9;&#9;&#9;&#9;c8.53143-26.75,308.22449,54.34363,374.79382,93.43457s30.47894,64.05298,30.47894,64.05298H1045.63489z"/><path fill="#FFD3D4" d="M633.51868,1021.39771c15.79401,6.66846,37.19275,28.0592,33.23419,59.46533&#10;&#9;&#9;&#9;&#9;&#9;c-4.1106,32.61194-49.1236,32.82214-58.35022,30.26355c-62.74475-17.39905-62.93469-45.80908-61.64886-72.63293&#10;&#9;&#9;&#9;&#9;&#9;c1.28577-26.82391,53.8927-30.97528,86.76489-17.09607V1021.39771z"/></g><path fill="#15233E" d="M952.90125,620.74976c-1.95721-5.36902,116.81421,62.19031,140.22864,104.40625&#10;&#9;&#9;&#9;&#9;c20.25513,36.51965,65.52771,162.1731,72.11475,271.56433c3.09705,51.43359,24.73865,71.57837,22.00732,101.9823&#10;&#9;&#9;&#9;&#9;c0,0-105.88806,111.29468-221.72668,63.22888c0,0-7.97693-325.08661-31.1308-353.02075c0,0,21.7204-179.34521,18.50665-188.16107&#10;&#9;&#9;&#9;&#9;L952.90125,620.74976z"/></g></g></g></svg>