<svg xmlns="http://www.w3.org/2000/svg" xmlns:xlink="http://www.w3.org/1999/xlink" version="1.1" id="_レイヤー_2" x="0px" y="0px" viewBox="0 0 1085.90845 930.79047" enable-background="new 0 0 1085.90845 930.79047" width="1086px" height="931px" class="lg:!max-h-[405px] hoverScaleIllustration rectangleModalImage" role="img" aria-label="サイト設計 アイソメトリック イラスト"><title>サイト設計 アイソメトリック イラスト</title><g id="_2"><g><path fill="#EFEFEF" d="M607.4494,301.84421L427.31311,405.84598l373.63074,215.71524L981.0802,517.56L607.44946,301.84421&#10;&#9;&#9;&#9;H607.4494z M708.91211,443.56992c3.27667-1.89221,8.58942-1.89221,11.86853,0.00061c3.27667,1.89157,3.27667,4.95911,0,6.85138&#10;&#9;&#9;&#9;c-3.27789,1.89221-8.59192,1.89221-11.86853,0S705.63544,445.46219,708.91211,443.56992z M724.13464,481.25452l-47.47156-27.40781&#10;&#9;&#9;&#9;l22.03937-2.64011c1.26227-0.15112,2.5766,0.04587,3.54987,0.53439c0.97577,0.48788,1.50171,1.2103,1.41956,1.95331&#10;&#9;&#9;&#9;l-0.69397,6.40942l23.77692-2.84021c1.36273-0.16257,2.7749,0.08041,3.76154,0.64871&#10;&#9;&#9;&#9;c0.98419,0.56769,1.40741,1.38318,1.12927,2.16968l-7.51086,21.17249L724.13464,481.25452z"/><path fill="#E7E7EE" d="M343.61542,490.6694l-97.62221,56.36221l97.6255,56.36407l97.62219-56.36218L343.61542,490.6694z&#10;&#9;&#9;&#9; M348.56601,531.84442c3.30893,1.9104,3.30899,5.00726,0.0007,6.9173c-3.3093,1.91058-8.67328,1.91058-11.98221,0.00018&#10;&#9;&#9;&#9;c-3.3089-1.9104-3.30899-5.00726,0.0004-6.91791c3.30829-1.91003,8.67221-1.91003,11.98108,0.00037L348.56601,531.84442z&#10;&#9;&#9;&#9; M304.02661,542.21979l22.25021-2.66547c1.2749-0.15259,2.60107,0.04608,3.58371,0.53961&#10;&#9;&#9;&#9;c0.98468,0.49219,1.51538,1.22217,1.43298,1.97168l-0.69968,6.47083l24.00397-2.86755&#10;&#9;&#9;&#9;c1.37534-0.16418,2.80203,0.08148,3.7973,0.65552c0.99368,0.57251,1.423,1.39648,1.13974,2.18994l-7.58081,21.37628&#10;&#9;&#9;&#9;l-47.9274-27.6709L304.02661,542.21979z"/><path fill="#BFBFBF" d="M0.8944,650.60126c-1.1925-0.68848-1.1925-1.81152,0-2.5c3.941-2.27533,5.8607-3.44232,7.772-4.60443&#10;&#9;&#9;&#9;c1.9536-1.18652,3.8987-2.36804,7.8904-4.67267c4.1439-2.39252,6.5965-3.40808,8.9645-4.39441&#10;&#9;&#9;&#9;c2.2665-0.9472,4.4146-1.83588,8.2033-4.02332c3.9833-2.29968,6.013-3.42279,8.0596-4.54578&#10;&#9;&#9;&#9;c2.0043-1.1084,4.0171-2.22162,7.9581-4.49689c3.9156-2.26074,5.7931-3.4325,7.6705-4.60443&#10;&#9;&#9;&#9;c1.9197-1.19629,3.8395-2.39252,7.8312-4.69708c3.6619-2.1142,4.9558-3.42761,6.3258-4.82416&#10;&#9;&#9;&#9;c1.5053-1.5332,3.0699-3.12,7.3238-5.57599c4.0847-2.35828,6.4189-3.41296,8.6854-4.42859&#10;&#9;&#9;&#9;c2.2073-0.99121,4.2877-1.92859,8.10179-4.13068c4.0932-2.36322,6.45271-3.4032,8.7361-4.409&#10;&#9;&#9;&#9;c2.2242-0.97162,4.3216-1.89929,8.1188-4.09167c3.7718-2.17773,5.28559-3.41302,6.90089-4.72644&#10;&#9;&#9;&#9;c1.68291-1.37195,3.42511-2.79779,7.569-5.19031c3.7972-2.19226,5.3871-3.4032,7.0701-4.67755&#10;&#9;&#9;&#9;c1.7337-1.32324,3.52661-2.6806,7.61131-5.03894c4.2623-2.46088,7.0363-3.34949,9.73409-4.20398&#10;&#9;&#9;&#9;c2.4187-0.77148,4.7021-1.50378,8.34711-3.60828c3.7803-2.18262,5.33641-3.41302,6.9686-4.71667&#10;&#9;&#9;&#9;c1.70831-1.35736,3.46741-2.75378,7.59441-5.1366c3.94099-2.27533,5.89461-3.42285,7.84808-4.57019&#10;&#9;&#9;&#9;c1.96199-1.15234,3.9241-2.30463,7.882-4.58972c3.9156-2.26068,5.81841-3.42755,7.72971-4.58966&#10;&#9;&#9;&#9;c1.92819-1.18164,3.8649-2.3681,7.84808-4.66785c4.01712-2.31927,6.14832-3.4032,8.2794-4.48718&#10;&#9;&#9;&#9;c2.06351-1.04486,4.12701-2.09949,8.0004-4.33582c3.8987-2.25085,5.75081-3.43738,7.60291-4.61407&#10;&#9;&#9;&#9;c1.9028-1.21576,3.80569-2.43158,7.8058-4.74109c3.9241-2.26559,5.8692-3.41791,7.79739-4.57019&#10;&#9;&#9;&#9;c1.9536-1.1572,3.9071-2.32422,7.8735-4.61414c4.1947-2.42178,6.8248-3.36417,9.362-4.27228&#10;&#9;&#9;&#9;c2.34259-0.8447,4.56677-1.64059,8.25409-3.76944c3.73801-2.15808,5.20111-3.41299,6.75711-4.74109&#10;&#9;&#9;&#9;c1.64072-1.40622,3.34048-2.86609,7.49289-5.26352c3.86493-2.23141,5.64932-3.43738,7.42532-4.63849&#10;&#9;&#9;&#9;c1.86899-1.25479,3.7211-2.50967,7.7551-4.83871c4.12701-2.38269,6.59653-3.37878,8.98141-4.34558&#10;&#9;&#9;&#9;c2.27499-0.92282,4.41458-1.78699,8.16949-3.95499c3.8226-2.207,5.46323-3.39832,7.20538-4.65811&#10;&#9;&#9;&#9;c1.77603-1.2793,3.61111-2.61218,7.67053-4.9559l15.76389-9.10129c3.85638-2.22647,5.6239-3.4325,7.383-4.6434&#10;&#9;&#9;&#9;c1.85211-1.26462,3.70419-2.52917,7.74658-4.8631c4.11011-2.37299,6.52881-3.38858,8.86301-4.37488&#10;&#9;&#9;&#9;c2.24109-0.94238,4.36377-1.83591,8.1441-4.0184c4.10172-2.36807,6.50348-3.3837,8.82919-4.37488&#10;&#9;&#9;&#9;c2.24109-0.94238,4.35541-1.84079,8.13568-4.02328c3.60272-2.08002,4.82053-3.40808,6.09747-4.81918&#10;&#9;&#9;&#9;c1.38693-1.50391,2.94302-3.21283,7.20541-5.67374c4.02548-2.32422,6.20749-3.38858,8.3978-4.44806&#10;&#9;&#9;&#9;c2.08038-1.01559,4.16931-2.02631,8.0173-4.24792c3.9917-2.3046,6.09747-3.39349,8.20331-4.4823&#10;&#9;&#9;&#9;c2.03812-1.05948,4.08481-2.11417,7.96649-4.35532c3.96631-2.29001,6.00449-3.40808,8.02573-4.52621&#10;&#9;&#9;&#9;c2.01276-1.10352,4.00858-2.20697,7.92419-4.46759c3.74646-2.16299,5.23489-3.41299,6.79938-4.73621&#10;&#9;&#9;&#9;c1.65759-1.39639,3.3743-2.83679,7.51831-5.2294c4.2962-2.48041,7.30688-3.35931,9.97089-4.13559&#10;&#9;&#9;&#9;c2.47791-0.71771,4.8121-1.40131,8.40631-3.47641c3.70416-2.13861,5.10797-3.41791,6.58798-4.76059&#10;&#9;&#9;&#9;c1.59839-1.4502,3.24747-2.9491,7.4252-5.36121c3.84787-2.22162,5.54779-3.39832,7.3407-4.64832s3.66193-2.54388,7.70428-4.87781&#10;&#9;&#9;&#9;c4.2962-2.48038,7.32379-3.35928,9.99634-4.13071c2.46948-0.71289,4.81207-1.39148,8.40625-3.46667&#10;&#9;&#9;&#9;c3.78033-2.18262,5.35333-3.4032,7.00244-4.69711c1.72516-1.33789,3.50122-2.72449,7.61133-5.0975&#10;&#9;&#9;&#9;c3.8902-2.246,5.74225-3.42282,7.59442-4.59949c1.90277-1.20602,3.80566-2.41202,7.80579-4.72153&#10;&#9;&#9;&#9;c3.84784-2.22159,5.61548-3.42758,7.383-4.63367c1.84357-1.25974,3.68726-2.5195,7.72125-4.84851&#10;&#9;&#9;&#9;c3.86493-2.23141,5.6662-3.42761,7.45911-4.61902c1.87756-1.24017,3.73798-2.48038,7.75513-4.79971&#10;&#9;&#9;&#9;c1.19238-0.68848,3.13757-0.68839,4.33008,0c1.1925,0.68842,1.1925,1.81152,0,2.5&#10;&#9;&#9;&#9;c-3.86487,2.23141-5.6662,3.42761-7.45911,4.61902c-1.8775,1.2402-3.73798,2.48038-7.75507,4.79971&#10;&#9;&#9;&#9;c-3.8479,2.22159-5.61554,3.42761-7.383,4.6337c-1.84363,1.2597-3.68732,2.5195-7.72131,4.84851&#10;&#9;&#9;&#9;c-3.89868,2.25089-5.75079,3.42758-7.60291,4.6044c-1.90277,1.20602-3.80566,2.41202-7.79736,4.71671&#10;&#9;&#9;&#9;c-3.78882,2.18738-5.36169,3.40808-7.01093,4.702c-1.72522,1.33789-3.50122,2.72449-7.60291,5.09259&#10;&#9;&#9;&#9;c-4.2962,2.48038-7.32379,3.35928-9.99628,4.13068c-2.46948,0.71289-4.81207,1.39151-8.40631,3.46671&#10;&#9;&#9;&#9;c-3.83948,2.21667-5.53937,3.39352-7.32379,4.63846c-1.80981,1.2597-3.67883,2.55362-7.72128,4.88763&#10;&#9;&#9;&#9;c-3.70419,2.13861-5.09961,3.41302-6.57953,4.75571c-1.59839,1.4502-3.24747,2.9491-7.43369,5.36609&#10;&#9;&#9;&#9;c-4.2962,2.48041-7.30692,3.35931-9.97089,4.13559c-2.47794,0.71771-4.8121,1.40131-8.40631,3.47641&#10;&#9;&#9;&#9;c-3.74649,2.16302-5.22641,3.40811-6.79102,4.73129c-1.65759,1.39642-3.37427,2.83679-7.52667,5.23419&#10;&#9;&#9;&#9;c-3.96631,2.29001-6.00452,3.40808-8.02573,4.52621c-2.01279,1.10352-4.00858,2.207-7.92419,4.46759&#10;&#9;&#9;&#9;c-4.00021,2.30948-6.10599,3.39828-8.21176,4.48718c-2.03815,1.05948-4.08484,2.11417-7.95813,4.35049&#10;&#9;&#9;&#9;c-4.034,2.32901-6.21588,3.39352-8.40628,4.45303c-2.08038,1.01559-4.16931,2.02628-8.00882,4.24301&#10;&#9;&#9;&#9;c-3.61118,2.08487-4.82892,3.41299-6.1059,4.8241c-1.44614,1.57712-2.93463,3.20789-7.1969,5.66879&#10;&#9;&#9;&#9;c-4.11011,2.37302-6.5119,3.38858-8.83759,4.3797c-2.24109,0.94238-4.35541,1.84079-8.1272,4.0184&#10;&#9;&#9;&#9;c-4.11862,2.37787-6.53729,3.3934-8.8714,4.3797c-2.24109,0.94238-4.36377,1.83588-8.13568,4.01346&#10;&#9;&#9;&#9;c-3.85638,2.2265-5.6239,3.43253-7.383,4.6434c-1.85211,1.26462-3.70419,2.52917-7.74658,4.8631l-15.76392,9.10129&#10;&#9;&#9;&#9;c-3.82257,2.207-5.4632,3.39828-7.20538,4.65811c-1.776,1.2793-3.61108,2.61218-7.6705,4.95587&#10;&#9;&#9;&#9;c-4.12701,2.38272-6.59653,3.37881-8.98141,4.34561c-2.27499,0.92282-4.41458,1.78699-8.16949,3.95499&#10;&#9;&#9;&#9;c-3.8649,2.23141-5.64929,3.43738-7.42529,4.63849c-1.86902,1.25482-3.72113,2.5097-7.75513,4.83871&#10;&#9;&#9;&#9;c-3.73801,2.15808-5.1926,3.40808-6.74869,4.73621c-1.64072,1.40622-3.34048,2.86612-7.5014,5.2684&#10;&#9;&#9;&#9;c-4.18619,2.41693-6.81641,3.35931-9.35349,4.2674c-2.34262,0.8447-4.5668,1.64059-8.26251,3.77429&#10;&#9;&#9;&#9;c-3.9325,2.27039-5.87759,3.42282-7.8058,4.57507c-1.9536,1.1572-3.9071,2.32422-7.86499,4.60919&#10;&#9;&#9;&#9;c-3.89021,2.24603-5.74229,3.4325-7.59439,4.60919c-1.90282,1.21576-3.80569,2.43158-7.8143,4.74603&#10;&#9;&#9;&#9;c-4.01711,2.31927-6.1483,3.4032-8.2794,4.48718c-2.06349,1.04486-4.127,2.09949-8.00038,4.33575&#10;&#9;&#9;&#9;c-3.9241,2.26562-5.82689,3.4325-7.7382,4.5946c-1.92821,1.18164-3.8564,2.36322-7.83971,4.66302&#10;&#9;&#9;&#9;c-3.94099,2.27533-5.89461,3.42285-7.8481,4.57019c-1.96199,1.15234-3.9241,2.30463-7.88199,4.58972&#10;&#9;&#9;&#9;c-3.78032,2.18262-5.33641,3.41302-6.9686,4.71667c-1.7083,1.35736-3.46741,2.75378-7.59439,5.1366&#10;&#9;&#9;&#9;c-4.25391,2.45599-7.0278,3.3446-9.71721,4.20398c-2.4187,0.77148-4.71059,1.49902-8.364,3.60828&#10;&#9;&#9;&#9;c-3.78879,2.18744-5.37871,3.39832-7.0616,4.67273c-1.7337,1.32318-3.535,2.68549-7.6198,5.04376&#10;&#9;&#9;&#9;c-3.7718,2.17773-5.2941,3.41791-6.90939,4.73132c-1.68291,1.37201-3.42511,2.79779-7.5606,5.18536&#10;&#9;&#9;&#9;c-4.0932,2.36322-6.4443,3.39832-8.7277,4.40424c-2.23271,0.97644-4.32161,1.89929-8.1272,4.09656&#10;&#9;&#9;&#9;c-4.0847,2.35828-6.4104,3.40808-8.6685,4.41882c-2.2157,0.99609-4.2962,1.93347-8.1188,4.1405&#10;&#9;&#9;&#9;c-3.6619,2.1142-4.9558,3.42755-6.3258,4.8241c-1.5053,1.5332-3.0699,3.12-7.3238,5.57605&#10;&#9;&#9;&#9;c-3.9071,2.25574-5.7846,3.42755-7.6621,4.59949c-1.9197,1.19629-3.8395,2.39246-7.8397,4.70197&#10;&#9;&#9;&#9;c-3.9833,2.29968-6.0214,3.42761-8.068,4.5506c-2.0043,1.1084-4.0171,2.22162-7.9496,4.49213&#10;&#9;&#9;&#9;c-4.1439,2.39252-6.588,3.4032-8.956,4.38947c-2.2665,0.9472-4.4146,1.83594-8.2118,4.0282&#10;&#9;&#9;&#9;c-3.941,2.27527-5.8607,3.44226-7.772,4.60437c-1.9536,1.18652-3.8987,2.3681-7.8904,4.67273&#10;&#9;&#9;&#9;c-1.1924,0.68848-3.1376,0.68842-4.3301,0L0.8944,650.60126z"/><path fill="#BFBFBF" d="M378.90942,868.84839c-1.1925-0.68848-1.1925-1.81152,0-2.5&#10;&#9;&#9;&#9;c3.79718-2.19226,5.5986-3.33966,7.41681-4.48718c1.85211-1.1767,3.71259-2.35834,7.6113-4.60925&#10;&#9;&#9;&#9;c3.78879-2.18738,5.57321-3.34454,7.3576-4.50177c1.85211-1.19629,3.69571-2.38763,7.6113-4.64832&#10;&#9;&#9;&#9;c3.8226-2.20703,5.67471-3.34454,7.51831-4.48724c1.88593-1.15723,3.7634-2.31934,7.66211-4.57019&#10;&#9;&#9;&#9;c3.75488-2.16791,5.38708-3.32513,7.12079-4.55072c1.75061-1.24512,3.56042-2.52435,7.53522-4.81915&#10;&#9;&#9;&#9;c4.10172-2.3681,6.6557-3.29584,9.12521-4.19421c2.2919-0.8252,4.44839-1.61133,8.05963-3.69623&#10;&#9;&#9;&#9;c3.78027-2.18262,5.5563-3.34454,7.33218-4.50665c1.83521-1.20599,3.66193-2.40723,7.58591-4.67273&#10;&#9;&#9;&#9;c3.69571-2.13367,5.21802-3.32507,6.81641-4.58966c1.68289-1.31342,3.4166-2.67572,7.43369-4.995&#10;&#9;&#9;&#9;c4.10175-2.3681,6.6557-3.29584,9.11673-4.19904c2.2919-0.8349,4.44839-1.62103,8.06799-3.71082&#10;&#9;&#9;&#9;c3.7211-2.14844,5.30258-3.32507,6.96863-4.57019c1.7168-1.28412,3.48428-2.60742,7.48453-4.91693&#10;&#9;&#9;&#9;c3.88177-2.24115,5.85229-3.33972,7.82275-4.43835c1.94513-1.09369,3.89874-2.18262,7.73822-4.39935&#10;&#9;&#9;&#9;c3.89868-2.25085,5.92841-3.33484,7.94958-4.42365c1.97894-1.05469,3.95789-2.11908,7.77197-4.32123&#10;&#9;&#9;&#9;c3.92413-2.26562,6.00452-3.33966,8.0849-4.40417c2.01282-1.0351,4.01715-2.06543,7.82281-4.26263&#10;&#9;&#9;&#9;c3.63654-2.09955,5.03192-3.3349,6.50342-4.64343c1.59839-1.40131,3.23059-2.8515,7.31531-5.20978&#10;&#9;&#9;&#9;c3.97479-2.29492,6.20752-3.33972,8.36395-4.35052c2.13965-1.00092,4.14404-1.9433,7.89893-4.11115&#10;&#9;&#9;&#9;c3.97479-2.29492,6.21588-3.3349,8.3725-4.34564c2.13959-0.99121,4.16089-1.93353,7.90729-4.09662&#10;&#9;&#9;&#9;c3.79718-2.19232,5.59009-3.35443,7.383-4.51654c1.85211-1.20599,3.70422-2.40228,7.63672-4.67267l15.45105-8.92059&#10;&#9;&#9;&#9;c3.77179-2.17773,5.51398-3.34955,7.25604-4.52142c1.81836-1.22559,3.63647-2.45111,7.56897-4.72156&#10;&#9;&#9;&#9;c4.00018-2.30945,6.27515-3.33966,8.48248-4.34064c2.14813-0.9765,4.1778-1.89453,7.91577-4.05255&#10;&#9;&#9;&#9;c3.79724-2.19232,5.59863-3.34955,7.39142-4.5116c1.86053-1.19141,3.70422-2.38275,7.62817-4.64832&#10;&#9;&#9;&#9;c3.72968-2.15332,5.30261-3.33484,6.96008-4.58478c1.70831-1.289,3.47583-2.62201,7.4845-4.93634&#10;&#9;&#9;&#9;c4.04254-2.33392,6.42743-3.33002,8.71924-4.29193c2.20728-0.92279,4.29614-1.79681,7.99182-3.93054&#10;&#9;&#9;&#9;c3.85645-2.2265,5.75922-3.34454,7.66211-4.47247c1.91974-1.12793,3.83954-2.26562,7.71283-4.50183&#10;&#9;&#9;&#9;c3.83948-2.21667,5.69159-3.36414,7.55206-4.50665c1.89441-1.17181,3.78033-2.33881,7.68738-4.5946&#10;&#9;&#9;&#9;c3.92413-2.26562,5.9707-3.34955,8.01733-4.43353c1.99591-1.06433,3.9917-2.11902,7.83118-4.33575&#10;&#9;&#9;&#9;c3.86487-2.23138,5.75916-3.3642,7.64514-4.50177c1.91974-1.1474,3.82263-2.29492,7.72137-4.54584&#10;&#9;&#9;&#9;c1.19238-0.68848,3.13757-0.68835,4.33002,0c1.1925,0.68842,1.1925,1.81152,0,2.5&#10;&#9;&#9;&#9;c-3.85638,2.2265-5.75079,3.35931-7.63672,4.49689c-1.91968,1.1474-3.82263,2.29492-7.72968,4.55066&#10;&#9;&#9;&#9;c-3.9325,2.27039-5.97906,3.35437-8.0257,4.43829c-1.99591,1.06439-3.9917,2.11908-7.82275,4.33093&#10;&#9;&#9;&#9;c-3.83954,2.21674-5.68317,3.35931-7.54376,4.50177c-1.89435,1.17181-3.78027,2.33881-7.69592,4.59955&#10;&#9;&#9;&#9;c-3.85638,2.2265-5.75922,3.34454-7.66211,4.47247c-1.91974,1.12793-3.83948,2.26562-7.71277,4.50183&#10;&#9;&#9;&#9;c-4.04254,2.33392-6.42743,3.33002-8.71918,4.29193c-2.20734,0.92279-4.2962,1.79681-7.99188,3.93048&#10;&#9;&#9;&#9;c-3.72107,2.14844-5.29413,3.33002-6.95166,4.58002c-1.70831,1.289-3.48431,2.62689-7.49292,4.94135&#10;&#9;&#9;&#9;c-3.79724,2.19226-5.59857,3.34949-7.39142,4.51154c-1.86053,1.19141-3.71265,2.38763-7.62817,4.64832&#10;&#9;&#9;&#9;c-3.9917,2.30463-6.26672,3.3349-8.474,4.33575c-2.14813,0.9765-4.18616,1.89941-7.92426,4.0575&#10;&#9;&#9;&#9;c-3.77179,2.17773-5.50555,3.34454-7.24768,4.51648c-1.8183,1.22559-3.63647,2.45111-7.57751,4.72644l-15.45105,8.92059&#10;&#9;&#9;&#9;c-3.80566,2.1972-5.59857,3.35931-7.39136,4.52142c-1.85211,1.20593-3.70422,2.40222-7.62823,4.66779&#10;&#9;&#9;&#9;c-3.98328,2.29974-6.22437,3.33972-8.38086,4.35052c-2.13959,0.99121-4.15247,1.92865-7.89893,4.09174&#10;&#9;&#9;&#9;c-3.97479,2.29492-6.20752,3.33966-8.36401,4.35052c-2.13959,1.00085-4.14398,1.94324-7.89886,4.11115&#10;&#9;&#9;&#9;c-3.63654,2.09955-5.03192,3.3349-6.50342,4.64337c-1.59839,1.40131-3.23059,2.8515-7.31531,5.20984&#10;&#9;&#9;&#9;c-3.92407,2.26562-6.00446,3.33972-8.0849,4.40424c-2.01282,1.0351-4.01709,2.06543-7.82281,4.26263&#10;&#9;&#9;&#9;c-3.89868,2.25085-5.91992,3.32996-7.93268,4.41388c-1.98743,1.05951-3.96643,2.12402-7.78888,4.33087&#10;&#9;&#9;&#9;c-3.87329,2.23633-5.84381,3.3349-7.81433,4.43353c-1.94507,1.09369-3.89868,2.18262-7.74658,4.40424&#10;&#9;&#9;&#9;c-3.72107,2.14844-5.30255,3.32513-6.96857,4.57025c-1.7168,1.28412-3.48431,2.60742-7.48453,4.91693&#10;&#9;&#9;&#9;c-4.10172,2.36804-6.6557,3.29578-9.11673,4.19904c-2.2919,0.8349-4.44836,1.62103-8.06799,3.71075&#10;&#9;&#9;&#9;c-3.69571,2.13373-5.21802,3.32513-6.81641,4.58972c-1.68289,1.31342-3.4166,2.67572-7.43372,4.995&#10;&#9;&#9;&#9;c-3.78027,2.18262-5.55627,3.34454-7.33218,4.50665c-1.83521,1.20599-3.6619,2.40723-7.58591,4.67267&#10;&#9;&#9;&#9;c-4.10172,2.3681-6.6557,3.29584-9.12521,4.19421c-2.2919,0.8252-4.44839,1.61133-8.0596,3.69623&#10;&#9;&#9;&#9;c-3.74649,2.16302-5.38712,3.32513-7.12079,4.55072c-1.75061,1.24512-3.56042,2.52429-7.53522,4.81915&#10;&#9;&#9;&#9;c-3.82257,2.20703-5.68311,3.34955-7.52679,4.49213c-1.88593,1.15723-3.7634,2.31934-7.65363,4.56525&#10;&#9;&#9;&#9;c-3.78873,2.18744-5.57321,3.3446-7.3576,4.50183c-1.85211,1.19629-3.69571,2.38763-7.61133,4.64825&#10;&#9;&#9;&#9;c-3.79718,2.19232-5.59857,3.33972-7.41678,4.48724c-1.85211,1.1767-3.71262,2.35834-7.61133,4.60919&#10;&#9;&#9;&#9;c-1.19238,0.68848-3.13757,0.68842-4.33011,0H378.90942z"/><g><path opacity="0.05" d="M923.87964,607.79303c20.5979,11.89215,70.69257,2.25104,111.88953-21.534&#10;&#9;&#9;&#9;&#9;c41.19702-23.78516,57.89587-52.70734,37.29797-64.59955c-20.5979-11.89218-70.69257-2.25104-111.88953,21.534&#10;&#9;&#9;&#9;&#9;C919.98059,566.97864,903.28174,595.90082,923.87964,607.79303z" enable-background="new"/><g><g><path fill="#988F84" d="M1075.27576,510.6402c0,0-3.70935,0.61969-4.34961,0.04977s1.74792-2.98032,1.74792-2.98032&#10;&#9;&#9;&#9;&#9;&#9;&#9;l1.81165,0.95187l0.79004,1.97849V510.6402z"/><path fill="#4A4C56" d="M1083.31897,492.75311c-0.89722-6.181-3.11243-12.11401-9.06738-15.68262&#10;&#9;&#9;&#9;&#9;&#9;&#9;c-9.95105-5.96289-19.61792,2.06189-24.36084,7.72803c-4.74292,5.66611-4.02356,12.8429-16.80188,29.13&#10;&#9;&#9;&#9;&#9;&#9;&#9;c-3.229,4.1156-22.21741,21.89301-12.19067,27.79401c7.21362,4.24548,22.98096-1.98669,35.96704-10.4978&#10;&#9;&#9;&#9;&#9;&#9;&#9;c11.09387-7.271,13.68799-21.96863,16.87659-22.39075c0.50488,0.03821,0.56653,1.7529,1.53394,1.80621&#10;&#9;&#9;&#9;&#9;&#9;&#9;c2.1228,0.11819,11.30737-10.6799,10.59326-13.19464c-0.62988-2.216-0.79517-2.98618-2.55005-4.6925V492.75311z"/></g><path fill="#FFD6D6" d="M1049.33569,446.9173c11.14697,7.86081,14.33057,25.6145,21.73035,30.30981&#10;&#9;&#9;&#9;&#9;&#9;c9.44397,5.99231-3.08923,19.5687-6.99243,20.3046c-0.91614,0.1727-0.33899-2.77069-0.60596-4.79932&#10;&#9;&#9;&#9;&#9;&#9;c-0.30273-2.3013-14.79688-2.55219-16.38135-0.22128c-0.90564,1.33209,2.50708-4.22931,4.71289-6.96271&#10;&#9;&#9;&#9;&#9;&#9;c0.89172-1.10501,1.91711-2.64709,2.11499-3.24692c1.22363-3.70819-19.73022-22.35822-22.19275-24.89511&#10;&#9;&#9;&#9;&#9;&#9;c-2.4624-2.53687,12.79797-13.8855,17.61426-10.4892V446.9173z"/><path fill="#3B435A" d="M930.7569,279.5304c45.18195,79.20569,43.77563,135.31598,74.55756,125.95929&#10;&#9;&#9;&#9;&#9;&#9;c30.78198-9.35669-13.80737-131.1449-37.71045-159.99219C943.70087,216.65021,930.7569,279.5304,930.7569,279.5304z"/><path fill="#3B435A" d="M974.0166,374.78458c-10.13293,28.13864,65.42505,110.27521,77.93958,102.38123&#10;&#9;&#9;&#9;&#9;&#9;c14.77869-9.32211,15.84973-14.22821,15.03931-25.21069c-1.23474-16.73111-41.99536-86.58029-65.1098-84.5079&#10;&#9;&#9;&#9;&#9;&#9;c-31.94458,2.86411-27.86908,7.33749-27.86908,7.33749V374.78458z"/></g><path fill="#3B435A" d="M993.97461,271.0368c-54.31445,82.73792-83.63904,163.21368-62.82239,186.39392&#10;&#9;&#9;&#9;&#9;c6.42126,7.1503,29.89886,15.77649,37.33813,1.67111c29.98291-56.84949,39.36365-101.05051,51.71899-120.62582&#10;&#9;&#9;&#9;&#9;c30.13391-47.74289-12.25372-88.73697-26.2348-67.43918L993.97461,271.0368z"/><g><path fill="#988F84" d="M953.91199,634.9397c0,0-3.67468-0.80011-4.05798-1.56671s2.72839-2.11957,2.72839-2.11957&#10;&#9;&#9;&#9;&#9;&#9;l1.32959,1.55591V634.9397z"/><path fill="#4A4C56" d="M968.01501,621.31067c1.4588-6.073,1.60175-12.40436-2.60535-17.92688&#10;&#9;&#9;&#9;&#9;&#9;c-7.03027-9.22791-18.98376-5.36011-25.48975-1.85693c-6.5061,3.50317-8.49933,10.43512-26.40619,20.82233&#10;&#9;&#9;&#9;&#9;&#9;c-4.52496,2.62469-27.62848,14.23279-20.50494,23.4314c5.125,6.6178,20.95557,4.53729,36.17188,1.44867&#10;&#9;&#9;&#9;&#9;&#9;c12.99921-2.63849,20.85876-15.32629,23.97656-14.53583c0.45471,0.22272-0.1239,1.83801,0.75464,2.24622&#10;&#9;&#9;&#9;&#9;&#9;c1.92773,0.89703,14.46161-5.72522,14.73102-8.3255c0.23682-2.29156,0.36902-3.06805-0.62799-5.30347H968.01501z"/></g><path fill="#FFD6D6" d="M958.3905,562.68347c7.43719,11.43402-1.12823,32.55981,4.00281,39.66449&#10;&#9;&#9;&#9;&#9;c6.54834,9.0672-10.12573,17.02783-14.02356,16.26385c-0.91492-0.17932,0.71277-2.69891,1.2171-4.68182&#10;&#9;&#9;&#9;&#9;c0.57233-2.24951-12.79541-7.85742-15.13135-6.28033c-1.33502,0.90143,3.89679-2.99799,6.95874-4.71851&#10;&#9;&#9;&#9;&#9;c1.23785-0.69556,2.76208-1.74738,3.16833-2.23108c2.5116-2.98999-5.09393-31.53802-6.44012-34.80719&#10;&#9;&#9;&#9;&#9;c-1.34619-3.26923,17.03461-8.14948,20.24792-3.20941H958.3905z"/><path fill="#3B435A" d="M935.93207,396.49622c-16.02313,2.51678-20.33148,158.90729-7.96869,197.7619&#10;&#9;&#9;&#9;&#9;c1.27985,4.02228,35.87506,10.01147,40.71228-5.04022c3.02533-9.41357,0.11816-44.25769,0.11816-53.87&#10;&#9;&#9;&#9;&#9;c0-24.98163,23.32599-147.67719-32.86176-138.85162V396.49622z"/><g><path fill="#FFD0D2" d="M882.67285,250.455c-0.31012-5.8474-2.07153-17.1201-9.62347-15.31911&#10;&#9;&#9;&#9;&#9;&#9;s-25.31659,12.32889-13.79309,24.8074c11.34625,12.2865,24.26105,6.4386,23.4165-9.4883H882.67285z"/><path fill="#FFD0D2" d="M911.42676,194.52881c-9.72546-1.46179-40.55707,56.55679-39.98816,63.9133&#10;&#9;&#9;&#9;&#9;&#9;c0.11078,1.4324,4.08215,4.49182,7.0437,2.73331c14.2749-8.47638,37.4881-45.2354,39.33636-55.22009&#10;&#9;&#9;&#9;&#9;&#9;C920.05035,193.89911,911.42676,194.52881,911.42676,194.52881z"/></g><path fill="#FFD0D2" d="M925.15533,113.6967c-7.96594,10.7431-29.94659,90.81169-13.54767,94.1855&#10;&#9;&#9;&#9;&#9;c11.17828,2.2998,26.09125-37.00729,35.36346-72.48271c9.50952-36.3828-13.84985-32.446-21.8158-21.7029V113.6967z"/><path fill="#F59E0B" d="M936.35077,209.1548c0,0-51.32233-28.42291-36.0542-47.8412&#10;&#9;&#9;&#9;&#9;c5.32928-6.77791,10.55377-71.23531,52.25659-74.28281c4.76764-0.3484-2.21356,112.16179-16.20233,122.12401H936.35077z"/><path opacity="0.05" fill="#FFFFFF" d="M935.69165,250.7057&#10;&#9;&#9;&#9;&#9;c0,3.46291,0.54944,8.35469-1.84369,7.7502c-3.435-0.86758-12.44489-4.9364-12.2439-7.04041&#10;&#9;&#9;&#9;&#9;c0.20105-2.10399,0.39996-9.3532,1.06207-8.34109c0.76172,1.1642,11.54156,7.92209,13.02563,7.6313H935.69165z" enable-background="new"/><g><polygon fill="#CCCCD5" points="944.89191,105.1822 944.89191,105.1822 945.45056,102.053"/><path fill="#F59E0B" d="M924.37305,134.0574c-0.54175-14.35631,7.39282-43.4801,31.22131-48.1096&#10;&#9;&#9;&#9;&#9;&#9;c29.82495,0.6232,31.48645,4.2307,42.25769,8.8112c10.77112,4.5805,22.20654,23.0516,23.22485,34.5507&#10;&#9;&#9;&#9;&#9;&#9;c0.58356,6.58929,0.99866,15.5791,0.97412,19.8575c-0.09857,17.21782-3.90094,21.98521-1.59082,64.6924&#10;&#9;&#9;&#9;&#9;&#9;c0.36743,6.79082,5.13354,26.41171,9.2301,43.90451c3.11731,13.3114,8.01526,36.7265,8.12268,40.97949&#10;&#9;&#9;&#9;&#9;&#9;c-6.58972,3.73389-10.27771,8.96231-17.8125,13.14111c-7.93213,4.39911-18.04791-10.29843-27.85846-11.37021&#10;&#9;&#9;&#9;&#9;&#9;c-25.30731-2.76471-35.85608,13.5264-56.85931-0.79422c-10.67859-7.28098-10.56519-8.38919-8.6228-17.77719&#10;&#9;&#9;&#9;&#9;&#9;c1.33881-6.4707-1.45306-17.63229-0.80933-27.0253c0.67096-9.78929-1.19958-24.8952-0.0979-35.9099&#10;&#9;&#9;&#9;&#9;&#9;c4.92249-49.21751-0.83789-70.59419-1.37964-84.95039V134.0574z"/><path opacity="0.1" d="M997.89294,205.1956c1.04688-36.28171,13.91003-50.4789,24.15808-56.0285&#10;&#9;&#9;&#9;&#9;&#9;c-0.09857,17.2178-3.90094,21.98521-1.59082,64.6924c0.36743,6.7908,5.13354,26.41171,9.2301,43.90451&#10;&#9;&#9;&#9;&#9;&#9;C1014.38135,252.9059,996.89423,239.8091,997.89294,205.1956z" enable-background="new"/><path fill="#FFC5C8" d="M953.3233,90.31181c2.10712-2.38631,4.53406-2.46081,4.53406-2.46081s0.0484-9.3568,0.08978-10.1135&#10;&#9;&#9;&#9;&#9;&#9;l27.23779-2.433c0,0,0.57898,15.3626,2.61963,16.75161c3.88037,2.6412,10.67017,1.4493,8.67017,7.4493&#10;&#9;&#9;&#9;&#9;&#9;c-1.99994,6.00001-26.04431,15.4201-37.04425,11.4201C948.43048,106.9255,951.21619,92.6981,953.3233,90.31181z"/><g><path fill="#FFD3D4" d="M927.77643,29.7258c-5.74738,9.999,3.52026,31.2199,3.52026,31.2199s1.14893,26.6413,26.00421,31.4593&#10;&#9;&#9;&#9;&#9;&#9;&#9;c19.75928,3.8302,33.26373-18.3794,33.26373-18.3794s18.49902-54.8476-15.63818-62.1603s-41.40277,7.8615-47.15009,17.8604&#10;&#9;&#9;&#9;&#9;&#9;&#9;L927.77643,29.7258z"/><path fill="#3C4358" d="M944.32739,4.5857c22.909-10.0002,39.1853-1.4506,41.15735,4.8984&#10;&#9;&#9;&#9;&#9;&#9;&#9;c6.91101,1.8173,13.91705,8.3967,15.63245,20c3.30365,22.3476-10.55237,44.5416-10.55237,44.5416&#10;&#9;&#9;&#9;&#9;&#9;&#9;s-4.91797-5.7806-1.42969-5.6834c4.41199,0.1229,6.95221-17.1549,1.63385-21.8602&#10;&#9;&#9;&#9;&#9;&#9;&#9;c-5.3183-4.7052-8.13312,14.4501-8.13312,14.4501l-2.76001,5.4651l-3.00977-11.9651c0,0-3.10028-0.7673-9.28784-7.8414&#10;&#9;&#9;&#9;&#9;&#9;&#9;c-5.51654-6.3071-23.56757-11.0426-28.06677-9.1606c-4.7793,1.9992-12.7558,9.031-12.45148,10.241l0.8739,3.8798&#10;&#9;&#9;&#9;&#9;&#9;&#9;c0,0-3.685-4.2985-5.30566-9.8933c-1.6474-5.6871-5.28033-25.2947,21.69922-37.0718L944.32739,4.5857z"/></g></g><g><g><path fill="#FFD0D2" d="M1014.47351,154.30051c-3.0246,13.0278-46.5918,85.16409-59.78473,74.85611&#10;&#9;&#9;&#9;&#9;&#9;&#9;c-8.99292-7.02641,5.1355-50.67712,26.15607-80.7207c21.55823-30.812,36.65332-7.16321,33.62872,5.86459H1014.47351z"/><path fill="#FFD0D2" d="M976.1969,218.224c2.71698,13.96579-91.05896,63.15109-96.83929,49.37289&#10;&#9;&#9;&#9;&#9;&#9;&#9;c-2.71552-6.4729,61.44574-48.44209,79.81854-54.35089s17.02075,4.97801,17.02075,4.97801V218.224z"/></g><path fill="#F59E0B" d="M1012.38501,108.36449c1.03247-0.9874,18.40466,29.09409,13.49414,47.07619&#10;&#9;&#9;&#9;&#9;&#9;c-2.75012,10.0714-5.68451,41.8978-30.06592,54.3945c-11.46362,5.8757-13.90137,12.8537-21.13617,15.28259&#10;&#9;&#9;&#9;&#9;&#9;c0,0-32.87775,0.84538-33.51019-30.502c0,0,22.21411-63.4801,26.28314-71.5867c0,0,43.23956-13.0433,44.93494-14.66451&#10;&#9;&#9;&#9;&#9;&#9;L1012.38501,108.36449z"/></g><g><path fill="#666666" d="M790.57996,634.87012c-1.13672,0.37396-2.78156,0.03058-3.67389-0.76691&#10;&#9;&#9;&#9;&#9;&#9;s-0.69415-1.74719,0.44269-2.12122c1.1369-0.37396,2.78162-0.03058,3.67395,0.76691S791.71686,634.49609,790.57996,634.87012z"/><path fill="#FFB0B0" d="M787.33337,618.61072c2.8009-0.92145,6.8537-0.0755,9.05225,1.88959&#10;&#9;&#9;&#9;&#9;&#9;c0.42352,0.37848,0.74506,0.77094,0.97186,1.16437l10.43329-22.151l-22.51483-4.69946l0.70111,24.47485&#10;&#9;&#9;&#9;&#9;&#9;c0.36517-0.26984,0.81677-0.50085,1.35626-0.67834H787.33337z"/><path fill="#666666" d="M786.24268,623.8371c-0.05017-0.04492-0.09167-0.09082-0.13922-0.13611l0.263,9.1828l5.19568,1.08453&#10;&#9;&#9;&#9;&#9;&#9;l3.91443-8.31061c-0.06152,0.02252-0.1178,0.04791-0.18176,0.06903c-2.8009,0.92139-6.8537,0.0755-9.05225-1.88959&#10;&#9;&#9;&#9;&#9;&#9;L786.24268,623.8371z"/><path fill="#FFB0B0" d="M796.38574,620.50031c-2.19849-1.96503-6.25134-2.81104-9.05231-1.88959&#10;&#9;&#9;&#9;&#9;&#9;c-0.53949,0.17749-0.99115,0.40851-1.35626,0.67834l0.1264,4.41193c0.04742,0.04529,0.08905,0.09119,0.13922,0.13611&#10;&#9;&#9;&#9;&#9;&#9;c2.19849,1.96497,6.25134,2.81097,9.05231,1.88959c0.0639-0.021,0.12018-0.04651,0.1817-0.06897l1.88086-3.99304&#10;&#9;&#9;&#9;&#9;&#9;c-0.22687-0.39343-0.54834-0.78589-0.97186-1.16437H796.38574z"/><path fill="#CED7E3" d="M903.12305,142.7854l-0.07568-0.0159c0.46997-1.7175-0.19177-3.68651-2.21448-5.4944&#10;&#9;&#9;&#9;&#9;&#9;c-3.86719-3.45581-10.99371-4.9438-15.92041-3.3228c-2.5769,0.84779-3.97083,2.38829-4.22729,4.1498l-0.0769-0.0159&#10;&#9;&#9;&#9;&#9;&#9;l-95.33203,456.72791l0.1062,0.02203c-0.52112,1.73773,0.10742,3.73901,2.16553,5.57861&#10;&#9;&#9;&#9;&#9;&#9;c3.86597,3.45581,10.99487,4.94379,15.92041,3.32281c2.62207-0.86243,3.9978-2.44513,4.21509-4.24561l0.10742,0.02197&#10;&#9;&#9;&#9;&#9;&#9;l95.33203-456.72852L903.12305,142.7854z"/></g><path fill="#FFD0D2" d="M857.2702,242.3156c2.5675-4.7184,6.83508-7.6971,10.23822-0.7603&#10;&#9;&#9;&#9;&#9;c3.40308,6.9368,1.14697,18.29819-5.09381,18.37439s-7.40961-4.0125-7.52319-6.5117&#10;&#9;&#9;&#9;&#9;c-0.11359-2.49919,2.37878-11.10229,2.37878-11.10229V242.3156z"/><path fill="#FFD0D2" d="M885.54541,238.133c-7.0614-0.0005-19.0119,5.8783-11.25189,8.5246&#10;&#9;&#9;&#9;&#9;c7.76001,2.64632,12.37085,0.34541,12.37097-2.49638c0.00018-2.8418-1.11908-6.02811-1.11908-6.02811V238.133z"/><path fill="#FFD0D2" d="M879.96436,260.41611c-3.69696,2.89771-13.91119,8.66891-16.8089,7.46991&#10;&#9;&#9;&#9;&#9;c-2.89777-1.19901-5.69543,11.29089-4.29651,14.28848c1.39893,2.99762,16.38678,6.69461,22.08221-0.59949&#10;&#9;&#9;&#9;&#9;s4.61865-20.3595,4.5188-21.65851C885.36011,258.61752,879.96436,260.41611,879.96436,260.41611z"/></g><path fill="#CFCFCF" d="M617.79944,604.15442l-172.96832-99.86334c-4.7868-2.7637-4.7869-7.2363-0.00031-9.99988&#10;&#9;&#9;&#9;c4.78662-2.76361,12.53342-2.76349,17.32031,0.00012l172.96826,99.86328c4.7868,2.76367,4.78693,7.23627,0.00031,9.99988&#10;&#9;&#9;&#9;c-4.78656,2.76361-12.53339,2.76349-17.32025-0.00012V604.15442z"/><g><polygon fill="#FFFFFF" points="705.41455,930.79034 502.16129,910.83948 526.89722,826.82446 730.15063,846.77527"/><path fill="#C6C6C6" d="M723.08801,849.66846l-22.68347,77.04407l-191.18076-18.76581l22.6835-77.04407L723.08801,849.66846&#10;&#9;&#9;&#9;&#9; M730.15131,846.77551l-203.25482-19.95105l-24.73587,84.01501l203.25479,19.95099L730.15131,846.77551L730.15131,846.77551z"/></g><g><g><polygon fill="#FFFFFF" points="624.20618,689.5069 430.77881,577.83148 462.68201,559.41217 656.10938,671.08759"/><path fill="#C6C6C6" d="M647.44879,671.08752l-23.2431,13.41937L439.43741,577.83093l23.2431-13.41943L647.44879,671.08752&#10;&#9;&#9;&#9;&#9;&#9; M656.10901,671.08759l-193.4285-111.67603l-31.90311,18.41931L624.20587,689.5069l31.90314-18.41925l0,0V671.08759z"/></g><g><polygon fill="#FFFFFF" points="558.487,727.45001 365.05951,615.7746 422.72882,582.47919 616.15619,694.1546"/><path fill="#C6C6C6" d="M607.49567,694.15454l-49.00897,28.29535L373.71841,615.77386l49.009-28.29535l184.76831,106.67603&#10;&#9;&#9;&#9;&#9;&#9; M616.15582,694.15454l-193.4285-111.67603l-57.66901,33.29523l193.4285,111.67596L616.15582,694.15454L616.15582,694.15454z"/></g></g><path fill="#E7E7EE" d="M418.84839,213.12741l-46.28943,75.09479l130.07001,26.72751l46.28943-75.0948L418.84839,213.12741z&#10;&#9;&#9;&#9; M453.92108,249.0934c4.40863,0.9059,6.71021,3.7032,5.14148,6.24809c-1.56921,2.54572-6.41418,3.87448-10.82278,2.9686&#10;&#9;&#9;&#9;s-6.71021-3.70319-5.14099-6.2489c1.56873-2.54489,6.4137-3.8736,10.8223-2.9677V249.0934z M421.40179,269.49908l18.11661-7.91968&#10;&#9;&#9;&#9;c1.03821-0.4537,2.3837-0.60272,3.638-0.40039c1.25528,0.20068,2.27719,0.72861,2.7597,1.42599l4.17709,6.01828l19.55051-8.53668&#10;&#9;&#9;&#9;c1.1203-0.48901,2.59152-0.62051,3.91708-0.34863c1.32309,0.271,2.32312,0.90894,2.65689,1.6958l9.0394,21.18671&#10;&#9;&#9;&#9;l-63.85541-13.1214H421.40179z"/><g><g><polygon fill="#FFFFFF" points="349.31641,708.26843 155.88899,596.59302 187.79221,578.17371 381.2196,689.84912"/><path fill="#C6C6C6" d="M372.55902,689.849l-23.2431,13.41943L164.54761,596.59247l23.2431-13.41943L372.55902,689.849&#10;&#9;&#9;&#9;&#9;&#9; M381.21921,689.849l-193.4285-111.67596l-31.90309,18.41931L349.3161,708.26837l31.90311-18.41925l0,0V689.849z"/></g><g><polygon fill="#FFFFFF" points="283.5972,746.21143 90.1698,634.53601 147.839,601.24072 341.26642,712.91614"/><path fill="#C6C6C6" d="M332.6059,712.91589l-49.009,28.29535L98.8286,634.53528l49.009-28.29541L332.6059,712.91589&#10;&#9;&#9;&#9;&#9;&#9; M341.26599,712.91602l-193.4285-111.67596l-57.66901,33.29523l193.4285,111.67596L341.26599,712.91602L341.26599,712.91602z"/></g></g><g><g><g><path fill="#FFD3D4" d="M341.56702,460.73053c6.10455,11.35629-1.77652,94.43488-13.1886,94.43726&#10;&#9;&#9;&#9;&#9;&#9;&#9;c-11.41211,0.00244-9.70312-41.3443-13.05792-76.22168c-3.44067-35.7695,20.142-29.57199,26.24661-18.21558H341.56702z"/><path fill="#EDE6EB" d="M324.13712,443.2735c5.20273,1.51001,20.65714,11.03983,22.0574,19.86722&#10;&#9;&#9;&#9;&#9;&#9;&#9;c1.26932,8.00189-0.06738,7.32181-1.10599,8.03162c-0.918,0.62741-17.16498,17.8356-20.95129,18.2449&#10;&#9;&#9;&#9;&#9;&#9;&#9;c-3.78632,0.40927,0-46.14368,0-46.14368L324.13712,443.2735z"/></g><path opacity="0.05" fill="#1A1A1A" d="M202.7135,720.50079&#10;&#9;&#9;&#9;&#9;&#9;c14.34122-8.27985,49.2196-1.56732,77.90292,14.99298c28.68329,16.5603,40.30991,36.69733,25.96869,44.97729&#10;&#9;&#9;&#9;&#9;&#9;c-14.34119,8.27985-49.21957,1.56726-77.90289-14.99304C199.99892,748.91779,188.37231,728.78076,202.7135,720.50079z" enable-background="new"/><g><path fill="#EDE6EB" d="M227.74969,476.22971c4.03351-7.86801,16.16739-23.91129,19.91389-29.97971&#10;&#9;&#9;&#9;&#9;&#9;&#9;c2.97832-4.82367,11.02238-9.78918,19.86562-11.14447c15.12527-2.31812,19.10239-4.42511,43.08902-0.80743&#10;&#9;&#9;&#9;&#9;&#9;&#9;c4.06479,0.6131,20.55301,6.9104,26.37006,16.8317c7.84171,13.37527-4.8038,22.58517-10.8255,42.90298&#10;&#9;&#9;&#9;&#9;&#9;&#9;c-6.02167,20.31781-37.3739,14.14163-42.14789,47.66711c-4.96912,34.89551-48.9162,34.05627-66.3372,29.45789&#10;&#9;&#9;&#9;&#9;&#9;&#9;c-17.4211-4.5979-7.52141-14.02631-16.7411-16.54529c-9.21909-2.51996-4.7388-21.38562-0.28589-29.59442&#10;&#9;&#9;&#9;&#9;&#9;&#9;c0.81509-1.50269,1.6353-3.2478,2.44519-5.30157c1.39099-3.52747,8.06451-8.33801,9.31601-14.06262&#10;&#9;&#9;&#9;&#9;&#9;&#9;c2.7011-12.35199,13.4977-25.83511,15.3378-29.42438V476.22971z"/><path opacity="0.05" d="M262.03369,467.91119c-5.6745,35.3999-32.87158,48.2998-58.9379,51.80548&#10;&#9;&#9;&#9;&#9;&#9;&#9;c1.39099-3.52747,8.0645-8.33801,9.31601-14.06262c2.7011-12.35199,13.1514-25.28708,15.3378-29.42438&#10;&#9;&#9;&#9;&#9;&#9;&#9;c4.1311-7.8172,16.16739-23.91129,19.91389-29.97971c9.24831,5.7233,15.84279,12.47421,14.37019,21.6611V467.91119z" enable-background="new"/></g><g><g><path fill="#3C4358" d="M241.2291,705.87531c0.90561,4.63141,8.12059,19.58966,2.24939,20.20477&#10;&#9;&#9;&#9;&#9;&#9;&#9;&#9;c-5.8712,0.61517-20.16719-8.42822-25.3107-19.35345c-4.09781-8.70404,6.5166-32.52997,6.5166-32.52997&#10;&#9;&#9;&#9;&#9;&#9;&#9;&#9;s-6.7019,8.62775-8.547,8.375c-1.84509-0.25281-1.18839-2.76813-0.37689-3.66058&#10;&#9;&#9;&#9;&#9;&#9;&#9;&#9;c0.81149-0.89252,8.9276-9.37543,9.4803-10.85553c0.55272-1.4801,4.5714-5.41846,7.0097-5.45636&#10;&#9;&#9;&#9;&#9;&#9;&#9;&#9;c2.43829-0.0379,5.92259-0.31702,9.89839,3.40448c3.9758,3.72144-2.9595,29.44031-0.9198,39.87158V705.87531z"/><path fill="#FFD3D4" d="M271.61182,642.35077c-12.66809,3.31879-25.62532,17.68939-37.60272,20.08368&#10;&#9;&#9;&#9;&#9;&#9;&#9;&#9;c-3.97011,0.79364-9.0679,17.89459-9.31949,25.22498c-0.16391,4.77454,1.55849,18.85852,10.42439,19.2132&#10;&#9;&#9;&#9;&#9;&#9;&#9;&#9;c5.67169,0.22693,10.71851-27.43585,10.03111-33.26398c-0.43921-3.72333,34.00699-14.8761,37.0748-16.32898&#10;&#9;&#9;&#9;&#9;&#9;&#9;&#9;s-5.13461-16.36292-10.608-14.92889H271.61182z"/></g><path fill="#3C4358" d="M369.73419,592.21991c0,0-45.80411,20.67078-116.92441,47.94739&#10;&#9;&#9;&#9;&#9;&#9;&#9;c-4.03239,1.54663-2.6407,18.68713-1.13638,23.08698c1.8394,5.38013,12.12839,17.46802,19.4288,14.12213&#10;&#9;&#9;&#9;&#9;&#9;&#9;c41.87689-19.19281,114.30627-5.98187,123.63531-29.67853c11.36819-28.87659-25.0032-55.47797-25.0032-55.47797H369.73419z"/><path fill="#3C4358" d="M271.56329,561.9231c87.90381,27.3963,111.27621,19.08551,124.13214,57.8952&#10;&#9;&#9;&#9;&#9;&#9;&#9;c7.466,22.53851-12.17233,41.65363-19.57971,38.59595c-27.22018-11.23627-49.60941-30.19562-90.62329-53.90387&#10;&#9;&#9;&#9;&#9;&#9;&#9;c-55.20961-31.91425-41.4024-51.14954-13.9292-42.5871L271.56329,561.9231z"/><path opacity="0.1" fill="#1A1A1A" d="M269.5799,574.36389&#10;&#9;&#9;&#9;&#9;&#9;&#9;c-0.15091-8.20996,58.08932,31.42963,74.47064,43.51721c21.47479,15.84607,29.51825,33.07068-0.71652,45.5014&#10;&#9;&#9;&#9;&#9;&#9;&#9;c-30.2348,12.43073-50.73709,9.69745-22.88632-2.93518c27.85092-12.63269,28.2645-5.63861,24.51801-18.82697&#10;&#9;&#9;&#9;&#9;&#9;&#9;c-3.74649-13.18842-75.16492-55.22614-75.38589-67.25641L269.5799,574.36389z" enable-background="new"/></g><g><g><path fill="#3C4358" d="M293.53021,783.15619c3.97879,2.53754,19.78748,7.62592,16.18469,12.30243&#10;&#9;&#9;&#9;&#9;&#9;&#9;&#9;c-3.60281,4.67651-20.01001,8.79498-31.46933,4.98718c-9.12961-3.03363-19.06717-27.14978-19.06717-27.14978&#10;&#9;&#9;&#9;&#9;&#9;&#9;&#9;s1.62781,10.80304,0.17249,11.96509c-1.45532,1.16199-2.82431-1.04791-2.91119-2.25098&#10;&#9;&#9;&#9;&#9;&#9;&#9;&#9;c-0.08691-1.20312-0.63461-12.93054-1.3255-14.35144c-0.6909-1.4209-0.7724-7.04712,0.88141-8.83923&#10;&#9;&#9;&#9;&#9;&#9;&#9;&#9;c1.65381-1.79205,3.8541-4.50812,9.29089-4.82159s19.28223,22.44299,28.24371,28.15826V783.15619z"/><path fill="#FFD3D4" d="M268.47058,717.34979c-6.33109,11.46344-4.85709,30.75665-11.38159,41.08258&#10;&#9;&#9;&#9;&#9;&#9;&#9;&#9;c-2.16261,3.42261,6.7081,18.90619,11.84378,24.14294c3.345,3.41077,14.73331,11.87445,21.1033,5.69769&#10;&#9;&#9;&#9;&#9;&#9;&#9;&#9;c4.07513-3.95142-12.48038-26.68054-17.17548-30.20123c-2.99951-2.24927,12.67401-34.88763,13.73697-38.11133&#10;&#9;&#9;&#9;&#9;&#9;&#9;&#9;C287.66055,716.73682,271.20599,712.39685,268.47058,717.34979L268.47058,717.34979z"/></g><path fill="#3C4358" d="M308.31439,611.88318c0,0-25.1066,47.2608-54.3895,117.5788&#10;&#9;&#9;&#9;&#9;&#9;&#9;c-1.66031,3.987,11.71371,14.79761,15.93759,16.74188c5.16501,2.37744,21.01431,3.26025,23.62473-4.33423&#10;&#9;&#9;&#9;&#9;&#9;&#9;c14.97409-43.5639,65.40829-81.54773,54.6781-104.64368c-13.0759-28.14459-39.85089-25.34271-39.85089-25.34271&#10;&#9;&#9;&#9;&#9;&#9;&#9;L308.31439,611.88318z"/><path fill="#3C4358" d="M247.4225,562.71979c75.87151,47.0199,65.8387,30.22882,94.98012,64.02271&#10;&#9;&#9;&#9;&#9;&#9;&#9;c15.50528,17.98077-1.21262,49.98206-16.31451,49.76556c-10.34641-0.14832-10.74472-0.49731-23.2514-9.49152&#10;&#9;&#9;&#9;&#9;&#9;&#9;c-23.0863-16.60266-61.0466-30.61664-87.64909-45.99432c-55.20959-31.91418,7.77451-73.4613,32.2348-58.30249&#10;&#9;&#9;&#9;&#9;&#9;&#9;L247.4225,562.71979z"/></g><path fill="#3C4358" d="M275.93939,574.93762c0,0,13.10361-10.80005,8.64011-20.27814&#10;&#9;&#9;&#9;&#9;&#9;c-1.80948-3.84229,3.08243-15.98981,0.729-16.50458c-1.23898-0.271-27.30988,16.32672-56.33408,9.26733&#10;&#9;&#9;&#9;&#9;&#9;c-16.53951-4.02283-30.85422-14.58582-31.62653-14.09271c-0.77229,0.49304-2.4408,13.41156-2.4408,13.41156&#10;&#9;&#9;&#9;&#9;&#9;c-18.45439,44.15851,13.0798,69.65131,13.0798,69.65131l67.95261-41.45477H275.93939z"/><path fill="#EDE6EB" d="M283.07339,537.30493c-0.8201,1.30847-1.05569,0.74078-1.96188,2.35809&#10;&#9;&#9;&#9;&#9;&#9;c-0.90619,1.61725-4.66681,4.62476-6.97971,5.38849c-0.49039,0.16199-11.634,4.56378-16.38959,3.89496&#10;&#9;&#9;&#9;&#9;&#9;c-1.8929-0.26617-16.2838-1.94739-15.8885-2.56726c2.1324-3.34332,38.76201-9.17102,39.42421-9.90527&#10;&#9;&#9;&#9;&#9;&#9;c0.99631-1.10461,1.79559,0.83087,1.79559,0.83087L283.07339,537.30493z"/><g><path fill="#FFC9CA" d="M322.36487,430.4425c0.20911,6.61542,2.3515,14.431-2.93857,15.73688&#10;&#9;&#9;&#9;&#9;&#9;&#9;c-5.2901,1.30591-15.79984-3.86792-19.17853-7.25128s1.2048-14.45499,2.89722-15.5152&#10;&#9;&#9;&#9;&#9;&#9;&#9;c1.69241-1.06024,19.21988,7.02966,19.21988,7.02966V430.4425z"/><path fill="#3C4358" d="M357.1709,407.59091c-1.61096,2.9277-5.17072,5.9404-6.5416,7.6731&#10;&#9;&#9;&#9;&#9;&#9;&#9;c-7.86679,9.94049-12.63617,35.22839-12.8363,38.46631c-0.3176,5.13379-28.52209-26.85458-22.09561-44.08002&#10;&#9;&#9;&#9;&#9;&#9;&#9;c1.72211-4.61588,10.00281-27.73639,25.97403-41.07919C341.67142,368.57111,358.78189,404.66321,357.1709,407.59091z"/><path fill="#EDE6EB" d="M324.73782,441.83047c0,0-0.95911-2.37363-1.46933-2.30627&#10;&#9;&#9;&#9;&#9;&#9;&#9;c-0.51019,0.06732-0.98169,3.0271-3.50909,3.28671c-2.52737,0.25958-20.63971-8.73083-21.30939-8.40881&#10;&#9;&#9;&#9;&#9;&#9;&#9;c-0.66968,0.32199-8.12091,5.83905-6.90302,6.7168c1.21793,0.87772,19.20959,9.64227,28.03082,8.32291&#10;&#9;&#9;&#9;&#9;&#9;&#9;c8.8212-1.3194,5.16-7.61121,5.16-7.61121V441.83047z"/><path opacity="0.05" d="M324.73782,441.83047c0,0-0.95911-2.37363-1.46933-2.30627&#10;&#9;&#9;&#9;&#9;&#9;&#9;c-0.51019,0.06732-0.98169,3.0271-3.50909,3.28671c-2.52737,0.25958-20.63971-8.73083-21.30939-8.40881&#10;&#9;&#9;&#9;&#9;&#9;&#9;c-0.66968,0.32199-8.12091,5.83905-6.90302,6.7168c1.21793,0.87772,19.20959,9.64227,28.03082,8.32291&#10;&#9;&#9;&#9;&#9;&#9;&#9;c8.8212-1.3194,5.16-7.61121,5.16-7.61121V441.83047z" enable-background="new"/><path fill="#FFD3D4" d="M353.91479,415.46027c-6.19861,17.32733-19.55591,31.85699-36.88321,25.65845&#10;&#9;&#9;&#9;&#9;&#9;&#9;c-17.3273-6.19861-29.62491-29.13962-23.4263-46.46692s25.2702-26.34882,42.59741-20.15018&#10;&#9;&#9;&#9;&#9;&#9;&#9;c17.32721,6.19861,23.91071,23.63138,17.7121,40.95871V415.46027z"/><path fill="#3C4358" d="M354.8779,424.46191c0,0-23.47882-2.06021-36.09619-8.70721&#10;&#9;&#9;&#9;&#9;&#9;&#9;c-12.6174-6.647-22.53152,30.41382-22.84912,35.54749s-25.59839-26.12701-26.12219-33.86908&#10;&#9;&#9;&#9;&#9;&#9;&#9;c-0.52383-7.7421,28.16351-68.0618,60.9126-57.63834c47.02222,14.9664,24.155,64.66708,24.155,64.66708L354.8779,424.46191z"/></g><path fill="#FFD3D4" d="M322.03769,544.60992c-5.64279,12.77917,55.49869,67.92578,60.23523,62.1839&#10;&#9;&#9;&#9;&#9;&#9;c4.24252-5.14288-33.18481-54.77954-45.84833-63.78223C323.76111,534.00891,322.03769,544.60992,322.03769,544.60992z"/><g><g><path fill="#FFD3D4" d="M237.3448,469.50101c-4.2305,12.68747,16.748,102.23856,28.02531,100.48721&#10;&#9;&#9;&#9;&#9;&#9;&#9;&#9;c11.27728-1.7514,3.01828-49.07489,0.80008-85.6749C263.8952,446.77722,241.57539,456.81351,237.3448,469.50101z"/><path fill="#FFD3D4" d="M258.95929,557.00067c-8.46091,11.43854,57.8121,87.41461,64.26001,82.96039&#10;&#9;&#9;&#9;&#9;&#9;&#9;&#9;c5.77542-3.98956-32.70969-66.89368-46.75342-80.13177c-14.04367-13.2381-17.50668-2.82861-17.50668-2.82861H258.95929z"/><path fill="#FFD3D4" d="M331.88309,633.05151c-2.77301-3.76129-9.34299-8.06152-16.17801-4.9881&#10;&#9;&#9;&#9;&#9;&#9;&#9;&#9;c-7.09747,3.19141-3.5687,15.14886-2.25308,17.43225c8.9465,15.52838,15.42911,13.74872,21.43341,11.67963&#10;&#9;&#9;&#9;&#9;&#9;&#9;&#9;s2.76932-16.29541-3.00229-24.12378H331.88309z"/></g><path fill="#EDE6EB" d="M267.98138,481.82269c-2.1283,4.77032-23.45358-15.34119-28.26538-14.33331&#10;&#9;&#9;&#9;&#9;&#9;&#9;c-3.82152,0.80042-3.3898,7.10272-3.3898,7.10272s-4.79201-5.84491-1.88271-14.05078&#10;&#9;&#9;&#9;&#9;&#9;&#9;c2.63599-7.435,19.71451-20.74292,23.54781-22.90811c3.83328-2.16519,16.4816,29.6398,9.99008,44.18961V481.82269z"/></g><path fill="#FFD3D4" d="M374.76682,607.87573c-1.48349-6.51361,5.67758-7.6698,9.55811-6.77832&#10;&#9;&#9;&#9;&#9;&#9;c3.88049,0.89148,15.87839,9.15112,16.46591,17.27893c0.58749,8.12775-11.65323,11.35938-17.23499,5.87555&#10;&#9;&#9;&#9;&#9;&#9;c-5.58179-5.48383-7.74609-11.79712-8.789-16.3761L374.76682,607.87573z"/></g><path fill="#DDDDEE" d="M395.42432,601.66467l74.75171,92.31067l-84.61261,51.05634l-74.75168-92.31073l84.61261-51.05627&#10;&#9;&#9;&#9;&#9;H395.42432z M358.60168,658.85803l36.70139,45.32251l8.0545-25.58344c0.3027-0.94464,0.03152-2.07239-0.72571-3.00745&#10;&#9;&#9;&#9;&#9;c-0.7756-0.9577-1.918-1.57379-3.05191-1.65753l-19.845-1.42023l1.13892-8.08142c0.12469-0.86151-0.18149-1.81488-0.8208-2.60437&#10;&#9;&#9;&#9;&#9;c-0.05649-0.06982-0.11551-0.13837-0.17722-0.20532c-0.75818-0.83685-1.82831-1.3761-2.87897-1.44409L358.60168,658.85803&#10;&#9;&#9;&#9;&#9; M395.86621,655.07684c-2.53632-3.13214-6.91312-4.26495-9.78421-2.53253c-2.86441,1.72839-3.13528,5.66583-0.59897,8.79785&#10;&#9;&#9;&#9;&#9;c2.53027,3.12463,6.90707,4.25751,9.77136,2.52905c2.87103-1.73242,3.14203-5.6698,0.61169-8.79443"/><path fill="#FFD6D6" d="M321.67029,642.25378c6.98932,6.52637,13.84961,8.56506,16.4256,5.3656&#10;&#9;&#9;&#9;&#9;s-6.8627-10.82806-10.54218-12.53308s-11.28699,2.12189-5.88348,7.16748H321.67029z"/><path fill="#FFD6D6" d="M376.83411,610.25928c4.26102,8.56079,9.97269,12.87311,13.5062,10.77838&#10;&#9;&#9;&#9;&#9;c3.53354-2.09473-2.63568-12.54578-5.48499-15.4314c-2.84933-2.88556-11.31531-1.96545-8.02109,4.65302H376.83411z"/></g><g><polygon opacity="0.05" enable-background="new" points="694.89636,711.35077 665.58649,747.20105 1024.32507,850.06781 &#10;&#9;&#9;&#9;&#9;1053.63501,814.21741"/><g><g><path fill="#697A94" d="M685.77081,740.40106c0.30536-0.36554,0.05072-0.80389-0.55035-0.97614&#10;&#9;&#9;&#9;&#9;&#9;&#9;c-0.62097-0.17804-1.36804-0.02698-1.67322,0.33862l-6.01764,7.20416l0.00641,2.00702l2.22382,0.6377l-0.00647-2.00708&#10;&#9;&#9;&#9;&#9;&#9;&#9;l6.01758-7.20422L685.77081,740.40106z"/><path fill="#697A94" d="M688.60205,745.276c-0.62103-0.17822-1.35809-0.03882-1.66351,0.32672l-2.73785,3.27789&#10;&#9;&#9;&#9;&#9;&#9;&#9;l0.00641,2.00708l2.24377,0.64337l-0.00641-2.00708l2.73792-3.27789&#10;&#9;&#9;&#9;&#9;&#9;&#9;C689.48755,745.88062,689.22302,745.45404,688.60205,745.276z"/><path fill="#697A94" d="M695.27332,747.18878c-0.60101-0.17224-1.33832-0.03302-1.64355,0.33258l-2.7381,3.27783&#10;&#9;&#9;&#9;&#9;&#9;&#9;l0.00647,2.00708l2.22357,0.63763l-0.00641-2.00708l2.73792-3.27777c0.30536-0.3656,0.04089-0.79211-0.58008-0.97034&#10;&#9;&#9;&#9;&#9;&#9;&#9;L695.27332,747.18878z"/><path fill="#697A94" d="M701.96448,749.10754c-0.62103-0.17804-1.35834-0.03888-1.66351,0.32666l-2.7381,3.27789&#10;&#9;&#9;&#9;&#9;&#9;&#9;l0.00647,2.00708l2.22363,0.63763l-0.00647-2.00708l2.73792-3.27783c0.30542-0.36554,0.04089-0.79211-0.56006-0.96448&#10;&#9;&#9;&#9;&#9;&#9;&#9;L701.96448,749.10754z"/><path fill="#697A94" d="M708.63574,751.02045c-0.62122-0.17804-1.3584-0.03864-1.66364,0.3269l-2.73785,3.27789&#10;&#9;&#9;&#9;&#9;&#9;&#9;l0.00641,2.00708l2.24377,0.64331l-0.00641-2.00708l2.73792-3.27783c0.30542-0.36548,0.04089-0.79205-0.58008-0.97028&#10;&#9;&#9;&#9;&#9;&#9;&#9;H708.63574z"/><path fill="#697A94" d="M719.16656,749.97711c0.30518-0.36554,0.05072-0.80389-0.57031-0.98187&#10;&#9;&#9;&#9;&#9;&#9;&#9;c-0.60095-0.1723-1.34808-0.02124-1.6535,0.34436l-6.01752,7.2041l0.00641,2.00708l2.22357,0.6377l-0.00641-2.00708&#10;&#9;&#9;&#9;&#9;&#9;&#9;l6.01758-7.20422L719.16656,749.97711z"/><path fill="#697A94" d="M721.99792,754.85205c-0.62103-0.17822-1.35834-0.03882-1.66351,0.32672l-2.7381,3.27789&#10;&#9;&#9;&#9;&#9;&#9;&#9;l0.00647,2.00708l2.22357,0.63763l-0.00641-2.00708l2.73792-3.27789c0.30536-0.36548,0.04089-0.79205-0.56012-0.96442&#10;&#9;&#9;&#9;&#9;&#9;&#9;L721.99792,754.85205z"/><path fill="#697A94" d="M728.66913,756.76489c-0.62115-0.17798-1.35834-0.03857-1.66351,0.3269l-2.7381,3.27783&#10;&#9;&#9;&#9;&#9;&#9;&#9;l0.00647,2.00708l2.24359,0.64337l-0.00641-2.00702l2.73785-3.27783c0.30542-0.3656,0.04089-0.79211-0.58008-0.97034H728.66913&#10;&#9;&#9;&#9;&#9;&#9;&#9;z"/><path fill="#697A94" d="M735.34009,758.67792c-0.60083-0.1723-1.33807-0.03302-1.64349,0.33246l-2.73785,3.27789&#10;&#9;&#9;&#9;&#9;&#9;&#9;l0.00635,2.00708l2.22388,0.63763l-0.00653-2.00702l2.7381-3.27789c0.30518-0.36554,0.04089-0.79211-0.58026-0.97009&#10;&#9;&#9;&#9;&#9;&#9;&#9;L735.34009,758.67792z"/><path fill="#697A94" d="M742.03131,760.59637c-0.62103-0.17798-1.35809-0.03857-1.66351,0.32697l-2.73785,3.27783&#10;&#9;&#9;&#9;&#9;&#9;&#9;l0.00641,2.00708l2.22357,0.63751l-0.00641-2.00702l2.73792-3.27783&#10;&#9;&#9;&#9;&#9;&#9;&#9;C742.89679,761.19537,742.63232,760.7688,742.03131,760.59637z"/><path fill="#697A94" d="M752.56232,759.55322c0.30518-0.36554,0.05072-0.80389-0.57025-0.98193&#10;&#9;&#9;&#9;&#9;&#9;&#9;c-0.62122-0.17798-1.36816-0.02692-1.67352,0.33868l-6.01764,7.20416l0.00647,2.00708l2.24384,0.64337l-0.00647-2.00708&#10;&#9;&#9;&#9;&#9;&#9;&#9;l6.01758-7.20422V759.55322z"/><path fill="#697A94" d="M755.37354,764.42236c-0.60089-0.17242-1.33813-0.03302-1.64355,0.33252l-2.73785,3.27789&#10;&#9;&#9;&#9;&#9;&#9;&#9;l0.00641,2.00702l2.22382,0.6377l-0.00641-2.00708l2.73792-3.27789c0.30536-0.36554,0.04089-0.79205-0.58032-0.97003V764.42236&#10;&#9;&#9;&#9;&#9;&#9;&#9;z"/><path fill="#697A94" d="M762.06482,766.341c-0.62103-0.17798-1.35834-0.03857-1.66357,0.32697l-2.73792,3.27777&#10;&#9;&#9;&#9;&#9;&#9;&#9;l0.00641,2.00708l2.22382,0.63763l-0.00647-2.00702l2.7381-3.27783c0.30518-0.3656,0.04071-0.79205-0.56006-0.96454&#10;&#9;&#9;&#9;&#9;&#9;&#9;L762.06482,766.341z"/><path fill="#697A94" d="M768.7359,768.25391c-0.62103-0.17822-1.35809-0.03882-1.66351,0.32672l-2.73792,3.27789&#10;&#9;&#9;&#9;&#9;&#9;&#9;l0.00641,2.00708l2.24384,0.64337l-0.00641-2.00708l2.73785-3.27789&#10;&#9;&#9;&#9;&#9;&#9;&#9;C769.62134,768.85852,769.35681,768.43195,768.7359,768.25391z"/><path fill="#697A94" d="M775.4071,770.16675c-0.60095-0.17224-1.33826-0.03284-1.64355,0.33258l-2.7381,3.27783&#10;&#9;&#9;&#9;&#9;&#9;&#9;l0.00653,2.00708l2.22357,0.63763l-0.00641-2.00708l2.73785-3.27777c0.30542-0.36554,0.04089-0.79211-0.58002-0.97034&#10;&#9;&#9;&#9;&#9;&#9;&#9;L775.4071,770.16675z"/><path fill="#697A94" d="M785.93805,769.12354c0.30536-0.36554,0.05072-0.80389-0.55035-0.9762&#10;&#9;&#9;&#9;&#9;&#9;&#9;c-0.62097-0.17798-1.36804-0.02692-1.67322,0.33868l-6.01764,7.20416l0.00641,2.00702l2.22382,0.6377l-0.00641-2.00708&#10;&#9;&#9;&#9;&#9;&#9;&#9;l6.01752-7.20422L785.93805,769.12354z"/><path fill="#697A94" d="M788.76941,773.99847c-0.62122-0.17822-1.3584-0.03882-1.66364,0.32672l-2.73785,3.27789&#10;&#9;&#9;&#9;&#9;&#9;&#9;l0.00641,2.00702l2.24377,0.64343l-0.00641-2.00708l2.73792-3.27789c0.30542-0.36554,0.04089-0.79205-0.58008-0.97009&#10;&#9;&#9;&#9;&#9;&#9;&#9;H788.76941z"/><path fill="#697A94" d="M795.44055,775.91132c-0.60101-0.17224-1.33813-0.03302-1.64355,0.33258l-2.73792,3.27783&#10;&#9;&#9;&#9;&#9;&#9;&#9;l0.00647,2.00708l2.22357,0.63763l-0.00641-2.00708l2.73785-3.27777c0.30542-0.3656,0.04089-0.79211-0.58002-0.97034V775.91132&#10;&#9;&#9;&#9;&#9;&#9;&#9;z"/><path fill="#697A94" d="M802.13159,777.82996c-0.62103-0.17798-1.35834-0.03882-1.66351,0.32672l-2.7381,3.27789&#10;&#9;&#9;&#9;&#9;&#9;&#9;l0.00647,2.00708l2.22357,0.63763l-0.00641-2.00708l2.73792-3.27789c0.30536-0.36548,0.04089-0.79205-0.56012-0.96442&#10;&#9;&#9;&#9;&#9;&#9;&#9;L802.13159,777.82996z"/><path fill="#697A94" d="M808.8028,779.7428c-0.62115-0.17798-1.35834-0.03857-1.66357,0.3269l-2.73792,3.27795l0.00641,2.00702&#10;&#9;&#9;&#9;&#9;&#9;&#9;l2.24384,0.64331l-0.00641-2.00702l2.73785-3.27783c0.30542-0.36554,0.04089-0.79211-0.58002-0.97034H808.8028z"/><path fill="#697A94" d="M819.33374,778.69958c0.30518-0.36554,0.05072-0.80396-0.57031-0.98193&#10;&#9;&#9;&#9;&#9;&#9;&#9;c-0.60095-0.17224-1.34814-0.02118-1.6535,0.34442l-6.01752,7.2041l0.00635,2.00708l2.22388,0.63763l-0.00653-2.00702&#10;&#9;&#9;&#9;&#9;&#9;&#9;l6.01764-7.20422V778.69958z"/><path fill="#697A94" d="M822.16498,783.57452c-0.62103-0.17822-1.35809-0.03882-1.66351,0.32672l-2.73785,3.27783&#10;&#9;&#9;&#9;&#9;&#9;&#9;l0.00641,2.00708l2.22357,0.6377l-0.00641-2.00708l2.73792-3.27789c0.30536-0.36554,0.04089-0.79205-0.56012-0.96442V783.57452&#10;&#9;&#9;&#9;&#9;&#9;&#9;z"/><path fill="#697A94" d="M828.83618,785.48737c-0.62097-0.17798-1.35828-0.03864-1.66345,0.3269l-2.73816,3.27783&#10;&#9;&#9;&#9;&#9;&#9;&#9;l0.00647,2.00708l2.24384,0.64337l-0.00647-2.00708l2.7381-3.27783&#10;&#9;&#9;&#9;&#9;&#9;&#9;C829.72168,786.09204,829.45715,785.66559,828.83618,785.48737z"/><path fill="#697A94" d="M835.50726,787.40027c-0.60089-0.17224-1.33807-0.03302-1.64349,0.33252l-2.73792,3.27789&#10;&#9;&#9;&#9;&#9;&#9;&#9;l0.00641,2.00702l2.22382,0.6377l-0.00641-2.00708l2.73792-3.27789c0.30518-0.36554,0.04089-0.79205-0.58032-0.97003V787.40027&#10;&#9;&#9;&#9;&#9;&#9;&#9;z"/><path fill="#697A94" d="M842.19855,789.31891c-0.62115-0.17798-1.35834-0.03857-1.66357,0.32697l-2.73785,3.27783&#10;&#9;&#9;&#9;&#9;&#9;&#9;l0.00635,2.00708l2.22388,0.63751l-0.00653-2.00702l2.7381-3.27783c0.30518-0.36554,0.04071-0.79211-0.56006-0.96454H842.19855&#10;&#9;&#9;&#9;&#9;&#9;&#9;z"/><path fill="#697A94" d="M852.72949,788.2757c0.30542-0.36554,0.05072-0.80389-0.57031-0.98193&#10;&#9;&#9;&#9;&#9;&#9;&#9;c-0.62115-0.17798-1.3681-0.02692-1.67346,0.33868l-6.01758,7.2041l0.00641,2.00708l2.24384,0.64343l-0.00641-2.00708&#10;&#9;&#9;&#9;&#9;&#9;&#9;l6.01752-7.20422V788.2757z"/><path fill="#697A94" d="M855.54077,793.1449c-0.60095-0.17242-1.33826-0.03302-1.64355,0.33252l-2.7381,3.27789&#10;&#9;&#9;&#9;&#9;&#9;&#9;l0.00653,2.00702l2.22357,0.6377l-0.00641-2.00708l2.73785-3.27789c0.30542-0.36554,0.04089-0.79205-0.58002-0.97003&#10;&#9;&#9;&#9;&#9;&#9;&#9;L855.54077,793.1449z"/><path fill="#697A94" d="M862.23199,795.06342c-0.62103-0.17804-1.35834-0.03864-1.66364,0.3269l-2.73785,3.27783&#10;&#9;&#9;&#9;&#9;&#9;&#9;l0.00641,2.00702l2.22382,0.6377l-0.00641-2.00708l2.73792-3.27783c0.30536-0.3656,0.04089-0.79205-0.56012-0.96448&#10;&#9;&#9;&#9;&#9;&#9;&#9;L862.23199,795.06342z"/><path fill="#697A94" d="M868.9032,796.97638c-0.62122-0.17798-1.35834-0.03882-1.66357,0.32672l-2.73792,3.27789&#10;&#9;&#9;&#9;&#9;&#9;&#9;l0.00641,2.00702l2.24384,0.64343l-0.00641-2.00708l2.73785-3.27789c0.30542-0.36554,0.04089-0.79205-0.58008-0.97009H868.9032&#10;&#9;&#9;&#9;&#9;&#9;&#9;z"/><path fill="#697A94" d="M875.57422,798.88922c-0.60101-0.17224-1.33813-0.0329-1.64355,0.33258l-2.73792,3.27783&#10;&#9;&#9;&#9;&#9;&#9;&#9;l0.00647,2.00708l2.22357,0.63763l-0.00641-2.00708l2.73785-3.27777c0.30542-0.36554,0.04089-0.79211-0.58002-0.97034&#10;&#9;&#9;&#9;&#9;&#9;&#9;V798.88922z"/><path fill="#697A94" d="M886.1051,797.84601c0.30542-0.36554,0.05078-0.80389-0.55023-0.9762&#10;&#9;&#9;&#9;&#9;&#9;&#9;c-0.62103-0.17798-1.3681-0.02692-1.67352,0.33868l-6.01758,7.2041l0.00647,2.00708l2.22363,0.6377l-0.00647-2.00708&#10;&#9;&#9;&#9;&#9;&#9;&#9;l6.01758-7.20422L886.1051,797.84601z"/><path fill="#697A94" d="M888.93665,802.72089c-0.62122-0.17822-1.3584-0.03888-1.66364,0.32666l-2.73785,3.27789&#10;&#9;&#9;&#9;&#9;&#9;&#9;l0.00641,2.00708l2.24377,0.64337l-0.00641-2.00702l2.73792-3.27795c0.30542-0.36548,0.04089-0.79205-0.58008-0.97003&#10;&#9;&#9;&#9;&#9;&#9;&#9;H888.93665z"/><path fill="#697A94" d="M895.6076,804.63379c-0.60095-0.17224-1.33813-0.03302-1.64349,0.33258l-2.73792,3.27777&#10;&#9;&#9;&#9;&#9;&#9;&#9;l0.00641,2.00708l2.22382,0.6377l-0.00647-2.00708l2.7381-3.27783c0.30518-0.3656,0.04089-0.79205-0.58026-0.97028&#10;&#9;&#9;&#9;&#9;&#9;&#9;L895.6076,804.63379z"/><path fill="#697A94" d="M902.29883,806.55249c-0.62103-0.17798-1.35815-0.03882-1.66351,0.32672l-2.73792,3.27789&#10;&#9;&#9;&#9;&#9;&#9;&#9;l0.00641,2.00708l2.22363,0.63763l-0.00647-2.00708l2.73792-3.27789c0.30542-0.36548,0.04089-0.79205-0.56006-0.96442&#10;&#9;&#9;&#9;&#9;&#9;&#9;V806.55249z"/><path fill="#697A94" d="M908.97003,808.46527c-0.62103-0.17798-1.35834-0.03864-1.66351,0.3269l-2.7381,3.27789&#10;&#9;&#9;&#9;&#9;&#9;&#9;l0.00647,2.00708l2.24384,0.64331l-0.00653-2.00708l2.7381-3.27783C909.85547,809.07007,909.591,808.64349,908.97003,808.46527&#10;&#9;&#9;&#9;&#9;&#9;&#9;z"/><path fill="#697A94" d="M919.50085,807.42212c0.30542-0.36554,0.05078-0.80396-0.57025-0.98193&#10;&#9;&#9;&#9;&#9;&#9;&#9;c-0.60101-0.17224-1.34814-0.02118-1.65332,0.34442l-6.01758,7.2041l0.00641,2.00708l2.22382,0.63763l-0.00641-2.00702&#10;&#9;&#9;&#9;&#9;&#9;&#9;l6.01752-7.20422L919.50085,807.42212z"/><path fill="#697A94" d="M922.33228,812.297c-0.62115-0.17822-1.35828-0.03882-1.66357,0.32666l-2.73785,3.27789&#10;&#9;&#9;&#9;&#9;&#9;&#9;l0.00641,2.00708l2.22382,0.63763l-0.00653-2.00702l2.73816-3.27789c0.30518-0.36554,0.04065-0.79211-0.56006-0.96448&#10;&#9;&#9;&#9;&#9;&#9;&#9;L922.33228,812.297z"/><path fill="#697A94" d="M929.00336,814.20984c-0.62103-0.17798-1.35809-0.03864-1.66351,0.3269l-2.73785,3.27783&#10;&#9;&#9;&#9;&#9;&#9;&#9;l0.00641,2.00708l2.24377,0.64337l-0.00647-2.00708l2.7381-3.27783c0.30518-0.3656,0.04071-0.79205-0.58026-0.97028H929.00336z"/><path fill="#697A94" d="M935.67456,816.1228c-0.60095-0.17224-1.33826-0.03302-1.64349,0.33252l-2.7381,3.27789&#10;&#9;&#9;&#9;&#9;&#9;&#9;l0.00647,2.00702l2.22357,0.6377l-0.00641-2.00708l2.73792-3.27789c0.30542-0.36554,0.04089-0.79205-0.58008-0.97003&#10;&#9;&#9;&#9;&#9;&#9;&#9;L935.67456,816.1228z"/><path fill="#697A94" d="M942.36572,818.04138c-0.62103-0.17798-1.35834-0.03857-1.66357,0.3269l-2.73792,3.27789&#10;&#9;&#9;&#9;&#9;&#9;&#9;l0.00641,2.00708l2.22382,0.63751l-0.00641-2.00708l2.73792-3.27783c0.30518-0.36548,0.04065-0.79205-0.56012-0.96448&#10;&#9;&#9;&#9;&#9;&#9;&#9;H942.36572z"/><path fill="#697A94" d="M952.89661,816.99823c0.30536-0.36554,0.05072-0.80389-0.57031-0.98193&#10;&#9;&#9;&#9;&#9;&#9;&#9;c-0.62103-0.17798-1.3681-0.02692-1.67352,0.33868l-6.01764,7.2041l0.00653,2.00708l2.24377,0.64343l-0.00641-2.00708&#10;&#9;&#9;&#9;&#9;&#9;&#9;l6.01758-7.20422V816.99823z"/><path fill="#697A94" d="M955.70801,821.86737c-0.60095-0.17242-1.33813-0.03302-1.64355,0.33246l-2.73785,3.27795&#10;&#9;&#9;&#9;&#9;&#9;&#9;l0.00641,2.00702l2.22357,0.6377l-0.00641-2.00708l2.73792-3.27789c0.30542-0.36554,0.04089-0.79211-0.58008-0.97009V821.86737&#10;&#9;&#9;&#9;&#9;&#9;&#9;z"/><path fill="#697A94" d="M962.39905,823.78595c-0.62103-0.17804-1.35834-0.03888-1.66357,0.3269l-2.73792,3.27783&#10;&#9;&#9;&#9;&#9;&#9;&#9;l0.00647,2.00702l2.22375,0.6377l-0.00635-2.00708l2.73785-3.27783c0.30542-0.3656,0.04089-0.79205-0.56006-0.96448&#10;&#9;&#9;&#9;&#9;&#9;&#9;L962.39905,823.78595z"/><path fill="#697A94" d="M969.07031,825.69891c-0.62109-0.17798-1.3584-0.03882-1.66364,0.32672l-2.73785,3.27789&#10;&#9;&#9;&#9;&#9;&#9;&#9;l0.00641,2.00702l2.24377,0.64343l-0.00641-2.00708l2.73792-3.27789c0.30518-0.36554,0.04089-0.79205-0.58008-0.97009&#10;&#9;&#9;&#9;&#9;&#9;&#9;H969.07031z"/><path fill="#697A94" d="M975.74152,827.61194c-0.6012-0.17242-1.33832-0.03308-1.64355,0.33246l-2.7381,3.27789&#10;&#9;&#9;&#9;&#9;&#9;&#9;l0.00647,2.00708l2.22363,0.63751l-0.00653-2.00708l2.7381-3.27777&#10;&#9;&#9;&#9;&#9;&#9;&#9;C976.62671,828.21649,976.36243,827.78992,975.74152,827.61194z"/><path fill="#697A94" d="M986.27246,826.56854c0.30518-0.36554,0.05072-0.80389-0.55035-0.9762&#10;&#9;&#9;&#9;&#9;&#9;&#9;c-0.62103-0.17798-1.36835-0.02692-1.67352,0.33868l-6.01758,7.2041l0.00641,2.00708l2.22382,0.6377l-0.00641-2.00708&#10;&#9;&#9;&#9;&#9;&#9;&#9;l6.01764-7.20422V826.56854z"/><path fill="#697A94" d="M989.1037,831.44342c-0.62103-0.17822-1.35834-0.03888-1.66357,0.32666l-2.73792,3.27789&#10;&#9;&#9;&#9;&#9;&#9;&#9;l0.00641,2.00708l2.24384,0.64331l-0.00641-2.00708l2.73785-3.27783c0.30542-0.36548,0.04089-0.79205-0.58002-0.97003H989.1037&#10;&#9;&#9;&#9;&#9;&#9;&#9;z"/><path fill="#697A94" d="M995.7749,833.35632c-0.60095-0.17224-1.33826-0.0329-1.64349,0.33258l-2.73792,3.27777&#10;&#9;&#9;&#9;&#9;&#9;&#9;l0.00641,2.00708l2.22363,0.6377l-0.00647-2.00708l2.73792-3.27783c0.30518-0.3656,0.04089-0.79205-0.58008-0.97028V833.35632z"/><path fill="#697A94" d="M1002.46588,835.27496c-0.62103-0.17798-1.35834-0.03882-1.66351,0.32672l-2.7381,3.27783&#10;&#9;&#9;&#9;&#9;&#9;&#9;l0.00647,2.00708l2.22382,0.6377l-0.00647-2.00708l2.7381-3.27789c0.30518-0.36554,0.04089-0.79205-0.5603-0.96442V835.27496z"/><path fill="#697A94" d="M1009.13708,837.18781c-0.62097-0.17798-1.35828-0.03864-1.66357,0.3269l-2.73785,3.27783&#10;&#9;&#9;&#9;&#9;&#9;&#9;l0.00641,2.00708l2.24377,0.64337l-0.00641-2.00708l2.73792-3.27783c0.30536-0.3656,0.04089-0.79205-0.58008-0.97028&#10;&#9;&#9;&#9;&#9;&#9;&#9;H1009.13708z"/><path fill="#697A94" d="M1019.0979,835.1626c-0.6012-0.1723-1.34814-0.02124-1.6535,0.34436l-6.01752,7.20416l0.00635,2.00702&#10;&#9;&#9;&#9;&#9;&#9;&#9;l2.22363,0.6377l-0.00641-2.00708l6.01752-7.20422c0.30542-0.36548,0.0509-0.80389-0.57007-0.98187V835.1626z"/></g><path fill="#DBEBF4" d="M1052.12634,814.16455l-0.00635-2.00702l-0.00024,0.00018l-356.1543-102.12567l-17.51093,20.96399&#10;&#9;&#9;&#9;&#9;&#9;l-10.94196,13.09949l0.00641,2.00708l10.01678,2.87213l-0.00641-2.00702l6.01752-7.20416&#10;&#9;&#9;&#9;&#9;&#9;c0.30542-0.3656,1.05249-0.51678,1.67352-0.33862c0.60101,0.17224,0.85553,0.61072,0.55035,0.97614l-6.01764,7.20422&#10;&#9;&#9;&#9;&#9;&#9;l0.00647,2.00708l4.44745,1.27533l-0.00647-2.00708l2.73792-3.27789c0.30542-0.36554,1.04248-0.50494,1.66351-0.32672&#10;&#9;&#9;&#9;&#9;&#9;c0.62103,0.17804,0.88544,0.60474,0.58026,0.97009l-2.7381,3.27783l0.00653,2.00708l4.44739,1.27533l-0.00647-2.00708&#10;&#9;&#9;&#9;&#9;&#9;l2.7381-3.27783c0.30518-0.3656,1.04248-0.50488,1.64349-0.33258c0.62103,0.17822,0.8855,0.60474,0.58008,0.97034&#10;&#9;&#9;&#9;&#9;&#9;l-2.73792,3.27783l0.00647,2.00708l4.44739,1.27527l-0.00641-2.00702l2.73785-3.27789&#10;&#9;&#9;&#9;&#9;&#9;c0.30542-0.36554,1.04248-0.50494,1.66357-0.32672c0.60101,0.1723,0.86542,0.59894,0.56012,0.96442l-2.7381,3.27795&#10;&#9;&#9;&#9;&#9;&#9;l0.00647,2.00702l4.44739,1.27533l-0.00641-2.00708l2.73785-3.27783c0.30542-0.36554,1.04248-0.50494,1.66357-0.32697&#10;&#9;&#9;&#9;&#9;&#9;c0.62115,0.17822,0.88544,0.60474,0.58026,0.97034l-2.73785,3.27777l0.00635,2.00708l4.44745,1.27533l-0.00641-2.00702&#10;&#9;&#9;&#9;&#9;&#9;l6.01752-7.20422c0.30542-0.36554,1.05249-0.51666,1.6535-0.34436c0.62103,0.17804,0.87549,0.61658,0.57007,0.98193&#10;&#9;&#9;&#9;&#9;&#9;l-6.01752,7.20422l0.00641,2.00708l4.44763,1.27527l-0.00647-2.00702l2.7381-3.27789&#10;&#9;&#9;&#9;&#9;&#9;c0.30518-0.36554,1.04248-0.50494,1.66351-0.32672c0.60095,0.1723,0.86548,0.59894,0.56006,0.96442l-2.73785,3.27783&#10;&#9;&#9;&#9;&#9;&#9;l0.00641,2.00708l4.44739,1.27533l-0.00641-2.00708l2.73785-3.27777c0.30542-0.3656,1.04248-0.50494,1.66364-0.32697&#10;&#9;&#9;&#9;&#9;&#9;c0.62103,0.17804,0.88544,0.60474,0.58002,0.97034l-2.73785,3.27777l0.00641,2.00708l4.44739,1.27533l-0.00641-2.00702&#10;&#9;&#9;&#9;&#9;&#9;l2.73792-3.27795c0.30536-0.36548,1.04248-0.50488,1.64349-0.33246c0.62122,0.17798,0.8855,0.60468,0.58008,0.97009&#10;&#9;&#9;&#9;&#9;&#9;l-2.73792,3.27789l0.00647,2.00708l4.44763,1.27515l-0.00647-2.00708l2.73792-3.27783&#10;&#9;&#9;&#9;&#9;&#9;c0.30542-0.36548,1.04248-0.50488,1.66351-0.3269c0.60095,0.17242,0.86548,0.59894,0.56006,0.96454l-2.73785,3.27777&#10;&#9;&#9;&#9;&#9;&#9;l0.00641,2.00708l4.44763,1.27533l-0.00653-2.00702l6.01764-7.20416c0.30542-0.3656,1.05231-0.51678,1.67352-0.33868&#10;&#9;&#9;&#9;&#9;&#9;c0.62103,0.17798,0.87549,0.61658,0.57031,0.98193l-6.01764,7.20422l0.00641,2.00702l4.44739,1.27533l-0.00641-2.00708&#10;&#9;&#9;&#9;&#9;&#9;l2.73792-3.27783c0.30536-0.36554,1.04248-0.50494,1.64349-0.33252c0.62122,0.17798,0.8855,0.60474,0.58032,0.97009&#10;&#9;&#9;&#9;&#9;&#9;l-2.73816,3.27783l0.00653,2.00702l4.44739,1.27533l-0.00641-2.00708l2.73792-3.27777&#10;&#9;&#9;&#9;&#9;&#9;c0.30536-0.3656,1.04248-0.50494,1.66345-0.32697c0.60101,0.1723,0.86548,0.59894,0.56012,0.96454l-2.73792,3.27783&#10;&#9;&#9;&#9;&#9;&#9;l0.00641,2.00702l4.44763,1.27539l-0.00641-2.00708l2.73792-3.27789c0.30536-0.36554,1.04248-0.50494,1.66351-0.32672&#10;&#9;&#9;&#9;&#9;&#9;c0.62103,0.17798,0.88544,0.60474,0.58026,0.97009l-2.7381,3.27789l0.00647,2.00708l4.44739,1.27515l-0.00647-2.00702&#10;&#9;&#9;&#9;&#9;&#9;l2.73816-3.27783c0.30518-0.36554,1.04248-0.50494,1.64349-0.33258c0.62103,0.17822,0.88544,0.60468,0.58008,0.97028&#10;&#9;&#9;&#9;&#9;&#9;l-2.73792,3.27783l0.00641,2.00708l4.44739,1.27533l-0.00635-2.00708l6.01758-7.2041&#10;&#9;&#9;&#9;&#9;&#9;c0.30518-0.3656,1.05231-0.51685,1.67328-0.33868c0.60095,0.17224,0.85571,0.61072,0.55029,0.9762l-6.01758,7.20422&#10;&#9;&#9;&#9;&#9;&#9;l0.00647,2.00702l4.44739,1.27533l-0.00641-2.00708l2.73792-3.27783c0.30542-0.36554,1.04248-0.50494,1.66351-0.32672&#10;&#9;&#9;&#9;&#9;&#9;c0.62115,0.17798,0.88544,0.60468,0.58026,0.97009l-2.7381,3.27777l0.00647,2.00708l4.44745,1.27533l-0.00647-2.00702&#10;&#9;&#9;&#9;&#9;&#9;l2.73792-3.27783c0.30542-0.3656,1.04248-0.50494,1.64355-0.33258c0.62097,0.17822,0.88544,0.60468,0.58002,0.97028&#10;&#9;&#9;&#9;&#9;&#9;l-2.73785,3.27783l0.00641,2.00708l4.44763,1.27533l-0.00653-2.00708l2.73816-3.27789&#10;&#9;&#9;&#9;&#9;&#9;c0.30518-0.36548,1.04248-0.50488,1.66351-0.32666c0.60095,0.17224,0.86548,0.59888,0.56006,0.96442l-2.73785,3.27789&#10;&#9;&#9;&#9;&#9;&#9;l0.00635,2.00708l4.44745,1.27533l-0.00641-2.00708l2.73785-3.27789c0.30542-0.36554,1.04248-0.50488,1.66364-0.3269&#10;&#9;&#9;&#9;&#9;&#9;c0.62097,0.17822,0.88544,0.60468,0.58002,0.97028l-2.73785,3.27783l0.00641,2.00708l4.44739,1.27533l-0.00641-2.00708&#10;&#9;&#9;&#9;&#9;&#9;l6.01752-7.20422c0.30542-0.36548,1.05249-0.51666,1.6535-0.3443c0.62109,0.17798,0.87549,0.61652,0.57031,0.98187&#10;&#9;&#9;&#9;&#9;&#9;l-6.01758,7.20422l0.00641,2.00708l4.44763,1.27533l-0.00641-2.00708l2.73785-3.27789&#10;&#9;&#9;&#9;&#9;&#9;c0.30542-0.36548,1.04248-0.50488,1.66351-0.32666c0.60095,0.17224,0.86548,0.59888,0.56006,0.96442l-2.73785,3.27783&#10;&#9;&#9;&#9;&#9;&#9;l0.00641,2.00702l4.44763,1.27539l-0.00647-2.00708l2.7381-3.27783c0.30518-0.3656,1.0423-0.50488,1.66351-0.3269&#10;&#9;&#9;&#9;&#9;&#9;c0.62103,0.17798,0.8855,0.60468,0.58008,0.97028l-2.73792,3.27783l0.00641,2.00708l4.44745,1.27533l-0.00647-2.00708&#10;&#9;&#9;&#9;&#9;&#9;l2.73792-3.27789c0.30542-0.36554,1.04248-0.50494,1.64355-0.33246c0.62115,0.17798,0.88544,0.60468,0.58026,0.97003&#10;&#9;&#9;&#9;&#9;&#9;l-2.7381,3.27789l0.00647,2.00708l4.44739,1.27515l-0.00641-2.00702l2.73792-3.27783&#10;&#9;&#9;&#9;&#9;&#9;c0.30536-0.36554,1.04248-0.50494,1.66351-0.3269c0.60095,0.17242,0.86548,0.59888,0.56006,0.96448l-2.73792,3.27783&#10;&#9;&#9;&#9;&#9;&#9;l0.00647,2.00708l4.44763,1.27533l-0.00647-2.00708l6.01758-7.2041c0.30542-0.3656,1.05231-0.51685,1.67346-0.33868&#10;&#9;&#9;&#9;&#9;&#9;c0.62109,0.17798,0.87549,0.61652,0.57031,0.98187l-6.01758,7.20422l0.00647,2.00708l4.44739,1.27533l-0.00647-2.00708&#10;&#9;&#9;&#9;&#9;&#9;l2.7381-3.27789c0.30518-0.36554,1.04248-0.50488,1.64355-0.33252c0.62103,0.17804,0.88544,0.60474,0.58002,0.97009&#10;&#9;&#9;&#9;&#9;&#9;l-2.73785,3.27783l0.00641,2.00708l4.44739,1.27533l-0.00641-2.00708l2.73792-3.27783&#10;&#9;&#9;&#9;&#9;&#9;c0.30536-0.3656,1.04248-0.50488,1.66357-0.3269c0.60095,0.1723,0.86542,0.59894,0.56006,0.96454l-2.7381,3.27777&#10;&#9;&#9;&#9;&#9;&#9;l0.00647,2.00708l4.44739,1.27533l-0.00635-2.00708l2.73785-3.27789c0.30542-0.36554,1.04248-0.50488,1.66351-0.32666&#10;&#9;&#9;&#9;&#9;&#9;c0.62122,0.17798,0.8855,0.60468,0.58032,0.97003l-2.73816,3.27795l0.00647,2.00702l4.44745,1.27521L871.19226,802.5&#10;&#9;&#9;&#9;&#9;&#9;l2.73785-3.27783c0.30518-0.36548,1.04248-0.50488,1.64355-0.33252c0.62103,0.17822,0.88544,0.60468,0.58002,0.97028&#10;&#9;&#9;&#9;&#9;&#9;l-2.73785,3.27783l0.00641,2.00702l4.44763,1.27539l-0.00647-2.00708l6.01758-7.20416&#10;&#9;&#9;&#9;&#9;&#9;c0.30542-0.3656,1.05237-0.51678,1.67352-0.33868c0.60089,0.1723,0.85547,0.61078,0.55023,0.9762l-6.01752,7.20422&#10;&#9;&#9;&#9;&#9;&#9;l0.00641,2.00708l4.44739,1.27533l-0.00641-2.00708l2.73785-3.27789c0.30542-0.36554,1.04248-0.50488,1.66364-0.32666&#10;&#9;&#9;&#9;&#9;&#9;c0.62103,0.17798,0.88544,0.60468,0.58002,0.97003l-2.73785,3.27783l0.00641,2.00708l4.44739,1.27533l-0.00641-2.00708&#10;&#9;&#9;&#9;&#9;&#9;l2.73792-3.27783c0.30536-0.3656,1.04248-0.50488,1.64349-0.33252c0.62122,0.17822,0.8855,0.60468,0.58008,0.97028&#10;&#9;&#9;&#9;&#9;&#9;l-2.73792,3.27783l0.00647,2.00702l4.44763,1.27539l-0.00647-2.00708l2.73792-3.27789&#10;&#9;&#9;&#9;&#9;&#9;c0.30542-0.36554,1.04248-0.50494,1.66351-0.32672c0.60095,0.1723,0.86548,0.59894,0.56006,0.96448l-2.73785,3.27783&#10;&#9;&#9;&#9;&#9;&#9;l0.00641,2.00708l4.44763,1.27533l-0.00653-2.00702l2.73816-3.27795c0.30518-0.36548,1.0423-0.50488,1.66351-0.3269&#10;&#9;&#9;&#9;&#9;&#9;c0.62103,0.17822,0.88544,0.60474,0.58002,0.97034l-2.73785,3.27783l0.00641,2.00702l4.44739,1.27533l-0.00641-2.00708&#10;&#9;&#9;&#9;&#9;&#9;l6.01764-7.20416c0.30518-0.36554,1.05231-0.51666,1.65326-0.3443c0.62103,0.17798,0.87567,0.61652,0.57031,0.98187&#10;&#9;&#9;&#9;&#9;&#9;l-6.01764,7.20422l0.00653,2.00702l4.44739,1.27539l-0.00641-2.00708l2.73792-3.27789&#10;&#9;&#9;&#9;&#9;&#9;c0.30536-0.36554,1.04248-0.50494,1.66345-0.32672c0.60101,0.1723,0.86548,0.59894,0.56012,0.96448l-2.73792,3.27777&#10;&#9;&#9;&#9;&#9;&#9;l0.00641,2.00708l4.44763,1.27533l-0.00641-2.00708l2.73792-3.27783c0.30536-0.3656,1.04248-0.50488,1.66351-0.3269&#10;&#9;&#9;&#9;&#9;&#9;s0.88544,0.60474,0.58008,0.97034l-2.73792,3.27783l0.00641,2.00702l4.44763,1.27533l-0.00647-2.00708l2.7381-3.27783&#10;&#9;&#9;&#9;&#9;&#9;c0.30518-0.36554,1.04248-0.50494,1.64355-0.33252c0.62097,0.17798,0.88544,0.60474,0.58002,0.97009l-2.73785,3.27789&#10;&#9;&#9;&#9;&#9;&#9;l0.00641,2.00702l4.44739,1.27521l-0.00641-2.00708l2.73792-3.27777c0.30536-0.36554,1.04248-0.50494,1.66357-0.32697&#10;&#9;&#9;&#9;&#9;&#9;c0.60089,0.17242,0.86536,0.59894,0.56006,0.96454l-2.7381,3.27783l0.00647,2.00702l4.44739,1.27533l-0.00647-2.00708&#10;&#9;&#9;&#9;&#9;&#9;l6.01764-7.2041c0.30536-0.3656,1.05231-0.51685,1.67346-0.33868c0.62103,0.17804,0.87561,0.61652,0.57031,0.98193&#10;&#9;&#9;&#9;&#9;&#9;l-6.01758,7.20416l0.00647,2.00708l4.44739,1.27533l-0.00641-2.00702l2.73785-3.27795&#10;&#9;&#9;&#9;&#9;&#9;c0.30542-0.36548,1.04248-0.50488,1.64355-0.33246c0.62103,0.17798,0.8855,0.60468,0.58008,0.97009l-2.73792,3.27777&#10;&#9;&#9;&#9;&#9;&#9;l0.00641,2.00708l4.44745,1.27533l-0.00647-2.00702l2.73792-3.27783c0.30542-0.3656,1.0426-0.50494,1.66357-0.3269&#10;&#9;&#9;&#9;&#9;&#9;c0.60095,0.17236,0.86548,0.59888,0.56006,0.96448l-2.73785,3.27783l0.00641,2.00708l4.44739,1.27527l-0.00641-2.00702&#10;&#9;&#9;&#9;&#9;&#9;l2.73792-3.27789c0.30536-0.36554,1.04248-0.5047,1.66357-0.32672c0.62103,0.17804,0.88531,0.60474,0.58008,0.97009&#10;&#9;&#9;&#9;&#9;&#9;l-2.7381,3.27789l0.00647,2.00708l4.44739,1.27533l-0.00641-2.00708l2.73785-3.27789&#10;&#9;&#9;&#9;&#9;&#9;c0.30542-0.36554,1.04248-0.50488,1.64355-0.33258c0.62122,0.17822,0.8855,0.60474,0.58008,0.97034l-2.73792,3.27777&#10;&#9;&#9;&#9;&#9;&#9;l0.00641,2.00708l4.44745,1.27533l-0.00647-2.00702l6.01764-7.20422c0.30518-0.36554,1.05249-0.51666,1.67352-0.3385&#10;&#9;&#9;&#9;&#9;&#9;c0.60095,0.17224,0.85547,0.61072,0.55023,0.97614l-6.01752,7.20422l0.00635,2.00708l4.44745,1.27533l-0.00641-2.00708&#10;&#9;&#9;&#9;&#9;&#9;l2.73785-3.27789c0.30542-0.36554,1.04266-0.50494,1.66364-0.32672c0.62097,0.17804,0.88525,0.60474,0.58002,0.97009&#10;&#9;&#9;&#9;&#9;&#9;l-2.73785,3.27783l0.00641,2.00708l4.44763,1.27533l-0.00653-2.00708l2.73816-3.27783&#10;&#9;&#9;&#9;&#9;&#9;c0.30518-0.3656,1.0423-0.50488,1.64349-0.33258c0.62103,0.17822,0.88531,0.60474,0.58008,0.97034l-2.7381,3.27783&#10;&#9;&#9;&#9;&#9;&#9;l0.00647,2.00708l4.44739,1.27527l-0.00647-2.00702l2.7381-3.27789c0.30518-0.36554,1.04248-0.50494,1.66351-0.32672&#10;&#9;&#9;&#9;&#9;&#9;c0.6012,0.1723,0.86548,0.59894,0.56006,0.96442l-2.73785,3.27795l0.00641,2.00702l4.44739,1.27521l-0.00641-2.00708&#10;&#9;&#9;&#9;&#9;&#9;l2.73792-3.27783c0.30536-0.36548,1.0426-0.50488,1.66357-0.3269c0.62103,0.17822,0.88544,0.60474,0.58008,0.97034&#10;&#9;&#9;&#9;&#9;&#9;l-2.73792,3.27777l0.00641,2.00708l4.44763,1.27533l-0.00641-2.00708l6.01752-7.2041&#10;&#9;&#9;&#9;&#9;&#9;c0.30542-0.3656,1.05237-0.51685,1.65356-0.34442c0.62103,0.17804,0.87549,0.61652,0.57007,0.98193l-6.01758,7.20416&#10;&#9;&#9;&#9;&#9;&#9;l0.00647,2.00708l10.0166,2.87225h0.00024v-0.00024l10.94177-13.09937l17.51086-20.96393L1052.12634,814.16455z"/><polygon opacity="0.05" enable-background="new" points="1052.12012,812.15753 1034.60925,833.12146 1023.66724,846.22107 &#10;&#9;&#9;&#9;&#9;&#9;1023.67365,848.22821 1034.61548,835.12872 1052.12634,814.16473"/><polygon opacity="0.1" enable-background="new" points="667.51282,744.0954 1023.66724,846.22107 1023.67365,848.22821 &#10;&#9;&#9;&#9;&#9;&#9;667.51904,746.1026"/></g></g></g></g></svg>