<svg xmlns="http://www.w3.org/2000/svg" xmlns:xlink="http://www.w3.org/1999/xlink" version="1.1" id="_レイヤー_2" x="0px" y="0px" viewBox="0 0 605.74463 773.8457" enable-background="new 0 0 605.74463 773.8457" width="606px" height="774px" class="lg:!max-h-[405px] hoverScaleIllustration rectangleModalImage" role="img" aria-label="チャット アイソメトリック イラスト"><title>チャット アイソメトリック イラスト</title><g id="_レイヤー_2-2"><g><g><g><path fill="#545456" d="M571.25256,493.3461l-122.28201-92.00592c-9.56589-5.5228-17.32053-18.95401-17.32053-29.99939&#10;&#9;&#9;&#9;&#9;&#9;L413.25256,19.34608c0-11.0454,26.1521-23.517,35.71799-17.9941l138.56412,80.00001&#10;&#9;&#9;&#9;&#9;&#9;c9.56592,5.5228,17.3205,18.95399,17.3205,29.9994v359.98941c0,11.04541-24.03674,27.52811-33.60248,22.00531H571.25256z"/><path fill="#4A4C56" d="M568.53455,492.34033l-138.56412-80c-9.56589-5.52283-17.32047-18.95404-17.32047-29.99939V22.3514&#10;&#9;&#9;&#9;&#9;&#9;c0-11.0454,7.7547-15.5223,17.32047-9.9994l138.56412,80c9.56586,5.5228,17.3205,18.954,17.3205,29.9994v359.98938&#10;&#9;&#9;&#9;&#9;&#9;c0,11.04544-7.7547,15.52234-17.3205,9.99939V492.34033z"/><path fill="#FFFFFF" d="M581.8136,480.00739c0,8.45453-5.95697,11.89362-13.27911,7.66623l-138.56409-80&#10;&#9;&#9;&#9;&#9;&#9;c-7.32202-4.22742-13.27911-14.54498-13.27911-22.9996V24.6848c0-8.4545,5.95697-11.8936,13.27911-7.6662l34.64099,20v6.6665&#10;&#9;&#9;&#9;&#9;&#9;c0,3.6818,2.5849,8.1589,5.7735,9.9998l57.73499,33.3333c3.1886,1.841,5.7735,0.34859,5.7735-3.3331v-6.6665l34.64099,20&#10;&#9;&#9;&#9;&#9;&#9;c7.32202,4.2274,13.27911,14.54501,13.27911,22.9996v359.98932L581.8136,480.00739z"/><path fill="#E4E4E4" d="M567.66852,182.84929L465.47751,123.8493c-2.39151-1.3807-4.33011-5.08489-4.33011-8.2735V73.1244&#10;&#9;&#9;&#9;&#9;&#9;c0-3.1886,1.93872-4.6542,4.33011-3.2735l102.19101,58.99999c2.39154,1.38071,4.33014,5.0849,4.33014,8.2735v42.45142&#10;&#9;&#9;&#9;&#9;&#9;c0,3.1886-1.93872,4.65421-4.33014,3.2735V182.84929z"/><g><path fill="#FFFFFF" d="M559.00824,139.85049L475.86987,91.8505c-0.95651-0.5522-1.73212-1.89551-1.73212-2.9999&#10;&#9;&#9;&#9;&#9;&#9;&#9;c0-1.10449,0.77548-1.5522,1.73212-0.99989l83.13837,48c0.95648,0.5522,1.73212,1.89551,1.73212,2.99989&#10;&#9;&#9;&#9;&#9;&#9;&#9;C560.74036,139.955,559.96484,140.4028,559.00824,139.85049z"/><path fill="#FFFFFF" d="M559.00824,152.8501l-83.13837-48c-0.95651-0.55219-1.73212-1.8955-1.73212-2.99989&#10;&#9;&#9;&#9;&#9;&#9;&#9;s0.77548-1.5522,1.73212-0.9999l83.13837,48.00001c0.95648,0.55219,1.73212,1.89551,1.73212,2.99989&#10;&#9;&#9;&#9;&#9;&#9;&#9;C560.74036,152.9547,559.96484,153.4024,559.00824,152.8501z"/><path fill="#FFFFFF" d="M559.00824,165.8497l-83.13837-48c-0.95651-0.55219-1.73212-1.8955-1.73212-2.99989&#10;&#9;&#9;&#9;&#9;&#9;&#9;s0.77548-1.5522,1.73212-0.9999l83.13837,47.99999c0.95648,0.5522,1.73212,1.89551,1.73212,2.99989&#10;&#9;&#9;&#9;&#9;&#9;&#9;C560.74036,165.95419,559.96484,166.40199,559.00824,165.8497z"/></g><polygon fill="#E4E4E4" points="549.48193,166.3495 562.47235,188.84911 562.47235,173.8495"/><path fill="#F59E0B" d="M430.83652,179.84711l102.19101,59c2.39154,1.38069,4.33008-0.0849,4.33008-3.27351v-42.4514&#10;&#9;&#9;&#9;&#9;&#9;c0-3.18858-1.93866-6.89279-4.33008-8.2735l-102.19101-59c-2.39151-1.3807-4.33011,0.0849-4.33011,3.2735v42.45142&#10;&#9;&#9;&#9;&#9;&#9;C426.50641,174.76219,428.44513,178.4664,430.83652,179.84711z"/><g><path fill="#FFFFFF" d="M522.63525,194.84819l-83.13843-48c-0.95648-0.5522-1.73209-1.89551-1.73209-2.99989&#10;&#9;&#9;&#9;&#9;&#9;&#9;c0-1.1044,0.77548-1.5522,1.73209-0.99991l83.13843,48c0.95648,0.5522,1.73206,1.89551,1.73206,2.99989&#10;&#9;&#9;&#9;&#9;&#9;&#9;C524.36731,194.95268,523.59186,195.40048,522.63525,194.84819z"/><path fill="#FFFFFF" d="M522.63525,207.84781l-83.13843-48c-0.95648-0.5522-1.73209-1.89551-1.73209-2.99991&#10;&#9;&#9;&#9;&#9;&#9;&#9;c0-1.10449,0.77548-1.5522,1.73209-0.99989l83.13843,47.99998c0.95648,0.5522,1.73206,1.89551,1.73206,2.99991&#10;&#9;&#9;&#9;&#9;&#9;&#9;C524.36731,207.95229,523.59186,208.4001,522.63525,207.84781z"/><path fill="#FFFFFF" d="M522.63525,220.84749l-83.13843-48.00002c-0.95648-0.55219-1.73209-1.89549-1.73209-2.99989&#10;&#9;&#9;&#9;&#9;&#9;&#9;c0-1.10439,0.77548-1.5522,1.73209-0.99991l83.13843,48.00002c0.95648,0.5522,1.73206,1.89551,1.73206,2.99989&#10;&#9;&#9;&#9;&#9;&#9;&#9;C524.36731,220.95198,523.59186,221.39978,522.63525,220.84749z"/></g><polygon fill="#F59E0B" points="449.02304,184.34731 436.03262,191.8468 436.03262,176.84731"/><path fill="#E4E4E4" d="M567.66852,334.84491l-102.19101-59c-2.39151-1.38071-4.33011-5.0849-4.33011-8.27353V225.12&#10;&#9;&#9;&#9;&#9;&#9;c0-3.1886,1.93872-4.65421,4.33011-3.27351l102.19101,59.00002c2.39154,1.38068,4.33014,5.08487,4.33014,8.2735v42.45139&#10;&#9;&#9;&#9;&#9;&#9;C571.99866,334.75998,570.05994,336.22559,567.66852,334.84491z"/><g><path fill="#FFFFFF" d="M559.00824,291.84601l-83.13837-48c-0.95651-0.55219-1.73212-1.89549-1.73212-2.99989&#10;&#9;&#9;&#9;&#9;&#9;&#9;c0-1.10439,0.77548-1.5522,1.73212-0.99991l83.13837,48.00002c0.95648,0.55219,1.73212,1.89551,1.73212,2.99991&#10;&#9;&#9;&#9;&#9;&#9;&#9;c0,1.10437-0.77551,1.55219-1.73212,0.99991V291.84601z"/><path fill="#FFFFFF" d="M559.00824,304.84561l-83.13837-48.00003c-0.95651-0.55219-1.73212-1.89549-1.73212-2.99989&#10;&#9;&#9;&#9;&#9;&#9;&#9;c0-1.10451,0.77548-1.5522,1.73212-0.99991l83.13837,48.00002c0.95648,0.55219,1.73212,1.89551,1.73212,2.99991&#10;&#9;&#9;&#9;&#9;&#9;&#9;C560.74036,304.95007,559.96484,305.39789,559.00824,304.84561z"/><path fill="#FFFFFF" d="M559.00824,317.84518l-83.13837-47.99997c-0.95651-0.55222-1.73212-1.89551-1.73212-2.99991&#10;&#9;&#9;&#9;&#9;&#9;&#9;s0.77548-1.55222,1.73212-0.99991l83.13837,48c0.95648,0.55222,1.73212,1.89551,1.73212,2.99991&#10;&#9;&#9;&#9;&#9;&#9;&#9;s-0.77551,1.55219-1.73212,0.99991V317.84518z"/></g><polygon fill="#E4E4E4" points="549.48193,318.34509 562.47235,340.8446 562.47235,325.84509"/><path fill="#F59E0B" d="M326.04742,305.51349l172.33911,99.5c2.39151,1.38071,4.33008-0.0849,4.33008-3.2735v-76.62231&#10;&#9;&#9;&#9;&#9;&#9;c0-3.1886-1.93869-6.89279-4.33008-8.2735l-172.33911-99.5c-2.39151-1.38071-4.33008,0.08488-4.33008,3.2735v76.62228&#10;&#9;&#9;&#9;&#9;&#9;C321.71735,300.42856,323.65604,304.13275,326.04742,305.51349L326.04742,305.51349z"/><g><path fill="#FFFFFF" d="M478.67761,331.32388L342.9281,252.9489c-1.43475-0.8284-2.59808-2.8427-2.59808-4.49989&#10;&#9;&#9;&#9;&#9;&#9;&#9;s1.16327-2.32831,2.59808-1.49991l135.74951,78.375c1.43481,0.8284,2.59814,2.84271,2.59814,4.49988&#10;&#9;&#9;&#9;&#9;&#9;&#9;C481.27576,331.48117,480.11246,332.15228,478.67761,331.32388z"/><path fill="#FFFFFF" d="M478.67761,352.5499l-135.74951-78.375c-1.43475-0.8284-2.59808-2.84268-2.59808-4.49988&#10;&#9;&#9;&#9;&#9;&#9;&#9;s1.16327-2.32831,2.59808-1.49991l135.74951,78.375c1.43481,0.8284,2.59814,2.84271,2.59814,4.49988&#10;&#9;&#9;&#9;&#9;&#9;&#9;C481.27576,352.70721,480.11246,353.3783,478.67761,352.5499z"/><path fill="#FFFFFF" d="M478.67761,373.77579l-135.74951-78.375c-1.43475-0.8284-2.59808-2.84268-2.59808-4.49988&#10;&#9;&#9;&#9;&#9;&#9;&#9;s1.16327-2.32831,2.59808-1.49991l135.74951,78.375c1.43481,0.8284,2.59814,2.84271,2.59814,4.49988&#10;&#9;&#9;&#9;&#9;&#9;&#9;C481.27576,373.93307,480.11246,374.60419,478.67761,373.77579z"/></g><polygon fill="#F59E0B" points="322.58334,265.59271 299.41711,278.96701 322.58334,292.34198"/></g><path opacity="0.05" fill="#1A1A1A" enable-background="new" d="M581.91284,772.53479l-176.5318-101.92072&#10;&#9;&#9;&#9;&#9;c-3.02731-1.7478-3.02737-4.5816-0.00018-6.32941l10.59869-6.11908c3.02722-1.7478,7.93542-1.74768,10.9628,0L603.47412,760.0863&#10;&#9;&#9;&#9;&#9;c3.02734,1.7478,3.0274,4.5816,0.00024,6.32941l-10.59875,6.11908C589.84845,774.28259,584.94019,774.28247,581.91284,772.53479z"/></g><g><g><g><path fill="#FFD3D4" d="M140.97163,195.75319c6.6626,11.5966,9.32001,96.67421-7.36009,98.11821&#10;&#9;&#9;&#9;&#9;&#9;&#9;c-11.3699,0.98428-11.74731-42.78651-16.8315-79.0994c-5.21421-37.24181,17.52889-30.61542,24.19151-19.01881H140.97163z"/><path fill="#FFD3D4" d="M131.43524,273.7489c-13.19801,5.31387,3.4632,114.3259,11.29999,114.3269&#10;&#9;&#9;&#9;&#9;&#9;&#9;c10.0787,0.00116,7.16461-84.11722,2.133-102.7493c-5.0316-18.63211-13.43298-11.57748-13.43298-11.57748V273.7489z"/><path fill="#FFD3D4" d="M154.36754,388.4566c-0.41521-4.92261-3.9514-12.4324-11.8085-13.44839&#10;&#9;&#9;&#9;&#9;&#9;&#9;c-8.15871-1.05499-11.6004,11.66739-11.6797,14.45221c-0.5392,18.93747,6.28421,20.92361,12.83711,22.38419&#10;&#9;&#9;&#9;&#9;&#9;&#9;S155.23154,398.70209,154.36754,388.4566z"/></g><path fill="#E7E7EE" d="M125.43494,291.7338c0,0,50.39211-29.50809,34.214-48.17511&#10;&#9;&#9;&#9;&#9;&#9;c-13.87061-16.0045-8.71361-70.90138-50.41641-73.94888c-4.76759-0.3484,2.21361,112.16177,16.2023,122.12399H125.43494z"/><path opacity="0.1" d="M136.18303,279.86481c7.7679,1.11441,5.5699-66.9064-2.90109-64.75281&#10;&#9;&#9;&#9;&#9;&#9;S133.29884,279.45099,136.18303,279.86481z" enable-background="new"/></g><g><ellipse transform="matrix(0.92015 -0.39156 0.39156 0.92015 -279.71909 96.60905)" opacity="0.05" cx="97.01979" cy="734.1582" rx="73.3479" ry="29.52492" enable-background="new"/><g><g><path fill="#3C4358" d="M38.57003,352.78049c0,0-18.1309,12.26523-7.1836,57.61823s83.11929-12.61279,83.11929-12.61279&#10;&#9;&#9;&#9;&#9;&#9;&#9;&#9;l-52.82479-45.0054h-23.1109L38.57003,352.78049z"/><g><g><path fill="#998E82" d="M106.53213,728.77661c0,0,3.6747-0.80005,4.058-1.56665s-2.72839-2.11963-2.72839-2.11963&#10;&#9;&#9;&#9;&#9;&#9;&#9;&#9;&#9;&#9;l-1.32961,1.55585V728.77661z"/><path fill="#4A4C57" d="M92.42914,715.14764c-1.4588-6.073-1.60181-12.40442,2.6053-17.92688&#10;&#9;&#9;&#9;&#9;&#9;&#9;&#9;&#9;&#9;c7.0303-9.22791,18.9838-5.36011,25.4898-1.85693c6.50599,3.50323,8.49929,10.43512,26.4062,20.82233&#10;&#9;&#9;&#9;&#9;&#9;&#9;&#9;&#9;&#9;c4.5249,2.62463,27.62849,14.23279,20.5049,23.4314c-5.125,6.6178-20.9556,4.53723-36.17189,1.44867&#10;&#9;&#9;&#9;&#9;&#9;&#9;&#9;&#9;&#9;c-12.99921-2.63849-20.85881-15.32635-23.9765-14.53583c-0.4547,0.22266,0.1239,1.83801-0.7547,2.24615&#10;&#9;&#9;&#9;&#9;&#9;&#9;&#9;&#9;&#9;c-1.9277,0.89697-14.4616-5.72516-14.731-8.3255c-0.2368-2.29156-0.369-3.06812,0.628-5.30347L92.42914,715.14764z"/></g><path fill="#FFD3D4" d="M102.05373,656.52039c-7.43719,11.43402,1.1282,32.55981-4.00279,39.66437&#10;&#9;&#9;&#9;&#9;&#9;&#9;&#9;&#9;c-6.5483,9.06726,10.1257,17.02783,14.02349,16.26385c0.91489-0.17932-0.7127-2.69891-1.21709-4.68182&#10;&#9;&#9;&#9;&#9;&#9;&#9;&#9;&#9;c-0.5723-2.24951,12.79539-7.85742,15.1313-6.28027c1.335,0.90143-3.8968-2.99799-6.9588-4.71844&#10;&#9;&#9;&#9;&#9;&#9;&#9;&#9;&#9;c-1.2379-0.69562-2.7621-1.74744-3.1683-2.23108c-2.5116-2.99005,5.09389-31.53802,6.44009-34.80725&#10;&#9;&#9;&#9;&#9;&#9;&#9;&#9;&#9;C123.64783,656.46057,105.26703,651.58026,102.05373,656.52039z"/><path fill="#3C4358" d="M84.09492,512.83191c0,0,4.6687,94.72034,4.0292,170.88928&#10;&#9;&#9;&#9;&#9;&#9;&#9;&#9;&#9;c-0.03629,4.31866,16.4555,9.29523,21.10931,9.50525c5.6907,0.25684,20.733-4.89563,20.2896-12.91394&#10;&#9;&#9;&#9;&#9;&#9;&#9;&#9;&#9;c-2.5434-45.99561,7.7531-132.22583,8.9257-172.0831c2.0163-68.5369-54.3537,4.60269-54.3537,4.60269L84.09492,512.83191z"/><path fill="#3C4358" d="M139.21793,364.25592c0.5144,106.96399,7.3701,196.81836-27.77689,198.89758&#10;&#9;&#9;&#9;&#9;&#9;&#9;&#9;&#9;c-45.1451,2.67059-27.8695-130.81732-32.58549-177.5116C72.43553,322.07599,139.07953,335.46759,139.21793,364.25592z"/></g><path opacity="0.1" fill="#1A1A1A" d="M95.35944,420.08783&#10;&#9;&#9;&#9;&#9;&#9;&#9;&#9;c21.02209-0.01852,3.66589,127.4549-7.33111,190.2478L95.35944,420.08783z" enable-background="new"/><g><path fill="#998E82" d="M54.80643,758.35217c0,0,3.6747-0.80005,4.058-1.56665s-2.7284-2.11963-2.7284-2.11963&#10;&#9;&#9;&#9;&#9;&#9;&#9;&#9;&#9;l-1.3296,1.55591V758.35217z"/><path fill="#4A4C57" d="M40.70353,744.72321c-1.4588-6.073-1.6018-12.40442,2.6053-17.92688&#10;&#9;&#9;&#9;&#9;&#9;&#9;&#9;&#9;c7.0303-9.22791,18.9838-5.36011,25.4898-1.85687c6.506,3.50317,8.4993,10.43506,26.4062,20.82227&#10;&#9;&#9;&#9;&#9;&#9;&#9;&#9;&#9;c4.52489,2.62463,27.62849,14.23279,20.5049,23.4314c-5.12499,6.6178-20.9556,4.53729-36.1719,1.44867&#10;&#9;&#9;&#9;&#9;&#9;&#9;&#9;&#9;c-12.9992-2.63849-20.8588-15.32629-23.9765-14.53583c-0.4547,0.22272,0.1239,1.83801-0.7547,2.24615&#10;&#9;&#9;&#9;&#9;&#9;&#9;&#9;&#9;c-1.9277,0.89703-14.4616-5.72516-14.731-8.3255c-0.2368-2.29156-0.369-3.06805,0.628-5.30347L40.70353,744.72321z"/></g><path fill="#FFD3D4" d="M50.32803,686.09595c-7.4372,11.43402,1.1282,32.55981-4.0028,39.66443&#10;&#9;&#9;&#9;&#9;&#9;&#9;&#9;c-6.5483,9.0672,10.1257,17.02777,14.0235,16.26379c0.9149-0.17932-0.7127-2.69891-1.2171-4.68176&#10;&#9;&#9;&#9;&#9;&#9;&#9;&#9;c-0.5723-2.24957,12.7954-7.85748,15.13131-6.28033c1.335,0.90143-3.8968-2.99799-6.9588-4.71844&#10;&#9;&#9;&#9;&#9;&#9;&#9;&#9;c-1.2379-0.69556-2.7621-1.74744-3.1683-2.23108c-2.5116-2.99005,5.0939-31.53802,6.4401-34.80719&#10;&#9;&#9;&#9;&#9;&#9;&#9;&#9;C71.92213,686.03613,53.54134,681.15588,50.32803,686.09595z"/><path fill="#3C4358" d="M35.04683,541.74451c0,0,4.6687,94.72028,4.0292,170.88916&#10;&#9;&#9;&#9;&#9;&#9;&#9;&#9;c-0.0363,4.31873,16.4555,9.29529,21.1093,9.50531c5.6907,0.25677,20.73299-4.89563,20.2896-12.914&#10;&#9;&#9;&#9;&#9;&#9;&#9;&#9;c-2.5434-45.99561,10.5339-117.16797,9.65221-157.03278C89.44094,521.16602,35.04684,541.74451,35.04683,541.74451z"/><path fill="#3C4358" d="M96.63703,390.0564c0.5144,106.96399,0.9029,199.93054-34.244,202.0097&#10;&#9;&#9;&#9;&#9;&#9;&#9;&#9;c-45.1451,2.67059-21.4023-133.9295-26.1184-180.62384c-6.42-63.56592,60.224-50.17429,60.3624-21.38599V390.0564z"/></g><g><polygon fill="#CDCDD5" points="116.18473,187.7612 116.18473,187.7612 115.62613,184.63199"/><path fill="#E7E7EE" d="M136.70374,216.63651c0.54169-14.35631-7.39291-43.4801-31.2213-48.10959&#10;&#9;&#9;&#9;&#9;&#9;&#9;&#9;c-29.825,0.6232-31.4865,4.23071-42.2577,8.8112c-10.7712,4.58051-22.2066,23.05161-23.2249,34.5507&#10;&#9;&#9;&#9;&#9;&#9;&#9;&#9;c-0.5836,6.58929-0.9987,15.5791-0.9741,19.85751c0.0986,17.2178,3.9009,21.9852,1.5908,64.69238&#10;&#9;&#9;&#9;&#9;&#9;&#9;&#9;c-0.3674,6.7908-5.1336,26.41168-9.2301,43.90454c-3.1173,13.31137-8.0153,32.79688-8.1226,37.04999&#10;&#9;&#9;&#9;&#9;&#9;&#9;&#9;c6.5897,3.73392,14.0652,5.48199,21.6,9.66083c7.9321,4.39911,15.99549,11.14502,25.8583,11.49527&#10;&#9;&#9;&#9;&#9;&#9;&#9;&#9;c14.9313,0.5304,26.9165-12.17813,45.28831-17.10287c14.869-3.98581,27.4203-12.53802,28.0251-16.24481&#10;&#9;&#9;&#9;&#9;&#9;&#9;&#9;c1.064-6.52151-3.6394-15.46533-4.2832-24.8584c-0.6709-9.78934,1.3502-20.59253,0.24861-31.60724&#10;&#9;&#9;&#9;&#9;&#9;&#9;&#9;c-4.92252-49.21747-3.839-77.7431-3.2973-92.09938L136.70374,216.63651z"/><path opacity="0.1" d="M63.18383,287.77469c-1.0469-36.28169-13.9101-50.47888-24.1581-56.02849&#10;&#9;&#9;&#9;&#9;&#9;&#9;&#9;c0.0986,17.2178,3.9009,21.9852,1.5908,64.6924c-0.3674,6.7908-5.1336,26.41171-9.2301,43.90448&#10;&#9;&#9;&#9;&#9;&#9;&#9;&#9;C46.69543,335.48499,64.18253,322.38818,63.18383,287.77469z" enable-background="new"/><path fill="#FFC9CA" d="M107.75343,172.89079c-2.1072-2.38631-4.5341-2.4608-4.5341-2.4608s-1.5355-9.7485-1.5769-10.5052&#10;&#9;&#9;&#9;&#9;&#9;&#9;&#9;l-27.23779-2.433c0,0,0.9081,15.7543-1.1325,17.1433c-3.8804,2.6412-10.6702,1.4493-8.6702,7.4493&#10;&#9;&#9;&#9;&#9;&#9;&#9;&#9;c1.99999,6.00002,26.0443,15.4201,37.0443,11.4201s8.2143-18.2274,6.1072-20.61371V172.89079z"/><g><path fill="#FFD3D4" d="M124.74163,106.09669c5.74741,9.999-3.52029,31.21991-3.52029,31.21991&#10;&#9;&#9;&#9;&#9;&#9;&#9;&#9;&#9;s-1.1489,26.6413-26.0042,31.4593c-19.7593,3.8302-33.26379-18.37941-33.26379-18.37941s-18.499-54.8476,15.6382-62.1603&#10;&#9;&#9;&#9;&#9;&#9;&#9;&#9;&#9;s41.4027,7.8615,47.1501,17.8604L124.74163,106.09669z"/><path fill="#3C4358" d="M108.19064,80.9566c-22.909-10.0002-39.1853-1.4506-41.1574,4.89839&#10;&#9;&#9;&#9;&#9;&#9;&#9;&#9;&#9;c-6.911,1.81731-13.917,8.39671-15.6324,20c-3.3037,22.34761,10.5524,44.5416,10.5524,44.5416s4.918-5.78059,1.4297-5.6834&#10;&#9;&#9;&#9;&#9;&#9;&#9;&#9;&#9;c-4.412,0.12289-6.9522-17.15491-1.6338-21.8602c5.3183-4.7052,8.1331,14.4501,8.1331,14.4501l2.75999,5.46509&#10;&#9;&#9;&#9;&#9;&#9;&#9;&#9;&#9;l3.0098-11.9651c0,0,3.1003-0.76729,9.2878-7.84139c5.51659-6.3071,23.5676-11.04259,28.0668-9.16059&#10;&#9;&#9;&#9;&#9;&#9;&#9;&#9;&#9;c4.7793,1.99919,12.75581,9.031,12.4515,10.241l-0.8739,3.87981c0,0,3.685-4.29849,5.3056-9.8933&#10;&#9;&#9;&#9;&#9;&#9;&#9;&#9;&#9;c1.64738-5.6871,5.2804-25.2947-21.6992-37.0718L108.19064,80.9566z"/></g></g></g></g><g><path fill="#FFD3D4" d="M24.11133,231.68579c-6.6626,11.5966-4.6849,108.93671,11.9951,110.3808&#10;&#9;&#9;&#9;&#9;&#9;c11.3699,0.98428,11.5312-55.44751,16.6154-91.76042c5.2142-37.24181-21.9479-30.2169-28.6105-18.62039L24.11133,231.68579z"/><path fill="#E7E7EE" d="M58.64713,180.1008c0.4893-1.34229-29.2035,15.54761-35.0572,26.10161&#10;&#9;&#9;&#9;&#9;&#9;c-5.0638,9.12991-16.3819,40.54332-18.0287,67.8911c-0.7743,12.8584-6.1847,17.89459-5.5019,25.49561&#10;&#9;&#9;&#9;&#9;&#9;c0,0,31.4382,23.4682,60.3979,11.45181c0,0-2.9719-76.9162,2.8165-83.89969c0,0-5.4301-44.83632-4.6267-47.0403&#10;&#9;&#9;&#9;&#9;&#9;L58.64713,180.1008z"/><g><path fill="#FFD3D4" d="M36.10643,342.0665c12.582,6.64218,90.4067-66.8757,75.2844-78.40781&#10;&#9;&#9;&#9;&#9;&#9;&#9;c-5.5816-4.2565-64.151,44.7981-75.1238,60.67493c-10.9728,15.8768-0.1605,17.733-0.1605,17.733L36.10643,342.0665z"/><path fill="#FFD3D4" d="M108.85643,250.4631c-3.4895,3.4967-6.938,11.0473-2.6381,17.70139&#10;&#9;&#9;&#9;&#9;&#9;&#9;c4.4649,6.90961,16.4,1.31851,18.577-0.41989c14.80449-11.82141,11.9129-18.31311,8.79491-24.2589&#10;&#9;&#9;&#9;&#9;&#9;&#9;c-3.11801-5.9458-17.47091-0.3006-24.73381,6.97728V250.4631z"/><g><path fill="#545456" d="M132.93884,226.16199c-1.72491,0.0137-3.81281,1.24141-4.6633,2.742l-10.29391,18.16161&#10;&#9;&#9;&#9;&#9;&#9;&#9;&#9;l-10.29391,18.16161c-0.8506,1.50061,1.5686,3.5567,3.2935,3.543l16.0424-0.99182&#10;&#9;&#9;&#9;&#9;&#9;&#9;&#9;c1.7249-0.01367,3.81279-1.24139,4.66328-2.742l10.29391-18.16159l12.40039-17.9046&#10;&#9;&#9;&#9;&#9;&#9;&#9;&#9;c0.8506-1.50061-1.96469-2.9631-3.68961-2.9494l-17.75269,0.14119L132.93884,226.16199z"/><path fill="#4A4C56" d="M134.93883,227.162c-1.7249,0.01369-3.81279,1.24139-4.66328,2.742l-10.29391,18.16161&#10;&#9;&#9;&#9;&#9;&#9;&#9;&#9;l-10.29391,18.16159c-0.8506,1.50061-0.14169,2.70599,1.58321,2.69229l17.7527-0.14117&#10;&#9;&#9;&#9;&#9;&#9;&#9;&#9;c1.7249-0.0137,3.81281-1.24142,4.6633-2.742l10.2939-18.16162l10.29391-18.16159&#10;&#9;&#9;&#9;&#9;&#9;&#9;&#9;c0.85059-1.50061,0.14169-2.70599-1.58321-2.69231C152.69154,227.0208,134.93884,227.162,134.93883,227.162z"/></g><path fill="#FFD4D4" d="M107.18063,262.81619c0,0,7.4694-18.13989,21.3411-18.13989&#10;&#9;&#9;&#9;&#9;&#9;&#9;c13.87169,0,14.67209-6.3907,20.00739-1.05539c5.33531,5.33531-6.1357,21.32941-13.60509,21.32941&#10;&#9;&#9;&#9;&#9;&#9;&#9;c-7.4694,0-13.67751,8.48849-24.5566,7.48849c-8.5006-0.7814-3.1868-9.62271-3.1868-9.62271V262.81619z"/></g></g></g></g></g></svg>