<svg xmlns="http://www.w3.org/2000/svg" id="_レイヤー_2" version="1.1" viewBox="0 0 1452.96802 1081.13049" width="1453px" height="1081px" class="lg:!max-h-[405px] hoverScaleIllustration rectangleModalImage" role="img" aria-label="ロードマップ2 アイソメトリック イラスト"><title>ロードマップ2 アイソメトリック イラスト</title><g id="_3"><g><g><path d="M694.03084,370.74539l-.00221-104.94289c-65.31151.93611-130.10479,15.3557-180.87521,43.2584l128.53611,74.2104c15.15297-7.53578,33.54851-11.7149,52.34131-12.5259Z" fill="#e6e6e6"/><path d="M632.05719,388.83259l-128.53611-74.2104c-48.3289,29.31229-73.30421,66.7207-74.92569,104.42829l181.7664.0013c1.40461-10.84999,8.643-21.4706,21.6954-30.21919Z" fill="#F59E0B"/><path d="M759.98772,383.27461l128.5318-74.2079c-50.77034-27.90501-115.56389-42.32639-180.87639-43.26429l.00069,104.94259c18.79478.81131,37.19101,4.9921,52.3439,12.5296Z" fill="#efefef"/><path d="M632.0628,457.13211c-13.05538-8.74851-20.29671-19.36958-21.70189-30.22072l-181.7659-.00038c1.6243,37.70821,26.60301,75.11681,74.93591,104.42902l128.5318-74.20792h.00008Z" fill="#efefef"/><path d="M138.0432,685.03189l128.5361,74.21043c15.15301-7.53578,33.54851-11.71494,52.34129-12.52586l-.0012-104.94232c-65.31149.93613-130.1058,15.35507-180.8762,43.25783v-.00008Z" fill="#e6e6e6"/><path d="M332.53471,746.71654c18.79379.8107,37.19002,4.99153,52.34291,12.52899l128.5318-74.20792c-50.76939-27.90443-115.56389-42.32643-180.8754-43.2637l.00069,104.94263Z" fill="#efefef"/><path d="M1367.71027,350.6218c-1.6243-37.70821-26.60294-75.11681-74.93591-104.429l-128.5318,74.2079c13.05542,8.74851,20.29671,19.36958,21.70189,30.22072l181.76582.00038Z" fill="#e6e6e6"/><path d="M1102.27448,406.7873l.00221,104.94289c65.31151-.93609,130.10483-15.35568,180.87517-43.2584l-128.53607-74.2104c-15.15297,7.53578-33.54851,11.7149-52.34131,12.5259Z" fill="#efefef"/><path d="M1164.2482,388.70022l128.53607,74.2104c48.32886-29.31229,73.30414-66.7207,74.92569-104.42829l-181.76636-.0013c-1.40457,10.84999-8.64304,21.4706-21.6954,30.21919Z" fill="#F59E0B"/><path d="M1088.66142,406.7878c-18.79478-.81131-37.19101-4.9921-52.3439-12.5296l-128.5318,74.20792c50.77034,27.90501,115.56389,42.32639,180.87639,43.26431l-.00069-104.94259v-.00004Z" fill="#e6e6e6"/><path d="M854.55467,646.89232c-1.6243-37.70821-26.60301-75.11681-74.93591-104.42902l-128.5318,74.20792c13.05542,8.74851,20.29671,19.36958,21.70189,30.22072l181.7659.00038h-.00008Z" fill="#F59E0B"/><path d="M589.119,703.05779l.00221,104.94293c65.31147-.93613,130.10479-15.35568,180.87521-43.25844l-128.53607-74.21043c-15.15301,7.53578-33.54851,11.71494-52.34131,12.52586l-.00004.00008Z" fill="#e6e6e6"/><path d="M672.78809,654.75143c-1.40457,10.84999-8.64304,21.47057-21.6954,30.21919l128.53607,74.21043c48.32893-29.31229,73.30421-66.72073,74.92569-104.42833l-181.76636-.0013Z" fill="#efefef"/><path d="M523.16212,690.52872l-128.5318,74.20792c50.7703,27.90497,115.56389,42.32643,180.87643,43.26431l-.00069-104.94263c-18.79478-.81131-37.19101-4.99207-52.3439-12.5296h-.00004Z" fill="#F59E0B"/><polygon points="769.73938 388.76499 898.15407 462.9052 1026.56487 388.7672 898.15033 314.627 769.73938 388.76499" fill="#F59E0B"/><polygon points="513.1617 536.90022 641.57631 611.0405 769.98718 536.90239 641.57249 462.76218 513.1617 536.90022" fill="#e6e6e6"/><polygon points="0 764.73122 128.4146 838.87138 256.8255 764.73343 128.4109 690.59319 0 764.73122" fill="#F59E0B"/><path d="M1079.67621,202.551l181.76544.00071c1.40457-10.85001,8.64304-21.4706,21.6954-30.21919l-128.53607-74.2104c-48.32893,29.31231-73.3033,66.72131-74.9247,104.4289l-.00008-.00002Z" fill="#F59E0B"/><path d="M632.05719,388.83259l-128.53611-74.2104c-48.3289,29.31229-73.30421,66.7207-74.92569,104.42829l181.7664.0013c1.40461-10.84999,8.643-21.4706,21.6954-30.21919Z" fill="#fff" opacity=".7"/><path d="M1164.2482,388.70022l128.53607,74.2104c48.32886-29.31229,73.30414-66.7207,74.92569-104.42829l-181.76636-.0013c-1.40457,10.84999-8.64304,21.4706-21.6954,30.21919Z" fill="#fff" opacity=".7"/><path d="M854.55467,646.89232c-1.6243-37.70821-26.60301-75.11681-74.93591-104.42902l-128.5318,74.20792c13.05542,8.74851,20.29671,19.36958,21.70189,30.22072l181.7659.00038h-.00008Z" fill="#fff" opacity=".7"/><path d="M523.16212,690.52872l-128.5318,74.20792c50.7703,27.90497,115.56389,42.32643,180.87643,43.26431l-.00069-104.94263c-18.79478-.81131-37.19101-4.99207-52.3439-12.5296h-.00004Z" fill="#fff" opacity=".7"/><polygon points="769.73938 388.76499 898.15407 462.9052 1026.56487 388.7672 898.15033 314.627 769.73938 388.76499" fill="#fff" opacity=".7"/><polygon points="0 764.73122 128.4146 838.87138 256.8255 764.73343 128.4109 690.59319 0 764.73122" fill="#fff" opacity=".7"/><path d="M1079.67621,202.551l181.76544.00071c1.40457-10.85001,8.64304-21.4706,21.6954-30.21919l-128.53607-74.2104c-48.32893,29.31231-73.3033,66.72131-74.9247,104.4289l-.00008-.00002Z" fill="#fff" opacity=".7"/><path d="M1079.6759,210.4114c1.62338,37.7076,26.60301,75.11681,74.93492,104.4285l128.53188-74.2079c-13.05542-8.74849-20.29671-19.3696-21.7009-30.2202l-181.7659-.0004Z" fill="#efefef"/><polygon points="1164.23332 92.5608 1292.64786 166.70099 1420.86426 92.6753 1452.96799 111.2103 1444.93958 4.6353 1260.34599 0 1292.44965 18.5351 1164.23332 92.5608" fill="#e6e6e6"/></g><g><path d="M378.839,331.29929c-5.58689-3.4502-8.60119-6.73538-7.30991-8.81081s6.04172.2306,9.45461,3.08998-1.2455,6.27602-2.1447,5.72071v.00011Z" fill="#ffd3d4"/><g><g><path d="M440.5143,283.70399c-.00309-.0861-.00729-.17269-.01282-.2606-.0024-.03229-.00431-.0647-.00671-.09701-.00851-.11721-.01949-.2356-.033-.354-.01282-.11841-.0275-.238-.0452-.3577-.01652-.119-.03601-.238-.0568-.3583-.0214-.12079-.04459-.2417-.06962-.3632-.0256-.1227-.05249-.24599-.0824-.3693-.0293-.12449-.061-.249-.09399-.37411-.03422-.12699-.07019-.2545-.10799-.38151-.03849-.1276-.07809-.25511-.11959-.38271-.04211-.1276-.08541-.25511-.13062-.38271-.0275-.0769-.0568-.15381-.08541-.23069l-.00549-.01459c-.01591-.04271-.03109-.08539-.04761-.12819-.04581-.11959-.09281-.2393-.1416-.3583-.04761-.11539-.09579-.23069-.14591-.3455-.04581-.10559-.09281-.21061-.14042-.31561-.04822-.10441-.09769-.20941-.14771-.3137-.0452-.09399-.0909-.18801-.1379-.28139-.04639-.09279-.09399-.18551-.14221-.2783-.04761-.0922-.0964-.1837-.14648-.27531-.04879-.0909-.09892-.1819-.1495-.27161-.0507-.09029-.1025-.1807-.15442-.2704-.05981-.10189-.1202-.2039-.18131-.30519-.0671-.1099-.13489-.2191-.20321-.32841-.03849-.061-.0787-.12079-.1178-.18129-.00488-.00731-.0098-.0153-.01461-.0226-.0568-.08789-.11349-.1758-.17151-.2631-.2747-.4089-.56339-.8087-.86609-1.19631-.10071-.12939-.2026-.257-.3064-.3833-.08671-.10679-.17521-.2124-.26428-.31679-.0732-.0861-.14771-.17151-.22282-.25631-.0745-.08421-.15011-.16781-.22579-.25089-.07198-.07931-.1453-.15751-.21851-.235s-.14709-.15381-.2216-.2301c-.03849-.03969-.07751-.0775-.11662-.1166-.00488-.00429-.00851-.00919-.01282-.01341-.03479-.03481-.06962-.07021-.10502-.105-.08301-.08181-.16659-.16239-.25021-.2417-.0848-.0806-.17029-.15989-.25631-.238-.09769-.0885-.19531-.1758-.29419-.26119-.0983-.08539-.19779-.1697-.29789-.25209-.10799-.0897-.21671-.17759-.3265-.2631-.1099-.0861-.21969-.17031-.33081-.25209-.11169-.0824-.224-.163-.33691-.24111-.11169-.07811-.22461-.15381-.33749-.2277-.11051-.072-.2216-.1416-.33329-.21-.08121-.0494-.16361-.0983-.2454-.1453-.0293-.01711-.05798-.03361-.08732-.04999-.10799-.061-.2161-.11959-.32291-.1758s-.21301-.1099-.3186-.1605c-.10502-.0507-.20939-.0989-.31311-.144-.10441-.0458-.20748-.08909-.3101-.12939-.10441-.0415-.20748-.07999-.3101-.116-.10441-.0366-.20748-.07021-.30941-.1013-.10559-.03229-.21061-.06161-.31429-.0885-.10738-.02689-.21301-.05131-.31799-.07259-.1099-.02199-.21851-.04089-.32532-.0568-.11051-.01591-.21851-.02871-.3265-.03719-.00061-.00059-.0024-.00059-.00309-.00059-.00431-.00059-.00851-.00059-.01282-.0012-.11841-.0098-.23499-.01459-.34969-.01591-.13062-.00179-.25822.0024-.3833.0116-.14709.0116-.29049.02991-.42969.0555-.17578.033-.34481.0769-.50781.13241-.28931.09951-.5579.23439-.80139.4047l-3.47172,2.41819c.66589-.46391,1.51058-.66771,2.48348-.58649.00179,0,.00431,0,.0061.00059.97351.0824,2.07401.4504,3.25378,1.13159,1.09009.62929,2.14359,1.4661,3.1152,2.439.0037.00311.00671.00731.01041.0104.96619.96861,1.85001,2.07279,2.6099,3.24341.0079.01221.01591.0238.0238.03599.75741,1.1713,1.38981,2.40841,1.85181,3.6438.00179.0061.00431.0116.0061.0177.46261,1.2421.75562,2.4823.83069,3.6499.0684,1.06449-.05249,1.9733-.32589,2.71971-.00431.0116-.00729.02319-.0116.03481-.27828.7416-.70919,1.31901-1.26949,1.709l3.47172-2.4188c.39791-.2771.73238-.64699.99239-1.1035.08732-.15381.16659-.3174.23682-.49009.0153-.03719.02621-.07811.04028-.116.0037-.01101.00729-.02199.0116-.033.03422-.09279.06901-.18431.0983-.282.03658-.12329.06962-.25089.0983-.38271.02621-.12079.0494-.24481.06901-.3717.01831-.1202.03361-.2429.04581-.3693.01041-.11351.01888-.22949.02441-.34731.00549-.1166.00851-.2356.00919-.35709.00061-.1141-.00118-.23069-.0061-.34969l-.00011.00051Z" fill="#545456"/><path d="M428.582,272.82169c4.3681,2.5219,8.14659,8.3573,8.4478,13.04001.30121,4.68309-2.98908,6.4373-7.35722,3.91529-4.3618-2.51829-8.1403-8.35369-8.44158-13.0368-.30121-4.68269,2.9892-6.4369,7.351-3.91861v.00011Z" fill="#4f5056"/></g><g><path d="M435.3606,286.3763c-.00488-.105-.01221-.2124-.0214-.32101-.00061-.00669-.00118-.0128-.00179-.01949-.00851-.09951-.01888-.1996-.03109-.3009-.01282-.10679-.0275-.2142-.04391-.3229-.01652-.1074-.03479-.21549-.05489-.3241s-.04211-.2179-.06531-.32709c-.02441-.11169-.05001-.2228-.07751-.33449-.0275-.1123-.0568-.22461-.08789-.33751-.0317-.1141-.0647-.22829-.09949-.343-.0354-.11539-.07198-.2301-.11051-.3455-.03719-.1123-.0769-.2252-.11719-.33751-.04089-.1129-.08301-.22579-.12699-.3381-.03971-.1025-.0806-.2051-.12272-.3076-.04211-.10189-.08541-.2039-.13-.30581-.03971-.0909-.0806-.1819-.12211-.27281-.04028-.08789-.08121-.17521-.12272-.2618-.04089-.08539-.0824-.1709-.12508-.25631-.03849-.07629-.0769-.1532-.11662-.22949s-.07931-.15261-.1202-.2289c-.04089-.0757-.0824-.152-.1239-.2277-.04211-.07629-.0848-.152-.12821-.2277s-.08732-.15141-.1318-.2264c-.04879-.0836-.09892-.16661-.1495-.2496-.06039-.0989-.1215-.1965-.18372-.29421-.05131-.0812-.1038-.16109-.15751-.2417-.00431-.00669-.0079-.0128-.01221-.01949l-.05859-.0897c-.25761-.38639-.52979-.7642-.81421-1.13041-.07809-.10071-.15751-.2002-.23739-.29909-.0769-.0952-.15499-.18921-.23319-.282-.061-.07259-.12272-.14469-.18429-.2161-.05981-.0684-.11959-.1367-.1807-.2039-.06039-.06769-.1215-.13491-.1825-.2014-.061-.0659-.12272-.1318-.1849-.19711-.06161-.0647-.1239-.12939-.18681-.1935-.04211-.0433-.0848-.0861-.1276-.12819l-.00729-.00731-.06229-.06229c-.07259-.0708-.1453-.1416-.21851-.21061-.0732-.0696-.14648-.13849-.2203-.2063-.0848-.0769-.16972-.1532-.25509-.2277-.08732-.07629-.1746-.15141-.2631-.2252-.0946-.07931-.18921-.15619-.285-.2319-.09701-.0775-.19531-.1532-.29419-.2277s-.19901-.14709-.29911-.2179c-.10071-.07139-.20142-.1404-.3027-.2075-.0983-.0659-.19779-.12939-.29659-.191-.09949-.06161-.19901-.1215-.2985-.17941-.00549-.00311-.0116-.00669-.01709-.0098-.09159-.0531-.18311-.1038-.2734-.15261-.09579-.05131-.191-.10071-.28561-.14771s-.1886-.09159-.28198-.13371-.18551-.0824-.2771-.11959c-.09399-.03851-.18742-.07509-.2795-.1086-.09281-.03361-.18429-.0647-.27531-.09399-.09579-.0305-.19039-.058-.28439-.0836-.0946-.02501-.1886-.0482-.28141-.0684-.09949-.0214-.1984-.03969-.29541-.0555-.1025-.01591-.20321-.02871-.3027-.03851-.00851-.00059-.01709-.00059-.0256-.0012-.00179-.00059-.0037-.00059-.00549-.00059-.09579-.00851-.18978-.014-.28198-.0165-.1178-.00311-.2338-.00059-.34672.00669-.13119.00851-.25822.0238-.38212.0458-.15808.0275-.3101.06651-.45589.11539-.25452.0861-.49011.2039-.70431.3528l-35.07931,24.39449c.58041-.40409,1.3184-.5792,2.17098-.50421.00179,0,.00309,0,.00488.00059.85331.0757,1.8219.4022,2.8632,1.0034.97839.5652,1.92928,1.3184,2.81189,2.1973l.00729.00731c.87952.8765,1.6901,1.87929,2.39071,2.9425.0037.00549.00729.0104.01099.0165.6995,1.0638,1.28971,2.1899,1.72791,3.3148.00118.0024.0024.0061.0037.00851.4388,1.1285.7251,2.2559.81791,3.3197.0861.98631-.0061,1.82859-.24231,2.51591-.0037.0098-.00671.0189-.0098.02871-.24052.68359-.625,1.21281-1.13159,1.5649l35.07999-24.39449c.35339-.24599.6488-.5756.8765-.9845.07809-.14099.14889-.29051.21061-.44979.01652-.0415.02869-.08671.0433-.1288.00431-.0116.00671-.0226.01099-.03361.02441-.07021.0507-.1379.07141-.21179.03231-.1123.06039-.22829.0848-.34731.02258-.1099.04211-.22221.05859-.3381.01461-.10559.02689-.2142.03601-.32471.00851-.1038.0153-.20941.01888-.31679.0037-.105.00549-.2112.00431-.31981-.00061-.10309-.0037-.2075-.00851-.3137l-.00023-.0001Z" fill="#344056"/><path d="M392.4868,298.62379c3.9201,2.2633,7.3999,7.54709,7.77081,11.8067.37029,4.25289-2.50832,5.8721-6.42841,3.6088-3.91392-2.25969-7.39422-7.5503-7.76459-11.80309-.3709-4.25961,2.50832-5.8721,6.4222-3.6124Z" fill="#344056"/></g><g><path d="M397.48878,310.11761c-.0037-.0745-.00851-.1495-.0153-.22579,0-.00429-.00061-.00851-.00061-.01341-.0061-.0696-.01339-.1404-.02201-.2112-.00919-.07509-.01949-.15011-.03109-.2264-.0116-.0757-.02441-.15141-.03849-.2277s-.0293-.15261-.04581-.22949c-.01709-.07811-.03479-.15619-.05428-.23439-.01949-.0787-.03971-.15751-.06161-.23621-.02201-.0806-.0452-.1605-.07019-.24111-.02441-.0806-.05001-.16109-.0769-.24229-.02621-.0787-.05371-.15751-.0824-.2368-.02869-.0787-.05798-.15751-.08911-.2368,0-.00059-.00061-.00059-.00061-.0012-.00061-.0024-.00179-.0049-.0024-.00731-.02621-.0684-.05428-.1379-.08301-.2063-.0293-.072-.05981-.14339-.0909-.21481-.0275-.0635-.05619-.12699-.08541-.19039-.02811-.061-.05619-.12211-.08541-.18311-.02869-.0598-.05798-.11959-.08732-.17879-.02689-.05369-.05428-.1074-.08179-.16109-.0275-.0531-.0555-.10679-.08419-.15989-.02869-.05369-.05741-.10679-.08732-.15989-.0293-.05369-.0592-.10679-.08968-.15989-.02991-.0531-.061-.10559-.0922-.15869-.03422-.05859-.06962-.11721-.10502-.17521-.0415-.0684-.08419-.13611-.12699-.2039-.03601-.0555-.07259-.1111-.1086-.16661-.00309-.00429-.0061-.00851-.00851-.0128-.014-.02199-.02811-.04391-.04211-.06531-.18311-.2747-.3772-.5426-.57919-.8032-.05249-.06651-.10502-.13309-.15808-.1984-.0531-.0659-.10681-.1306-.16109-.19529-.04269-.0507-.0861-.1013-.12939-.15141-.04211-.0482-.08419-.09581-.12699-.14339-.04211-.04761-.0848-.0946-.12821-.1416-.04269-.0458-.08541-.09159-.12878-.1367-.04269-.0458-.08671-.09029-.13-.13491l-.08541-.08539-.01099-.01101c-.014-.014-.0275-.0281-.0415-.0415-.05001-.04999-.10132-.0989-.15259-.14771-.0507-.04881-.1025-.0964-.15442-.144-.05859-.0543-.11841-.1074-.17818-.15989-.061-.0531-.12211-.10559-.18429-.15751-.06592-.05489-.13241-.10929-.19901-.16239-.0684-.0543-.13672-.10679-.20569-.15869-.06962-.05251-.13981-.10309-.21-.1532-.07019-.0494-.14042-.09769-.21118-.14469-.06962-.04641-.13851-.0909-.20809-.1343s-.1392-.0848-.20939-.12569c-.0037-.00179-.00729-.00429-.0116-.00669-.06409-.0366-.12821-.07259-.191-.1062-.0671-.0366-.13432-.0708-.2002-.1038s-.1318-.06411-.19711-.0934c-.0647-.0293-.12939-.05739-.19348-.0836-.06592-.02689-.13119-.05251-.19588-.0757-.0647-.0238-.12878-.0458-.1923-.0659-.06649-.0214-.13309-.04089-.1984-.058-.06649-.01829-.1318-.0342-.1965-.0482-.07019-.01459-.1392-.0281-.20691-.03851-.07141-.0116-.1416-.02081-.21118-.02689-.0061-.00059-.0116-.00059-.01709-.0012-.00118,0-.00309.00059-.00488,0-.0671-.00669-.13241-.0104-.19711-.01221-.0824-.00179-.163,0-.24231.0049-.09159.0061-.18009.0165-.26669.0317-.11051.01949-.21671.047-.3186.0812-.17818.0598-.34302.14219-.49259.2466l-35.07999,24.39449c.40531-.28198.92098-.40409,1.5155-.35221h.00851c.5957.0531,1.2714.28141,1.99829.70129.68539.39551,1.35071.92289,1.96781,1.53751l.00729.00729c.61459.6134,1.18099,1.31409,1.6711,2.05811.00309.00431.00549.00851.00851.01282.98141,1.49349,1.65279,3.1604,1.7828,4.6497.05981.69149-.00488,1.28109-.17029,1.76331-.0024.00671-.00431.014-.00671.02079-.1685.47852-.43758.849-.79281,1.09619l35.07999-24.39449c.24719-.1721.4541-.40279.61401-.68911.05489-.0989.10441-.2039.14771-.31561.0116-.02871.0201-.061.03052-.0909.0024-.00731.00431-.01459.00729-.0226.01709-.0494.0354-.09701.05001-.14891.02258-.0787.04269-.15989.05981-.24349.01591-.0769.0293-.1556.04089-.2368.01041-.0745.01888-.15011.02499-.2277.0061-.07259.01099-.1465.01339-.22221.0024-.0732.0037-.1483.00309-.22461-.00061-.072-.0024-.14469-.0061-.2191v-.00019Z" fill="#4a4c56"/><path d="M356.9556,326.0078c2.74551,1.58508,5.1775,5.2824,5.43732,8.2653.25921,2.97649-1.75171,4.1151-4.49718,2.52998-2.7393-1.5815-5.17189-5.28561-5.4311-8.2621-.25982-2.9829,1.75171-4.11469,4.491-2.53319h-.00004Z" fill="#4a4c56"/></g><g><path d="M362.411,335.57549c-.0024-.06229-.00549-.12569-.0098-.18978-.00118-.02319-.00309-.04639-.00488-.07019-.0061-.08541-.014-.17151-.02319-.25761-.0098-.0861-.02079-.17269-.033-.26001-.01282-.08671-.02621-.1733-.0415-.26058-.01591-.08789-.03231-.17578-.0507-.26428-.01831-.08911-.03849-.17879-.05981-.26859-.0214-.0909-.04459-.18131-.06901-.27222-.02441-.09281-.0507-.1849-.0787-.27771-.0275-.09281-.05619-.18551-.08671-.27828s-.06229-.18551-.09521-.27889c-.0201-.05619-.04211-.1123-.0629-.1685-.00118-.0024-.00179-.0061-.0024-.00851-.0116-.0317-.02319-.0629-.0354-.0946-.033-.08671-.06771-.17399-.10311-.26058-.03422-.08419-.06962-.16781-.1062-.2515-.033-.0769-.0671-.15381-.1025-.2301-.03479-.07629-.0708-.1532-.10738-.22949-.033-.06771-.06592-.13611-.1001-.2039-.03361-.0671-.0684-.13489-.10311-.20142-.03479-.0671-.07019-.13371-.1062-.2002s-.07198-.13241-.10929-.19779c-.03658-.06592-.0745-.13119-.1123-.1965-.0433-.0745-.08732-.14832-.1318-.22221-.04822-.07999-.09769-.1593-.14771-.23861-.02689-.04269-.0555-.08541-.08362-.12821-.00549-.0079-.0098-.01591-.0153-.0238-.04089-.0629-.0806-.12569-.12272-.18799-.19901-.2972-.40951-.58842-.62931-.87101-.0745-.0946-.1495-.18921-.22579-.28198-.0629-.07751-.12699-.15381-.19169-.22949-.05371-.0629-.10738-.12451-.16171-.1862-.05428-.061-.10929-.12211-.16418-.18188-.05249-.05741-.10502-.1141-.15869-.17029-.0531-.0568-.10681-.1123-.16048-.1672l-.0861-.0861c-.00118-.00061-.00118-.00179-.0024-.00309-.0275-.0275-.05428-.05489-.08179-.08179-.06039-.0592-.12081-.1178-.18188-.17521-.06161-.05859-.1239-.11662-.1862-.1733-.0708-.06409-.1416-.1276-.21358-.18921-.07141-.06229-.14339-.12329-.2161-.18372-.0787-.0647-.15751-.12878-.23739-.191-.07931-.06229-.1593-.12329-.23991-.1825-.08121-.05981-.16239-.11841-.2441-.17521-.08179-.05619-.163-.11169-.2454-.16479-.07999-.05249-.16048-.10311-.24109-.15202-.0592-.03601-.11902-.07141-.17818-.10559-.0214-.01221-.04211-.02441-.06351-.03658-.0787-.04459-.1569-.08732-.23499-.12821-.07751-.04028-.15499-.07931-.23129-.11662-.0769-.03658-.15259-.07141-.2277-.10441-.07629-.03361-.15141-.0647-.22579-.0946-.07568-.02991-.15079-.05798-.22579-.08419-.07568-.02621-.15011-.05131-.22461-.07389-.0769-.02319-.1532-.04459-.22888-.06351-.07809-.0201-.15499-.0378-.23129-.0531-.07999-.01652-.15869-.02991-.23682-.0415-.07999-.0116-.15869-.02079-.23682-.02689-.00118,0-.00179.00061-.00309,0-.00309,0-.0061-.00118-.00851-.00118-.08671-.00729-.17151-.01099-.25509-.01221-.0946-.00061-.18799.00179-.27889.00919-.10681.0079-.21061.0214-.31189.04028-.12821.0238-.2515.0555-.36991.0964-.21061.07198-.40588.17029-.5835.29419l-3.47172,2.41821c.48458-.33749,1.09989-.4858,1.8079-.4266.00061.00061.0024-.00061.00309,0,.70801.05981,1.5094.3278,2.36759.8234.79159.45719,1.55701,1.0651,2.26318,1.7725.00309.0024.00488.00488.0079.0079.70251.70499,1.34521,1.50822,1.89819,2.36019.00549.0079.01041.0153.0153.02319.55111.85331,1.012,1.75419,1.3483,2.65442.00118.00309.00309.00671.0037.0098.33691.90389.54989,1.80599.6049,2.65621.0494.7745-.0391,1.43551-.23739,1.97811-.0037.0079-.00549.01709-.00851.0256-.20199.5389-.5164.96008-.9235,1.2439l3.47111-2.41879c.28992-.20142.5328-.47058.72201-.80318.06409-.11169.1215-.23071.17269-.35709.01041-.02621.01831-.0555.02869-.0824.00309-.00851.0061-.0177.00919-.02689.02441-.0671.05001-.13309.07141-.2039.02689-.08968.0507-.18311.07141-.27828.01949-.08789.03601-.17818.05001-.27039.01339-.08789.02441-.177.03361-.2692.0079-.0824.014-.16659.0177-.25269.00431-.0848.00671-.17151.00671-.2594.00061-.08301-.00118-.16781-.00431-.25452l-.00027.00034Z" fill="#545456"/><path d="M352.78881,328.32039c3.17268,1.8317,5.92201,6.0778,6.1412,9.4841.21912,3.40672-2.1751,4.68281-5.34771,2.85099s-5.92201-6.07738-6.1412-9.4841c-.21912-3.40641,2.1751-4.68281,5.34771-2.85099Z" fill="#4a4c56"/></g></g><g><path d="M266.11931,405.03658c-6.6626,11.5966-3.1179,96.69048,13.56211,98.1345,11.3699.98431,5.5452-42.80281,10.62941-79.11572,5.2142-37.24178-17.5289-30.61539-24.19149-19.01878h-.00002Z" fill="#ffd6d6"/><path d="M277.75101,501.0173s-43.5574-24.4117-27.3794-43.07861c13.8706-16.00449.81079-78.6285,46.42019-78.6285,4.78029,0-5.05199,111.74488-19.04079,121.70712Z" fill="#F59E0B"/><path d="M269.2482,495.13248c-7.76791,1.11439-7.81521-72.8907.6558-70.73711s2.22839,70.3233-.6558,70.73711Z" opacity=".1"/><g><path d="M394.8661,990.8136c-16.912,9.76418-58.04249,1.8483-91.8675-17.68059-33.825-19.52888-47.53571-43.2756-30.6237-53.0397s58.04251-1.8483,91.8675,17.68059,47.53571,43.2756,30.6237,53.0397Z" opacity=".05"/><g><path d="M366.9043,954.47456c-.0135.01251-.01781.03113-.02659.0473l-10.80502.9375,7.533,2.77229c-13.6655,22.59132-25.87818,4.54788-27.4995,5.0666-1.66821.53383-6.30249,12.82372-2.52098,22.90787.82008,2.18681.72159,2.45987,2.1059,3.80707.0713.78171.2227,1.61598.5249,2.34222.87231,2.0948,7.0713,5.42213,13.03539,5.42213s17.18948-9.85764,17.18948-9.85764v-2.23251c5.2874-3.46703,10.56572-6.6581,12.9253-6.78833,4.64008-.25597,27.32979-15.60081,27.32979-24.42451s-29.8027-9.2588-39.79172,0h.00004Z" fill="#4a4c56"/><path d="M364.6162,958.10768l-8.06549-2.62657c.0293-1.07391.05299-2.14752.09499-3.20007.30182-7.54082,3.50712-19.53056-3.45291-19.69429s-16.16989-4.37202-16.68598,17.13821c0,0-.31349,13.41751,0,15.3611s3.44181,5.87807,14.85298,5.87807c2.72678,0,6.2471-1.55922,6.2471-1.55922,0,0,7.77691-2.89131,10.55721-8.05458l-3.5479-3.24272v.00008Z" fill="#ffd6d6"/></g><g><path d="M317.0993,922.81303c-.0135.01251-.0178.03113-.02661.0473l-10.805.9375,7.533,2.77229c-13.6655,22.59132-25.8782,4.54788-27.4995,5.0666-1.66821.53383-6.30249,12.82372-2.521,22.90787.8201,2.18681.72161,2.45987,2.1059,3.80707.0713.78171.2227,1.61598.5249,2.34222.87231,2.0948,7.0713,5.42213,13.03539,5.42213s17.1895-9.85764,17.1895-9.85764v-2.23251c5.2874-3.46703,10.56572-6.6581,12.9253-6.78833,4.64008-.25597,27.32979-15.60081,27.32979-24.42451s-29.8027-9.2588-39.7917,0h.00002Z" fill="#4a4c56"/><path d="M314.81119,926.44608l-8.06551-2.62657c.0293-1.07391.05301-2.14752.09501-3.20007.3018-7.54082,3.5071-19.53056-3.45289-19.69429s-16.16989-4.37202-16.686,17.13821c0,0-.31349,13.41751,0,15.3611s3.44179,5.87807,14.853,5.87807c2.7268,0,6.2471-1.55922,6.2471-1.55922,0,0,7.77691-2.89131,10.55719-8.05458l-3.5479-3.24272v.00008Z" fill="#ffd6d6"/></g><path d="M279.5611,558.85368c-15.3779,15.39768-13.1912,38.98899-6.87611,61.14819,6.3151,22.15923,68.30481-37.58652,68.30481-37.58652l-61.4287-23.56171v.00004Z" fill="#3b435a"/><path d="M325.90069,731.43509s-6.1714,103.53798-5.53181,179.70688c.03632,4.3187-16.4555,18.31718-21.10929,18.52722-5.69071.25681-20.73299-4.89563-20.28959-12.91397,2.54339-45.99564-6.2504-150.06546-7.423-189.92279-2.0163-68.53691,54.35369,4.60274,54.35369,4.60274v-.00008Z" fill="#3b435a"/><path d="M270.7777,582.85912c-.51439,106.96404-7.37011,196.81839,27.77691,198.89763,45.14511,2.67059,27.86949-130.81726,32.58549-177.5116,6.41998-63.5659-60.2239-50.17429-60.3624-21.38599v-.00004Z" fill="#3b435a"/><path d="M321.96751,828.93852l-17.50059-181.69922c-3.8434-2.80159-8.19139-9.85531-12.6819-18.10982,0,0,6.9562,21.84639,11.16091,24.17732,0,0-.23319,1.45203-.376,2.64648-3.9142,32.71667,9.47081,116.30608,19.39758,172.98515v.00008Z" fill="#1a1a1a" opacity=".1"/><path d="M374.94881,760.34767s-6.17142,107.67372-5.53181,183.84262c.03632,4.3187-16.4555,14.18152-21.10931,14.39148-5.69069.25681-20.73299-4.89563-20.28961-12.91397,2.54341-45.99556-9.0312-135.00763-8.1496-174.87236.68619-31.02623,55.0803-10.44769,55.0803-10.44769l.00004-.00008Z" fill="#3b435a"/><path d="M313.35859,608.65959c-.51439,106.96404-.9029,199.93057,34.24398,202.00966,45.14511,2.67059,21.40228-133.92937,26.11839-180.62378,6.41998-63.5659-60.2239-50.17429-60.3624-21.38599l.00002.00011Z" fill="#3b435a"/></g><g><path d="M375.92861,550.59299c-1.41762-14.96281-5.24971-35.24479-10.56351-53.93551-6.65791-23.41911,5.79079-49.06189,3.46432-74.43321-.03799-.415-.06889-.83031-.11501-1.24561-2.86591-25.7766-32.93491-31.84589-32.93491-31.84589l-38.98781-9.82269s-22.80819.07351-26.72081,14.32678c-3.91291,14.25331-3.9818,57.35039-2.26601,75.18318,1.7157,17.83279,1.67561,99.5277-2.50799,128.52089-1.47011,10.18822,59.81901,28.83812,75.69269,27.58942,15.87379-1.2484,37.27329-13.01338,41.57799-19.58359,1.79192-2.73521-5.62801-44.08218-6.6391-54.75391l.00015.00015Z" fill="#F59E0B"/><path d="M367.5433,428.47778c-14.36249,6.75541-29.92531,19.18308-29.03858,41.20071,1.15719,28.7355,18.69701,67.81769,36.93699,87.63119-1.41762-14.96281-3.6874-39.88441-8.8047-53.95691-7.8783-21.66531,1.45851-49.2178.9063-74.87499Z" opacity=".1"/></g><g><path d="M318.22041,392.89558c6.84921.0098,16.5929-1.53961,20.6786-2.56321-.06439-.40352-.11028-.84629-.1305-1.34689-.28172-6.99429,9.02618-28.1871-1.24741-34.77901s-28.2992-6.8668-29.8147,5.2039c-1.339,10.66479-6.29499,22.17098-6.99591,23.4351,2.8133,3.53081,9.04831,10.03792,17.50999,10.0502l-.00008-.00008Z" fill="#fcc"/><path d="M358.93871,311.6843c1.92848,2.78851-.89352,14.54159.57449,20.54501,4.63791,18.9669,3.72631,44.5649-28.302,45.57228-31.29459.98431-32.70649-14.63161-33.69761-34.60609s-9.1724-29.14881,11.69001-40.6946c20.86239-11.54579,41.68079-2.4626,49.73511,9.1835v-.0001Z" fill="#ffcfd0"/><path d="M364.0884,314.014c1.19339-21.8671-31.76079-30.54369-47.75-28.74599-6.42851.72281-21.97201,5.28151-24.2407,14.35619-26.47831,24.02342,3.6199,70.39511,22.3245,72.89789,8.08962,1.08238,17.08368-.42519,21.6046-5.2961.63911-.68871,3.4433-4.48479,2.51221-4.35902-3.08739.41698-8.25611-2.77012-7.70321-13.64922.88482-17.40791,7.95769-8.91121,9.6336-5.84862s2.40898,9.16191,2.40898,9.16191l2.12631,3.4568,2.65301-9.97238c5.29388-6.49738,7.99278-11.26171,9.67541-17.7066,2.1814-6.4539,5.68901-8.3729,6.75529-14.2948v-.00008Z" fill="#3c4358"/></g><path d="M302.0739,381.04118c-.93981.36949-2.9076.99281-2.55301,2.41112s8.7351,9.54109,16.05089,10.25761,23.59589-.61279,24.72019-2.11498c1.70929-2.28378-36.83519-11.09741-38.2181-10.55382l.00002.00008Z" fill="#fcc"/><path d="M427.9282,445.10681c8.50922-7.6545-29.1991-125.5579-41.24882-121.13602-7.51678,2.75841,7.31861,90.04822,19.27158,108.53539s21.9772,12.60059,21.9772,12.60059l.00004.00004Z" fill="#ffd3d4"/><path d="M356.62189,431.9656c-4.24191,12.68372,51.66191,17.11231,68.29868,15.23472,11.34041-1.27991-5.02022-28.73379-42.8476-29.30969-37.82429-.57579-21.20911,1.3913-25.45109,14.07501v-.00004Z" fill="#ffd3d4"/><path d="M340.98969,536.53648c5.8091-10.8213,21.9627-60.69328,21.9627-66.96651s5.1754,2.97981,5.1754,2.97981c0,0-22.11311,73.39661-28.38631,77.631s1.24821-13.64422,1.24821-13.64422v-.00008Z" fill="#545456"/><path d="M349.84829,394.63169c-.48931-1.34232,21.38859,1.2291,27.2422,11.7831,5.06378,9.12991,37.882-13.11069,39.52881,14.2371.77431,12.85839,3.1152,19.6645,2.43229,27.26551,0,0,5.14271,14.28371-12.0755,24.82651,0,0-65.56332,19.45728-68.97678-20.68932,0,0,12.6524-55.219,11.84891-57.4229h.00008Z" fill="#F59E0B"/><path d="M384.67899,336.0569c-8.45989-4.16538-8.57689-7.84431-5.8334-11.01929s-11.10901-12.09169-3.38161-17.3753c12.81658-8.76329,20.00179,11.53561,21.01398,16.80069s-3.9521,10.26428-6.50711,11.73592-5.2919-.14198-5.2919-.14198l.00004-.00004Z" fill="#ffd3d4"/></g><path d="M275.4277,433.94958c-13.9987,10.5423-24.3232,101.6581-23.8743,112.95341s17.25901,32.3727,46.33631,31.62331,47.5174-12.79781,47.94838-24.84612-7.20001-102.03789-13.03558-112.39029c-5.83561-10.3524-30.15779-15.53539-37.8233-15.53539s-19.55151,8.19511-19.55151,8.19511v-.00004Z" fill="#545456"/><path d="M316.39839,434.00051c4.384-15.65281,25.84339-43.26939,27.8986-43.08262s7.57912,2.42538,8.40759,2.99179-25.5217,33.63892-26.02829,46.30669c-.1194,2.98698-10.278-6.2159-10.278-6.2159l.0001.00004Z" fill="#545456"/><path d="M280.1964,432.56901c1.474-29.15588,13.08849-53.5622,15.1281-53.5622s5.2845.66158,5.88711,1.01978-6.96489,12.3188-10.6986,48.45119c-.324,3.13541-10.3166,4.09119-10.3166,4.09119v.00004Z" fill="#545456"/></g><g><g><path d="M454.59782,1017.61383c14.3412-8.27988,49.21959-1.56731,77.90291,14.99298,28.68328,16.56029,40.30991,36.69731,25.9687,44.97726-14.3412,8.27988-49.21959,1.56731-77.90291-14.99298-28.68328-16.56029-40.30991-36.69731-25.9687-44.97726Z" fill="#1a1a1a" opacity=".05"/><g><g><path d="M436.3961,504.18381c-6.81351,10.9457-4.22501,94.35711,7.164,95.0843s12.30942-40.64461,17.87262-75.23849c5.7056-35.47871-18.22311-30.79151-25.03658-19.84589l-.00004.00008Z" fill="#ffd3d4"/><path d="M441.0461,583.8446c-13.37631,4.65302-.2071,100.12589,7.62829,99.97643,7.01809-.1339,9.76349-70.54192,5.38952-88.49319-4.37389-17.95132-13.01781-11.48319-13.01781-11.48319v-.00004Z" fill="#ffd3d4"/><path d="M457.91389,678.83308c-.4668-4.6846-3.94508-11.78932-11.44661-12.64366-7.7895-.88722-10.8847,11.2854-10.91999,13.94012-.23972,18.05267,6.29089,19.84642,12.556,21.14342s10.7822-12.68967,9.8106-22.4398v-.00008Z" fill="#ffd3d4"/></g><path d="M461.18919,488.49548c-7.2179,1.37611-18.3176,4.86301-24.78321,12.79419-10.51399,12.89719-13.43689,57.35771-12.64278,58.3334.7019.86239,10.6152,8.96622,18.14522,8.9669,30.44182.00259,19.28082-80.09449,19.28082-80.09449h-.00004Z" fill="#F59E0B"/><path d="M457.16549,515.07019s-5.50678,5.9058-8.05962,10.9483c-6.72951,13.293-11.9252,32.8046,1.65871,38.69099s6.40091-49.63928,6.40091-49.63928Z" opacity=".1"/><g><path d="M535.87238,526.06339c-1.48499-5.47119-4.0979-11.22559-8.6359-16.55548-9.9194-11.65131-26.14342-18.73329-50.16922-22.08061-4.07139-.56728-17.93591-2.2007-26.33221,5.65868-11.31931,10.5957-5.6955,32.84592-4.41799,53.99891,1.33331,22.0805,10.77389,25.7988,4.96639,75.14469-4.11991,35.00584,37.22229,46.55209,55.2319,47.0937,18.00961.54199,11.1969-11.31073,20.7526-11.10626,9.55509.2037,10.62012-19.15741,8.68351-28.29319-.35461-1.6724-.6451-3.57861-.83801-5.7777-.1392-1.58649.00061-3.34549.1453-5.2692.2002-2.65671.41019-5.6374-.0922-8.99899-4.05701-27.16801-5.2103-31.02982,4.92371-57.789.31521-.8321.60299-1.68758.88558-2.5452,2.52659-7.6646-3.42381-17.28989-5.10349-23.48019l.00004-.00015Z" fill="#F59E0B"/><path d="M507.60811,566.36681c1.3958,15.8009,18.56838,43.43521,27.6506,52.51011.2002-2.65671.41019-5.6374-.0922-8.99899-4.05701-27.16801-5.2103-31.02982,4.92371-57.789.31521-.8321.60299-1.68758.88558-2.5452-12.99141-3.41949-35.50232-7.34119-33.36769,16.82308Z" opacity=".1"/></g><path d="M447.3151,703.97812s-11.77429-40.80383,1.30348-80.66029c1.32408-4.0353.43621-16.27842,2.84531-16.2738,1.26831.0024,23.1493,21.82888,53.01289,21.1908,17.01778-.36362,30.13062-8.74149,30.7785-8.09361s1.58218,15.18372,1.58218,15.18372c5.6292,1.50108,5.54668,71.02257,5.54668,71.02257l-95.06901-2.36938h-.00004Z" fill="#3c4358"/><g><path d="M476.30131,475.41409c-1.41991,6.46461-5.079,13.4082-.11848,15.66299s19.96521,3.70239,20.303-.57468c.26508-3.3564,1.46839-17.11761-.00069-18.4705s-20.18372,3.38219-20.18372,3.38219h-.00011Z" fill="#ffc9ca"/><path d="M524.16809,470.12669c-.2747,1.86218-2.7689,2.41409-8.24841,1.51169,0,0,11.11969,6.50791,10.64678-1.1058l-2.39841-.40588h.00004Z" fill="#3c4358"/><path d="M462.4955,440.15862c-2.26521,13.76781,2.94472,37.11922,16.91071,41.62628,17.51331,5.65189,39.7406-1.11019,43.2148-19.1819,6.93001-36.04771-5.03201-42.8471-22.93499-47.10609s-34.20292,6.50318-37.19051,24.66171Z" fill="#ffd3d4"/><path d="M511.84448,446.754c.97759-2.18948,10.01389-3.2225,13.45848-8.6805s-3.16238-27.15759-19.84249-31.97258c-31.79451-9.17789-46.7292,9.4022-51.00021,21.00071s-4.33041,24.2704,7.5248,37.39441c10.2795,11.3797,16.8261,15.15282,28.6364,13.54229,7.00199-.9549,16.30718-13.84731,14.33689-12.86129-6.65859,3.33229-8.22071-13.9859-5.38342-17.96612,1.71692-2.40849,9.71432,3.09738,9.71432,3.09738,0,0,1.55602-1.31641,2.5552-3.55431h.00004Z" fill="#3c4358"/><path d="M451.03889,474.84501c-6.12091-23.27679,12.30011-33.5947,23.62759-28.34759s-.04349,31.91132-7.2702,34.47128-14.60281.54901-16.35738-6.12381v.00011Z" fill="#3c4358"/><path d="M523.31268,461.08799c-10.443-21.0004,2.8056-26.26881-1.88339-24.4656-4.68899,1.80302-12.01969,7.03812-12.01969,7.03812-.228,4.91119,7.70901,14.57699,9.8558,17.323,3.30631,4.22901,5.17208,7.3164,4.90261,9.14322l2.39841.40588c-.12569-2.02419-1.06049-5.03399-3.25378-9.44462h.00004Z" fill="#3c4358"/></g><path d="M453.41759,591.58379c.04372,1.54362-2.55119,7.70649-2.58991,9.56001s-.5035,6.35208,1.1031,8.18291c.34069.38818,13.85281,12.1344,18.01971,12.05101,1.9112-.03819,40.24601,13.51158,42.4374,5.2467,1.01631-3.83301-57.79572-32.8532-57.99438-33.82179-.29888-1.45721-.97591-1.2188-.97591-1.2188v-.00004Z" fill="#F59E0B"/><g><path d="M487.74799,1006.94237c-.0108.00999-.01431.02487-.02129.03777l-8.64399.74997,6.02638,2.21779c-10.93239,18.07297-20.70251,3.63831-21.99959,4.05327-1.33461.42702-5.042,10.25887-2.01679,18.32626.65609,1.7495.57732,1.96793,1.68468,3.04573.05699.62538.17811,1.2928.41988,1.8737.6979,1.67587,5.65708,4.33769,10.42831,4.33769s13.7516-7.88612,13.7516-7.88612v-1.78596c4.22989-2.77359,8.45249-5.32646,10.34019-5.43068,3.71208-.20477,21.8639-12.48062,21.8639-19.53957s-23.8422-7.40707-31.83342,0l.00011.00015Z" fill="#4a4c56"/><path d="M485.91751,1009.84879l-6.45241-2.10129c.02338-.85907.04238-1.71799.07599-2.56012.24139-6.03271,3.15479-23.91663-2.41322-24.04762-3.48-.08186-12.16782-1.86478-13.80932,3.76709-.98499,3.37921.2663,11.78253.1115,18.23563,0,0-.25082,10.73402,0,12.28889s2.75349,4.70253,11.8824,4.70253c2.1814,0,4.99771-1.24741,4.99771-1.24741,0,0,6.2215-2.313,8.44582-6.44371l-2.83829-2.59407-.00019.00008Z" fill="#ffd6d6"/></g><g><path d="M529.67701,1031.40099c-.0108.00999-.01431.02487-.02129.03777l-8.64399.74997,6.02638,2.21779c-10.93239,18.07297-20.70251,3.63831-21.99959,4.05327-1.33461.42702-5.042,10.25887-2.01679,18.32626.65609,1.7495.57732,1.96793,1.68468,3.04573.05699.62538.17811,1.2928.41988,1.8737.6979,1.67587,5.65708,4.33769,10.42831,4.33769s13.7516-7.88612,13.7516-7.88612v-1.78596c4.22989-2.77359,8.45249-5.32646,10.34019-5.43068,3.71208-.20477,21.8639-12.48062,21.8639-19.53957s-23.8422-7.40707-31.83342,0l.00011.00015Z" fill="#4a4c56"/><path d="M527.84649,1034.3074l-6.45241-2.10129c.02338-.85907.04238-1.71799.07599-2.56012.24139-6.03271,3.15479-23.91663-2.41322-24.04762-3.48-.08186-12.16782-1.86478-13.80928,3.76709-.98499,3.37921.2663,11.78253.1115,18.23563,0,0-.25082,10.73402,0,12.28889s2.75349,4.70253,11.8824,4.70253c2.1814,0,4.99771-1.24741,4.99771-1.24741,0,0,6.2215-2.313,8.44582-6.44371l-2.83829-2.59407-.00023.00008Z" fill="#ffd6d6"/></g><g><path d="M499.23512,821.82487s-4.66,80.72029-4.02168,156.88919c.0362,4.3187-16.4249,9.29527-21.0701,9.50531-5.6802.25681-20.6945-4.89563-20.25188-12.91397,2.53868-45.99556-3.59581-96.65367-4.62681-160.05112-.50461-31.02966,49.9704,6.57066,49.9704,6.57066l.00008-.00008Z" fill="#3c4358"/><path d="M447.15038,667.82013c.0309,131.045,2.89188,157.84981,3.89069,190.261.2076,6.73599,19.23962,15.43938,24.9472,13.43826,35.49629-12.44499,24.84138-128.17421,30.33268-174.69559,5.4063-45.8017-59.1774-57.7803-59.17061-29.00368h.00004Z" fill="#3c4358"/></g><path d="M488.79131,925.19447l.96691-236.37383c-2.91199-.00267-5.33531,7.44614-6.99459,12.99141-5.25661-4.27589-13.04661-30.48561-13.04661-30.48561-.34241,9.59122,5.33409,31.15173,8.03669,34.94637-7.11849,42.73727-.99251,166.92909,11.03748,218.92159l.00011.00008Z" fill="#1a1a1a" opacity=".1"/><g><path d="M538.61671,847.31956s-4.27349,80.67284-3.63522,156.84166c.0362,4.3187-16.4249,9.29527-21.0701,9.50531-5.6802.25681-20.6945-4.89563-20.25188-12.91397,2.53868-45.99564-17.19349-131.33141,1.4463-148.68423,22.71439-21.14601,43.51082-4.74876,43.51082-4.74876h.00008Z" fill="#3c4358"/><path d="M482.40582,677.584c1.33621,89.25003,2.18849,165.0058,5.04471,197.60597.6813,7.77618,50.82611-20.89767,51.16619-27.87041,1.43459-29.41322,3.75549-87.1582,3.75549-134.5314,0-76.03699-60.39719-63.97758-59.96639-35.20424v.00008Z" fill="#3c4358"/></g><path d="M500.51788,615.9803c5.88242-10.78159,22.37389-60.54291,22.41638-66.81599s5.15511,3.01479,5.15511,3.01479c0,0-22.61051,73.2449-28.91232,77.43671s1.34071-13.63548,1.34071-13.63548l.00011-.00004Z" fill="#545456"/><g><g><path d="M515.98061,515.42728c10.4689-8.32298,89.40891-13.9809,91.62899-2.78648s-32.69058,14.32758-67.83379,24.7887c-36.0421,10.72861-34.26411-13.6792-23.79509-22.00218l-.00011-.00004Z" fill="#ffd3d4"/><path d="M594.7934,521.24599c9.45141,7.374,65.2755-51.65749,61.65092-57.2295-3.24654-4.99081-51.65531,29.3269-63.0159,41.20621s1.36501,16.02341,1.36501,16.02341l-.00004-.00011Z" fill="#ffd3d4"/><path d="M652.50473,473.0592c-4.73953-2.23808-8.33183-7.2517-1.8515-13.42339s11.10909-4.32018,13.88634-.77148,4.01161,7.56031,2.62299,10.1833-9.10332,6.6346-14.65782,4.01161v-.00004Z" fill="#ffd3d4"/><path d="M655.28198,459.79c4.01161-5.5545,12.60811-16.81789,16.66359-15.1207s-8.22144,15.27489-11.36253,16.66359-5.30113-1.54289-5.30113-1.54289h.00008Z" fill="#ffd3d4"/></g><path d="M508.22262,551.05869c2.30492,4.68761,27.23412,7.90291,42.99561,4.51111,12.87819-2.7713,8.6002-53.7534,8.6002-53.7534,0,0-8.90331,4.43439-17.4342,2.6952-5.8041-1.18328-19.4899-.59479-23.40141-2.61539s-17.79041,34.86511-10.76019,49.16252v-.00004Z" fill="#F59E0B"/></g><path d="M471.7038,487.05742c-.70068.1704-1.89671.82779-1.60519,1.84929s5.66372,6.1314,12.63859,6.6787c4.89639.38429,19.56879,3.14739,20.59269-1.2653.67081-2.8907-27.12368-8.35751-31.62609-7.2628v.00011Z" fill="#fcc"/></g></g><path d="M448.41049,529.16599c-12.8088,9.64619-22.25571,93.01701-21.8449,103.3522s15.79201,29.62101,42.39761,28.93528,43.47828-11.7099,43.87272-22.73418c.3944-11.02421-6.58798-93.36449-11.9276-102.83691s-27.59441-14.2149-34.60831-14.2149-17.8896,7.49851-17.8896,7.49851h.00008Z" fill="#545456"/><path d="M475.1379,536.33339c4.384-15.65281,25.84339-43.26939,27.8986-43.08258s7.57912,2.42538,8.40759,2.99179-25.5217,33.63892-26.02829,46.30669c-.1194,2.98698-10.27802-6.2159-10.27802-6.2159h.00011Z" fill="#545456"/><path d="M451.46042,538.44688c1.474-29.15588,13.08849-53.5622,15.1281-53.5622s5.2845.66158,5.88711,1.01978-6.96491,12.3188-10.69859,48.45119c-.32398,3.13541-10.31658,4.09119-10.31658,4.09119l-.00004.00004Z" fill="#545456"/></g></g></g></svg>