<svg xmlns="http://www.w3.org/2000/svg" xmlns:xlink="http://www.w3.org/1999/xlink" version="1.1" id="_レイヤー_2" x="0px" y="0px" viewBox="0 0 843.4837 932.5318" enable-background="new 0 0 843.4837 932.5318" width="843px" height="933px" class="lg:!max-h-[405px] hoverScaleIllustration rectangleModalImage" role="img" aria-label="契約1 アイソメトリック イラスト"><title>契約1 アイソメトリック イラスト</title><g id="_レイヤー_2-2"><g><g><g><g><polygon fill="#FFFFFF" points="182.73137,362.60849 0.86597,467.60849 0.86597,170.6172 182.73137,65.6172"/><path fill="#F59E0B" d="M182.73137,363.6084l-181.8654,105c-0.4787,0.27643-0.866,0.05267-0.866-0.5V171.11711&#10;&#9;&#9;&#9;&#9;&#9;&#9;c0-0.55269,0.3873-1.2236,0.866-1.49998L182.73137,64.6172c0.47871-0.2764,0.866-0.0527,0.866,0.5v296.99127&#10;&#9;&#9;&#9;&#9;&#9;&#9;c0,0.5527-0.38731,1.2236-0.866,1.50003V363.6084z M1.73207,466.10852l180.1333-104V67.1171l-180.1333,104v294.9913V466.10852z"/></g><g><polygon fill="#FFFFFF" points="201.35086,330.35913 19.48557,435.35913 19.48557,138.3678 201.35086,33.3678"/><path fill="#F59E0B" d="M201.35086,331.3591l-181.8653,105c-0.4787,0.2764-0.866,0.05267-0.866-0.5V138.8678&#10;&#9;&#9;&#9;&#9;&#9;&#9;c0-0.5527,0.3873-1.2236,0.866-1.5l181.8653-105c0.47871-0.2764,0.866-0.0527,0.866,0.5v296.99127&#10;&#9;&#9;&#9;&#9;&#9;&#9;C202.21686,330.4118,201.82956,331.0827,201.35086,331.3591z M20.35157,433.8591l180.1333-104.00003V34.8678l-180.1333,104&#10;&#9;&#9;&#9;&#9;&#9;&#9;V433.8591z"/></g><g><polygon fill="#FFFFFF" points="219.97046,298.10971 38.10507,403.10971 38.10507,106.1184 219.97046,1.1184"/><path fill="#F59E0B" d="M219.97046,299.10971L38.10507,404.10968c-0.4787,0.27643-0.866,0.05267-0.866-0.5V106.61841&#10;&#9;&#9;&#9;&#9;&#9;&#9;c0-0.5527,0.3873-1.2236,0.866-1.5L219.97046,0.1185c0.47871-0.2764,0.866-0.0527,0.866,0.5v296.9913&#10;&#9;&#9;&#9;&#9;&#9;&#9;c0,0.55267-0.3873,1.22357-0.866,1.49997V299.10971z M38.97107,401.60968l180.1333-104V2.6184L38.97107,106.61841v294.99133&#10;&#9;&#9;&#9;&#9;&#9;&#9;V401.60968z"/></g><path fill="#DFDFDF" d="M199.37247,67.2744l-141.3353,81.59999c-1.6261,0.93881-2.9445,0.1777-2.9445-1.69989&#10;&#9;&#9;&#9;&#9;&#9;s1.3184-4.1611,2.9445-5.0999l141.3353-81.59999c1.6261-0.9388,2.94452-0.1777,2.94452,1.6999&#10;&#9;&#9;&#9;&#9;&#9;S200.99858,66.33561,199.37247,67.2744z"/><path fill="#DFDFDF" d="M199.37247,89.3737l-141.3353,81.59999c-1.6261,0.93881-2.9445,0.17772-2.9445-1.69989&#10;&#9;&#9;&#9;&#9;&#9;c0-1.87762,1.31841-4.1611,2.9445-5.09991l141.3353-81.6c1.6261-0.9388,2.94452-0.1777,2.94452,1.6999&#10;&#9;&#9;&#9;&#9;&#9;s-1.31841,4.1611-2.94452,5.0999V89.3737z"/><path fill="#DFDFDF" d="M199.37247,111.4731L58.03717,193.0731c-1.6261,0.9388-2.9445,0.1777-2.9445-1.69991&#10;&#9;&#9;&#9;&#9;&#9;c0-1.87759,1.31841-4.1611,2.9445-5.09991l141.3353-81.59999c1.6261-0.9388,2.94452-0.1777,2.94452,1.69989&#10;&#9;&#9;&#9;&#9;&#9;s-1.31841,4.1611-2.94452,5.0999V111.4731z"/><path fill="#DFDFDF" d="M199.37247,133.4725l-141.3353,81.59999c-1.6261,0.9388-2.9445,0.17772-2.9445-1.69991&#10;&#9;&#9;&#9;&#9;&#9;c0-1.87759,1.31841-4.16109,2.9445-5.0999l141.3353-81.60001c1.6261-0.9388,2.94452-0.1777,2.94452,1.69991&#10;&#9;&#9;&#9;&#9;&#9;c0,1.87759-1.31841,4.1611-2.94452,5.09988V133.4725z"/><path fill="#DFDFDF" d="M199.37247,155.4718l-141.3353,81.60001c-1.6261,0.93878-2.9445,0.1777-2.9445-1.69992&#10;&#9;&#9;&#9;&#9;&#9;c0-1.87759,1.31841-4.16109,2.9445-5.0999l141.3353-81.59999c1.6261-0.93881,2.94452-0.1777,2.94452,1.69989&#10;&#9;&#9;&#9;&#9;&#9;s-1.31841,4.1611-2.94452,5.0999V155.4718z"/><path fill="#DFDFDF" d="M199.37247,177.47119L58.03717,259.0712c-1.6261,0.93881-2.9445,0.1777-2.9445-1.69992&#10;&#9;&#9;&#9;&#9;&#9;c0-1.87758,1.31841-4.16107,2.9445-5.09988l141.3353-81.60001c1.6261-0.9388,2.94452-0.1777,2.94452,1.69991&#10;&#9;&#9;&#9;&#9;&#9;S200.99858,176.53238,199.37247,177.47119z"/><path fill="#DFDFDF" d="M199.37247,199.4705L58.03717,281.0705c-1.6261,0.93881-2.9445,0.1777-2.9445-1.69989&#10;&#9;&#9;&#9;&#9;&#9;s1.31841-4.1611,2.9445-5.09991l141.3353-81.60001c1.6261-0.9388,2.94452-0.1777,2.94452,1.69991&#10;&#9;&#9;&#9;&#9;&#9;C202.31699,196.24818,200.99858,198.53168,199.37247,199.4705z"/><ellipse transform="matrix(0.50002 -0.86601 0.86601 0.50002 -248.26697 210.83069)" fill="#F59E0B" cx="58.45662" cy="320.42719" rx="4.1641" ry="2.4041"/><ellipse transform="matrix(0.50002 -0.86601 0.86601 0.50002 -237.87498 216.8307)" fill="#DFDFDF" cx="68.84893" cy="314.42719" rx="4.1641" ry="2.4041"/><ellipse transform="matrix(0.50002 -0.86601 0.86601 0.50002 -227.48297 222.8307)" fill="#F59E0B" cx="79.24124" cy="308.42719" rx="4.1641" ry="2.4041"/><ellipse transform="matrix(0.50002 -0.86601 0.86601 0.50002 -217.09097 228.8307)" fill="#DFDFDF" cx="89.63354" cy="302.42719" rx="4.1641" ry="2.4041"/><ellipse transform="matrix(0.50002 -0.86601 0.86601 0.50002 -206.69899 234.8307)" fill="#F59E0B" cx="100.02584" cy="296.42719" rx="4.1641" ry="2.4041"/><ellipse transform="matrix(0.50002 -0.86601 0.86601 0.50002 -196.30701 240.8307)" fill="#DFDFDF" cx="110.41814" cy="290.42722" rx="4.1641" ry="2.4041"/><path fill="#F59E0B" d="M149.38937,310.76089c-9.82231,5.6709-10.9623-1.71561-11.5746-5.6842&#10;&#9;&#9;&#9;&#9;&#9;c-0.51501-3.3353-0.65291-3.2558-1.41571-2.81531c-4.81639,2.78079-9.08229,13.20529-10.3187,16.98651&#10;&#9;&#9;&#9;&#9;&#9;c-0.68671,2.09659-2.43651,3.8461-3.909,3.90912c-1.4733,0.06149-2.1169-1.58151-1.436-3.67761&#10;&#9;&#9;&#9;&#9;&#9;c0.2444-0.75238,6.0952-18.4942,15.6637-24.01859c5.90401-3.40869,6.73199,1.95691,7.2267,5.16229&#10;&#9;&#9;&#9;&#9;&#9;c0.6292,4.0741,0.9455,6.1189,5.7636,3.33719c12.63261-7.29349,48.5854-33.95691,48.94731-34.2254&#10;&#9;&#9;&#9;&#9;&#9;c1.606-1.18509,3.10129-0.76321,3.3313,0.96231c0.23001,1.72549-0.8889,4.09409-2.49911,5.2894&#10;&#9;&#9;&#9;&#9;&#9;c-1.49359,1.1084-36.73,27.24008-49.7795,34.7742L149.38937,310.76089z"/></g><g><g><path fill="#D3C2A8" d="M206.70567,264.0849l-5.61549,9.72571l8.9361-4.78421c-0.6579-3.67752,0.03079-8.61139,0.942-13.7525&#10;&#9;&#9;&#9;&#9;&#9;&#9;c-3.73912,3.2905-7.5195,6.17688-11.43941,7.69141l0.32431,10.13098l5.61551-9.72568l1.2372,0.71429H206.70567z"/><polygon fill="#4A4C56" points="201.09018,273.81049 206.70567,264.0849 205.46848,263.37061 199.85306,273.09619 &#10;&#9;&#9;&#9;&#9;&#9;&#9;199.89636,274.44971"/><circle fill="#4A4C56" cx="206.20618" cy="263.52148" r="1.6667"/></g><g><path fill="#545456" d="M285.48477,137.0601c2.02438-3.5061-7.36792-8.92911-9.3923-5.4229c0,0-1.14832,1.8414-3.10779,4.98909&#10;&#9;&#9;&#9;&#9;&#9;&#9;l9.733,5.61971c1.7464-3.27071,2.76709-5.18581,2.76709-5.18581V137.0601z"/><path fill="#545456" d="M224.40756,215.73021c-0.6385,1.1058-1.28099,2.2442-1.9239,3.4043l14.02589,8.0983&#10;&#9;&#9;&#9;&#9;&#9;&#9;c0.68332-1.1368,1.34792-2.26241,1.98642-3.36821c7.5753-13.12,33.34851-61.2636,43.15662-79.6246l-9.86234-5.6944&#10;&#9;&#9;&#9;&#9;&#9;&#9;C260.79227,156.2196,231.98297,202.61009,224.40756,215.73021z"/><path fill="#545456" d="M205.35747,253.81229c-0.38139,0.84621-0.0583,1.84091,0.7455,2.30499l3.28351,1.8959l3.28349,1.8959&#10;&#9;&#9;&#9;&#9;&#9;&#9;c0.8038,0.46411,1.8269,0.24661,2.369-0.50681c2.92549-4.06479,12.01491-16.8432,19.58731-29.08238l-13.87469-8.01109&#10;&#9;&#9;&#9;&#9;&#9;&#9;c-6.81401,12.67709-13.3363,26.93759-15.3941,31.50351L205.35747,253.81229z"/><path fill="#C6AD91" d="M220.75156,222.3089l13.87471,8.01109c0.6402-1.0349,1.2693-2.0656,1.88319-3.0871l-14.02589-8.0983&#10;&#9;&#9;&#9;&#9;&#9;&#9;c-0.57779,1.0424-1.1559,2.10251-1.7321,3.17439L220.75156,222.3089z"/><path fill="#C6AD91" d="M272.98468,136.6263c-0.37003,0.59441-0.76892,1.23531-1.19452,1.9194l9.8623,5.6944&#10;&#9;&#9;&#9;&#9;&#9;&#9;c0.3797-0.7106,0.73523-1.3765,1.06512-1.99409l-9.733-5.61971H272.98468z"/></g><path fill="#C6AD91" d="M273.32047,137.3419c0,0-1.42331-1.8654-2.81979,0.45909&#10;&#9;&#9;&#9;&#9;&#9;c-1.39651,2.32449-16.29321,24.51001-16.35381,25.51862s0.88751,2.0779,2.9048,2.19901&#10;&#9;&#9;&#9;&#9;&#9;c2.0509,0.12318,16.2688-28.17682,16.2688-28.17682V137.3419z"/></g></g><g><g><path fill="#CFCFCF" d="M216.66087,565.48639v11.81781c0,1.10254-0.77721,2.44873-1.7321,2.99994l-39.83722,23&#10;&#9;&#9;&#9;&#9;&#9;c-0.95479,0.55133-1.73209,0.1026-1.73209-0.99994v-45.99866c0-1.10248,0.77719-2.44867,1.73209-2.99994l39.83722-22.99994&#10;&#9;&#9;&#9;&#9;&#9;c0.9548-0.55133,1.7321-0.10266,1.7321,0.99988v5.8988l3.4641-5.99976v-1.89905c0-3.30847-2.3308-4.65405-5.1962-2.99976&#10;&#9;&#9;&#9;&#9;&#9;l-39.83722,23c-2.8653,1.65424-5.1962,5.69128-5.1962,8.99976v45.99872c0,3.30847,2.3308,4.65405,5.1962,2.99976&#10;&#9;&#9;&#9;&#9;&#9;l39.83722-22.99994c2.8653-1.6543,5.1962-5.69135,5.1962-8.99982v-15.8175l-3.4641,5.99982V565.48639z"/><path fill="#F59E0B" d="M201.54088,581.53381c-0.88631,0.51172-1.77348,0.6333-2.4492,0.24219l-17.789-10.2699&#10;&#9;&#9;&#9;&#9;&#9;c-1.35321-0.78015-1.35321-3.31342,0-5.65607c1.3515-2.34271,3.547-3.61029,4.89848-2.82812l15.3398,8.85492l32.58929-56.44421&#10;&#9;&#9;&#9;&#9;&#9;c1.35152-2.34265,3.54701-3.61029,4.8985-2.82812c1.35321,0.78021,1.35321,3.31342,0,5.65613l-35.03848,60.68726&#10;&#9;&#9;&#9;&#9;&#9;c-0.6757,1.17145-1.56291,2.07422-2.44922,2.58594H201.54088z"/></g><g><path fill="#CFCFCF" d="M820.10095,146.42511v11.81779c0,1.10251-0.77716,1.55119-1.73206,0.99989l-39.83722-23&#10;&#9;&#9;&#9;&#9;&#9;c-0.95477-0.5513-1.73212-1.8974-1.73212-2.99989V87.2442c0-1.1025,0.77722-1.55119,1.73212-0.99989l39.83722,23&#10;&#9;&#9;&#9;&#9;&#9;c0.95483,0.5513,1.73206,1.8974,1.73206,2.99989v5.8988l3.46417-1.9998v-1.899c0-3.30849-2.33081-7.34549-5.19623-8.99979&#10;&#9;&#9;&#9;&#9;&#9;l-39.83722-23c-2.8653-1.6543-5.19623-0.30871-5.19623,2.9998v45.9987c0,3.3085,2.33081,7.3455,5.19623,8.9998l39.83722,23&#10;&#9;&#9;&#9;&#9;&#9;c2.8653,1.6543,5.19623,0.3087,5.19623-2.9998v-15.8175l-3.46417,1.9998V146.42511z"/><path fill="#F59E0B" d="M804.98108,145.0135c-0.88635-0.5117-1.77356-1.41451-2.44922-2.58589l-17.789-30.81091&#10;&#9;&#9;&#9;&#9;&#9;c-1.35321-2.3427-1.35321-4.8759,0-5.6561c1.3515-0.7822,3.547,0.4854,4.8985,2.8281l15.33984,26.56779l32.58923-18.81329&#10;&#9;&#9;&#9;&#9;&#9;c1.3515-0.7822,3.547,0.4854,4.89856,2.82811c1.35321,2.3427,1.35321,4.87589,0,5.6561l-35.03851,20.2283&#10;&#9;&#9;&#9;&#9;&#9;c-0.67572,0.3911-1.56293,0.2695-2.44922-0.2422L804.98108,145.0135z"/></g><g><path fill="#CFCFCF" d="M505.10098,83.4251v11.8178c0,1.1025-0.77719,1.55119-1.73209,0.99989l-39.83722-23&#10;&#9;&#9;&#9;&#9;&#9;c-0.9548-0.5513-1.73209-1.8974-1.73209-2.9999V24.2442c0-1.1025,0.77719-1.5512,1.73209-0.9999l39.83722,23&#10;&#9;&#9;&#9;&#9;&#9;c0.9548,0.5513,1.73209,1.8974,1.73209,2.9999v5.8988l3.46408-1.9998v-1.899c0-3.3085-2.33081-7.3455-5.19617-8.9998&#10;&#9;&#9;&#9;&#9;&#9;l-39.83722-23c-2.8653-1.6543-5.19617-0.3087-5.19617,2.9998v45.9987c0,3.3085,2.33081,7.3455,5.19617,8.9998l39.83722,23&#10;&#9;&#9;&#9;&#9;&#9;c2.8653,1.6543,5.19617,0.30871,5.19617-2.9998v-15.8175l-3.46408,1.9998V83.4251z"/><path fill="#F59E0B" d="M489.98108,82.0135c-0.88629-0.5117-1.7735-1.41451-2.44919-2.58591l-17.789-30.8109&#10;&#9;&#9;&#9;&#9;&#9;c-1.35318-2.3427-1.35318-4.8759,0-5.6561c1.35153-0.7822,3.547,0.4854,4.8985,2.8281L489.9812,72.3565l32.58929-18.8133&#10;&#9;&#9;&#9;&#9;&#9;c1.3515-0.7822,3.547,0.4854,4.8985,2.8281c1.35321,2.3427,1.35321,4.8759,0,5.6561l-35.03848,20.22831&#10;&#9;&#9;&#9;&#9;&#9;c-0.67569,0.3911-1.5629,0.2695-2.44919-0.2422H489.98108z"/></g></g><g><path fill="#F59E0B" d="M738.07416,724.36438c-31.56738-18.22534-82.74725-18.22577-114.31372-0.00098&#10;&#9;&#9;&#9;&#9;c-27.34015,15.78491-30.9812,40.05969-10.96075,58.11951l-113.74762,65.67224&#10;&#9;&#9;&#9;&#9;c-31.61893-13.34839-76.23181-11.78076-104.79163,4.70831c-31.56638,18.22485-31.56567,47.77368,0.00174,65.99896&#10;&#9;&#9;&#9;&#9;c31.56741,18.22534,82.74728,18.22583,114.31369,0.00104c28.07837-16.21112,31.15717-41.37518,9.28339-59.56671&#10;&#9;&#9;&#9;&#9;l113.06018-65.27545c31.72546,14.45959,77.87439,13.24799,107.15637-3.65802&#10;&#9;&#9;&#9;&#9;c31.56641-18.22485,31.56573-47.77362-0.00165-65.99896V724.36438z"/><g><g><g><path fill="#FFD3D4" d="M634.34418,214.69431c-6.7395,10.9915-10.60553,93.34183,0.78815,93.9921&#10;&#9;&#9;&#9;&#9;&#9;&#9;&#9;c11.39362,0.6503,19.05237-39.68509,24.38196-74.3158C664.98022,198.8541,641.08362,203.70282,634.34418,214.69431z"/><path fill="#FFD3D4" d="M645.13782,298.89651c5.51465,13.04477-65.29602,73.56427-70.43781,67.65009&#10;&#9;&#9;&#9;&#9;&#9;&#9;&#9;c-4.60541-5.29733,36.93781-60.82269,53.19019-69.61142C644.14258,288.14648,645.13782,298.89651,645.13782,298.89651z"/><path fill="#FFD3D4" d="M572.20728,356.34702c3.789-2.79401,11.39258-4.97601,17.05542,0.0174&#10;&#9;&#9;&#9;&#9;&#9;&#9;&#9;c5.88019,5.18509-1.07703,15.64218-3.02319,17.448c-13.23474,12.28009-18.94373,8.63681-24.10602,4.85739&#10;&#9;&#9;&#9;&#9;&#9;&#9;&#9;c-5.16229-3.77939,2.18781-16.50748,10.07391-22.32278H572.20728z"/></g><path fill="#EDE6EB" d="M658.74866,198.8868c-5.4173-0.03059-22.94257,4.7149-26.79352,12.7805&#10;&#9;&#9;&#9;&#9;&#9;&#9;c-3.49078,7.3114-2.01599,7.03909-1.2218,8.01479c0.7019,0.86241,2.9787,13.6458,6.49261,15.1142&#10;&#9;&#9;&#9;&#9;&#9;&#9;c3.51392,1.46838,21.52271-35.9095,21.52271-35.9095V198.8868z"/></g><g><path fill="#EDE6EB" d="M742.58075,261.1731c0.47119-8.8291,0.19824-16.00241-1.66937-22.8853&#10;&#9;&#9;&#9;&#9;&#9;&#9;c-1.48492-5.47119-4.09814-11.22571-8.6358-16.5556c-9.91943-11.65131-29.52325-22.8456-53.54913-26.19289&#10;&#9;&#9;&#9;&#9;&#9;&#9;c-4.07141-0.56721-21.66937,0.78519-30.06592,8.64459c-11.31903,10.5957-12.74677,33.2919-12.74677,54.48331&#10;&#9;&#9;&#9;&#9;&#9;&#9;s18.24445,41.1601,13.29523,74.66019c-5.15155,34.86902,37.22235,46.55222,55.23193,47.09372&#10;&#9;&#9;&#9;&#9;&#9;&#9;c18.00946,0.54199,11.19696-11.31082,20.75244-11.1062c9.55524,0.20358,10.6203-19.15747,8.68365-28.29318&#10;&#9;&#9;&#9;&#9;&#9;&#9;c-0.35455-1.67239-0.64502-3.57861-0.83795-5.77783c-0.3313-3.77728-0.37354-8.4238,0.05316-14.2681&#10;&#9;&#9;&#9;&#9;&#9;&#9;C734.01245,308.36542,742.37103,265.10281,742.58075,261.1731z"/><path opacity="0.05" d="M711.36615,256.3869c-4.61853,35.5531-2.32275,68.08893,21.67291,78.8569&#10;&#9;&#9;&#9;&#9;&#9;&#9;c-0.3313-3.77731-0.37354-8.4238,0.05316-14.26813c0.92023-12.61038,9.27881-55.87299,9.48853-59.8027&#10;&#9;&#9;&#9;&#9;&#9;&#9;c0.47119-8.82909,0.19824-16.0024-1.66937-22.8853c-10.49341,2.85941-28.34662,8.87251-29.54523,18.09911V256.3869z" enable-background="new"/></g><ellipse transform="matrix(0.39156 -0.92015 0.92015 0.39156 -281.40204 1088.36938)" opacity="0.05" fill="#1A1A1A" cx="682.2757" cy="756.96844" rx="25.03693" ry="62.19841" enable-background="new"/><g><g><path fill="#3C4358" d="M644.73615,743.10785c-3.78571,2.8175-16.56897,13.98499-12.63879,18.38989&#10;&#9;&#9;&#9;&#9;&#9;&#9;&#9;c3.93011,4.40491,20.15729,1.22681,29.12897-2.24609s17.06207-28.45264,17.06207-28.45264s-0.8454,10.89221,0.68976,11.94641&#10;&#9;&#9;&#9;&#9;&#9;&#9;&#9;c1.53522,1.05426,2.74139-1.2486,2.74139-2.4549s-0.2984-12.94257,0.28833-14.40967&#10;&#9;&#9;&#9;&#9;&#9;&#9;&#9;c0.58673-1.46704,0.26282-7.08441-1.51581-8.75262c-1.77863-1.66827-4.16876-4.21881-9.61401-4.13989&#10;&#9;&#9;&#9;&#9;&#9;&#9;&#9;c-5.44525,0.07898-17.61554,23.77362-26.14215,30.11951H644.73615z"/><path fill="#FFD3D4" d="M676.07776,674.3869c7.14044,10.97772-4.02716,31.60736,3.22418,41.43646&#10;&#9;&#9;&#9;&#9;&#9;&#9;&#9;c2.4035,3.258-5.32892,19.34027-10.07397,24.93335c-3.0907,3.64282-13.83972,12.90479-20.63812,7.20294&#10;&#9;&#9;&#9;&#9;&#9;&#9;&#9;c-4.34912-3.64758,10.52618-27.51019,14.95551-31.35986c2.82965-2.45941-4.06702-35.16449-5.35944-38.30322&#10;&#9;&#9;&#9;&#9;&#9;&#9;&#9;s14.80682-8.65253,17.89178-3.90961L676.07776,674.3869z"/></g><path fill="#3C4358" d="M692.2276,532.92273c0,0-4.66003,80.72028-4.02167,156.88922&#10;&#9;&#9;&#9;&#9;&#9;&#9;c0.03613,4.31866-16.42487,9.29523-21.07013,9.50531c-5.68024,0.25677-20.69452-4.89563-20.25189-12.914&#10;&#9;&#9;&#9;&#9;&#9;&#9;c2.5387-45.99554-3.59583-96.65369-4.62677-160.05109c-0.50464-31.02972,49.9704,6.57068,49.9704,6.57068L692.2276,532.92273z"/><path fill="#3C4358" d="M640.14288,378.91788c0.03088,131.04501,2.89191,157.84982,3.89069,190.26102&#10;&#9;&#9;&#9;&#9;&#9;&#9;c0.20758,6.73596,19.23956,15.43939,24.9472,13.43829c35.49628-12.44501,24.84137-128.17419,30.33258-174.69559&#10;&#9;&#9;&#9;&#9;&#9;&#9;c5.40625-45.8017-59.17743-57.7803-59.17065-29.00372H640.14288z"/><path opacity="0.1" fill="#1A1A1A" d="M687.08521,628.17102&#10;&#9;&#9;&#9;&#9;&#9;&#9;c-14.89606-64.37952-28.35315-245.91852-7.33105-245.89883L687.08521,628.17102z" enable-background="new"/></g><g><g><path fill="#3C4358" d="M683.99298,764.77753c-3.78571,2.81757-16.56903,13.98499-12.63879,18.38989&#10;&#9;&#9;&#9;&#9;&#9;&#9;&#9;s20.15729,1.22681,29.12903-2.24609s17.06207-28.45258,17.06207-28.45258s-0.8454,10.89215,0.68976,11.94641&#10;&#9;&#9;&#9;&#9;&#9;&#9;&#9;c1.53522,1.0542,2.74139-1.24866,2.74139-2.45496s-0.29834-12.94257,0.28833-14.40961&#10;&#9;&#9;&#9;&#9;&#9;&#9;&#9;c0.58667-1.4671,0.26282-7.08441-1.51581-8.75269s-4.16876-4.21881-9.61401-4.13983&#10;&#9;&#9;&#9;&#9;&#9;&#9;&#9;c-5.44525,0.07892-17.61554,23.77356-26.14215,30.11945H683.99298z"/><path fill="#FFD3D4" d="M715.33459,696.05658c7.14044,10.97772-4.02716,31.60748,3.22418,41.43658&#10;&#9;&#9;&#9;&#9;&#9;&#9;&#9;c2.4035,3.25793-5.32892,19.34027-10.07404,24.93329c-3.09064,3.64288-13.83972,12.90485-20.63806,7.203&#10;&#9;&#9;&#9;&#9;&#9;&#9;&#9;c-4.34918-3.64764,10.52618-27.51025,14.95551-31.35986c2.82965-2.45941-4.06702-35.16449-5.35944-38.30322&#10;&#9;&#9;&#9;&#9;&#9;&#9;&#9;s14.80682-8.65259,17.89178-3.90961L715.33459,696.05658z"/></g><path fill="#3C4358" d="M735.047,556.14471c0,0-4.27356,80.67279-3.63519,156.84174&#10;&#9;&#9;&#9;&#9;&#9;&#9;c0.03613,4.31873-16.42487,9.29529-21.07013,9.50531c-5.68024,0.25677-20.69446-4.89563-20.25189-12.914&#10;&#9;&#9;&#9;&#9;&#9;&#9;c2.53864-45.99561-17.19354-131.33136,1.44629-148.68414c22.71442-21.14606,43.5108-4.74884,43.5108-4.74884L735.047,556.14471&#10;&#9;&#9;&#9;&#9;&#9;&#9;z"/><path fill="#3C4358" d="M678.08734,406.53351c1.33624,89.25,2.93719,144.88129,5.7934,177.48163&#10;&#9;&#9;&#9;&#9;&#9;&#9;c0.68127,7.77618,50.82611-20.89771,51.16626-27.87042c1.43457-29.41321,3.0116-87.164,3.75549-134.5314&#10;&#9;&#9;&#9;&#9;&#9;&#9;C739.80389,357.85123,677.65649,377.76013,678.08734,406.53351z"/></g><path fill="#3C4358" d="M640.14288,378.91788c0,0,0-36.20898,6.40131-44.50229c2.59497-3.362,0.43616-16.27841,2.84528-16.2738&#10;&#9;&#9;&#9;&#9;&#9;c1.26831,0.00241,23.14923,21.82892,53.01294,21.1908c17.01782-0.36362,30.13062-8.74149,30.7785-8.0936&#10;&#9;&#9;&#9;&#9;&#9;s1.58215,15.18372,1.58215,15.18372c5.62921,1.50107,14.05328,69.86722-2.00708,87.41339&#10;&#9;&#9;&#9;&#9;&#9;c-15.68646,17.13748-92.61298-54.91821-92.61298-54.91821H640.14288z"/><g><path fill="#FFC9CA" d="M674.22687,186.5119c-1.41986,6.4646-4.96045,13.75409,0,16.00888&#10;&#9;&#9;&#9;&#9;&#9;&#9;c4.96051,2.25479,16.24139-0.9019,20.18372-3.60759s1.46912-14.4305,0-15.7834s-20.18372,3.3822-20.18372,3.3822V186.5119z"/><path fill="#3C4358" d="M649.14001,143.631c-0.24719,3.3325,1.09216,7.79939,1.29565,9.99951&#10;&#9;&#9;&#9;&#9;&#9;&#9;c1.16919,12.62279-2.58301,25.869-4.18188,28.6917c-2.53479,4.47559,31.85669-8.13501,36.51917-14.33751&#10;&#9;&#9;&#9;&#9;&#9;&#9;c2.96057-3.9379,6.75012-28.70189,0.64526-48.5976c0,0-34.03119,20.9114-34.27838,24.2439H649.14001z"/><path fill="#FFD3D4" d="M653.37445,148.8051c-4.25903,17.903-0.99225,37.36731,16.91071,41.6263&#10;&#9;&#9;&#9;&#9;&#9;&#9;c17.90295,4.259,40.72565-8.2571,44.98462-26.1601c4.25891-17.90302-6.8017-35.86891-24.70471-40.12791&#10;&#9;&#9;&#9;&#9;&#9;&#9;c-17.90295-4.259-32.93158,6.75861-37.19043,24.66171H653.37445z"/><path fill="#EDE6EB" d="M669.80389,197.2709c0,0,1.37848-2.1572,1.86768-1.99739s0.4093,3.1559,2.84625,3.87502&#10;&#9;&#9;&#9;&#9;&#9;&#9;c2.43689,0.7191,21.8916-4.79381,22.49072-4.3544c0.59912,0.43939,6.91101,7.23059,5.55286,7.86978&#10;&#9;&#9;&#9;&#9;&#9;&#9;c-1.35822,0.63919-20.65326,5.9523-29.08234,3.0361c-8.42914-2.9162-3.67523-8.42911-3.67523-8.42911H669.80389z"/><path opacity="0.05" d="M669.80389,197.2709c0,0,1.37848-2.1572,1.86768-1.99739&#10;&#9;&#9;&#9;&#9;&#9;&#9;s0.4093,3.1559,2.84625,3.87502c2.43689,0.7191,21.8916-4.79381,22.49072-4.3544&#10;&#9;&#9;&#9;&#9;&#9;&#9;c0.59912,0.43939,6.91101,7.23059,5.55286,7.86978c-1.35822,0.63919-20.65326,5.9523-29.08234,3.0361&#10;&#9;&#9;&#9;&#9;&#9;&#9;c-8.42914-2.9162-3.67523-8.42911-3.67523-8.42911H669.80389z" enable-background="new"/><path fill="#3C4358" d="M649.14001,143.631c0,0,20.80035,11.0835,35.00098,12.397&#10;&#9;&#9;&#9;&#9;&#9;&#9;c14.20056,1.31351,6.79578,41.84581,4.26099,46.3214s31.85638-8.13499,36.51947-14.33749&#10;&#9;&#9;&#9;&#9;&#9;&#9;c4.66309-6.20251,11.39221-64.0714-21.74011-73.20381c-47.57245-13.1126-54.04126,28.8228-54.04126,28.8228L649.14001,143.631z"/></g><g><path fill="#FFD3D4" d="M742.88348,250.34549c0.38727,13.36871-53.77417,94.12473-64.88745,91.52902&#10;&#9;&#9;&#9;&#9;&#9;&#9;c-23.72455-5.5412,20.32227-51.26901,33.01306-85.66992C724.02448,220.9238,742.49622,236.97681,742.88348,250.34549z"/><path fill="#EDE6EB" d="M711.00916,256.20459c2.30493,4.68762,10.68903-17.91678,28.09619-10.07559&#10;&#9;&#9;&#9;&#9;&#9;&#9;c3.55988,1.60361,3.65259,6.9711,3.65259,6.9711s4.57043-6.01971,1.35687-14.1113&#10;&#9;&#9;&#9;&#9;&#9;&#9;c-2.91168-7.33139-15.15314-22.101-19.06464-24.12158c-3.9115-2.0206-21.07129,27.03999-14.04114,41.33737H711.00916z"/></g><path fill="#EDE6EB" d="M648.18652,304.75702c0.0437,1.54358-1.5769,5.6312-1.61548,7.48468&#10;&#9;&#9;&#9;&#9;&#9;c-0.03864,1.85352,1.67859,6.35211,3.28516,8.18292c0.34076,0.38818,8.72675,9.61749,12.89362,9.53418&#10;&#9;&#9;&#9;&#9;&#9;c1.91119-0.03818,15.40253,5.27371,15.37592,4.539c-0.14349-3.96289-28.76459-27.5535-28.96332-28.52213&#10;&#9;&#9;&#9;&#9;&#9;c-0.29889-1.45718-0.97589-1.21878-0.97589-1.21878V304.75702z"/></g><g><g><g><path fill="#FFD6D6" d="M557.61084,393.37317c-4.88757,0.71832-13.00586-1.01236-15.78674-8.43079&#10;&#9;&#9;&#9;&#9;&#9;&#9;&#9;c-2.88763-7.70319,8.71478-13.95529,11.4082-14.66748c18.31555-4.84332,21.8053,1.34747,24.72168,7.39459&#10;&#9;&#9;&#9;&#9;&#9;&#9;&#9;c2.91644,6.04709-10.17053,14.20859-20.34302,15.70358L557.61084,393.37317z"/><path fill="#363E58" d="M426.44739,397.72739c2.16437-14.06207,111.39624-30.14148,112.77368-22.42661&#10;&#9;&#9;&#9;&#9;&#9;&#9;&#9;c0.32245,1.8056,13.1366,17.27051,3.48682,21.66321c-27.28021,12.4184-95.65833,28.08542-109.90683,27.60504&#10;&#9;&#9;&#9;&#9;&#9;&#9;&#9;c-19.2886-0.65042-6.35367-26.84161-6.35367-26.84161V397.72739z"/></g><path fill="#363E58" d="M415.07275,420.82809c0,0-11.83301,17.4231-26.29132-24.2699&#10;&#9;&#9;&#9;&#9;&#9;&#9;c-5.38507-15.52881-33.7088-75.48972,7.44611-82.88431c4.70502-0.8454,31.71472,95.7829,18.84509,107.15421H415.07275z"/></g><g><ellipse transform="matrix(0.39156 -0.92015 0.92015 0.39156 -544.29669 950.90442)" opacity="0.05" cx="446.88345" cy="887.02527" rx="29.52492" ry="73.34793" enable-background="new"/><g><path fill="#4A4C56" d="M480.1673,886.04663c-0.01352,0.01245-0.01782,0.03113-0.02661,0.04724l-10.80499,0.9375&#10;&#9;&#9;&#9;&#9;&#9;&#9;&#9;l7.53299,2.77234c-13.6655,22.59131-25.8782,4.54785-27.49951,5.06659c-1.66821,0.53381-6.30249,12.82373-2.52097,22.9079&#10;&#9;&#9;&#9;&#9;&#9;&#9;&#9;c0.82007,2.18677,0.72156,2.45984,2.1059,3.80701c0.07129,0.78174,0.22269,1.61603,0.5249,2.34229&#10;&#9;&#9;&#9;&#9;&#9;&#9;&#9;c0.87231,2.09479,7.07129,5.42212,13.0354,5.42212c5.96408,0,17.18945-9.85767,17.18945-9.85767v-2.23248&#10;&#9;&#9;&#9;&#9;&#9;&#9;&#9;c5.28741-3.46704,10.56573-6.65814,12.92532-6.78833c4.64008-0.25598,27.3298-15.60083,27.3298-24.4245&#10;&#9;&#9;&#9;&#9;&#9;&#9;&#9;c0-8.82373-29.80273-9.25885-39.79175,0H480.1673z"/><path fill="#FFD6D6" d="M477.87918,889.67957l-8.06549-2.62659c0.0293-1.07391,0.05301-2.14752,0.095-3.20007&#10;&#9;&#9;&#9;&#9;&#9;&#9;&#9;c0.30182-7.54077,3.50711-19.53052-3.45291-19.69427c-6.96005-0.16376-16.16989-4.37201-16.686,17.13824&#10;&#9;&#9;&#9;&#9;&#9;&#9;&#9;c0,0-0.31348,13.41748,0,15.36108c0.31351,1.9436,3.44183,5.87805,14.853,5.87805c2.72678,0,6.2471-1.5592,6.2471-1.5592&#10;&#9;&#9;&#9;&#9;&#9;&#9;&#9;s7.77692-2.89136,10.55722-8.05457l-3.54791-3.24274V889.67957z"/></g><g><path fill="#4A4C56" d="M430.36224,854.38489c-0.01349,0.01257-0.01782,0.03113-0.02658,0.04736l-10.80502,0.9375&#10;&#9;&#9;&#9;&#9;&#9;&#9;&#9;l7.53302,2.77228c-13.66553,22.59131-25.87823,4.54785-27.49951,5.06659c-1.66821,0.53381-6.30249,12.82373-2.52103,22.90784&#10;&#9;&#9;&#9;&#9;&#9;&#9;&#9;c0.8201,2.18683,0.72159,2.4599,2.1059,3.80713c0.07132,0.78168,0.22272,1.61597,0.5249,2.34216&#10;&#9;&#9;&#9;&#9;&#9;&#9;&#9;c0.87231,2.09485,7.07132,5.42218,13.0354,5.42218s17.18948-9.85767,17.18948-9.85767v-2.23248&#10;&#9;&#9;&#9;&#9;&#9;&#9;&#9;c5.28741-3.46704,10.56573-6.65808,12.92529-6.78833c4.64008-0.25598,27.3298-15.60083,27.3298-24.42456&#10;&#9;&#9;&#9;&#9;&#9;&#9;&#9;c0-8.82367-29.8027-9.25879-39.79172,0H430.36224z"/><path fill="#FFD6D6" d="M428.07416,858.01807l-8.06549-2.62659c0.0293-1.07391,0.05298-2.14752,0.09497-3.20007&#10;&#9;&#9;&#9;&#9;&#9;&#9;&#9;c0.30182-7.54083,3.50714-19.53058-3.45288-19.69434c-6.96005-0.1637-16.16992-4.37201-16.686,17.13824&#10;&#9;&#9;&#9;&#9;&#9;&#9;&#9;c0,0-0.31348,13.41754,0,15.36108c0.31351,1.9436,3.4418,5.87811,14.853,5.87811c2.72678,0,6.2471-1.55927,6.2471-1.55927&#10;&#9;&#9;&#9;&#9;&#9;&#9;&#9;s7.77689-2.8913,10.55722-8.05457l-3.54791-3.24274V858.01807z"/></g><path fill="#4F5056" d="M392.82407,490.4256c-15.3779,15.39771-13.19119,38.98901-6.8761,61.14819&#10;&#9;&#9;&#9;&#9;&#9;&#9;s68.30478-37.58649,68.30478-37.58649l-61.42868-23.56174V490.4256z"/><path fill="#3C4358" d="M439.16367,663.00696c0,0-4.66867,103.9325-4.02921,180.10156&#10;&#9;&#9;&#9;&#9;&#9;&#9;c0.03632,4.31873-16.45547,18.3172-21.10931,18.52722c-5.69067,0.25684-20.73297-4.89563-20.28961-12.91394&#10;&#9;&#9;&#9;&#9;&#9;&#9;c2.54343-45.99567-7.75308-150.46002-8.92569-190.31732c-2.0163-68.53693,54.35373,4.60272,54.35373,4.60272&#10;&#9;&#9;&#9;&#9;&#9;&#9;L439.16367,663.00696z"/><path fill="#3C4358" d="M384.04068,514.43103c-0.5144,106.96399-7.37009,196.81836,27.77692,198.89752&#10;&#9;&#9;&#9;&#9;&#9;&#9;c45.14511,2.67059,27.86948-130.81732,32.58548-177.5116c6.41998-63.56592-60.22388-50.17429-60.3624-21.38599V514.43103z"/><path opacity="0.1" fill="#1A1A1A" d="M435.23056,760.5105l-17.50061-181.69922&#10;&#9;&#9;&#9;&#9;&#9;&#9;c-3.84338-2.80164-8.19141-9.85535-12.68188-18.10986c0,0,6.95621,21.84644,11.16089,24.17731&#10;&#9;&#9;&#9;&#9;&#9;&#9;c0,0-0.23318,1.45197-0.37601,2.64648c-3.91418,32.71674,9.47079,116.30609,19.39758,172.98517L435.23056,760.5105z" enable-background="new"/><path fill="#3C4358" d="M488.21185,691.91962c0,0-4.66867,108.06818-4.02917,184.23712&#10;&#9;&#9;&#9;&#9;&#9;&#9;c0.03632,4.31873-16.45551,14.18152-21.10931,14.39148c-5.6907,0.25684-20.733-4.89563-20.28961-12.91394&#10;&#9;&#9;&#9;&#9;&#9;&#9;c2.5434-45.99561-10.53391-135.40222-9.65222-175.26685c0.68619-31.02625,55.08029-10.44775,55.08029-10.44775&#10;&#9;&#9;&#9;&#9;&#9;&#9;L488.21185,691.91962z"/><path fill="#3C4358" d="M426.62167,540.23151c-0.5144,106.96399-0.90289,199.9306,34.24399,202.0097&#10;&#9;&#9;&#9;&#9;&#9;&#9;c45.14514,2.67059,21.40228-133.92938,26.11841-180.62378c6.41998-63.56592-60.22388-50.17429-60.3624-21.38599V540.23151z"/></g><g><g><path fill="#363E58" d="M489.19168,482.16492c-1.41763-14.9628-5.24973-35.24478-10.56351-53.93552&#10;&#9;&#9;&#9;&#9;&#9;&#9;&#9;c-6.6579-23.4191,5.79077-49.06189,3.46429-74.4332c-0.03796-0.41501-0.06888-0.83032-0.11499-1.24561&#10;&#9;&#9;&#9;&#9;&#9;&#9;&#9;c-2.86591-25.77661-32.93494-31.84592-32.93494-31.84592l-38.98779-9.82269c0,0-22.8082,0.07352-26.72083,14.32678&#10;&#9;&#9;&#9;&#9;&#9;&#9;&#9;c-3.91287,14.25333-3.98175,57.3504-2.26599,75.18323s1.6756,99.52771-2.508,128.5209&#10;&#9;&#9;&#9;&#9;&#9;&#9;&#9;c-1.47012,10.18817,50.33359,41.33997,66.20731,40.09125c15.87378-1.24835,46.7587-25.51538,51.06339-32.08545&#10;&#9;&#9;&#9;&#9;&#9;&#9;&#9;c1.7919-2.73523-5.62802-44.08221-6.6391-54.75394L489.19168,482.16492z"/><path opacity="0.05" fill="#FFFFFF" d="M475.46808,488.85059&#10;&#9;&#9;&#9;&#9;&#9;&#9;&#9;c-0.38632,3.06882-0.1492,9.29422,0.75018,9.7746c0.89941,0.48038,11.0083-6.6185,12.086-9.89029&#10;&#9;&#9;&#9;&#9;&#9;&#9;&#9;s-0.27249-11.4696-1.09119-11.24161c-0.81873,0.228-11.4328,8.87662-11.745,11.35718V488.85059z" enable-background="new"/><path opacity="0.1" d="M480.80627,360.04971&#10;&#9;&#9;&#9;&#9;&#9;&#9;&#9;c-14.36249,6.7554-29.92529,19.18307-29.03857,41.20071c1.1572,28.7355,17.38348,54.49689,35.62341,74.31049&#10;&#9;&#9;&#9;&#9;&#9;&#9;&#9;c-1.41763-14.9628-2.3739-26.56369-7.49112-40.63611c-7.87833-21.66528,1.4585-49.21777,0.90628-74.875V360.04971z" enable-background="new"/><g><path fill="#363E58" d="M460.25406,325.6803c-0.48929-1.34229,24.1868,7.66049,35.05719,26.10162&#10;&#9;&#9;&#9;&#9;&#9;&#9;&#9;&#9;c5.30161,8.9939,4.91891,40.54327,6.5657,67.89108c0.77429,12.8584,1.32401,24.62448-2.4577,31.98529&#10;&#9;&#9;&#9;&#9;&#9;&#9;&#9;&#9;c-3.78168,7.36081-22.84326,22.53058-32.07532,1.8942c-9.23199-20.63641-5.9281-73.84845-11.71649-80.832&#10;&#9;&#9;&#9;&#9;&#9;&#9;&#9;&#9;c0,0,5.43011-44.8363,4.62671-47.04028L460.25406,325.6803z"/><g><path fill="#FFD6D6" d="M571.40167,379.5564c-3.8457,3.10071-8.08698,10.23621-4.5285,17.31448&#10;&#9;&#9;&#9;&#9;&#9;&#9;&#9;&#9;&#9;c3.69513,7.35007,16.16272,3.07639,18.51422,1.58249c15.99121-10.15887,13.81519-16.92419,11.35553-23.17102&#10;&#9;&#9;&#9;&#9;&#9;&#9;&#9;&#9;&#9;c-2.45972-6.24677-17.33704-2.17969-25.34119,4.27393L571.40167,379.5564z"/><path fill="#363E58" d="M489.28107,476.849c13.43698,3.15167,76.44318-49.03552,92.32489-69.36472&#10;&#9;&#9;&#9;&#9;&#9;&#9;&#9;&#9;&#9;c3.66504-4.69138-16.08002-20.7034-16.96661-21.87518c-4.23566-5.59738-93.77069,47.30017-96.60178,66.39099&#10;&#9;&#9;&#9;&#9;&#9;&#9;&#9;&#9;&#9;c-0.95648,6.44958,7.80661,21.6973,21.24353,24.84891H489.28107z"/><g opacity="0.05"><path d="M577.14215,408.17767c-1.4151-0.53949-3.48608-0.02441-4.62,1.1424&#10;&#9;&#9;&#9;&#9;&#9;&#9;&#9;&#9;&#9;&#9;c-1.13434,1.16718-0.90674,2.54901,0.50836,3.0885c1.4151,0.53946,3.47931,0.03131,4.61353-1.1358&#10;&#9;&#9;&#9;&#9;&#9;&#9;&#9;&#9;&#9;&#9;c1.13391-1.16681,0.91309-2.5556-0.50195-3.09509H577.14215z"/></g><g opacity="0.05"><path d="M569.07568,413.97009c-1.4151-0.53949-3.48608-0.02441-4.62006,1.1424&#10;&#9;&#9;&#9;&#9;&#9;&#9;&#9;&#9;&#9;&#9;c-1.13428,1.16718-0.90668,2.54901,0.50842,3.0885s3.47931,0.03131,4.61346-1.1358&#10;&#9;&#9;&#9;&#9;&#9;&#9;&#9;&#9;&#9;&#9;c1.13391-1.16678,0.91309-2.5556-0.50189-3.09509H569.07568z"/></g></g></g></g><g><g><path fill="#FFCCCC" d="M431.03769,323.94742c6.84921,0.0098,15.68088,1.97781,19.7666,0.95407&#10;&#9;&#9;&#9;&#9;&#9;&#9;&#9;&#9;c-0.06439-0.4035-0.11026-0.84628-0.13049-1.34686c-0.28171-6.99432,9.02618-28.18713-1.24741-34.77902&#10;&#9;&#9;&#9;&#9;&#9;&#9;&#9;&#9;s-28.29922-6.86679-29.8147,5.20392c-1.33899,10.66479-6.29498,22.17099-6.99588,23.43509&#10;&#9;&#9;&#9;&#9;&#9;&#9;&#9;&#9;c2.81332,3.53079,9.9603,6.52048,18.42203,6.53281H431.03769z"/><path fill="#FFD2D2" d="M470.84396,246.25339c1.9285,2.78851-0.89352,14.54163,0.57449,20.54501&#10;&#9;&#9;&#9;&#9;&#9;&#9;&#9;&#9;c4.63791,18.96692,3.72632,44.56488-28.302,45.5723c-31.29459,0.98431-32.70648-14.63159-33.69757-34.60608&#10;&#9;&#9;&#9;&#9;&#9;&#9;&#9;&#9;c-0.99109-19.97452-9.17242-29.14882,11.68997-40.69461s41.68082-2.4626,49.73511,9.1835V246.25339z"/><path fill="#3D4356" d="M475.99365,248.5831c1.19339-21.8671-31.76077-30.5437-47.75-28.74599&#10;&#9;&#9;&#9;&#9;&#9;&#9;&#9;&#9;c-6.4285,0.72281-21.97202,5.28151-24.24069,14.35619c-26.4783,24.02341,3.6199,70.39508,22.32449,72.89792&#10;&#9;&#9;&#9;&#9;&#9;&#9;&#9;&#9;c8.0896,1.0824,17.08368-0.4252,21.60461-5.29611c0.6391-0.68869,3.4433-4.4848,2.51221-4.35898&#10;&#9;&#9;&#9;&#9;&#9;&#9;&#9;&#9;c-3.0874,0.41699-8.2561-2.77011-7.70322-13.6492c0.88483-17.4079,7.95767-8.91119,9.63361-5.8486&#10;&#9;&#9;&#9;&#9;&#9;&#9;&#9;&#9;c1.6759,3.06262,2.40897,9.1619,2.40897,9.1619l2.12631,3.45679l2.65302-9.97238&#10;&#9;&#9;&#9;&#9;&#9;&#9;&#9;&#9;c5.29388-6.49741,7.99277-11.26169,9.67542-17.7066c2.1814-6.45389,5.689-8.37289,6.75528-14.2948V248.5831z"/></g><path fill="#363E58" d="M456.31985,323.81281l-3.98233-6.97971c0,0-18.05219,0.1095-27.57819-4.4183&#10;&#9;&#9;&#9;&#9;&#9;&#9;&#9;s-6.56183-6.64969-8.50061-6.2883c-1.93878,0.36142-8.49387,5.2999-8.49387,5.2999s-0.75162,6.6058,8.29788,10.02682&#10;&#9;&#9;&#9;&#9;&#9;&#9;&#9;c6.98398,2.64017,24.4072,7.35068,31.91711,7.10208c8.00629-0.26508,8.34012-4.74249,8.34012-4.74249H456.31985z"/><path opacity="0.05" fill="#FFFFFF" d="M456.31985,323.81281l-3.98233-6.97971&#10;&#9;&#9;&#9;&#9;&#9;&#9;&#9;c0,0-18.05219,0.1095-27.57819-4.4183s-6.56183-6.64969-8.50061-6.2883c-1.93878,0.36142-8.49387,5.2999-8.49387,5.2999&#10;&#9;&#9;&#9;&#9;&#9;&#9;&#9;s-0.75162,6.6058,8.29788,10.02682c6.98398,2.64017,24.4072,7.35068,31.91711,7.10208&#10;&#9;&#9;&#9;&#9;&#9;&#9;&#9;c8.00629-0.26508,8.34012-4.74249,8.34012-4.74249H456.31985z" enable-background="new"/></g></g></g><path fill="#FFD3D4" d="M683.61584,336.24402c1.67609,14.1286-93.54761,47.24841-96.9386,40.18323&#10;&#9;&#9;&#9;&#9;c-3.03729-6.32822,61.5733-41.8739,80.33289-46.40704C685.76978,325.48709,683.61584,336.24402,683.61584,336.24402z"/><path fill="#FFD3D4" d="M582.57935,366.13092c4.27313-1.89154,12.11072-2.36841,16.52258,3.68961&#10;&#9;&#9;&#9;&#9;c4.5813,6.29059-4.41199,14.92511-6.68671,16.2558c-15.46857,9.04916-20.21588,4.28958-24.4043-0.48431&#10;&#9;&#9;&#9;&#9;C563.82257,380.81812,573.68567,370.0676,582.57935,366.13092z"/></g></g></g></svg>