<svg xmlns="http://www.w3.org/2000/svg" xmlns:xlink="http://www.w3.org/1999/xlink" version="1.1" id="_レイヤー_2" x="0px" y="0px" viewBox="0 0 860.64746 1176.89172" enable-background="new 0 0 860.64746 1176.89172" width="861px" height="1177px" class="lg:!max-h-[405px] hoverScaleIllustration rectangleModalImage" role="img" aria-label="書類の提出 アイソメトリック イラスト"><title>書類の提出 アイソメトリック イラスト</title><g id="_レイヤー_2-2"><g><g><path fill="#F59E0B" d="M180.2601,497.02869C124.44591,529.25305,64.09511,545.68005,0,545.99316l19.2335-55.90009&#10;&#9;&#9;&#9;&#9;c46.58521-0.22781,90.8612-9.61621,131.59779-27.90329c31.25731-14.03278,60.0014-32.8392,87.8754-57.50031&#10;&#9;&#9;&#9;&#9;c32.07422-28.37521,54.63062-57.22391,80.74881-90.6279c28.62866-36.6142,61.07761-78.1154,110.9198-124.21841&#10;&#9;&#9;&#9;&#9;c57.57172-53.25211,119.03961-94.84979,182.6958-123.63519l-4.66589,52.40141&#10;&#9;&#9;&#9;&#9;c-57.86053,26.1648-113.55804,63.81379-165.547,111.9024c-44.55682,41.2146-73.20871,77.85883-100.9173,113.29718&#10;&#9;&#9;&#9;&#9;c-27.77032,35.51703-54.00021,69.06461-92.09679,102.7673c-22.3082,19.73492-45.5255,36.56219-69.584,50.4523L180.2601,497.02869&#10;&#9;&#9;&#9;&#9;z"/><path opacity="0.5" fill="#FFFFFF" d="M180.2601,497.02869&#10;&#9;&#9;&#9;&#9;C124.44591,529.25305,64.09511,545.68005,0,545.99316l19.2335-55.90009c46.58521-0.22781,90.8612-9.61621,131.59779-27.90329&#10;&#9;&#9;&#9;&#9;c31.25731-14.03278,60.0014-32.8392,87.8754-57.50031c32.07422-28.37521,54.63062-57.22391,80.74881-90.6279&#10;&#9;&#9;&#9;&#9;c28.62866-36.6142,61.07761-78.1154,110.9198-124.21841c57.57172-53.25211,119.03961-94.84979,182.6958-123.63519&#10;&#9;&#9;&#9;&#9;l-4.66589,52.40141c-57.86053,26.1648-113.55804,63.81379-165.547,111.9024&#10;&#9;&#9;&#9;&#9;c-44.55682,41.2146-73.20871,77.85883-100.9173,113.29718c-27.77032,35.51703-54.00021,69.06461-92.09679,102.7673&#10;&#9;&#9;&#9;&#9;c-22.3082,19.73492-45.5255,36.56219-69.584,50.4523L180.2601,497.02869z" enable-background="new"/><g><g><polygon fill="#FFFFFF" points="238.38271,266.30139 314.30951,164.3933 385.43829,247.31769 309.51151,349.22589"/><path fill="#EFEFEF" d="M386.63849,246.9062l-77.37091,103.84639l-72.0853-84.03949l77.37091-103.84641L386.63849,246.9062z&#10;&#9;&#9;&#9;&#9;&#9;&#9; M309.7551,347.69931l74.48288-99.9702l-70.1723-81.80931l-74.48291,99.97021l70.1723,81.8093H309.7551z"/></g><path fill="#E6E6E6" d="M299.77771,210.92729l-25.3089,33.96941c-0.69879,0.93799-1.64081,1.26089-2.1037,0.72121&#10;&#9;&#9;&#9;&#9;&#9;s-0.27161-1.73772,0.42722-2.6757l25.3089-33.96941c0.69879-0.93799,1.64078-1.26088,2.10367-0.72121&#10;&#9;&#9;&#9;&#9;&#9;C300.66779,208.79128,300.4765,209.9893,299.77771,210.92729z"/><g><path fill="#E6E6E6" d="M369.24179,252.2388l-56.9451,76.43109c-0.3497,0.46939-0.82019,0.63068-1.05182,0.3606&#10;&#9;&#9;&#9;&#9;&#9;&#9;l-42.74908-49.83841c-0.23169-0.27008-0.13611-0.86838,0.21359-1.3378l56.9451-76.43109&#10;&#9;&#9;&#9;&#9;&#9;&#9;c0.3497-0.46939,0.82019-0.63071,1.05179-0.3606l42.74911,49.83841c0.23169,0.2701,0.13611,0.86839-0.21359,1.33778V252.2388z&#10;&#9;&#9;&#9;&#9;&#9;&#9; M312.09119,326.84341l55.67969-74.73259l-41.91089-48.86119l-55.67969,74.73257L312.09119,326.84341L312.09119,326.84341z"/><path fill="#E6E6E6" d="M360.02139,241.48929l-56.9451,76.43112c-0.34967,0.46939-0.82019,0.63068-1.05179,0.3606&#10;&#9;&#9;&#9;&#9;&#9;&#9;c-0.23163-0.27011-0.13611-0.86841,0.21359-1.3378l56.9451-76.43111c0.3497-0.46939,0.82019-0.63069,1.05179-0.3606&#10;&#9;&#9;&#9;&#9;&#9;&#9;S360.37109,241.0199,360.02139,241.48929z"/><path fill="#E6E6E6" d="M353.31558,233.67149l-56.9451,76.43111c-0.3497,0.46939-0.82019,0.63071-1.05182,0.3606&#10;&#9;&#9;&#9;&#9;&#9;&#9;c-0.2316-0.27008-0.13611-0.86841,0.21362-1.3378l56.9451-76.43109c0.3497-0.46941,0.82019-0.63071,1.05179-0.36061&#10;&#9;&#9;&#9;&#9;&#9;&#9;C353.76074,232.60379,353.66528,233.20209,353.31558,233.67149z"/><path fill="#E6E6E6" d="M343.25699,221.9449l-56.9451,76.43111c-0.3497,0.46939-0.82019,0.63071-1.05182,0.3606&#10;&#9;&#9;&#9;&#9;&#9;&#9;c-0.2316-0.27008-0.13611-0.86838,0.21362-1.3378l56.9451-76.43109c0.3497-0.46939,0.82019-0.63071,1.05179-0.3606&#10;&#9;&#9;&#9;&#9;&#9;&#9;C343.70215,220.87721,343.60669,221.47551,343.25699,221.9449z"/><path fill="#E6E6E6" d="M337.3895,215.10429l-56.9451,76.43111c-0.3497,0.46939-0.82019,0.63071-1.05182,0.3606&#10;&#9;&#9;&#9;&#9;&#9;&#9;c-0.2316-0.27008-0.13611-0.86841,0.21362-1.3378l56.94507-76.43109c0.3497-0.46941,0.82022-0.63071,1.05182-0.36061&#10;&#9;&#9;&#9;&#9;&#9;&#9;C337.83466,214.03659,337.7392,214.63489,337.3895,215.10429z"/><path fill="#E6E6E6" d="M315.41721,259.31119c-0.3497,0.46942-0.82022,0.63071-1.05182,0.36063l-5.86749-6.84061&#10;&#9;&#9;&#9;&#9;&#9;&#9;c-0.23172-0.2701-0.13611-0.86839,0.21359-1.3378c0.34973-0.46939,0.82019-0.63069,1.05182-0.3606l5.86749,6.84058&#10;&#9;&#9;&#9;&#9;&#9;&#9;C315.86249,258.2435,315.76691,258.8418,315.41721,259.31119z"/></g></g><g><g><polygon fill="#FFFFFF" points="103.7127,354.34909 194.4391,311.1333 183.2132,465.77338 92.4868,508.98911"/><path fill="#EFEFEF" d="M184.00049,466.40201l-92.452,44.03772l11.3768-156.71951l92.452-44.03772L184.00049,466.40201z&#10;&#9;&#9;&#9;&#9;&#9;&#9; M93.425,507.5383l89.001-42.39392l11.07491-152.56049l-89.001,42.39389C104.4999,354.97778,93.425,507.5383,93.425,507.5383z"/></g><path fill="#E6E6E6" d="M162.4959,348.96939l-30.2421,14.40521c-0.8351,0.3978-1.4529-0.09573-1.37981-1.10211&#10;&#9;&#9;&#9;&#9;&#9;c0.0731-1.00638,0.8093-2.1449,1.64441-2.5426l30.2421-14.40521c0.8351-0.3978,1.45291,0.0957,1.37981,1.10208&#10;&#9;&#9;&#9;&#9;&#9;C164.0672,347.43317,163.33099,348.57166,162.4959,348.96939z"/><path fill="#E6E6E6" d="M178.8544,368.32678l-68.04478,32.4118c-0.41791,0.1991-0.7265-0.04739-0.6899-0.55096&#10;&#9;&#9;&#9;&#9;&#9;c0.03661-0.5036,0.4043-1.07233,0.8222-1.2713l68.04481-32.4118c0.41789-0.1991,0.7265,0.04742,0.68991,0.55099&#10;&#9;&#9;&#9;&#9;&#9;c-0.03661,0.50357-0.40431,1.0723-0.8222,1.27127H178.8544z"/><path fill="#E6E6E6" d="M177.92839,381.08331l-68.0448,32.4118c-0.41789,0.19907-0.72649-0.04742-0.6899-0.55103&#10;&#9;&#9;&#9;&#9;&#9;c0.03661-0.50357,0.4043-1.0723,0.8222-1.27127l68.0448-32.4118c0.41791-0.1991,0.72652,0.04742,0.68991,0.55099&#10;&#9;&#9;&#9;&#9;&#9;s-0.4043,1.07233-0.8222,1.2713H177.92839z"/><path fill="#E6E6E6" d="M177.00229,393.83978l-68.04478,32.4118c-0.41791,0.1991-0.7265-0.04739-0.6899-0.55096&#10;&#9;&#9;&#9;&#9;&#9;c0.03661-0.5036,0.4043-1.07233,0.8222-1.2713l68.04481-32.4118c0.41789-0.1991,0.7265,0.04742,0.68991,0.55099&#10;&#9;&#9;&#9;&#9;&#9;c-0.03661,0.50357-0.40431,1.0723-0.8222,1.27127H177.00229z"/><path fill="#E6E6E6" d="M176.07629,406.59631l-68.04479,32.4118c-0.4179,0.19907-0.7265-0.04742-0.6899-0.55103&#10;&#9;&#9;&#9;&#9;&#9;c0.0366-0.50357,0.4043-1.0723,0.8222-1.27127l68.04482-32.4118c0.41789-0.1991,0.7265,0.04742,0.6899,0.55099&#10;&#9;&#9;&#9;&#9;&#9;s-0.4043,1.07233-0.82219,1.2713H176.07629z"/><path fill="#E6E6E6" d="M175.1503,419.35278l-68.0448,32.4118c-0.41789,0.1991-0.72649-0.04739-0.6899-0.55096&#10;&#9;&#9;&#9;&#9;&#9;c0.03661-0.5036,0.4043-1.07233,0.8222-1.2713l68.0448-32.4118c0.41791-0.1991,0.72652,0.04742,0.68991,0.55099&#10;&#9;&#9;&#9;&#9;&#9;s-0.4043,1.0723-0.8222,1.27127H175.1503z"/><path fill="#E6E6E6" d="M174.22421,432.10931l-68.0448,32.4118c-0.41791,0.19907-0.7265-0.04742-0.6899-0.55103&#10;&#9;&#9;&#9;&#9;&#9;c0.03661-0.50357,0.4043-1.0723,0.8222-1.27127l68.04481-32.4118c0.41789-0.1991,0.7265,0.04742,0.6899,0.55099&#10;&#9;&#9;&#9;&#9;&#9;c-0.03659,0.50357-0.4043,1.07233-0.82219,1.2713H174.22421z"/><path fill="#E6E6E6" d="M173.2982,444.86578l-68.04479,32.4118c-0.4179,0.1991-0.7265-0.04739-0.6899-0.55096&#10;&#9;&#9;&#9;&#9;&#9;c0.0366-0.5036,0.4043-1.07233,0.8222-1.2713l68.0448-32.4118c0.41791-0.1991,0.72652,0.04742,0.68991,0.55099&#10;&#9;&#9;&#9;&#9;&#9;c-0.03659,0.50357-0.4043,1.0723-0.8222,1.27127H173.2982z"/></g><g><g><polygon fill="#FFFFFF" points="452.9364,27.7613 541.46338,1.3407 511.22131,163.36809 422.69427,189.7887"/><path fill="#EFEFEF" d="M511.85989,164.20621l-90.21078,26.9231L452.29779,26.9231L542.50861,0L511.85989,164.20621z&#10;&#9;&#9;&#9;&#9;&#9;&#9; M423.73938,188.44801l86.84351-25.91811L540.41827,2.6813L453.5748,28.5994l-29.83542,159.8485V188.44801z"/></g><path fill="#E6E6E6" d="M507.3721,34.6977l-29.509,8.8069c-0.81479,0.2432-1.31592-0.4146-1.11914-1.4691&#10;&#9;&#9;&#9;&#9;&#9;c0.19681-1.0545,1.017-2.1066,1.83182-2.3498l29.509-8.8069c0.81479-0.2432,1.31592,0.4146,1.11914,1.4691&#10;&#9;&#9;&#9;&#9;&#9;C509.00711,33.4024,508.18692,34.45449,507.3721,34.6977z"/><path fill="#E6E6E6" d="M519.82642,58.8047l-66.39532,19.8154c-0.40778,0.1217-0.65799-0.2068-0.55951-0.7345&#10;&#9;&#9;&#9;&#9;&#9;c0.09851-0.5277,0.50821-1.0532,0.91592-1.1749l66.39529-19.8154c0.40778-0.1217,0.65802,0.2068,0.55951,0.7345&#10;&#9;&#9;&#9;&#9;&#9;C520.6438,58.15751,520.23413,58.68301,519.82642,58.8047z"/><path fill="#E6E6E6" d="M517.33167,72.1706L450.9364,91.986c-0.40781,0.1217-0.65802-0.20681-0.55951-0.7345&#10;&#9;&#9;&#9;&#9;&#9;s0.50818-1.0532,0.91589-1.1749l66.39532-19.8154c0.40778-0.1217,0.65796,0.2068,0.55951,0.7345&#10;&#9;&#9;&#9;&#9;&#9;C518.14911,71.52341,517.73938,72.0489,517.33167,72.1706z"/><path fill="#E6E6E6" d="M514.83691,85.5365l-66.39532,19.8154c-0.40781,0.1217-0.65802-0.2068-0.55951-0.7345&#10;&#9;&#9;&#9;&#9;&#9;c0.09851-0.52769,0.50818-1.0532,0.91589-1.1749l66.39532-19.8154c0.40778-0.1217,0.65802,0.20681,0.55951,0.7345&#10;&#9;&#9;&#9;&#9;&#9;S515.24463,85.4148,514.83691,85.5365z"/><path fill="#E6E6E6" d="M512.34216,98.9024l-66.39526,19.8154c-0.40781,0.1217-0.65802-0.20681-0.55951-0.7345&#10;&#9;&#9;&#9;&#9;&#9;c0.09848-0.52769,0.50818-1.0532,0.91589-1.1749l66.39532-19.8154c0.40778-0.1217,0.65796,0.2068,0.55951,0.7345&#10;&#9;&#9;&#9;&#9;&#9;C513.15961,98.2552,512.74988,98.7807,512.34216,98.9024z"/><path fill="#E6E6E6" d="M509.84747,112.2683l-66.39529,19.8154c-0.40778,0.12169-0.65799-0.2068-0.55948-0.7345&#10;&#9;&#9;&#9;&#9;&#9;c0.09848-0.52769,0.50818-1.05321,0.91589-1.17491l66.39529-19.81539c0.40781-0.1217,0.65799,0.20681,0.55951,0.7345&#10;&#9;&#9;&#9;&#9;&#9;S510.25519,112.1466,509.84747,112.2683z"/><path fill="#E6E6E6" d="M507.35278,125.6342l-66.39529,19.8154c-0.40781,0.1217-0.65799-0.2068-0.55951-0.7345&#10;&#9;&#9;&#9;&#9;&#9;c0.09851-0.52769,0.50821-1.05321,0.91592-1.1749l66.39529-19.8154c0.40781-0.1217,0.65799,0.2068,0.55951,0.7345&#10;&#9;&#9;&#9;&#9;&#9;C508.1702,124.987,507.7605,125.5125,507.35278,125.6342z"/><path fill="#E6E6E6" d="M504.85809,139.00011l-66.39529,19.81538c-0.40781,0.1217-0.65799-0.2068-0.55951-0.7345&#10;&#9;&#9;&#9;&#9;&#9;s0.50821-1.05319,0.91592-1.1749l66.39529-19.8154c0.40778-0.12169,0.65799,0.2068,0.55948,0.7345&#10;&#9;&#9;&#9;&#9;&#9;C505.67551,138.35291,505.26581,138.8784,504.85809,139.00011z"/></g><g><g><polygon fill="#FFFFFF" points="336.27499,149.8465 426.37378,82.4882 445.16251,218.7744 355.06378,286.1326"/><path fill="#EFEFEF" d="M446.1456,219.05011l-91.81241,68.63937l-19.04141-138.11879l91.81241-68.63939L446.1456,219.05011z&#10;&#9;&#9;&#9;&#9;&#9;&#9; M355.7941,284.57581l88.38541-66.0773L425.64337,84.0451L337.258,150.12239L355.7941,284.57581z"/></g><path fill="#F59E0B" d="M399.18759,125.59081l-30.0329,22.4528c-0.82932,0.62-1.6008,0.40349-1.72308-0.4834&#10;&#9;&#9;&#9;&#9;&#9;c-0.12231-0.8869,0.45102-2.1087,1.28021-2.7287l30.03287-22.45281c0.82932-0.62,1.6008-0.4035,1.72311,0.4834&#10;&#9;&#9;&#9;&#9;&#9;C400.59009,123.749,400.01678,124.97079,399.18759,125.59081z"/><g><path fill="#F59E0B" d="M432.12878,214.3461l-67.5741,50.51871c-0.41501,0.3103-0.80029,0.20221-0.86151-0.2417&#10;&#9;&#9;&#9;&#9;&#9;&#9;l-11.29221-81.9093c-0.06119-0.44389,0.2251-1.05409,0.64011-1.3644l67.5741-50.51871&#10;&#9;&#9;&#9;&#9;&#9;&#9;c0.41498-0.31029,0.80026-0.20219,0.86151,0.2417l11.29218,81.90932c0.06119,0.44389-0.2251,1.05409-0.64011,1.36441&#10;&#9;&#9;&#9;&#9;&#9;&#9;L432.12878,214.3461z M365.08411,262.69739l66.07239-49.39609l-11.07077-80.3033l-66.07239,49.3961l11.07077,80.30331&#10;&#9;&#9;&#9;&#9;&#9;&#9;V262.69739z"/><path fill="#F59E0B" d="M429.69318,196.67931l-67.5741,50.51871c-0.41501,0.3103-0.80029,0.20219-0.86151-0.2417&#10;&#9;&#9;&#9;&#9;&#9;&#9;c-0.06125-0.44389,0.2251-1.05409,0.64008-1.36441l67.5741-50.51869c0.41501-0.31032,0.80029-0.20221,0.86151,0.2417&#10;&#9;&#9;&#9;&#9;&#9;&#9;c0.06122,0.44389-0.2251,1.05409-0.64011,1.3644H429.69318z"/><path fill="#F59E0B" d="M427.92191,183.8308l-67.57407,50.51871c-0.41501,0.3103-0.80029,0.20219-0.86151-0.2417&#10;&#9;&#9;&#9;&#9;&#9;&#9;c-0.06125-0.44389,0.2251-1.05409,0.64008-1.36441l67.5741-50.51869c0.41501-0.31032,0.80029-0.20221,0.86151,0.2417&#10;&#9;&#9;&#9;&#9;&#9;&#9;C428.62323,182.91029,428.33691,183.52049,427.92191,183.8308z"/><path fill="#F59E0B" d="M425.26489,164.55798l-67.5741,50.51871c-0.41498,0.3103-0.80026,0.20221-0.86151-0.2417&#10;&#9;&#9;&#9;&#9;&#9;&#9;c-0.06122-0.44389,0.22513-1.05409,0.64014-1.3644l67.57407-50.51871c0.41501-0.3103,0.80029-0.20219,0.86151,0.2417&#10;&#9;&#9;&#9;&#9;&#9;&#9;S425.6799,164.24768,425.26489,164.55798z"/><path fill="#F59E0B" d="M423.71497,153.3156L356.1409,203.8343c-0.41501,0.3103-0.80029,0.20219-0.86151-0.2417&#10;&#9;&#9;&#9;&#9;&#9;&#9;s0.2251-1.05409,0.64011-1.3644l67.5741-50.51871c0.41498-0.3103,0.80026-0.20221,0.86151,0.2417&#10;&#9;&#9;&#9;&#9;&#9;&#9;C424.41632,152.3951,424.12997,153.00529,423.71497,153.3156z"/><path fill="#F59E0B" d="M392.2287,189.2561c-0.41501,0.3103-0.80029,0.20219-0.86151-0.2417l-1.54993-11.24251&#10;&#9;&#9;&#9;&#9;&#9;&#9;c-0.06116-0.44389,0.22513-1.05409,0.64014-1.36441c0.41498-0.3103,0.80026-0.20219,0.86151,0.2417l1.5499,11.24251&#10;&#9;&#9;&#9;&#9;&#9;&#9;C392.92999,188.33559,392.64371,188.94579,392.2287,189.2561z"/></g></g><g><g><polygon fill="#FFFFFF" points="180.96581,321.30679 270.65509,251.2639 293.02161,384.8158 203.33229,454.8587"/><path fill="#EFEFEF" d="M294.0249,385.04761l-91.3952,71.375l-22.66721-135.34778l91.3952-71.375L294.0249,385.04761&#10;&#9;&#9;&#9;&#9;&#9;&#9;L294.0249,385.04761z M204.0347,453.29462l87.9837-68.71082l-22.0657-131.75598l-87.9837,68.71082L204.0347,453.29462z"/></g><path fill="#F59E0B" d="M244.14749,294.84711l-29.89639,23.3476c-0.8255,0.64471-1.61279,0.46271-1.75841-0.40649&#10;&#9;&#9;&#9;&#9;&#9;c-0.1456-0.8692,0.4057-2.0965,1.2312-2.74118l29.89639-23.34763c0.8255-0.64468,1.61279-0.46271,1.75841,0.40649&#10;&#9;&#9;&#9;&#9;&#9;C245.52429,292.9751,244.97299,294.20239,244.14749,294.84711z"/><path fill="#F59E0B" d="M266.4046,304.92889l-67.26701,52.5321c-0.41309,0.32263-0.80641,0.23172-0.8792-0.20319&#10;&#9;&#9;&#9;&#9;&#9;c-0.07278-0.43494,0.20251-1.04803,0.6156-1.37061l67.267-52.53207c0.41309-0.32263,0.8064-0.23172,0.87921,0.20319&#10;&#9;&#9;&#9;&#9;&#9;c0.07275,0.43494-0.20251,1.048-0.6156,1.37061V304.92889z"/><path fill="#F59E0B" d="M268.2496,315.9458l-67.267,52.5321c-0.41309,0.3226-0.8064,0.23169-0.87918-0.20322&#10;&#9;&#9;&#9;&#9;&#9;s0.2025-1.048,0.61559-1.37057l67.26701-52.5321c0.41309-0.3226,0.8064-0.23172,0.87918,0.20322&#10;&#9;&#9;&#9;&#9;&#9;C268.93799,315.01013,268.66269,315.6232,268.2496,315.9458L268.2496,315.9458z"/><path fill="#F59E0B" d="M270.0947,326.96271l-67.267,52.53207c-0.41309,0.3226-0.8064,0.23172-0.87918-0.20322&#10;&#9;&#9;&#9;&#9;&#9;c-0.07278-0.43491,0.2025-1.048,0.61559-1.37057l67.26701-52.53214c0.41309-0.3226,0.8064-0.23169,0.87918,0.20322&#10;&#9;&#9;&#9;&#9;&#9;s-0.20251,1.048-0.6156,1.37057V326.96271z"/><path fill="#F59E0B" d="M271.9397,337.97958l-67.267,52.53214c-0.41309,0.3226-0.80641,0.23169-0.8792-0.20322&#10;&#9;&#9;&#9;&#9;&#9;s0.2025-1.048,0.6156-1.37057l67.26698-52.53214c0.41312-0.3226,0.80643-0.23172,0.87921,0.20322&#10;&#9;&#9;&#9;&#9;&#9;C272.62808,337.04391,272.35278,337.65701,271.9397,337.97958z"/><path fill="#F59E0B" d="M273.78482,348.99652l-67.26701,52.5321c-0.41309,0.3226-0.80641,0.23169-0.8792-0.20322&#10;&#9;&#9;&#9;&#9;&#9;s0.20251-1.048,0.6156-1.37057l67.267-52.5321c0.41309-0.32263,0.80643-0.23172,0.87918,0.20319&#10;&#9;&#9;&#9;&#9;&#9;C274.47321,348.06085,274.19791,348.67395,273.78482,348.99652z"/><path fill="#F59E0B" d="M275.62982,360.0134l-67.26701,52.53207c-0.4131,0.3226-0.80641,0.23169-0.8792-0.20322&#10;&#9;&#9;&#9;&#9;&#9;s0.20251-1.048,0.6156-1.37057l67.267-52.5321c0.41309-0.32263,0.8064-0.23172,0.87918,0.20319&#10;&#9;&#9;&#9;&#9;&#9;c0.07278,0.43494-0.20248,1.04803-0.61557,1.37061V360.0134z"/><path fill="#F59E0B" d="M277.47491,371.0303l-67.26701,52.53207c-0.4131,0.32263-0.80641,0.23172-0.8792-0.20319&#10;&#9;&#9;&#9;&#9;&#9;c-0.07278-0.43494,0.20251-1.04803,0.6156-1.37061l67.267-52.5321c0.41309-0.3226,0.8064-0.23169,0.87918,0.20322&#10;&#9;&#9;&#9;&#9;&#9;s-0.20248,1.048-0.61557,1.37057V371.0303z"/></g></g><g><g><path fill="#FFD3D4" d="M292.66382,602.4231c-5.0289,11.87189,10.4964,93.86658,21.85986,92.81433&#10;&#9;&#9;&#9;&#9;&#9;c11.36349-1.05225,5.84064-42.06415,5.95782-77.10229c0.12018-35.93439-22.78882-27.58386-27.81772-15.71198L292.66382,602.4231&#10;&#9;&#9;&#9;&#9;&#9;z"/><path fill="#FFD3D4" d="M313.83908,694.76562c11.22568,8.63477,83.8454-54.72815,79.42401-61.19879&#10;&#9;&#9;&#9;&#9;&#9;c-3.96017-5.79559-64.34528,30.51495-76.95901,44.01587C303.69037,691.08362,313.83908,694.76562,313.83908,694.76562z"/><path fill="#FFD3D4" d="M384.0257,628.57532c-3.66162,2.95905-7.6958,9.76343-4.297,16.50519&#10;&#9;&#9;&#9;&#9;&#9;c3.52921,7.00049,15.40601,2.91449,17.64529,1.48822c15.2283-9.69824,13.14752-16.14307,10.79672-22.09357&#10;&#9;&#9;&#9;&#9;&#9;c-2.35083-5.95044-16.52411-2.05872-24.14502,4.10004V628.57532z"/></g><path fill="#FFD3D4" d="M453.1275,669.052c7.5329-8.00104,10.27701-7.22223,12.19043-5.69348&#10;&#9;&#9;&#9;&#9;c1.91339,1.52881,0.35486,9.99261-6.33502,8.96729c-5.82431-0.89258-5.85547-3.27393-5.85547-3.27393L453.1275,669.052z"/><g><g><polygon fill="#EFEFEF" points="439.9776,601.57294 491.93909,631.57294 418.45279,674.00031 366.49133,644.00031"/><path fill="#BFBFBF" d="M464.35229,628.5022c-0.1709,0-0.3418-0.03912-0.49799-0.12701l-17.32422-10&#10;&#9;&#9;&#9;&#9;&#9;&#9;c-0.47852-0.2832-0.6445-0.88867-0.36621-1.36719c0.27826-0.48828,0.8887-0.64447,1.3623-0.37109l17.32422,10&#10;&#9;&#9;&#9;&#9;&#9;&#9;c0.47852,0.2832,0.64447,0.88873,0.36621,1.36719c-0.18552,0.32233-0.51764,0.49805-0.86432,0.49805V628.5022z"/><g><path fill="#BFBFBF" d="M419.31808,666.50018c-0.08789,0-0.1709-0.01953-0.24899-0.06842l-38.96967-22.5&#10;&#9;&#9;&#9;&#9;&#9;&#9;&#9;c-0.15622-0.08789-0.24899-0.25391-0.24899-0.42969s0.0928-0.3418,0.24899-0.42969l44.16498-25.49805&#10;&#9;&#9;&#9;&#9;&#9;&#9;&#9;c0.15622-0.09766,0.3418-0.09766,0.49802,0l38.9697,22.5c0.15619,0.08789,0.24896,0.25391,0.24896,0.42969&#10;&#9;&#9;&#9;&#9;&#9;&#9;&#9;s-0.0928,0.3418-0.24896,0.42969l-44.16501,25.49792c-0.07809,0.04883-0.1611,0.06848-0.24899,0.06848L419.31808,666.50018z&#10;&#9;&#9;&#9;&#9;&#9;&#9;&#9; M381.34943,643.5022l37.96878,21.92383l43.16409-24.92188l-37.96878-21.92377l-43.16409,24.92188V643.5022z"/><path fill="#BFBFBF" d="M428.84448,661.0022c-0.08301,0-0.1709-0.01953-0.24896-0.06842l-38.9697-22.5&#10;&#9;&#9;&#9;&#9;&#9;&#9;&#9;c-0.23929-0.13672-0.3223-0.43951-0.18552-0.68359c0.13672-0.23444,0.44431-0.33203,0.68359-0.17578l38.9697,22.5&#10;&#9;&#9;&#9;&#9;&#9;&#9;&#9;c0.23929,0.13672,0.3223,0.43951,0.18552,0.68359c-0.09283,0.15619-0.26373,0.24408-0.43463,0.24408V661.0022z"/><path fill="#BFBFBF" d="M435.77319,656.99829c-0.08301,0-0.1709-0.01953-0.24896-0.06842l-38.9697-22.5&#10;&#9;&#9;&#9;&#9;&#9;&#9;&#9;c-0.23929-0.13672-0.3223-0.43951-0.18552-0.68359c0.13672-0.23444,0.44922-0.33203,0.68359-0.17578l38.9697,22.5&#10;&#9;&#9;&#9;&#9;&#9;&#9;&#9;c0.23929,0.13672,0.3223,0.43951,0.18552,0.68359c-0.09283,0.15619-0.26373,0.24408-0.43463,0.24408V656.99829z"/><path fill="#BFBFBF" d="M446.16379,651.0022c-0.08301,0-0.1709-0.01953-0.24899-0.06842l-38.96967-22.5&#10;&#9;&#9;&#9;&#9;&#9;&#9;&#9;c-0.23932-0.13672-0.32233-0.43951-0.18552-0.68359c0.1416-0.23444,0.4541-0.32233,0.68359-0.17578l38.9697,22.5&#10;&#9;&#9;&#9;&#9;&#9;&#9;&#9;c0.23929,0.13672,0.3223,0.43951,0.18549,0.68359c-0.0928,0.15619-0.2637,0.24408-0.4346,0.24408V651.0022z"/><path fill="#BFBFBF" d="M452.22833,647.49634c-0.08301,0-0.1709-0.01953-0.24899-0.06842l-38.97461-22.5&#10;&#9;&#9;&#9;&#9;&#9;&#9;&#9;c-0.23929-0.13672-0.3223-0.43951-0.18552-0.68359c0.13181-0.23444,0.43948-0.32233,0.68359-0.17578l38.97461,22.5&#10;&#9;&#9;&#9;&#9;&#9;&#9;&#9;c0.23929,0.13672,0.3223,0.43951,0.18552,0.68359c-0.0928,0.15619-0.2637,0.24408-0.4346,0.24408V647.49634z"/><path fill="#BFBFBF" d="M427.11108,639.99628c-0.1709,0-0.3418-0.08789-0.4346-0.24408&#10;&#9;&#9;&#9;&#9;&#9;&#9;&#9;c-0.13672-0.24408-0.05371-0.54694,0.18552-0.68359l6.06448-3.49609c0.24411-0.15619,0.54199-0.05859,0.68359,0.17578&#10;&#9;&#9;&#9;&#9;&#9;&#9;&#9;c0.13672,0.24408,0.05371,0.54694-0.18552,0.68359l-6.06448,3.49609c-0.07809,0.04877-0.16602,0.06842-0.24899,0.06842&#10;&#9;&#9;&#9;&#9;&#9;&#9;&#9;V639.99628z"/></g></g><g><polygon fill="#E7E7EE" points="418.45279,690.00098 366.49133,660.00098 366.49133,644.00146 418.45279,674.00146"/><path fill="#BFBFBF" d="M402.43329,671.75409c-0.08301,0-0.1709-0.01953-0.24899-0.06842l-31.17679-18.00781&#10;&#9;&#9;&#9;&#9;&#9;&#9;c-0.23932-0.13672-0.32233-0.43958-0.18552-0.68359c0.1416-0.23438,0.43948-0.32227,0.68359-0.17578l31.17679,18.00781&#10;&#9;&#9;&#9;&#9;&#9;&#9;c0.23932,0.13672,0.32233,0.43951,0.18552,0.68359c-0.0928,0.15613-0.2637,0.24402-0.4346,0.24402V671.75409z"/><path fill="#BFBFBF" d="M411.09058,682.75018c-0.08301,0-0.1709-0.01953-0.24896-0.06842l-25.1123-14.50208&#10;&#9;&#9;&#9;&#9;&#9;&#9;c-0.23932-0.13672-0.32233-0.43951-0.18552-0.68359c0.13181-0.22461,0.44431-0.32227,0.68359-0.17578l25.1123,14.50208&#10;&#9;&#9;&#9;&#9;&#9;&#9;c0.23929,0.13672,0.3223,0.43951,0.18552,0.68359c-0.09283,0.15613-0.26373,0.24402-0.43463,0.24402V682.75018z"/></g><g><polygon fill="#DDDDEE" points="418.45068,690.00098 418.45068,674.00146 491.93909,631.57294 491.93909,647.57251"/><path fill="#BFBFBF" d="M425.69019,675.81659c-0.1709,0-0.3418-0.08789-0.4346-0.24408&#10;&#9;&#9;&#9;&#9;&#9;&#9;c-0.13672-0.24408-0.05371-0.54688,0.18552-0.68359l56.28909-32.5c0.23441-0.14648,0.54691-0.05859,0.68359,0.17578&#10;&#9;&#9;&#9;&#9;&#9;&#9;c0.13672,0.24408,0.05371,0.54688-0.18552,0.68359l-56.28909,32.5c-0.07809,0.04883-0.16602,0.06842-0.24899,0.06842V675.81659&#10;&#9;&#9;&#9;&#9;&#9;&#9;z"/></g></g><g><ellipse transform="matrix(0.39156 -0.92015 0.92015 0.39156 -831.14966 1029.7627)" opacity="0.05" fill="#1A1A1A" cx="363.08618" cy="1143.35999" rx="25.03689" ry="62.19841" enable-background="new"/><g><path fill="#EDE6EB" d="M317.7417,584.25671c-7.2179,1.3761-18.3176,4.86304-24.7832,12.79419&#10;&#9;&#9;&#9;&#9;&#9;&#9;c-10.51398,12.89716-1.89059,57.35767-1.09637,58.33337c0.7019,0.86243,10.61517,8.96625,18.14517,8.96692&#10;&#9;&#9;&#9;&#9;&#9;&#9;c30.4418,0.00256,7.73453-80.09448,7.73453-80.09448H317.7417z"/><path opacity="0.1" d="M313.71811,610.83142c0,0-5.50681,5.90576-8.0596,10.9483&#10;&#9;&#9;&#9;&#9;&#9;&#9;c-6.72949,13.29297-11.9252,32.80457,1.65872,38.69098C320.90112,666.35718,313.71811,610.83142,313.71811,610.83142&#10;&#9;&#9;&#9;&#9;&#9;&#9;L313.71811,610.83142z" enable-background="new"/><g><path fill="#EDE6EB" d="M392.4249,621.82458c-1.48499-5.47119-4.0979-11.22559-8.63589-16.55548&#10;&#9;&#9;&#9;&#9;&#9;&#9;&#9;c-9.9194-11.65131-26.14343-18.73334-50.16925-22.08063c-4.07138-0.56726-17.93588-2.20068-26.33218,5.65869&#10;&#9;&#9;&#9;&#9;&#9;&#9;&#9;c-11.31931,10.5957-5.6955,32.84589-4.418,53.9989c1.33328,22.08057,10.7739,25.79883,4.9664,75.14471&#10;&#9;&#9;&#9;&#9;&#9;&#9;&#9;c-4.1199,35.0058,37.22229,46.55212,55.2319,47.09375c18.00958,0.54199,11.1969-11.31073,20.75259-11.10626&#10;&#9;&#9;&#9;&#9;&#9;&#9;&#9;c9.55508,0.20374,10.62012-19.15741,8.6835-28.29321c-0.35461-1.67236-0.64511-3.57861-0.83801-5.77771&#10;&#9;&#9;&#9;&#9;&#9;&#9;&#9;c-0.13919-1.58649,0.00061-3.34546,0.14529-5.26917c0.2002-2.65668,0.41019-5.63739-0.09219-8.99902&#10;&#9;&#9;&#9;&#9;&#9;&#9;&#9;c-4.05701-27.16797-5.2103-31.02979,4.92371-57.78894c0.31522-0.83215,0.603-1.68762,0.88559-2.54517&#10;&#9;&#9;&#9;&#9;&#9;&#9;&#9;c2.52658-7.66461-3.4238-17.28992-5.10349-23.48022L392.4249,621.82458z"/><path opacity="0.1" d="M364.16071,662.12793&#10;&#9;&#9;&#9;&#9;&#9;&#9;&#9;c1.39578,15.8009,18.56836,43.43518,27.65057,52.51007c0.2002-2.65674,0.41022-5.63745-0.09219-8.99902&#10;&#9;&#9;&#9;&#9;&#9;&#9;&#9;c-4.05701-27.16797-5.2103-31.02985,4.92371-57.789c0.31522-0.83215,0.603-1.68762,0.88559-2.54517&#10;&#9;&#9;&#9;&#9;&#9;&#9;&#9;C384.53699,641.88531,362.02606,637.96362,364.16071,662.12793z" enable-background="new"/></g><path fill="#3C4358" d="M303.86771,799.73926c0,0-11.77429-40.80383,1.3035-80.66034&#10;&#9;&#9;&#9;&#9;&#9;&#9;c1.3241-4.03528,0.43619-16.27838,2.84531-16.2738c1.26828,0.00238,23.14929,21.82892,53.01288,21.1908&#10;&#9;&#9;&#9;&#9;&#9;&#9;c17.01779-0.36365,30.13062-8.74152,30.7785-8.09357s1.58218,15.18372,1.58218,15.18372&#10;&#9;&#9;&#9;&#9;&#9;&#9;c5.62921,1.5011,5.54669,71.02258,5.54669,71.02258l-95.069-2.36938H303.86771z"/><g><path fill="#FFC9CA" d="M332.85388,571.17517c-1.41989,6.46466-5.07898,13.4082-0.11847,15.66302&#10;&#9;&#9;&#9;&#9;&#9;&#9;&#9;c4.96051,2.25476,19.96521,3.70239,20.30298-0.57471c0.26511-3.35638,1.46841-17.11761-0.00067-18.47046&#10;&#9;&#9;&#9;&#9;&#9;&#9;&#9;c-1.46909-1.35291-20.18372,3.38214-20.18372,3.38214H332.85388z"/><path fill="#3C4358" d="M380.7207,565.88794c-0.27469,1.86218-2.76889,2.41406-8.24841,1.51166&#10;&#9;&#9;&#9;&#9;&#9;&#9;&#9;c0,0,11.11969,6.50793,10.64679-1.10577l-2.39841-0.40588H380.7207z"/><path fill="#FFD3D4" d="M319.048,535.9198c-2.2652,13.76782,2.94473,37.1192,16.91071,41.62628&#10;&#9;&#9;&#9;&#9;&#9;&#9;&#9;c17.51331,5.65192,39.7406-1.11017,43.21481-19.18188c6.92999-36.04773-5.03201-42.84711-22.935-47.10611&#10;&#9;&#9;&#9;&#9;&#9;&#9;&#9;s-34.20294,6.5032-37.19049,24.66171H319.048z"/><path fill="#3C4358" d="M368.39697,542.51514c0.9776-2.18951,10.01392-3.22253,13.4585-8.68054&#10;&#9;&#9;&#9;&#9;&#9;&#9;&#9;s-3.16238-27.15759-19.8425-31.97256c-31.79449-9.17789-46.72919,9.40219-51.00018,21.0007&#10;&#9;&#9;&#9;&#9;&#9;&#9;&#9;s-4.33041,24.27039,7.52478,37.39441c10.27951,11.3797,16.82614,15.15283,28.63644,13.5423&#10;&#9;&#9;&#9;&#9;&#9;&#9;&#9;c7.00198-0.9549,16.30716-13.84729,14.33688-12.86127c-6.6586,3.33228-8.22073-13.9859-5.38342-17.96613&#10;&#9;&#9;&#9;&#9;&#9;&#9;&#9;c1.71692-2.40851,9.71432,3.09735,9.71432,3.09735S367.3978,544.75299,368.39697,542.51514z"/><path fill="#3C4358" d="M307.5914,570.6062c-6.12088-23.27679,12.30011-33.59473,23.62759-28.3476&#10;&#9;&#9;&#9;&#9;&#9;&#9;&#9;c11.32745,5.24713-0.04349,31.91132-7.2702,34.47125c-7.22672,2.56-14.60281,0.54907-16.35742-6.12378L307.5914,570.6062z"/><path fill="#3C4358" d="M379.8653,556.84924c-10.44299-21.00043,2.8056-26.26886-1.88339-24.46564&#10;&#9;&#9;&#9;&#9;&#9;&#9;&#9;c-4.689,1.80304-12.01968,7.03815-12.01968,7.03815c-0.228,4.91119,7.70901,14.57697,9.8558,17.323&#10;&#9;&#9;&#9;&#9;&#9;&#9;&#9;c3.3063,4.229,5.17212,7.31641,4.90262,9.14319l2.39841,0.40588c-0.1257-2.02423-1.06049-5.034-3.25378-9.44464&#10;&#9;&#9;&#9;&#9;&#9;&#9;&#9;L379.8653,556.84924z"/></g><path fill="#EDE6EB" d="M309.97009,687.34497c0.0437,1.54358-2.55121,7.70654-2.5899,9.56&#10;&#9;&#9;&#9;&#9;&#9;&#9;c-0.0387,1.85352-0.50348,6.35211,1.10312,8.18292c0.34067,0.38818,13.85278,12.1344,18.01968,12.05103&#10;&#9;&#9;&#9;&#9;&#9;&#9;c1.91119-0.03821,40.246,13.5116,42.43741,5.2467c1.0163-3.83301-57.79572-32.85315-57.99442-33.82178&#10;&#9;&#9;&#9;&#9;&#9;&#9;c-0.29889-1.45721-0.97589-1.21881-0.97589-1.21881V687.34497z"/><g><g><path fill="#3C4358" d="M318.67389,1124.86804c0.3172,2.49487,3.6279,6.59827,3.6279,9.82996&#10;&#9;&#9;&#9;&#9;&#9;&#9;&#9;&#9;s-1.0018,8.13342,0.14331,8.60352c0.64819,0.26599,2.42099-0.07788,3.09421-1.02051s-1.76379-10.13025,2.20853-13.4292&#10;&#9;&#9;&#9;&#9;&#9;&#9;&#9;&#9;s-9.07401-3.98364-9.07401-3.98364L318.67389,1124.86804z"/><path fill="#3C4358" d="M320.63562,1105.26599c0,0-6.75732,10.34973-3.72791,18.4281&#10;&#9;&#9;&#9;&#9;&#9;&#9;&#9;&#9;c3.02939,8.07849,10.31091,9.14465,14.3844,6.93994c4.07349-2.20459,14.78229,4.15039,26.86353,0.50415&#10;&#9;&#9;&#9;&#9;&#9;&#9;&#9;&#9;c6.68219-2.01672,20.44287-12.07336,15.26648-16.88696c-1.94269-1.8064-15.22238-0.60059-24.40811,3.58716&#10;&#9;&#9;&#9;&#9;&#9;&#9;&#9;&#9;c-4.95029,2.25696-11.72537-3.55469-17.5824-7.26196c-5.85699-3.70728-10.79599-5.3103-10.79599-5.3103V1105.26599z"/><path fill="#FFD6D6" d="M317.61801,1062.17273c0,0,7.48898,30.99756,1.27631,46.28748&#10;&#9;&#9;&#9;&#9;&#9;&#9;&#9;&#9;c-0.89389,2.19995,4.71439,0.16565,12.4971,5.04199c2.26318,1.41797,4.35519,7.0675,11.1875,7.34241&#10;&#9;&#9;&#9;&#9;&#9;&#9;&#9;&#9;c10.35623,0.4165,18.68903,0.83716,12.87573-2.29431c-1.60803-0.86609-17.59869-5.36902-19.58484-10.40845&#10;&#9;&#9;&#9;&#9;&#9;&#9;&#9;&#9;c-4.1207-10.45605,8.94373-47.0752,8.94373-47.0752l-27.1955,1.10608H317.61801z"/></g><path fill="#3C4358" d="M355.7876,917.58612c0,0-4.66,80.72028-4.0217,156.88922&#10;&#9;&#9;&#9;&#9;&#9;&#9;&#9;c0.03619,4.31873-16.4249,9.29529-21.0701,9.50525c-5.68021,0.25684-20.69452-4.89563-20.25189-12.91394&#10;&#9;&#9;&#9;&#9;&#9;&#9;&#9;c2.5387-45.99561-3.59579-96.65369-4.62683-160.05109c-0.50461-31.02966,49.97043,6.57062,49.97043,6.57062&#10;&#9;&#9;&#9;&#9;&#9;&#9;&#9;L355.7876,917.58612z"/><path fill="#3C4358" d="M303.70291,763.58124c0.03088,131.04498,2.89191,157.84979,3.89072,190.26099&#10;&#9;&#9;&#9;&#9;&#9;&#9;&#9;c0.20758,6.73602,19.23959,15.43939,24.9472,13.43829c35.49628-12.44501,24.84137-128.17419,30.3327-174.69562&#10;&#9;&#9;&#9;&#9;&#9;&#9;&#9;c5.40631-45.8017-59.1774-57.78027-59.17059-29.00366H303.70291z"/></g><path opacity="0.1" fill="#1A1A1A" d="M345.3439,1020.95575l0.96689-236.37384&#10;&#9;&#9;&#9;&#9;&#9;&#9;c-2.91199-0.00269-5.3353,7.44617-6.99457,12.99139c-5.25662-4.27588-13.04663-30.4856-13.04663-30.4856&#10;&#9;&#9;&#9;&#9;&#9;&#9;c-0.34241,9.59125,5.33411,31.15173,8.03671,34.94635c-7.1185,42.7373-0.99252,166.92908,11.03748,218.92163&#10;&#9;&#9;&#9;&#9;&#9;&#9;L345.3439,1020.95575z" enable-background="new"/><g><g><path fill="#3C4358" d="M355.06729,1147.09717c0.3172,2.49487,3.6279,6.59814,3.6279,9.82983&#10;&#9;&#9;&#9;&#9;&#9;&#9;&#9;&#9;c0,3.23181-1.00183,8.13354,0.14331,8.60352c0.64819,0.26611,2.42099-0.07776,3.09421-1.02039&#10;&#9;&#9;&#9;&#9;&#9;&#9;&#9;&#9;s-1.76379-10.13025,2.20853-13.4292s-9.07397-3.98364-9.07397-3.98364L355.06729,1147.09717z"/><path fill="#3C4358" d="M357.02887,1127.495c0,0-6.75729,10.34973-3.72791,18.4281&#10;&#9;&#9;&#9;&#9;&#9;&#9;&#9;&#9;c3.02942,8.07837,10.31091,9.14453,14.3844,6.93994c4.07349-2.20471,14.78229,4.15027,26.86353,0.50403&#10;&#9;&#9;&#9;&#9;&#9;&#9;&#9;&#9;c6.68219-2.01672,20.44287-12.07336,15.26648-16.88684c-1.94272-1.80652-15.22241-0.60071-24.40811,3.58704&#10;&#9;&#9;&#9;&#9;&#9;&#9;&#9;&#9;c-4.95029,2.25696-11.72537-3.55457-17.5824-7.26184s-10.79602-5.31042-10.79602-5.31042H357.02887z"/><path fill="#FFD6D6" d="M354.01129,1084.40173c0,0,7.48901,30.99756,1.27631,46.28748&#10;&#9;&#9;&#9;&#9;&#9;&#9;&#9;&#9;c-0.89392,2.19995,4.71439,0.16565,12.4971,5.04199c2.26318,1.41797,4.35519,7.0675,11.1875,7.34241&#10;&#9;&#9;&#9;&#9;&#9;&#9;&#9;&#9;c10.35623,0.4165,18.689,0.83716,12.8757-2.29431c-1.608-0.86609-17.59866-5.36902-19.58478-10.40845&#10;&#9;&#9;&#9;&#9;&#9;&#9;&#9;&#9;c-4.12073-10.45605,8.9437-47.0752,8.9437-47.0752L354.01129,1084.40173z"/></g><g><path fill="#3C4358" d="M395.16919,943.08081c0,0-4.2735,80.67285-3.63522,156.84167&#10;&#9;&#9;&#9;&#9;&#9;&#9;&#9;&#9;c0.03619,4.31873-16.4249,9.29529-21.0701,9.50525c-5.68021,0.25684-20.69452-4.89551-20.25189-12.91394&#10;&#9;&#9;&#9;&#9;&#9;&#9;&#9;&#9;c2.53873-45.99561-17.19348-131.33136,1.44632-148.6842c22.71439-21.146,43.51077-4.74878,43.51077-4.74878H395.16919z"/><path fill="#3C4358" d="M338.95828,773.34509c1.33621,89.25006,2.18851,165.0058,5.04471,197.60596&#10;&#9;&#9;&#9;&#9;&#9;&#9;&#9;&#9;c0.6813,7.77625,50.82611-20.89764,51.1662-27.87036c1.43457-29.41321,3.75549-87.1582,3.75549-134.53143&#10;&#9;&#9;&#9;&#9;&#9;&#9;&#9;&#9;c0-76.03699-60.39719-63.9776-59.9664-35.20422V773.34509z"/></g></g><g><g><path fill="#FFD3D4" d="M386.03082,631.7428c9.20526,9.70221,26.0961,95.35071,15.13818,98.53967&#10;&#9;&#9;&#9;&#9;&#9;&#9;&#9;&#9;c-10.95789,3.1889-21.48929-38.81873-34.97879-72.91431c-13.83459-34.96771,10.63531-35.32764,19.84061-25.62531V631.7428z"/><path fill="#FFD3D4" d="M397.59628,729.52179c7.61972,9.25452,54.79471-38.1745,54.71518-62.52051&#10;&#9;&#9;&#9;&#9;&#9;&#9;&#9;&#9;c-0.01941-5.95386-39.71729,33.14069-52.55957,46.58417c-11.3541,11.8855-2.15561,15.93628-2.15561,15.93628V729.52179z"/></g><path fill="#EDE6EB" d="M351.8175,645.5708c-0.50467,5.19922,8.50949,15.55865,14.51483,23.71985&#10;&#9;&#9;&#9;&#9;&#9;&#9;&#9;c7.80731,10.61011,33.79211-3.73792,33.79211-3.73792s-4.64151-14.9436-3.1196-23.51599&#10;&#9;&#9;&#9;&#9;&#9;&#9;&#9;c1.379-7.76697-7.91672-28.84668-10.181-32.62244c-2.26428-3.7757-33.46698,20.29871-35.00629,36.15649H351.8175z"/></g><path fill="#FFCCCC" d="M328.25641,582.8186c-0.70068,0.17041-1.8967,0.82776-1.60516,1.8493&#10;&#9;&#9;&#9;&#9;&#9;&#9;c0.2915,1.02148,5.66367,6.13141,12.63858,6.67865c4.89639,0.38434,19.56879,3.1474,20.59268-1.26526&#10;&#9;&#9;&#9;&#9;&#9;&#9;c0.67081-2.89069-27.12372-8.35754-31.6261-7.26282V582.8186z"/></g></g><path fill="#FFD3D4" d="M450.93719,653.1983c-3.55591,1.75433-8.1752,6.6189-6.75238,12.83917&#10;&#9;&#9;&#9;&#9;c1.47739,6.45892,9.29938,8.96375,16.22598,6.71509c8.23663-2.67413,3.87637-9.46863,1.7081-7.9632&#10;&#9;&#9;&#9;&#9;c-2.66479,1.8501-5.76028-2.35577-6.7713-4.44873c-3.47012-7.18359,2.99069-10.79352-4.4104-7.14215V653.1983z"/><path fill="#FFD3D4" d="M448.03342,656.94104c0.34048-5.63794,4.8548-11.81964,7.66257-10.22626&#10;&#9;&#9;&#9;&#9;s-1.88409,9.26941-2.0365,11.17535c-0.1524,1.90601-5.6261-0.9491-5.6261-0.9491H448.03342z"/><path fill="#FFD3D4" d="M399.26572,621.9068c5.48032-1.36719,12.73181,1.08392,12.05447,4.24054&#10;&#9;&#9;&#9;&#9;c-0.67734,3.15656-14.03198,0.72186-15.89581,1.14844c-1.86383,0.42664,3.84131-5.38898,3.84131-5.38898H399.26572z"/></g><g><ellipse transform="matrix(0.39156 -0.92015 0.92015 0.39156 -343.15555 1258.20044)" opacity="0.05" cx="779.81769" cy="888.57922" rx="29.52492" ry="73.34793" enable-background="new"/><g><g><path fill="#363E58" d="M732.13373,339.8089c-10.37006,11.82547-6.82867,114.26828,6.42822,115.0249&#10;&#9;&#9;&#9;&#9;&#9;&#9;c13.2569,0.75659,15.26788-64.68301,21.46893-104.97729C766.39069,308.53159,741.49646,329.13208,732.13373,339.8089z"/><path fill="#363E58" d="M750.5722,442.49179c0,0-3.76929-11.2999-13.80157-10.15799&#10;&#9;&#9;&#9;&#9;&#9;&#9;c-10.03229,1.14188-85.94287,53.58798-82.64478,58.75879c3.29797,5.17084,12.56506,19.46381,17.5813,16.82709&#10;&#9;&#9;&#9;&#9;&#9;&#9;s78.66431-51.40637,78.86511-65.42798L750.5722,442.49179z"/><path fill="#FFD3D4" d="M644.45166,497.5238c4.12775-3.60101,11.8515-4.52789,18.89398,0.72321&#10;&#9;&#9;&#9;&#9;&#9;&#9;c7.31293,5.45267,1.12695,15.91418-0.95801,18.19366c-14.17767,15.50134-21.14502,11.82019-27.49152,7.9292&#10;&#9;&#9;&#9;&#9;&#9;&#9;c-6.34644-3.89099,0.96454-19.3512,9.55548-26.84601L644.45166,497.5238z"/></g><path opacity="0.1" d="M745.75922,376.22891c0,0-11.01794-0.04971-10.40546,15.0939&#10;&#9;&#9;&#9;&#9;&#9;c0.36334,8.9819,6.3324,67.01941,6.3324,67.01941l5.82617-8.16159l-1.75317-73.95181L745.75922,376.22891z" enable-background="new"/></g><g><path fill="#3C4358" d="M838.32489,507.2016c0,0,18.13086,12.2652,7.18359,57.61823&#10;&#9;&#9;&#9;&#9;&#9;c-10.94727,45.35284-83.11926-12.61285-83.11926-12.61285l52.82477-45.00537H838.32489z"/><g><g><path fill="#998E82" d="M770.36279,883.19763c0,0-3.67468-0.80011-4.05798-1.56671s2.72839-2.11957,2.72839-2.11957&#10;&#9;&#9;&#9;&#9;&#9;&#9;&#9;l1.32959,1.55585V883.19763z"/><path fill="#4A4C57" d="M784.46582,869.5686c1.4588-6.073,1.60175-12.40436-2.60535-17.92682&#10;&#9;&#9;&#9;&#9;&#9;&#9;&#9;c-7.03027-9.22791-18.98376-5.36011-25.48975-1.85693c-6.5061,3.50317-8.49933,10.43512-26.40619,20.82233&#10;&#9;&#9;&#9;&#9;&#9;&#9;&#9;c-4.52496,2.62463-27.62848,14.23279-20.50494,23.4314c5.125,6.6178,20.95557,4.53723,36.17188,1.44861&#10;&#9;&#9;&#9;&#9;&#9;&#9;&#9;c12.99921-2.63843,20.85876-15.32629,23.97656-14.53577c0.45471,0.22266-0.1239,1.83795,0.75464,2.24615&#10;&#9;&#9;&#9;&#9;&#9;&#9;&#9;c1.92773,0.89697,14.46161-5.72516,14.73102-8.3255c0.23682-2.29156,0.36902-3.06812-0.62799-5.30353L784.46582,869.5686z"/></g><path fill="#FFD3D4" d="M774.84125,810.94147c7.43719,11.43402-1.12823,32.55981,4.00275,39.66437&#10;&#9;&#9;&#9;&#9;&#9;&#9;c6.54834,9.06726-10.12573,17.02783-14.0235,16.26379c-0.91492-0.17926,0.71271-2.69885,1.2171-4.68176&#10;&#9;&#9;&#9;&#9;&#9;&#9;c0.57227-2.24951-12.79541-7.85742-15.13129-6.28027c-1.33502,0.90143,3.89679-2.99799,6.95874-4.71851&#10;&#9;&#9;&#9;&#9;&#9;&#9;c1.23785-0.69556,2.76208-1.74744,3.16833-2.23102c2.5116-2.99005-5.09393-31.53802-6.44012-34.80719&#10;&#9;&#9;&#9;&#9;&#9;&#9;c-1.34619-3.26923,17.03461-8.14954,20.24792-3.20941H774.84125z"/><path fill="#3C4358" d="M792.79999,667.25287c0,0-4.66876,94.72034-4.02924,170.88922&#10;&#9;&#9;&#9;&#9;&#9;&#9;c0.03632,4.31873-16.45557,9.29529-21.10931,9.50531c-5.69067,0.25677-20.73303-4.89563-20.28961-12.914&#10;&#9;&#9;&#9;&#9;&#9;&#9;c2.5434-45.99561-7.75305-132.22577-8.92572-172.08313c-2.0163-68.53687,54.3537,4.60278,54.3537,4.60278L792.79999,667.25287z"/><path fill="#3C4358" d="M737.677,518.677c-0.5144,106.96399-7.37006,196.81836,27.77686,198.89758&#10;&#9;&#9;&#9;&#9;&#9;&#9;c45.14514,2.67065,27.86951-130.81726,32.58557-177.5116C804.45935,476.49713,737.81543,489.88873,737.677,518.677&#10;&#9;&#9;&#9;&#9;&#9;&#9;L737.677,518.677z"/></g><path opacity="0.1" fill="#1A1A1A" d="M781.53552,574.50891&#10;&#9;&#9;&#9;&#9;&#9;c-21.02216-0.01849-3.66595,127.4549,7.33105,190.2478L781.53552,574.50891z" enable-background="new"/><g><path fill="#998E82" d="M822.0885,912.77319c0,0-3.67474-0.80005-4.05804-1.56665s2.72845-2.11963,2.72845-2.11963&#10;&#9;&#9;&#9;&#9;&#9;&#9;l1.32959,1.55585V912.77319z"/><path fill="#4A4C57" d="M836.19141,899.14423c1.4588-6.073,1.60181-12.40442-2.60529-17.92688&#10;&#9;&#9;&#9;&#9;&#9;&#9;c-7.03033-9.22791-18.98376-5.36011-25.48981-1.85693c-6.50604,3.50323-8.49927,10.43512-26.40619,20.82233&#10;&#9;&#9;&#9;&#9;&#9;&#9;c-4.5249,2.62463-27.62848,14.23279-20.50488,23.4314c5.12494,6.6178,20.95557,4.53723,36.17188,1.44867&#10;&#9;&#9;&#9;&#9;&#9;&#9;c12.99921-2.63849,20.85876-15.32635,23.9765-14.53583c0.45471,0.22266-0.1239,1.83801,0.7547,2.24615&#10;&#9;&#9;&#9;&#9;&#9;&#9;c1.92773,0.89697,14.46161-5.72516,14.73102-8.3255c0.23682-2.29156,0.36902-3.06812-0.62799-5.30347L836.19141,899.14423z"/></g><path fill="#FFD3D4" d="M826.56689,840.51697c7.43726,11.43402-1.12817,32.55981,4.00287,39.66437&#10;&#9;&#9;&#9;&#9;&#9;c6.54828,9.06726-10.12573,17.02783-14.0235,16.26385c-0.91492-0.17932,0.71271-2.69891,1.2171-4.68182&#10;&#9;&#9;&#9;&#9;&#9;c0.57227-2.24951-12.79541-7.85742-15.13129-6.28027c-1.33502,0.90143,3.89679-2.99799,6.95874-4.71844&#10;&#9;&#9;&#9;&#9;&#9;c1.23792-0.69562,2.76208-1.74744,3.16833-2.23108c2.5116-2.99005-5.09387-31.53802-6.44012-34.80725&#10;&#9;&#9;&#9;&#9;&#9;C804.97284,840.45715,823.35364,835.57684,826.56689,840.51697z"/><path fill="#3C4358" d="M841.84808,696.16565c0,0-4.66876,94.72028-4.02924,170.88916&#10;&#9;&#9;&#9;&#9;&#9;c0.03632,4.31873-16.45557,9.29529-21.10931,9.50531c-5.69073,0.25684-20.73303-4.89563-20.28961-12.91394&#10;&#9;&#9;&#9;&#9;&#9;c2.5434-45.99554-10.53394-117.16797-9.65222-157.03278c0.68622-31.02625,55.08032-10.44769,55.08032-10.44769&#10;&#9;&#9;&#9;&#9;&#9;L841.84808,696.16565z"/><path fill="#3C4358" d="M780.25787,544.47742c-0.51434,106.96393-0.90289,199.93054,34.24402,202.0097&#10;&#9;&#9;&#9;&#9;&#9;c45.14508,2.67059,21.40228-133.9295,26.11835-180.62378c6.42004-63.56592-60.224-50.17432-60.36237-21.38599V544.47742z"/></g><polygon fill="#CDCDD5" points="760.65295,342.18231 760.65295,342.18231 761.21161,339.0531"/><g><path fill="#F59E0B" d="M844.3194,391.7207c0.54828-10.27301,0.23071-18.61951-1.94257-26.62799&#10;&#9;&#9;&#9;&#9;&#9;c-1.72766-6.36603-4.76825-13.06161-10.04803-19.26321c-11.54169-13.55679-23.2536-19.96448-51.20874-23.85928&#10;&#9;&#9;&#9;&#9;&#9;c-4.7373-0.66003-15.96295-2.92151-25.73254,6.2233c-13.17017,12.32861-6.38397,49.6232-6.38397,74.2803&#10;&#9;&#9;&#9;&#9;&#9;c0,24.65717,3.07263,49.89313-5.42572,102.27252c-10.13226,62.4494,21.59863,52.66968,67.4621,59.30383&#10;&#9;&#9;&#9;&#9;&#9;c20.74835,3.00116,18.03571-34.16333,24.14636-39.88446c8.11786-7.60028,1.25934-28.90781-0.99414-39.53757&#10;&#9;&#9;&#9;&#9;&#9;c-0.41254-1.94592-0.75049-4.16391-0.97491-6.72281c-0.3855-4.39508-0.43457-9.80145,0.06189-16.60147&#10;&#9;&#9;&#9;&#9;&#9;c1.07074-14.6727,10.79626-65.01068,11.04028-69.5831V391.7207z"/><path fill="#545456" d="M802.90613,323.81439c0,0-12.98492-3.79822-28.24158-4.07599l-1.13135,2.8241l29.87317,5.6311&#10;&#9;&#9;&#9;&#9;&#9;l-0.50018-4.37909L802.90613,323.81439z"/></g><path fill="#FFC9CA" d="M773.94238,322.18631c-2.24316,0.67792-8.24866,2.53091-9.18604,7.87381&#10;&#9;&#9;&#9;&#9;c-0.93744,5.3429-3.22955,15.51572,8.15515,18.93213c17.80695,5.34357,26.18451-2.01465,28.93182-5.63464&#10;&#9;&#9;&#9;&#9;c8.98553-11.84021,1.89789-16.09119-4.20447-19.88831c-6.10236-3.79709-21.69458-1.88788-23.69629-1.28299H773.94238z"/><g><path fill="#363E58" d="M756.07324,452.4696c-0.05029-3.56049-0.30701-7.0903-0.7146-10.60602&#10;&#9;&#9;&#9;&#9;&#9;c-3.88641-75.30756,19.30591-122.125,19.30591-122.125l-3.98773-0.6196l-2.09521,1.24323&#10;&#9;&#9;&#9;&#9;&#9;c-5.57953,0.62061-12.30359,3.76807-17.51178,7.1279c0,0-13.61194,15.67188-13.61194,61.12012&#10;&#9;&#9;&#9;&#9;&#9;c0,18.66022,5.6405,46.54541,6.12006,60.83981c0.0777,2.3154-0.69153,10.53909-0.69153,10.53909l-1.77686,13.64157&#10;&#9;&#9;&#9;&#9;&#9;c0,0-0.34753,2.44821-0.91132,6.45563c-0.48669-0.1636-0.88342-0.20999-1.11938-0.06839&#10;&#9;&#9;&#9;&#9;&#9;c-1.42438,0.85449-4.55524,9.53998-3.55945,11.07471c0.30487,0.4697,1.39008,1.51508,2.76392,2.68951&#10;&#9;&#9;&#9;&#9;&#9;c-2.87714,20.70563-6.92432,50.44818-6.97748,54.29535c-0.11871,8.57623,6.78949,15.24762,12.27216,14.92041&#10;&#9;&#9;&#9;&#9;&#9;c5.48273-0.32758,11.41931-84.30219,12.43213-105.57275c0.07751-1.62604,0.08661-3.24072,0.0658-4.85114&#10;&#9;&#9;&#9;&#9;&#9;c0.00635,0.03912,0.01062,0.06592,0.01062,0.06592c-0.00488-0.05759-0.00861-0.11328-0.01343-0.17041L756.07324,452.4696z"/><path opacity="0.05" fill="#FFFFFF" d="M742.80457,495.9469&#10;&#9;&#9;&#9;&#9;&#9;c2.14124-5.22882,3.39697-10.20483,2.1626-12.05893c-1.23431-1.8541-4.68427-4.40338-5.88831-3.87&#10;&#9;&#9;&#9;&#9;&#9;c-1.51868,0.67279-4.71558,9.65698-3.55951,11.07458c1.23047,1.50891,6.59888,6.5303,7.28528,4.85434H742.80457z" enable-background="new"/><path opacity="0.05" fill="#FFFFFF" d="M774.66455,319.7384&#10;&#9;&#9;&#9;&#9;&#9;c0,0-25.42102,51.3078-18.57806,132.90152c0,0-16.49609-101.4968-9.0614-112.38342l10.71631-3.0257l-5.75946-7.01599&#10;&#9;&#9;&#9;&#9;&#9;l18.69482-11.09631l3.98755,0.61978L774.66455,319.7384z" enable-background="new"/><g opacity="0.05"><path d="M752.72327,455.39182c1.44592,0.60248,2.61353,2.41791,2.60962,4.0448&#10;&#9;&#9;&#9;&#9;&#9;&#9;c-0.00391,1.6275-1.17792,2.45731-2.62384,1.85477s-2.61353-2.40808-2.60962-4.03558&#10;&#9;&#9;&#9;&#9;&#9;&#9;c0.00385-1.62701,1.17792-2.46652,2.62384-1.86401V455.39182z"/></g><g opacity="0.05"><path d="M750.57928,482.8349c1.44592,0.60248,2.61353,2.41791,2.60968,4.0448c-0.00391,1.6275-1.17792,2.45731-2.62384,1.85477&#10;&#9;&#9;&#9;&#9;&#9;&#9;c-1.44592-0.60251-2.61353-2.40811-2.60968-4.03561c0.00391-1.62698,1.17792-2.46649,2.62384-1.86401V482.8349z"/></g></g><path fill="#FFC9CA" d="M775.88464,311.46649c-1.6521,7.52182-5.77179,16.00354,0,18.62701s20.88055,1.86517,25.46759-1.28302&#10;&#9;&#9;&#9;&#9;s-0.27368-19.7052-1.98303-21.2793S775.88464,311.46649,775.88464,311.46649z"/><g><path fill="#363E58" d="M851.04926,512.82764c-4.56494-16.89014-10.14893-37.35275-9.74481-52.78674&#10;&#9;&#9;&#9;&#9;&#9;c0.41772-15.95099,3.14532-52.46231,3.84619-78.59033c0.41028-15.29706,0.1264-27.03818-1.724-29.00391&#10;&#9;&#9;&#9;&#9;&#9;c-9.84277-10.45767-26.27478-22.33228-31.60236-23.6254l-0.00024-0.0011l-8.91803-5.0058&#10;&#9;&#9;&#9;&#9;&#9;c0,0-28.70972,113.31531-24.1488,136.2038c0,0,0.00189-0.00449,0.00195-0.0051&#10;&#9;&#9;&#9;&#9;&#9;c-0.46741,4.17065-0.7038,7.69937-0.65039,10.37527c0.54352,27.25009,4.70715,109.14365,14.71667,115.3342&#10;&#9;&#9;&#9;&#9;&#9;c10.00964,6.18982,64.55591-22.72595,63.89667-37.15381c-0.2569-5.6228-2.75775-24.95557-5.67267-35.74109H851.04926z"/><path opacity="0.05" fill="#FFFFFF" d="M797.48523,502.42551&#10;&#9;&#9;&#9;&#9;&#9;c-1.00116,3.06781-0.36682,9.29379,1.98315,9.77652c2.34998,0.48267,28.7301-6.59152,31.5365-9.86053&#10;&#9;&#9;&#9;&#9;&#9;c2.8064-3.26898-0.73999-11.47028-2.87732-11.24432C825.9903,491.32318,798.29437,499.94568,797.48523,502.42551z" enable-background="new"/><path opacity="0.1" d="M851.04926,512.82764c-4.56494-16.89014-10.14893-37.35275-9.74481-52.78674&#10;&#9;&#9;&#9;&#9;&#9;c0.41772-15.95099,3.14532-52.46231,3.84619-78.59033c-9.24542,10.63101-25.0863,32.17303-24.66956,54.61322&#10;&#9;&#9;&#9;&#9;&#9;c0.53851,28.99139,10.64734,68.16162,30.56824,76.76367L851.04926,512.82764z" enable-background="new"/><path opacity="0.05" fill="#FFFFFF" d="M811.8241,328.82037l-8.91797-5.00598&#10;&#9;&#9;&#9;&#9;&#9;c0,0-28.70972,113.31558-24.14886,136.20367c0,0,39.4563-94.96527,36.91467-102.5899l-8.89551-9.95447l9.01324-4.44772&#10;&#9;&#9;&#9;&#9;&#9;l-3.96564-14.20551L811.8241,328.82037z" enable-background="new"/></g><g><path fill="#363E58" d="M854.01221,361.5347c8.25549,10.82828,9.47058,102.97391-0.14429,122.98776&#10;&#9;&#9;&#9;&#9;&#9;c-1.37347,2.85913-14.91016,1.51361-16.56946,1.55692c-10.23517,0.26648-7.82568-45.79602-13.74127-88.04773&#10;&#9;&#9;&#9;&#9;&#9;c-6.06696-43.3324,8.49854-65.2962,30.45502-36.49698V361.5347z"/><path fill="#FFD3D4" d="M745.92535,541.18066c4.30042-3.32721,13.02173-6.0495,19.69354-0.43488&#10;&#9;&#9;&#9;&#9;&#9;c6.92786,5.83008-0.82629,18.08997-3.02521,20.22699c-14.9538,14.53235-21.64288,10.47791-27.70441,6.25171&#10;&#9;&#9;&#9;&#9;&#9;c-6.06146-4.2262,2.08575-19.11877,11.03625-26.04382H745.92535z"/><path fill="#363E58" d="M845.6698,468.49701c0,0,10.98541,4.60602,9.09448,14.52438&#10;&#9;&#9;&#9;&#9;&#9;c-1.89099,9.91837-77.23737,73.4736-82.14636,69.79709c-4.90894-3.67651-18.4668-13.9892-15.46143-18.79358&#10;&#9;&#9;&#9;&#9;&#9;s74.51611-66.37909,88.51337-65.52792L845.6698,468.49701z"/><g opacity="0.05"><path d="M787.38879,539.01959c-1.38342-0.61615-3.47961-0.21515-4.67566,0.88788&#10;&#9;&#9;&#9;&#9;&#9;&#9;c-1.19635,1.10333-1.04474,2.49561,0.33862,3.11169s3.47229,0.22174,4.66882-0.88159&#10;&#9;&#9;&#9;&#9;&#9;&#9;c1.19598-1.10297,1.05164-2.50183-0.33179-3.11792V539.01959z"/></g><g opacity="0.05"><path d="M779.01733,544.36194c-1.38336-0.61615-3.47961-0.21515-4.6756,0.88788&#10;&#9;&#9;&#9;&#9;&#9;&#9;c-1.19635,1.10327-1.04474,2.49561,0.33856,3.11169c1.38342,0.61609,3.47229,0.22174,4.66882-0.88159&#10;&#9;&#9;&#9;&#9;&#9;&#9;c1.19598-1.10303,1.05164-2.50183-0.33179-3.11792V544.36194z"/></g></g><g><path fill="#FFD3D4" d="M761.6626,254.1416c-7.45984,8.79559-2.18005,31.34198-2.18005,31.34198&#10;&#9;&#9;&#9;&#9;&#9;s-3.68488,26.41022,19.89032,35.64099c18.7417,7.33829,36.03766-12.065,36.03766-12.065s28.10699-50.6011-4.14648-63.96291&#10;&#9;&#9;&#9;&#9;&#9;s-42.14172,0.24928-49.60156,9.04489L761.6626,254.1416z"/><path fill="#3C4358" d="M782.48462,232.40669c24.33905-5.69519,38.80212,5.6553,39.59424,12.2561&#10;&#9;&#9;&#9;&#9;&#9;c6.46881,3.03641,12.17035,10.77361,11.76031,22.4959c-0.78955,22.57669-18.42853,41.90091-18.42853,41.90091&#10;&#9;&#9;&#9;&#9;&#9;s-3.7923-6.57419-0.37903-5.84821c4.31708,0.9183,12.30658-19.96121,7.92615-25.55008&#10;&#9;&#9;&#9;&#9;&#9;c-4.38025-5.5889-10.61072,12.74219-10.61072,12.74219l-3.70233,4.87631l-0.79779-12.31201c0,0-2.91064-1.315-7.71759-9.39078&#10;&#9;&#9;&#9;&#9;&#9;c-4.28589-7.2002-21.18378-15.12012-25.9491-14.08221c-5.06189,1.10251-16.57806,7.4252-16.4975,8.67029l0.08264,4.77441&#10;&#9;&#9;&#9;&#9;&#9;c0,0-2.74005-2.19751-3.32288-7.99298c-0.59247-5.89124-0.62201-25.83252,28.04193-32.5397L782.48462,232.40669z"/></g><path fill="#FFD3D4" d="M655.0675,497.10638c5.16821-4.76019,8.77228-6.71408,12.58044-2.54099&#10;&#9;&#9;&#9;&#9;c3.80811,4.17307,1.35999,10.3613-1.70013,11.31326c-3.06018,0.95203-10.88043-8.77231-10.88043-8.77231L655.0675,497.10638z"/><path fill="#FFD3D4" d="M644.9635,498.49628c-12.92328,0.34372-17.31476,0.58362-16.2229,5.2243&#10;&#9;&#9;&#9;&#9;c0.54993,2.33719,11.06732,4.67444,18.97247,0.61871c7.90521-4.05573-2.74963-5.84302-2.74963-5.84302H644.9635z"/><path fill="#FFD3D4" d="M761.22015,554.2771c-2.19171,12.74072-2.81573,17.0943,1.94891,16.93152&#10;&#9;&#9;&#9;&#9;c2.39966-0.08203,6.74963-9.93872,4.31909-18.48468c-2.43048-8.54602-6.26807,1.55316-6.26807,1.55316H761.22015z"/></g></g></g></svg>