<svg xmlns="http://www.w3.org/2000/svg" xmlns:xlink="http://www.w3.org/1999/xlink" version="1.1" id="_レイヤー_2" x="0px" y="0px" viewBox="0 0 1072.48071 598.72089" enable-background="new 0 0 1072.48071 598.72089" width="1072px" height="599px" class="lg:!max-h-[405px] hoverScaleIllustration rectangleModalImage" role="img" aria-label="入力作業 アイソメトリック イラスト"><title>入力作業 アイソメトリック イラスト</title><g id="_レイヤー_2-2"><g><g><polygon fill="#EFEFEF" points="608.92212,357.53699 682.36572,358.93811 678.93652,418.90756 605.49298,417.50647"/><path fill="#BFBFBF" d="M632.96454,365.67691l24.4812,0.46701c0.67596,0.01288,1.20599,0.33981,1.18365,0.73007&#10;&#9;&#9;&#9;&#9;c-0.02234,0.39029-0.58856,0.69632-1.26453,0.68341l-24.48114-0.46698c-0.67603-0.01291-1.20605-0.33981-1.18359-0.7301&#10;&#9;&#9;&#9;&#9;c0.0224-0.39029,0.5885-0.69629,1.26447-0.68341H632.96454z"/><g><path fill="#BFBFBF" d="M617.09802,375.27899l55.0827,1.05093c0.33826,0.00647,0.60303,0.16971,0.5918,0.36499&#10;&#9;&#9;&#9;&#9;&#9;l-2.06097,36.04221c-0.01123,0.19531-0.29388,0.34808-0.6322,0.34167l-55.0827-1.0509&#10;&#9;&#9;&#9;&#9;&#9;c-0.33826-0.0065-0.60297-0.16974-0.5918-0.36499l2.06104-36.04221c0.01117-0.19531,0.29388-0.34811,0.6322-0.34171H617.09802z&#10;&#9;&#9;&#9;&#9;&#9; M671.52832,377.02481l-53.85858-1.0275l-2.02063,35.33548l53.85858,1.0275l2.02057-35.33548H671.52832z"/><path fill="#BFBFBF" d="M615.48157,403.54739l55.08264,1.0509c0.33826,0.0065,0.60303,0.16971,0.5918,0.36499&#10;&#9;&#9;&#9;&#9;&#9;s-0.29388,0.34808-0.63214,0.34167l-55.0827-1.0509c-0.33832-0.00647-0.60303-0.16971-0.5918-0.36499&#10;&#9;&#9;&#9;&#9;&#9;C614.86053,403.69379,615.14325,403.54099,615.48157,403.54739z"/><path fill="#BFBFBF" d="M615.80487,397.89371l55.08264,1.0509c0.33832,0.0065,0.60303,0.16974,0.59186,0.36499&#10;&#9;&#9;&#9;&#9;&#9;c-0.01123,0.19528-0.29388,0.34811-0.6322,0.34171l-55.0827-1.05093c-0.33826-0.00647-0.60297-0.16971-0.5918-0.36499&#10;&#9;&#9;&#9;&#9;&#9;C615.18384,398.04013,615.46655,397.8873,615.80487,397.89371L615.80487,397.89371z"/><path fill="#BFBFBF" d="M616.28986,389.41318l55.0827,1.0509c0.33826,0.0065,0.60303,0.16974,0.5918,0.36499&#10;&#9;&#9;&#9;&#9;&#9;c-0.01123,0.19528-0.29388,0.34811-0.6322,0.34171l-55.08264-1.05093c-0.33832-0.00647-0.60303-0.16971-0.59186-0.36499&#10;&#9;&#9;&#9;&#9;&#9;C615.66882,389.5596,615.95154,389.40677,616.28986,389.41318L616.28986,389.41318z"/><path fill="#BFBFBF" d="M616.57275,384.46622l55.0827,1.0509c0.33826,0.00647,0.60303,0.16971,0.5918,0.36499&#10;&#9;&#9;&#9;&#9;&#9;s-0.29388,0.34808-0.6322,0.34167l-55.08264-1.0509c-0.33832-0.0065-0.60303-0.16971-0.59186-0.36499&#10;&#9;&#9;&#9;&#9;&#9;S616.23444,384.45981,616.57275,384.46622L616.57275,384.46622z"/><path fill="#BFBFBF" d="M644.72601,385.00333c0.33832,0.00647,0.60303,0.16971,0.59186,0.36499l-0.2829,4.94699&#10;&#9;&#9;&#9;&#9;&#9;c-0.01123,0.19531-0.29388,0.34811-0.6322,0.34171c-0.33826-0.00641-0.60303-0.16974-0.5918-0.36499l0.2829-4.94702&#10;&#9;&#9;&#9;&#9;&#9;C644.1051,385.14969,644.38776,384.99692,644.72601,385.00333z"/></g></g><g><polygon fill="#EFEFEF" points="851.36938,475.0946 923.81726,482.19379 906.43005,541.34998 833.98206,534.25079"/><path fill="#BFBFBF" d="M873.29413,485.02979l24.14935,2.36639c0.66681,0.06531,1.11572,0.43048,1.00256,0.8154&#10;&#9;&#9;&#9;&#9;c-0.11316,0.38489-0.74548,0.6441-1.41241,0.5788l-24.14935-2.36639c-0.66681-0.06531-1.11572-0.43051-1.00256-0.8154&#10;&#9;&#9;&#9;&#9;C871.99487,485.22366,872.6272,484.96448,873.29413,485.02979z"/><g><path fill="#BFBFBF" d="M855.33209,493.31058l54.33594,5.3244c0.33374,0.03268,0.55792,0.21509,0.50134,0.40771&#10;&#9;&#9;&#9;&#9;&#9;l-10.45001,35.5535c-0.05658,0.19275-0.37244,0.32214-0.70618,0.28937l-54.33582-5.3244&#10;&#9;&#9;&#9;&#9;&#9;c-0.33374-0.03265-0.55798-0.21509-0.50134-0.40771l10.44995-35.5535c0.05664-0.19272,0.3725-0.32211,0.70618-0.28937H855.33209&#10;&#9;&#9;&#9;&#9;&#9;z M908.85938,499.27298l-53.12848-5.20612l-10.24512,34.85629l53.12848,5.20612L908.85938,499.27298z"/><path fill="#BFBFBF" d="M847.13617,521.19568l54.33594,5.3244c0.33368,0.03271,0.55792,0.21515,0.50128,0.40771&#10;&#9;&#9;&#9;&#9;&#9;c-0.05658,0.19263-0.37244,0.32214-0.70618,0.28943l-54.33582-5.3244c-0.33374-0.03271-0.55798-0.21515-0.50134-0.40771&#10;&#9;&#9;&#9;&#9;&#9;c0.05658-0.19263,0.37244-0.32214,0.70618-0.28943H847.13617z"/><path fill="#BFBFBF" d="M848.77533,515.61871l54.33588,5.3244c0.33368,0.03265,0.55792,0.21509,0.50128,0.40771&#10;&#9;&#9;&#9;&#9;&#9;c-0.05658,0.19257-0.37244,0.32208-0.70618,0.28937l-54.33582-5.3244c-0.33374-0.03271-0.55798-0.21515-0.50134-0.40771&#10;&#9;&#9;&#9;&#9;&#9;C848.12573,515.71545,848.44159,515.58594,848.77533,515.61871z"/><path fill="#BFBFBF" d="M851.23413,507.25308l54.33588,5.32443c0.33368,0.03265,0.55792,0.21509,0.50128,0.40771&#10;&#9;&#9;&#9;&#9;&#9;c-0.05658,0.19257-0.37244,0.32208-0.70618,0.28937l-54.33582-5.3244c-0.33374-0.03268-0.55798-0.21512-0.50134-0.40771&#10;&#9;&#9;&#9;&#9;&#9;C850.58453,507.34988,850.90039,507.22037,851.23413,507.25308z"/><path fill="#BFBFBF" d="M852.66846,502.37317l54.33588,5.3244c0.33368,0.03271,0.55792,0.21512,0.50128,0.40771&#10;&#9;&#9;&#9;&#9;&#9;c-0.05658,0.19263-0.37244,0.32211-0.70618,0.2894l-54.33582-5.3244c-0.33374-0.03268-0.55798-0.21512-0.50134-0.40771&#10;&#9;&#9;&#9;&#9;&#9;C852.01886,502.46997,852.33472,502.34045,852.66846,502.37317z"/><path fill="#BFBFBF" d="M880.44012,505.09457c0.33374,0.03271,0.55792,0.21512,0.50134,0.40771l-1.43433,4.87991&#10;&#9;&#9;&#9;&#9;&#9;c-0.05664,0.19272-0.3725,0.32211-0.70618,0.2894c-0.33374-0.03275-0.55792-0.21512-0.50134-0.40771l1.43433-4.87991&#10;&#9;&#9;&#9;&#9;&#9;C879.79059,505.19125,880.10645,505.06186,880.44012,505.09457z"/></g></g><g><polygon fill="#E6E6E6" points="543.89905,263.32901 606.88904,285.1788 553.36816,336.6116 490.37814,314.76178"/><path fill="#BFBFBF" d="M558.04791,277.1929l20.9967,7.28329c0.57983,0.20111,0.7674,0.63562,0.41907,0.97031&#10;&#9;&#9;&#9;&#9;c-0.34827,0.33472-1.10077,0.44312-1.6806,0.24191l-20.99664-7.28329c-0.57983-0.20108-0.76746-0.63562-0.41913-0.97031&#10;&#9;&#9;&#9;&#9;C556.71564,277.1001,557.46814,276.99173,558.04791,277.1929z"/><g><path fill="#BFBFBF" d="M536.09497,281.1264l47.24249,16.3873c0.2901,0.10059,0.38391,0.3176,0.20959,0.48508&#10;&#9;&#9;&#9;&#9;&#9;l-32.16656,30.91171c-0.17432,0.16748-0.55011,0.22159-0.84033,0.121l-47.24249-16.3873&#10;&#9;&#9;&#9;&#9;&#9;c-0.2901-0.10059-0.38391-0.3176-0.20959-0.48511l32.16656-30.91168C535.42896,281.0799,535.80475,281.02582,536.09497,281.1264&#10;&#9;&#9;&#9;&#9;&#9;z M582.18182,297.93781l-46.19269-16.02319l-31.53592,30.30557l46.19272,16.02322L582.18182,297.93781L582.18182,297.93781z"/><path fill="#BFBFBF" d="M510.86627,305.37082l47.24249,16.3873c0.2901,0.10059,0.38391,0.3176,0.20966,0.48511&#10;&#9;&#9;&#9;&#9;&#9;c-0.17432,0.16751-0.55017,0.22159-0.84033,0.121l-47.24249-16.38727c-0.29013-0.10062-0.38391-0.3176-0.20963-0.48511&#10;&#9;&#9;&#9;&#9;&#9;s0.55011-0.22159,0.8403-0.121V305.37082z"/><path fill="#BFBFBF" d="M515.91205,300.52191l47.24249,16.3873c0.2901,0.10062,0.38391,0.3176,0.20959,0.48511&#10;&#9;&#9;&#9;&#9;&#9;c-0.17426,0.16751-0.55011,0.22159-0.84027,0.121l-47.24249-16.3873c-0.2901-0.10062-0.38391-0.3176-0.20966-0.48511&#10;&#9;&#9;&#9;&#9;&#9;C515.24603,300.4754,515.62189,300.42133,515.91205,300.52191z"/><path fill="#BFBFBF" d="M523.48065,293.2486l47.24249,16.3873c0.2901,0.10059,0.38391,0.3176,0.20959,0.48508&#10;&#9;&#9;&#9;&#9;&#9;c-0.17426,0.16751-0.55011,0.22162-0.84027,0.121l-47.24249-16.3873c-0.29016-0.10059-0.38391-0.3176-0.20966-0.48511&#10;&#9;&#9;&#9;&#9;&#9;c0.17432-0.16748,0.55011-0.22159,0.84033-0.121V293.2486z"/><path fill="#BFBFBF" d="M527.89563,289.0058l47.24249,16.3873c0.29016,0.10062,0.38391,0.3176,0.20966,0.48511&#10;&#9;&#9;&#9;&#9;&#9;c-0.17432,0.16751-0.55011,0.22159-0.84033,0.121l-47.24249-16.3873c-0.2901-0.10062-0.38391-0.3176-0.20959-0.48511&#10;&#9;&#9;&#9;&#9;&#9;C527.22961,288.95929,527.60547,288.90521,527.89563,289.0058z"/><path fill="#BFBFBF" d="M552.04187,297.38159c0.2901,0.10059,0.38391,0.3176,0.20959,0.48511l-4.41504,4.2428&#10;&#9;&#9;&#9;&#9;&#9;c-0.17426,0.16751-0.55011,0.22159-0.84027,0.121c-0.29022-0.10059-0.38391-0.3176-0.20966-0.48511l4.41504-4.2428&#10;&#9;&#9;&#9;&#9;&#9;C551.37585,297.33508,551.75165,297.28101,552.04187,297.38159z"/></g></g><g><polygon fill="#E6E6E6" points="1072.48071,436.0108 1063.10559,478.08969 960.02795,470.43289 969.40314,428.35388"/><path fill="#BFBFBF" d="M1056.16724,449.0575l-3.125,14.02631c-0.0863,0.3873-0.70007,0.66089-1.37097,0.61111&#10;&#9;&#9;&#9;&#9;c-0.6709-0.0498-1.14478-0.40421-1.05847-0.79153l3.125-14.02628c0.0863-0.38733,0.70007-0.66092,1.37097-0.61111&#10;&#9;&#9;&#9;&#9;C1055.77966,448.31577,1056.25354,448.6702,1056.16724,449.0575z"/><g><path fill="#BFBFBF" d="M1041.11438,439.02777l-7.03137,31.55923c-0.04321,0.19379-0.34985,0.33051-0.68555,0.30548&#10;&#9;&#9;&#9;&#9;&#9;l-61.95062-4.60181c-0.33569-0.0249-0.57245-0.20197-0.52917-0.39581l7.03131-31.55917&#10;&#9;&#9;&#9;&#9;&#9;c0.04315-0.19379,0.34979-0.33051,0.68549-0.30548l61.95074,4.60178c0.33569,0.02493,0.57239,0.202,0.52917,0.39581V439.02777z&#10;&#9;&#9;&#9;&#9;&#9; M1032.94641,470.14609l6.875-30.85788l-60.7359-4.5116l-6.87506,30.85788L1032.94641,470.14609z"/><path fill="#BFBFBF" d="M992.52563,435.41849l-7.03137,31.5592c-0.04315,0.19379-0.34979,0.33051-0.68549,0.30548&#10;&#9;&#9;&#9;&#9;&#9;s-0.57245-0.202-0.52917-0.39581l7.03131-31.55923c0.04321-0.19379,0.34985-0.33051,0.68555-0.30548&#10;&#9;&#9;&#9;&#9;&#9;s0.57239,0.202,0.52917,0.39581V435.41849z"/><path fill="#BFBFBF" d="M1002.24335,436.14029l-7.03137,31.5592c-0.04315,0.19379-0.34979,0.33051-0.68549,0.30548&#10;&#9;&#9;&#9;&#9;&#9;s-0.57245-0.202-0.52917-0.39581l7.03131-31.5592c0.04321-0.19379,0.34985-0.33051,0.68555-0.30548&#10;&#9;&#9;&#9;&#9;&#9;S1002.28656,435.94644,1002.24335,436.14029z"/><path fill="#BFBFBF" d="M1016.81995,437.22308l-7.03131,31.55917c-0.04315,0.19379-0.34979,0.33051-0.68549,0.30548&#10;&#9;&#9;&#9;&#9;&#9;s-0.57245-0.202-0.52917-0.39581l7.03131-31.5592c0.04321-0.19379,0.34979-0.33051,0.68549-0.30548&#10;&#9;&#9;&#9;&#9;&#9;s0.57245,0.20197,0.52917,0.39581V437.22308z"/><path fill="#BFBFBF" d="M1025.323,437.85468l-7.03131,31.55923c-0.04321,0.19379-0.34979,0.33051-0.68549,0.30548&#10;&#9;&#9;&#9;&#9;&#9;s-0.57245-0.202-0.52917-0.39581l7.03125-31.55923c0.04321-0.19379,0.34985-0.33051,0.68555-0.30548&#10;&#9;&#9;&#9;&#9;&#9;S1025.36621,437.66086,1025.323,437.85468z"/><path fill="#BFBFBF" d="M1021.72919,453.98499c-0.04321,0.19379-0.34979,0.33051-0.68549,0.30548l-8.50305-0.63162&#10;&#9;&#9;&#9;&#9;&#9;c-0.33569-0.0249-0.57245-0.20197-0.52917-0.39581c0.04327-0.19382,0.34979-0.33051,0.68549-0.30548l8.50305,0.63162&#10;&#9;&#9;&#9;&#9;&#9;C1021.53571,453.61407,1021.77246,453.79114,1021.72919,453.98499z"/></g></g><g><polygon fill="#E6E6E6" points="712.49213,433.83469 780.63953,417.96371 819.52008,473.60931 751.37274,489.48026"/><path fill="#BFBFBF" d="M740.1825,435.66397l22.71582-5.29028c0.62726-0.14612,1.34088,0.02908,1.59406,0.39117&#10;&#9;&#9;&#9;&#9;c0.25311,0.36209-0.05048,0.7742-0.67761,0.92032l-22.71582,5.29028c-0.6272,0.14612-1.34088-0.02911-1.59399-0.3912&#10;&#9;&#9;&#9;&#9;C739.25177,436.22217,739.55536,435.81009,740.1825,435.66397z"/><g><path fill="#BFBFBF" d="M732.39984,448.151l51.11053-11.9032c0.31384-0.07309,0.67041,0.0144,0.79694,0.19562l23.36768,33.4436&#10;&#9;&#9;&#9;&#9;&#9;c0.12659,0.18121-0.02484,0.38702-0.33881,0.46011l-51.11053,11.90317c-0.31384,0.07309-0.67035-0.01437-0.79694-0.19562&#10;&#9;&#9;&#9;&#9;&#9;l-23.36768-33.4436C731.93445,448.4299,732.08588,448.22409,732.39984,448.151z M783.40063,437.03577l-49.97479,11.63873&#10;&#9;&#9;&#9;&#9;&#9;l22.90948,32.78781l49.97479-11.6387l-22.90948-32.78778V437.03577z"/><path fill="#BFBFBF" d="M750.72729,474.38129l51.11053-11.9032c0.3139-0.07309,0.67041,0.01437,0.797,0.19562&#10;&#9;&#9;&#9;&#9;&#9;c0.12653,0.18124-0.0249,0.38699-0.33887,0.46008l-51.11047,11.9032c-0.3139,0.07309-0.67041-0.01437-0.797-0.19562&#10;&#9;&#9;&#9;&#9;&#9;S750.41339,474.45438,750.72729,474.38129z"/><path fill="#BFBFBF" d="M747.06183,469.13519l51.11053-11.9032c0.3139-0.07309,0.67041,0.0144,0.797,0.19562&#10;&#9;&#9;&#9;&#9;&#9;c0.12659,0.18124-0.0249,0.38702-0.33881,0.46011l-51.11053,11.90317c-0.3139,0.07309-0.67041-0.01437-0.797-0.19562&#10;&#9;&#9;&#9;&#9;&#9;C746.59644,469.41406,746.74792,469.20828,747.06183,469.13519z"/><path fill="#BFBFBF" d="M741.56366,461.26608l51.11053-11.9032c0.31384-0.07309,0.67041,0.0144,0.79694,0.19562&#10;&#9;&#9;&#9;&#9;&#9;c0.12659,0.18124-0.02484,0.38702-0.33881,0.46011l-51.11053,11.90317c-0.31384,0.07309-0.67041-0.01437-0.79694-0.19562&#10;&#9;&#9;&#9;&#9;&#9;C741.09827,461.54495,741.24969,461.33917,741.56366,461.26608z"/><path fill="#BFBFBF" d="M738.35626,456.6759l51.11053-11.9032c0.31384-0.07309,0.67041,0.01437,0.79694,0.19562&#10;&#9;&#9;&#9;&#9;&#9;c0.12659,0.18124-0.02484,0.38699-0.33881,0.46008l-51.11053,11.9032c-0.31384,0.07309-0.67041-0.01437-0.79694-0.19562&#10;&#9;&#9;&#9;&#9;&#9;C737.89087,456.95474,738.0423,456.74899,738.35626,456.6759z"/><path fill="#BFBFBF" d="M764.47943,450.59198c0.3139-0.07309,0.67041,0.0144,0.797,0.19562l3.20734,4.5903&#10;&#9;&#9;&#9;&#9;&#9;c0.12653,0.18121-0.0249,0.38702-0.33887,0.46011c-0.3139,0.07309-0.67035-0.0144-0.79694-0.19562l-3.20734-4.5903&#10;&#9;&#9;&#9;&#9;&#9;C764.01404,450.87088,764.16553,450.66507,764.47943,450.59198z"/></g></g><g><polygon fill="#EFEFEF" points="620.19305,47.50363 665.60199,80.86042 583.89252,117.93712 538.48364,84.58032"/><path fill="#BFBFBF" d="M624.87494,63.36642l15.13629,11.1189c0.41785,0.307,0.32568,0.7516-0.20612,0.9929&#10;&#9;&#9;&#9;&#9;c-0.5318,0.2413-1.30182,0.188-1.71967-0.119l-15.13635-11.1189c-0.41785-0.30701-0.32568-0.7516,0.20612-0.9929&#10;&#9;&#9;&#9;&#9;S624.45703,63.05943,624.87494,63.36642z"/><g><path fill="#BFBFBF" d="M601.93402,62.53412l34.0567,25.0176c0.20923,0.1536,0.16315,0.3757-0.10297,0.4964l-49.10822,22.28349&#10;&#9;&#9;&#9;&#9;&#9;c-0.26611,0.1208-0.6507,0.0941-0.85992-0.0595l-34.0567-25.01759c-0.20917-0.15359-0.16309-0.37569,0.10303-0.49639&#10;&#9;&#9;&#9;&#9;&#9;l49.10815-22.2835C601.34021,62.35382,601.72485,62.38053,601.93402,62.53412z M634.64948,87.71062l-33.2998-24.4617&#10;&#9;&#9;&#9;&#9;&#9;l-48.14532,21.8465l33.2998,24.46169C586.50415,109.55712,634.64948,87.71063,634.64948,87.71062z"/><path fill="#BFBFBF" d="M563.41785,80.01132l34.0567,25.01759c0.20917,0.1536,0.16309,0.3757-0.10303,0.4964&#10;&#9;&#9;&#9;&#9;&#9;s-0.6507,0.0941-0.85986-0.0595l-34.0567-25.0176c-0.20923-0.1536-0.16315-0.3757,0.10297-0.4964&#10;&#9;&#9;&#9;&#9;&#9;C562.82404,79.83111,563.20862,79.85771,563.41785,80.01132z"/><path fill="#BFBFBF" d="M571.12115,76.51592l34.0567,25.01759c0.20923,0.1536,0.16315,0.3757-0.10297,0.4964&#10;&#9;&#9;&#9;&#9;&#9;s-0.65076,0.0941-0.85992-0.0595l-34.0567-25.01759c-0.20923-0.1536-0.16315-0.3757,0.10297-0.4964&#10;&#9;&#9;&#9;&#9;&#9;C570.52734,76.33572,570.91199,76.36232,571.12115,76.51592z"/><path fill="#BFBFBF" d="M582.67596,71.27273l34.0567,25.01759c0.20917,0.1536,0.16309,0.3757-0.10303,0.4964&#10;&#9;&#9;&#9;&#9;&#9;s-0.6507,0.0941-0.85986-0.0595l-34.0567-25.01759c-0.20923-0.1536-0.16315-0.3757,0.10297-0.49641&#10;&#9;&#9;&#9;&#9;&#9;C582.08215,71.09252,582.46674,71.11913,582.67596,71.27273z"/><path fill="#BFBFBF" d="M589.41632,68.21423l34.0567,25.0176c0.20923,0.15359,0.16315,0.37569-0.10297,0.49639&#10;&#9;&#9;&#9;&#9;&#9;s-0.65076,0.0941-0.85992-0.05949l-34.0567-25.0176c-0.20923-0.15359-0.16315-0.3757,0.10297-0.4964&#10;&#9;&#9;&#9;&#9;&#9;C588.82251,68.03402,589.20715,68.06062,589.41632,68.21423z"/><path fill="#BFBFBF" d="M606.823,81.00101c0.20923,0.1536,0.16315,0.3757-0.10297,0.4964l-6.7403,3.0585&#10;&#9;&#9;&#9;&#9;&#9;c-0.26611,0.1208-0.6507,0.0941-0.85992-0.0595c-0.20917-0.15359-0.16309-0.3757,0.10303-0.4964l6.7403-3.05849&#10;&#9;&#9;&#9;&#9;&#9;C606.22925,80.82072,606.61383,80.84742,606.823,81.00101z"/></g></g><g><polygon fill="#EFEFEF" points="716.0993,202.92551 730.82758,244.49062 629.00964,256.51511 614.28131,214.94991"/><path fill="#BFBFBF" d="M707.98151,218.319l4.90936,13.85501c0.13556,0.38258-0.29181,0.7562-0.95447,0.8345&#10;&#9;&#9;&#9;&#9;c-0.6626,0.07829-1.30981-0.1685-1.44531-0.55099l-4.90936-13.85501c-0.13556-0.38258,0.29187-0.7562,0.95447-0.8345&#10;&#9;&#9;&#9;&#9;C707.19879,217.68971,707.84601,217.93651,707.98151,218.319z"/><g><path fill="#BFBFBF" d="M688.11487,211.6434l11.0462,31.17389c0.06781,0.1915-0.14557,0.3781-0.47723,0.41719l-61.1936,7.22679&#10;&#9;&#9;&#9;&#9;&#9;c-0.3316,0.0392-0.65479-0.08409-0.72266-0.2755l-11.0462-31.17389c-0.06781-0.1915,0.14563-0.3781,0.47723-0.41719&#10;&#9;&#9;&#9;&#9;&#9;l61.1936-7.22679c0.33154-0.0392,0.65485,0.08409,0.72272,0.2755H688.11487z M697.83844,242.61259l-10.80072-30.48108&#10;&#9;&#9;&#9;&#9;&#9;l-59.99365,7.08508l10.80066,30.48109L697.83844,242.61259z"/><path fill="#BFBFBF" d="M640.11987,217.31151l11.0462,31.17389c0.06781,0.1915-0.14557,0.3781-0.47723,0.41719&#10;&#9;&#9;&#9;&#9;&#9;c-0.3316,0.03911-0.65479-0.08409-0.72272-0.2755l-11.0462-31.17389c-0.06781-0.1915,0.14563-0.3781,0.47723-0.41719&#10;&#9;&#9;&#9;&#9;&#9;C639.72876,216.9969,640.05194,217.1201,640.11987,217.31151z"/><path fill="#BFBFBF" d="M649.71887,216.17792l11.0462,31.17389c0.06781,0.1915-0.14557,0.3781-0.47723,0.41719&#10;&#9;&#9;&#9;&#9;&#9;c-0.3316,0.03911-0.65479-0.08409-0.72272-0.2755l-11.0462-31.17389c-0.06781-0.1915,0.14557-0.3781,0.47723-0.41719&#10;&#9;&#9;&#9;&#9;&#9;C649.32776,215.86331,649.65094,215.98651,649.71887,216.17792z"/><path fill="#BFBFBF" d="M664.11737,214.47751l11.0462,31.17389c0.06781,0.1915-0.14557,0.3781-0.47723,0.41721&#10;&#9;&#9;&#9;&#9;&#9;c-0.3316,0.03909-0.65479-0.08411-0.72272-0.2755l-11.0462-31.1739c-0.06781-0.1915,0.14557-0.37808,0.47723-0.41719&#10;&#9;&#9;&#9;&#9;&#9;C663.72626,214.16292,664.04944,214.2861,664.11737,214.47751z"/><path fill="#BFBFBF" d="M672.51654,213.48561l11.04626,31.17389c0.06781,0.1915-0.14557,0.3781-0.47723,0.41721&#10;&#9;&#9;&#9;&#9;&#9;c-0.33167,0.03909-0.65485-0.08411-0.72272-0.2755l-11.04626-31.1739c-0.06781-0.1915,0.14557-0.37808,0.47723-0.41719&#10;&#9;&#9;&#9;&#9;&#9;C672.12549,213.17102,672.44867,213.2942,672.51654,213.48561z"/><path fill="#BFBFBF" d="M678.16229,229.41891c0.06787,0.1915-0.14557,0.3781-0.47717,0.41719l-8.39917,0.9919&#10;&#9;&#9;&#9;&#9;&#9;c-0.33154,0.0392-0.65479-0.08409-0.72272-0.2755c-0.06787-0.19139,0.14557-0.37808,0.47723-0.41719l8.39911-0.9919&#10;&#9;&#9;&#9;&#9;&#9;C677.77118,229.10422,678.09442,229.22751,678.16229,229.41891z"/></g></g><g><polygon fill="#E6E6E6" points="440.76984,20.25163 511.75037,31.23173 484.85614,89.18962 413.87564,78.20943"/><path fill="#BFBFBF" d="M460.98907,31.32713l23.66019,3.6601c0.65332,0.1011,1.04111,0.4888,0.86609,0.866&#10;&#9;&#9;&#9;&#9;c-0.17502,0.3772-0.84659,0.6011-1.49991,0.5l-23.66019-3.6601c-0.65329-0.1011-1.04111-0.4888-0.86609-0.866&#10;&#9;&#9;&#9;&#9;C459.66418,31.44993,460.33575,31.22603,460.98907,31.32713z"/><g><path fill="#BFBFBF" d="M441.76437,38.60163l53.23538,8.2351c0.32687,0.0506,0.5206,0.2442,0.43301,0.433l-16.1637,34.83319&#10;&#9;&#9;&#9;&#9;&#9;c-0.08759,0.1888-0.42303,0.3006-0.75003,0.25l-53.23538-8.2351c-0.32687-0.05061-0.5206-0.2442-0.43301-0.43301&#10;&#9;&#9;&#9;&#9;&#9;l16.16373-34.83319C441.10196,38.66282,441.43738,38.55102,441.76437,38.60163z M494.09125,47.42833l-52.05237-8.0521&#10;&#9;&#9;&#9;&#9;&#9;l-15.8468,34.1502l52.0524,8.05209C478.24448,81.57851,494.09125,47.42832,494.09125,47.42833z"/><path fill="#BFBFBF" d="M429.08694,65.92182l53.23538,8.2351c0.3269,0.05061,0.5206,0.2442,0.43301,0.43301&#10;&#9;&#9;&#9;&#9;&#9;c-0.08759,0.1888-0.423,0.3006-0.75,0.25l-53.23538-8.2351c-0.3269-0.05061-0.5206-0.2442-0.43301-0.43301&#10;&#9;&#9;&#9;&#9;&#9;S428.75995,65.87122,429.08694,65.92182z"/><path fill="#BFBFBF" d="M431.62234,60.45782l53.23538,8.2351c0.3269,0.05061,0.5206,0.2442,0.43301,0.43301&#10;&#9;&#9;&#9;&#9;&#9;s-0.423,0.3006-0.75,0.25l-53.23538-8.2351c-0.3269-0.0506-0.5206-0.2442-0.43301-0.433&#10;&#9;&#9;&#9;&#9;&#9;C430.95993,60.51902,431.29535,60.40723,431.62234,60.45782z"/><path fill="#BFBFBF" d="M435.42563,52.26173l53.23541,8.2351c0.32687,0.0506,0.52057,0.2442,0.43298,0.433&#10;&#9;&#9;&#9;&#9;&#9;s-0.423,0.3006-0.75,0.25l-53.23538-8.2351c-0.32687-0.0506-0.5206-0.2442-0.43301-0.433S435.09863,52.21113,435.42563,52.26173&#10;&#9;&#9;&#9;&#9;&#9;z"/><path fill="#BFBFBF" d="M437.64417,47.48072l53.23538,8.2351c0.32687,0.0506,0.5206,0.2442,0.43301,0.433&#10;&#9;&#9;&#9;&#9;&#9;s-0.42303,0.3006-0.75003,0.25l-53.23538-8.2351c-0.32687-0.0506-0.5206-0.2442-0.43301-0.433&#10;&#9;&#9;&#9;&#9;&#9;S437.31717,47.43013,437.64417,47.48072z"/><path fill="#BFBFBF" d="M464.85336,51.68983c0.32687,0.0506,0.5206,0.2442,0.43301,0.433l-2.21854,4.781&#10;&#9;&#9;&#9;&#9;&#9;c-0.08759,0.1888-0.423,0.3006-0.75,0.25s-0.5206-0.2442-0.43301-0.433l2.21854-4.781&#10;&#9;&#9;&#9;&#9;&#9;C464.19095,51.75103,464.52637,51.63923,464.85336,51.68983z"/></g></g><g><polygon fill="#E6E6E6" points="714.90503,154.02373 756.00555,118.85542 842.15619,152.41702 801.0556,187.5854"/><path fill="#BFBFBF" d="M739.62787,146.59502l13.70013-11.72279c0.3783-0.3237,1.13965-0.40901,1.70032-0.19061&#10;&#9;&#9;&#9;&#9;s0.70844,0.658,0.3302,0.9816l-13.7002,11.72281c-0.37823,0.3237-1.13959,0.409-1.70026,0.1906&#10;&#9;&#9;&#9;&#9;C739.39734,147.35822,739.24957,146.91862,739.62787,146.59502z"/><g><path fill="#BFBFBF" d="M745.27863,159.45892l30.82544-26.37631c0.18927-0.16199,0.56952-0.20459,0.85004-0.09529&#10;&#9;&#9;&#9;&#9;&#9;l51.7774,20.1709c0.28064,0.1093,0.35443,0.3288,0.1651,0.4908l-30.82538,26.37628&#10;&#9;&#9;&#9;&#9;&#9;c-0.18927,0.162-0.56952,0.20461-0.8501,0.09529l-51.7774-20.17088c-0.28058-0.10931-0.35437-0.32881-0.1651-0.4908V159.45892z&#10;&#9;&#9;&#9;&#9;&#9; M776.77673,133.77122l-30.14038,25.79008l50.76221,19.77541l30.14032-25.7901L776.77673,133.77122z"/><path fill="#BFBFBF" d="M785.88831,175.27921l30.82538-26.3763c0.18933-0.162,0.56958-0.20461,0.8501-0.09531&#10;&#9;&#9;&#9;&#9;&#9;c0.28052,0.10931,0.35437,0.32881,0.1651,0.4908l-30.82544,26.3763c-0.18927,0.16199-0.56952,0.20461-0.85004,0.09529&#10;&#9;&#9;&#9;&#9;&#9;s-0.35437-0.32881-0.1651-0.4908V175.27921z"/><path fill="#BFBFBF" d="M777.76642,172.11511l30.82544-26.3763c0.18927-0.162,0.56952-0.20461,0.85004-0.09531&#10;&#9;&#9;&#9;&#9;&#9;s0.35437,0.3288,0.1651,0.4908l-30.82538,26.3763c-0.18933,0.16199-0.56958,0.20459-0.8501,0.09529&#10;&#9;&#9;&#9;&#9;&#9;c-0.28052-0.10931-0.35437-0.32881-0.1651-0.4908V172.11511z"/><path fill="#BFBFBF" d="M765.5835,167.36902l30.82544-26.3763c0.18927-0.162,0.56952-0.20461,0.85004-0.09531&#10;&#9;&#9;&#9;&#9;&#9;c0.28058,0.1093,0.35443,0.3288,0.1651,0.4908l-30.82538,26.3763c-0.18933,0.16199-0.56958,0.20459-0.8501,0.09529&#10;&#9;&#9;&#9;&#9;&#9;c-0.28052-0.10931-0.35437-0.32881-0.1651-0.4908V167.36902z"/><path fill="#BFBFBF" d="M758.47681,164.60052l30.82544-26.37631c0.18927-0.16199,0.56952-0.20459,0.85004-0.09529&#10;&#9;&#9;&#9;&#9;&#9;s0.35437,0.3288,0.1651,0.4908L759.49194,164.996c-0.18927,0.162-0.56952,0.20461-0.85004,0.09529&#10;&#9;&#9;&#9;&#9;&#9;c-0.28052-0.1093-0.35437-0.3288-0.1651-0.4908V164.60052z"/><path fill="#BFBFBF" d="M774.23206,151.11931c0.18927-0.16199,0.56952-0.20459,0.85004-0.09529l7.10669,2.7686&#10;&#9;&#9;&#9;&#9;&#9;c0.28064,0.1093,0.35443,0.3288,0.1651,0.4908c-0.18927,0.162-0.56952,0.20461-0.85004,0.09531l-7.10669-2.76862&#10;&#9;&#9;&#9;&#9;&#9;C774.11652,151.50081,774.04272,151.28131,774.23206,151.11931z"/></g></g><g><path opacity="0.1" fill="#333333" d="M324.92166,473.79587&#10;&#9;&#9;&#9;&#9;c34.4751-7.27969,59.13089-26.3446,59.13089-48.78848c0-28.71219-40.27588-51.98792-89.95609-51.98792&#10;&#9;&#9;&#9;&#9;c-40.21481,0-74.248,15.25571-85.76419,36.2952l-72.2058-39.93411L2.5316,446.51138l275.21609,152.2095l133.59378-77.13013&#10;&#9;&#9;&#9;&#9;l-86.41971-47.79477L324.92166,473.79587z" enable-background="new"/><g><g><g><ellipse transform="matrix(0.89955 -0.43682 0.43682 0.89955 -97.4165 126.43272)" fill="#4A4C56" cx="226.19235" cy="275.0275" rx="13.00739" ry="4.2318"/><ellipse transform="matrix(0.89955 -0.43682 0.43682 0.89955 -77.71021 109.50011)" fill="#4A4C56" cx="199.2292" cy="223.71411" rx="13.00739" ry="4.2318"/><polygon fill="#4A4C56" points="237.22168,268.6597 210.25839,217.34641 188.19989,230.08191 215.16318,281.3952"/><path fill="#4F5056" d="M154.45869,241.16881l8.14919,4.7049c3.8007,2.19431,9.55,2.4326,12.84149,0.5323l55.009-31.75951&#10;&#9;&#9;&#9;&#9;&#9;&#9;&#9;c3.29149-1.90028,5.97231-10.00819,2.17159-12.20248l-10.63939-1.65871c-3.8007-2.19431-9.55-2.4326-12.84149-0.5323&#10;&#9;&#9;&#9;&#9;&#9;&#9;&#9;l-57.6165,28.5128c-3.2915,1.90028-0.87459,10.20869,2.92599,12.40298L154.45869,241.16881z"/><path fill="#545456" d="M153.25148,235.52921l9.3564,5.40189c3.8007,2.19432,9.55,2.4326,12.84149,0.5323l56.8196-32.80478&#10;&#9;&#9;&#9;&#9;&#9;&#9;&#9;c3.29149-1.9003,2.87869-5.21971-0.922-7.414l-9.3564-5.4019c-3.8007-2.19431-9.55-2.43259-12.84149-0.5323l-56.8196,32.80479&#10;&#9;&#9;&#9;&#9;&#9;&#9;&#9;C149.03798,230.0155,149.45078,233.33492,153.25148,235.52921z"/></g><g><path fill="#4A4C56" d="M301.28677,460.10318c0-6.1535,4.32019-8.64832,9.64978-5.5708s9.64981,10.5603,9.64981,16.71381&#10;&#9;&#9;&#9;&#9;&#9;&#9;&#9;c0,6.15347-0.98788,5.01959-2.5907,6.08328l0.01431,0.00568l-0.13889,0.0802c-0.0759,0.04651-0.1532,0.09158-0.23123,0.13388&#10;&#9;&#9;&#9;&#9;&#9;&#9;&#9;l-11.23679,6.5014l-2.2149-12.41663l1.80609,0.74521c-2.81619-3.57208-4.70819-8.21091-4.70819-12.27618h0.0007V460.10318z"/><path fill="#545456" d="M300.08698,458.50107c0.40659-6.27448,5.11118-8.71408,10.85028-5.40039&#10;&#9;&#9;&#9;&#9;&#9;&#9;&#9;c5.73901,3.31299,10.4436,11.1853,10.84952,17.92871l-21.7005-12.52899L300.08698,458.50107L300.08698,458.50107z"/><path fill="#4A4C56" d="M293.81036,458.10739l17.12692,19.228l-21.7005-12.5282c0.24051-3.716,1.99579-6.0719,4.57358-6.69971&#10;&#9;&#9;&#9;&#9;&#9;&#9;&#9;l0,0V458.10739z"/><path fill="#545456" d="M300.08698,459.40668c-2.34012-1.3515-4.50201-1.7309-6.27661-1.29929l-0.01151-0.01288&#10;&#9;&#9;&#9;&#9;&#9;&#9;&#9;l8.7421-5.25232l19.24661,18.1871l-10.85028,6.306c-0.40662-6.74338-5.11121-14.61569-10.84949-17.92868h-0.00073&#10;&#9;&#9;&#9;&#9;&#9;&#9;&#9;L300.08698,459.40668z"/><path fill="#4A4C56" d="M300.08698,459.40668c5.73898,3.31299,10.4437,11.1853,10.84949,17.92871l-17.12689-19.22791&#10;&#9;&#9;&#9;&#9;&#9;&#9;&#9;c1.7753-0.4324,3.93649-0.05231,6.27658,1.29929h0.00073L300.08698,459.40668z"/><ellipse transform="matrix(0.86602 -0.50002 0.50002 0.86602 -195.7894 213.28481)" fill="#3D4356" cx="300.0863" cy="471.97766" rx="7.8787" ry="13.64712"/><path fill="#4A4C56" d="M212.35507,430.19888c0-6.15347,4.32021-8.64828,9.6498-5.5708&#10;&#9;&#9;&#9;&#9;&#9;&#9;&#9;c5.32959,3.07751,9.6498,10.5603,9.6498,16.71381c0,6.15347-0.9879,5.01959-2.5907,6.08328l0.01431,0.00571l-0.1389,0.08017&#10;&#9;&#9;&#9;&#9;&#9;&#9;&#9;c-0.0759,0.04651-0.1532,0.09158-0.2312,0.13391l-11.2368,6.50137l-2.21492-12.4166l1.80611,0.74518&#10;&#9;&#9;&#9;&#9;&#9;&#9;&#9;c-2.81619-3.57208-4.70819-8.21091-4.70819-12.27618h0.0007V430.19888z"/><path fill="#545456" d="M211.15457,428.5968c0.40662-6.27451,5.11121-8.71411,10.8503-5.40039&#10;&#9;&#9;&#9;&#9;&#9;&#9;&#9;c5.739,3.31299,10.44371,11.1853,10.8495,17.92868l-21.7005-12.52899L211.15457,428.5968z"/><path fill="#4A4C56" d="M204.87787,428.20306l17.12691,19.22791l-21.7005-12.52817&#10;&#9;&#9;&#9;&#9;&#9;&#9;&#9;C200.54477,431.18677,202.30006,428.8309,204.87787,428.20306L204.87787,428.20306z"/><path fill="#545456" d="M211.15527,429.50241c-2.3401-1.35153-4.50198-1.73093-6.2766-1.29929l-0.01141-0.01291&#10;&#9;&#9;&#9;&#9;&#9;&#9;&#9;l8.74211-5.25229l19.2466,18.1871l-10.8503,6.306c-0.40662-6.74341-5.11121-14.61572-10.8495-17.92871h-0.0007&#10;&#9;&#9;&#9;&#9;&#9;&#9;&#9;L211.15527,429.50241z"/><path fill="#4A4C56" d="M211.15527,429.50241c5.73901,3.31299,10.4436,11.1853,10.8495,17.92868l-17.12691-19.22797&#10;&#9;&#9;&#9;&#9;&#9;&#9;&#9;c1.7753-0.4324,3.93651-0.05231,6.27661,1.29929h0.0007H211.15527z"/><ellipse transform="matrix(0.86602 -0.50002 0.50002 0.86602 -192.75229 164.81102)" fill="#3D4356" cx="211.15469" cy="442.07367" rx="7.8787" ry="13.64712"/><path fill="#4A4C56" d="M222.84097,373.15152c0-6.1535,4.32021-8.64832,9.6498-5.5708s9.64978,10.5603,9.64978,16.71378&#10;&#9;&#9;&#9;&#9;&#9;&#9;&#9;c0,2.93143-0.98788,5.01962-2.59068,6.08331l0.0143,0.00568l-0.13889,0.0802c-0.0759,0.04648-0.1532,0.09158-0.23122,0.13388&#10;&#9;&#9;&#9;&#9;&#9;&#9;&#9;l-11.2368,6.5014l-2.2149-12.41663l1.80611,0.74521c-2.81619-3.57208-4.70819-8.21091-4.70819-12.27618h0.0007V373.15152z"/><path fill="#545456" d="M221.64047,371.54941c0.4066-6.27448,5.11119-8.71411,10.8503-5.40039&#10;&#9;&#9;&#9;&#9;&#9;&#9;&#9;c5.739,3.31299,10.4437,11.1853,10.84949,17.92871l-21.70049-12.52899L221.64047,371.54941z"/><path fill="#4A4C56" d="M215.36378,371.1557l17.12691,19.22797l-21.7005-12.52817&#10;&#9;&#9;&#9;&#9;&#9;&#9;&#9;c0.24049-3.71603,1.99579-6.0719,4.57359-6.69974V371.1557z"/><path fill="#545456" d="M221.64117,372.45499c-2.3401-1.3515-4.50198-1.73093-6.27661-1.29929l-0.0114-0.01291l8.7421-5.25229&#10;&#9;&#9;&#9;&#9;&#9;&#9;&#9;l19.2466,18.1871l-10.8503,6.306c-0.4066-6.74341-5.11119-14.61572-10.84949-17.92871h-0.0007L221.64117,372.45499z"/><path fill="#4A4C56" d="M221.64117,372.45499c5.739,3.31299,10.44371,11.1853,10.8495,17.92868l-17.12691-19.22791&#10;&#9;&#9;&#9;&#9;&#9;&#9;&#9;c1.7753-0.43237,3.93649-0.05228,6.27661,1.29929h0.0007L221.64117,372.45499z"/><ellipse transform="matrix(0.86602 -0.50002 0.50002 0.86602 -162.82245 162.41092)" fill="#3D4356" cx="221.64113" cy="385.0257" rx="7.8787" ry="13.64712"/><path fill="#4A4C56" d="M328.70486,364.83038c0-6.15347,4.32019-8.64828,9.64981-5.57077&#10;&#9;&#9;&#9;&#9;&#9;&#9;&#9;c5.32965,3.07748,9.64981,10.5603,9.64981,16.71378c0,6.1535-0.98788,5.01962-2.5907,6.08331l0.01431,0.00568&#10;&#9;&#9;&#9;&#9;&#9;&#9;&#9;l-0.13892,0.08017c-0.0759,0.04651-0.1532,0.09161-0.2312,0.13391l-11.23679,6.50137l-2.2149-12.4166l1.80612,0.74521&#10;&#9;&#9;&#9;&#9;&#9;&#9;&#9;c-2.81622-3.57208-4.70822-8.21091-4.70822-12.27621h0.00067V364.83038z"/><path fill="#545456" d="M327.50507,363.2283c0.40662-6.27451,5.11121-8.71411,10.85031-5.40039&#10;&#9;&#9;&#9;&#9;&#9;&#9;&#9;s10.4436,11.1853,10.84949,17.92868l-21.7005-12.52899l0.00067,0.0007H327.50507z"/><path fill="#443A2B" d="M321.22845,362.83459l17.12689,19.22791l-21.7005-12.5282&#10;&#9;&#9;&#9;&#9;&#9;&#9;&#9;C316.89536,365.8183,318.65063,363.4624,321.22845,362.83459L321.22845,362.83459z"/><path fill="#545456" d="M327.50507,364.13379c-2.34009-1.3515-4.50198-1.73093-6.27658-1.29929l-0.01147-0.01288&#10;&#9;&#9;&#9;&#9;&#9;&#9;&#9;l8.7421-5.25232l19.24661,18.1871l-10.85031,6.306c-0.40662-6.74338-5.11121-14.61569-10.84949-17.92868h-0.0007&#10;&#9;&#9;&#9;&#9;&#9;&#9;&#9;L327.50507,364.13379z"/><path fill="#4A4C56" d="M327.50507,364.13379c5.73898,3.31299,10.44363,11.1853,10.84952,17.92871l-17.12689-19.228&#10;&#9;&#9;&#9;&#9;&#9;&#9;&#9;c1.77527-0.4324,3.93649-0.05231,6.27658,1.29929h0.0007H327.50507z"/><ellipse transform="matrix(0.86602 -0.50001 0.50001 0.86602 -144.47833 214.22929)" fill="#3D4356" cx="327.50461" cy="376.70578" rx="7.87869" ry="13.64712"/><path fill="#4A4C56" d="M376.69235,418.39728c0-6.15347,4.32019-8.64828,9.64981-5.5708&#10;&#9;&#9;&#9;&#9;&#9;&#9;&#9;c5.32962,3.07751,9.64981,10.5603,9.64981,16.71381c0,2.9314-0.98788,5.01959-2.5907,6.08328l0.01428,0.00571&#10;&#9;&#9;&#9;&#9;&#9;&#9;&#9;l-0.13889,0.08017c-0.0759,0.04651-0.1532,0.09158-0.2312,0.13391l-11.23682,6.50137l-2.21487-12.4166l1.80609,0.74518&#10;&#9;&#9;&#9;&#9;&#9;&#9;&#9;c-2.81619-3.57208-4.70819-8.21091-4.70819-12.27618h0.00067V418.39728z"/><path fill="#545456" d="M375.49188,416.7952c0.40659-6.27451,5.11118-8.71411,10.85028-5.40039&#10;&#9;&#9;&#9;&#9;&#9;&#9;&#9;c5.73898,3.31299,10.4436,11.1853,10.84949,17.92868l-21.7005-12.52899l0.00067,0.0007H375.49188z"/><path fill="#4A4C56" d="M369.21597,416.40146l17.12689,19.228l-21.70053-12.5282&#10;&#9;&#9;&#9;&#9;&#9;&#9;&#9;c0.24051-3.716,1.99582-6.0719,4.57361-6.69971L369.21597,416.40146z"/><path fill="#545456" d="M375.49268,417.70081c-2.34009-1.35153-4.50198-1.73093-6.27658-1.29929l-0.01151-0.01291&#10;&#9;&#9;&#9;&#9;&#9;&#9;&#9;l8.74213-5.25229l19.24658,18.1871l-10.85028,6.306c-0.40662-6.74341-5.11121-14.61572-10.84952-17.92871h-0.00067&#10;&#9;&#9;&#9;&#9;&#9;&#9;&#9;L375.49268,417.70081z"/><path fill="#4A4C56" d="M375.49268,417.70081c5.73898,3.31299,10.4437,11.1853,10.84949,17.92868l-17.12689-19.22791&#10;&#9;&#9;&#9;&#9;&#9;&#9;&#9;c1.7753-0.4324,3.93652-0.05231,6.27661,1.29929h0.00067L375.49268,417.70081z"/><ellipse transform="matrix(0.86602 -0.50002 0.50002 0.86602 -164.8334 245.40092)" fill="#3D4356" cx="375.4917" cy="430.27304" rx="7.87868" ry="13.64712"/><path fill="#4F5056" d="M323.37955,355.00241c2.41821-2.7403,8.22522-3.82913,12.97131-2.43323&#10;&#9;&#9;&#9;&#9;&#9;&#9;&#9;c0.20551,0.06009,0.39798,0.12878,0.59268,0.19693l4.67462-2.22772v6.73621h-0.01788&#10;&#9;&#9;&#9;&#9;&#9;&#9;&#9;c0.0759,0.93347-0.24771,1.89059-1.03513,2.78329l-39.35278,44.59012l-17.18561-5.05539l39.35278-44.59012V355.00241z"/><path fill="#4F5056" d="M218.91228,359.6633l5.52361,2.28723c3.5786-0.97711,7.97969-0.6171,10.9397,1.09167&#10;&#9;&#9;&#9;&#9;&#9;&#9;&#9;l61.29028,35.38632l-13.63919,7.87442l-61.2903-35.38632c-1.9285-1.11319-2.8627-2.58069-2.81621-4.03961l-0.00859,0.0029&#10;&#9;&#9;&#9;&#9;&#9;&#9;&#9;v-7.21579l0.0007-0.0007V359.6633z"/><path fill="#4F5056" d="M301.43427,403.8317l-15.7525-0.466l-3.29797,2.20773l13.55829,49.4278&#10;&#9;&#9;&#9;&#9;&#9;&#9;&#9;c0.83328,3.03741,5.77338,5.1091,11.03348,4.62799l0,0c5.2608-0.48111,8.01691-2.97372,8.01691-6.37039l0.11169-6.069&#10;&#9;&#9;&#9;&#9;&#9;&#9;&#9;l-13.67001-43.3595v0.0014L301.43427,403.8317z"/><path fill="#4F5056" d="M202.52917,419.35797l2.7446,3.48981c0.71591-0.42383,1.55911-0.78891,2.52341-1.07312l1.80402-0.5304&#10;&#9;&#9;&#9;&#9;&#9;&#9;&#9;l74.4263-16.59641l0.12527,7.37399l-67.59918,19.67542c-4.74541,1.3959-10.55321,0.30707-12.9713-2.4332&#10;&#9;&#9;&#9;&#9;&#9;&#9;&#9;c-0.7796-0.88342-1.11171-1.82968-1.0451-2.75391l-0.00859-7.15143l0.0007-0.00079L202.52917,419.35797z"/><path fill="#4F5056" d="M295.40387,397.99179l-3.0173,10.99908l85.6116,7.82791&#10;&#9;&#9;&#9;&#9;&#9;&#9;&#9;c5.2608,0.48111,10.20099-1.59128,11.03421-4.62869l0,0c0.83328-3.03741,1.69089-11.35492-3.56931-11.83603&#10;&#9;&#9;&#9;&#9;&#9;&#9;&#9;L295.40387,397.99179z"/><path fill="#545456" d="M283.02737,399.15219l13.63919-7.87442l-61.29028-35.38632c-3.7661-2.1741-9.87241-2.1741-13.6385,0&#10;&#9;&#9;&#9;&#9;&#9;&#9;&#9;l0,0c-3.7661,2.1748-3.7661,5.69971,0,7.87442l61.2903,35.38632H283.02737z"/><path fill="#545456" d="M284.02747,392.43307l17.18561,5.05539l39.35287-44.59009&#10;&#9;&#9;&#9;&#9;&#9;&#9;&#9;c2.41821-2.7403,0.53119-6.09268-4.21429-7.48862l0,0c-4.74539-1.3959-10.55319-0.3064-12.97128,2.43323L284.02747,392.43307z"/><path fill="#545456" d="M295.40387,390.90619l-3.0173,10.99908l85.6116,7.82791&#10;&#9;&#9;&#9;&#9;&#9;&#9;&#9;c5.2608,0.48111,10.20099-1.59131,11.03421-4.62872l0,0c0.83328-3.03741-2.75613-5.88937-8.0162-6.37036L295.40387,390.90619z"/><path fill="#545456" d="M301.43427,396.68097l-19.05038,1.7424l13.55829,49.4278&#10;&#9;&#9;&#9;&#9;&#9;&#9;&#9;c0.83328,3.03741,5.77338,5.1091,11.03348,4.62799l0,0c5.2608-0.48111,8.85022-3.33301,8.01691-6.37039L301.43427,396.68097&#10;&#9;&#9;&#9;&#9;&#9;&#9;&#9;L301.43427,396.68097z"/><path fill="#545456" d="M293.78528,401.77719l-8.75641-9.92249l-77.23248,22.72058&#10;&#9;&#9;&#9;&#9;&#9;&#9;&#9;c-4.74541,1.39594-6.6331,4.74899-4.215,7.48929l0,0c2.4182,2.73959,8.22519,3.82913,12.9713,2.4332l77.2325-22.72058l0,0&#10;&#9;&#9;&#9;&#9;&#9;&#9;&#9;H293.78528z"/><ellipse fill="#4A4C56" cx="291.53537" cy="396.19" rx="8.5087" ry="4.91291"/><rect x="283.17416" y="325.5777" fill="#4A4C56" width="16.87059" height="70.61149"/></g><path fill="#3D4356" d="M382.43115,302.2912c0,0,1.2326,31.13058-36.27832,46.13162&#10;&#9;&#9;&#9;&#9;&#9;&#9;c-14.26181,5.70337-46.30319,25.0737-57.50757,20.67697c-11.20441-4.3967-87.64931-45.95209-88.50029-51.767&#10;&#9;&#9;&#9;&#9;&#9;&#9;c-0.85098-5.81488,0-20.28128,0-20.28128l182.28609,5.23959L382.43115,302.2912z"/><path fill="#3D4356" d="M286.31979,248.79611c22.79819,23.1214,54.2211,41.2634,94.26846,54.4259&#10;&#9;&#9;&#9;&#9;&#9;&#9;c7.20718,4.16107,6.55203,11.2858-1.46332,15.91351l-69.41428,40.07639&#10;&#9;&#9;&#9;&#9;&#9;&#9;c-26.80161,15.47391-147.16969-54.0206-120.36809-69.49448l69.41429-40.0764c8.01541-4.6277,20.35571-5.00589,27.56293-0.84489&#10;&#9;&#9;&#9;&#9;&#9;&#9;V248.79611z"/><g><path fill="#4F5056" d="M234.55588,274.4212c0,0,10.97079,6.13181,17.0338,6.13181s36.29298-10.34259,47.26408-25.84111&#10;&#9;&#9;&#9;&#9;&#9;&#9;&#9;c10.97113-15.4985-7.65619-109.04608-8.07748-143.59167c-0.42133-34.5456,14.00449-92.95999,14.00449-92.95999&#10;&#9;&#9;&#9;&#9;&#9;&#9;&#9;l-4.15012-3.1488c0,0-17.63019,71.52209-16.3956,105.06198c1.24799,33.9037,8.96631,101.23131,8.76559,115.7641&#10;&#9;&#9;&#9;&#9;&#9;&#9;&#9;c-0.20578,14.8974-16.95889,34.0081-41.79799,35.71678c-13.93008,0.95822-11.98178-6.78448-14.04109-6.55798&#10;&#9;&#9;&#9;&#9;&#9;&#9;&#9;s-2.60559,9.4248-2.60559,9.4248L234.55588,274.4212z"/><path fill="#545456" d="M284.81827,120.41302l3.34021-1.5462c0,0,20.42642,17.40121,45.18597,31.4054&#10;&#9;&#9;&#9;&#9;&#9;&#9;&#9;c21.8559,12.36191,44.49292,22.70169,56.40802,26.75168l-2.22742,2.91942&#10;&#9;&#9;&#9;&#9;&#9;&#9;&#9;C355.27097,166.95131,317.2663,146.93501,284.81827,120.41302z"/><path fill="#434856" d="M284.81836,136.05173l104.1048,59.83409v-15.6386&#10;&#9;&#9;&#9;&#9;&#9;&#9;&#9;c-33.78619-13.02089-70.3187-33.84219-104.1048-59.83409V136.05173L284.81836,136.05173z"/><polygon fill="#545456" points="286.42908,146.91151 290.21585,145.26482 393.75964,203.73921 389.93274,205.76831"/><path fill="#434856" d="M389.93274,205.76831l-103.50369-58.8568l1.0192,15.2525&#10;&#9;&#9;&#9;&#9;&#9;&#9;&#9;c33.78619,13.02089,70.12112,33.5947,103.90732,59.58669l-1.42282-15.98248V205.76831z"/><polygon fill="#434856" points="395.53018,288.5585 292.60086,229.48732 292.12906,220.95091 395.56558,280.53592"/><polygon fill="#4F5056" points="292.30157,221.13332 300.80649,218.63542 395.80316,273.63031 395.37088,280.75821"/><path opacity="0.3" d="M284.23486,111.07342c1.24802,33.90369,8.96622,110.2313,8.76581,124.764&#10;&#9;&#9;&#9;&#9;&#9;&#9;&#9;c-0.00259,0.1835-0.01932,0.3705-0.02679,0.55519l101.90521,58.70288c0.00177-0.07001,0.00919-0.14139,0.0101-0.211&#10;&#9;&#9;&#9;&#9;&#9;&#9;&#9;c0.20569-14.89749-7.53091-91.22427-8.76581-124.76421c-0.95139-25.85638,9.30673-65.27849,14.05719-86.11048&#10;&#9;&#9;&#9;&#9;&#9;&#9;&#9;c-14.35297-9.4365-43.15909-28.2252-52.53488-33.2332c-10.13858-5.4153-38.56381-19.6024-49.52548-25.059&#10;&#9;&#9;&#9;&#9;&#9;&#9;&#9;c-4.8212,21.2265-14.82581,59.80739-13.88541,85.35579L284.23486,111.07342z" enable-background="new"/><path fill="#4F5056" d="M345.57657,338.58521c0-0.00101,0-0.00211,0.00018-0.0032&#10;&#9;&#9;&#9;&#9;&#9;&#9;&#9;c0.00809-0.12439,0.02899-0.42322,0.06439-0.83582c0.0011-0.01419,0.00241-0.02969,0.00369-0.04388&#10;&#9;&#9;&#9;&#9;&#9;&#9;&#9;c0.01782-0.19958,0.03799-0.42322,0.06259-0.66879c0.00092-0.00983,0.0018-0.01962,0.00259-0.02921&#10;&#9;&#9;&#9;&#9;&#9;&#9;&#9;c0.00092-0.00659,0.00131-0.013,0.00198-0.01941c0.0538-0.53229,0.12411-1.15439,0.21512-1.81259&#10;&#9;&#9;&#9;&#9;&#9;&#9;&#9;c0.0011-0.00729,0.00223-0.0145,0.00308-0.02179c0.00021-0.00092,0.0004-0.00159,0.0004-0.00238&#10;&#9;&#9;&#9;&#9;&#9;&#9;&#9;c0.23331-1.68042,0.59848-3.58182,1.14569-4.76831c0.14883-0.32278,0.31158-0.58997,0.48779-0.78839&#10;&#9;&#9;&#9;&#9;&#9;&#9;&#9;c0.0097-0.01077,0.01932-0.02231,0.02899-0.03259c0.0824-0.0882,0.1683-0.15991,0.25711-0.21481&#10;&#9;&#9;&#9;&#9;&#9;&#9;&#9;c0.0145-0.009,0.02972-0.01581,0.0444-0.0238c0.0914-0.0499,0.18503-0.0867,0.28302-0.09738&#10;&#9;&#9;&#9;&#9;&#9;&#9;&#9;c0.00018,0,0.00037-0.00021,0.00067-0.00021c0.60052-0.0661,0.86151,0.548,1.2738,1.42432l0,0l0.0007,0.00128&#10;&#9;&#9;&#9;&#9;&#9;&#9;&#9;c0.05359,0.11398,0.1105,0.23233,0.17029,0.35419c0.013,0.0264,0.02499,0.05139,0.03818,0.07822&#10;&#9;&#9;&#9;&#9;&#9;&#9;&#9;c0.06531,0.13098,0.1347,0.26501,0.21011,0.4025c0.0134,0.02441,0.02811,0.04901,0.04169,0.07349&#10;&#9;&#9;&#9;&#9;&#9;&#9;&#9;c0.06281,0.1123,0.1301,0.22598,0.20132,0.341c0.0246,0.0394,0.04877,0.07831,0.07431,0.11792&#10;&#9;&#9;&#9;&#9;&#9;&#9;&#9;c0.08917,0.13852,0.1828,0.27771,0.28702,0.41769c0.00568,0.00778,0.01208,0.01562,0.01801,0.02341&#10;&#9;&#9;&#9;&#9;&#9;&#9;&#9;c0.10019,0.13351,0.21048,0.26697,0.32648,0.39999c0.0369,0.04239,0.07562,0.08438,0.11453,0.12662&#10;&#9;&#9;&#9;&#9;&#9;&#9;&#9;c0.10022,0.10922,0.20679,0.2175,0.31952,0.32501c0.0354,0.03348,0.0679,0.06747,0.1044,0.10071&#10;&#9;&#9;&#9;&#9;&#9;&#9;&#9;c0.14551,0.13278,0.30231,0.26297,0.4696,0.39081c0.04678,0.0358,0.0976,0.07037,0.14609,0.10571&#10;&#9;&#9;&#9;&#9;&#9;&#9;&#9;c0.13562,0.09818,0.27859,0.19421,0.42889,0.28821c0.0589,0.03687,0.11688,0.07388,0.17841,0.1102&#10;&#9;&#9;&#9;&#9;&#9;&#9;&#9;c0.20261,0.11908,0.4155,0.23499,0.64603,0.34482c0.03958,0.01886,0.0842,0.03589,0.12482,0.0545&#10;&#9;&#9;&#9;&#9;&#9;&#9;&#9;c0.20038,0.09177,0.41241,0.17929,0.6348,0.26273c0.08112,0.0304,0.1637,0.06006,0.24811,0.08929&#10;&#9;&#9;&#9;&#9;&#9;&#9;&#9;c0.23419,0.08139,0.47989,0.15799,0.73871,0.229c0.04922,0.01361,0.09399,0.0289,0.14441,0.04199&#10;&#9;&#9;&#9;&#9;&#9;&#9;&#9;c0.30588,0.07999,0.63348,0.1503,0.97488,0.21399c0.09601,0.01801,0.19669,0.03363,0.29547,0.0502&#10;&#9;&#9;&#9;&#9;&#9;&#9;&#9;c0.28061,0.04712,0.5737,0.0882,0.87891,0.1236c0.09799,0.01129,0.1925,0.02432,0.29309,0.03442&#10;&#9;&#9;&#9;&#9;&#9;&#9;&#9;c0.39587,0.03979,0.81082,0.0701,1.24829,0.08899c0.08807,0.00381,0.18298,0.00409,0.27289,0.00702&#10;&#9;&#9;&#9;&#9;&#9;&#9;&#9;c0.37048,0.01202,0.75668,0.01572,1.15799,0.01178c0.13361-0.00128,0.267-0.00259,0.4039-0.00589&#10;&#9;&#9;&#9;&#9;&#9;&#9;&#9;c0.50412-0.0116,1.02298-0.0314,1.57571-0.0694c24.83896-1.70862,41.59229-20.81931,41.79788-35.7168&#10;&#9;&#9;&#9;&#9;&#9;&#9;&#9;c0.12219-8.84531-2.5556-39.34689-5.00998-69.69009c-0.12921-1.59709-0.25769-3.1936-0.38522-4.78661&#10;&#9;&#9;&#9;&#9;&#9;&#9;&#9;c-0.12741-1.5929-0.25397-3.1823-0.37878-4.7648c-0.06259-0.7912-0.1246-1.5808-0.18631-2.3683&#10;&#9;&#9;&#9;&#9;&#9;&#9;&#9;c-0.18503-2.3624-0.36609-4.70599-0.54181-7.0199c-0.1171-1.5426-0.23199-3.07199-0.3439-4.5851&#10;&#9;&#9;&#9;&#9;&#9;&#9;&#9;c-0.89578-12.105-1.61078-23.16409-1.91928-31.54909c-0.00479-0.13179-0.00729-0.2675-0.01141-0.40028&#10;&#9;&#9;&#9;&#9;&#9;&#9;&#9;c-0.01138-0.34862-0.02219-0.69812-0.02991-1.05281c-0.62048-30.2733,13.00912-82.04568,15.90228-92.66978&#10;&#9;&#9;&#9;&#9;&#9;&#9;&#9;c0.25031-0.9193-0.0101-1.8723-0.63806-2.5418c0.00018,0,0.00067-0.0029,0.00067-0.0029l5.32199,3.7545&#10;&#9;&#9;&#9;&#9;&#9;&#9;&#9;c0,0-14.42569,58.4143-14.00452,92.95989c0.42123,34.54559,19.04852,128.09311,8.07761,143.59167&#10;&#9;&#9;&#9;&#9;&#9;&#9;&#9;c-10.97119,15.4985-41.2012,25.84109-47.26428,25.84109s-17.03363-6.1319-17.03363-6.1319s0.00018-0.0022,0.00018-0.00241&#10;&#9;&#9;&#9;&#9;&#9;&#9;&#9;c0-0.00146,0.00131-0.022,0.00372-0.05939L345.57657,338.58521z"/><g><path fill="#434856" d="M228.03339,259.81729c0.2188-0.0242,0.392,0.04462,0.54399,0.18042l8.58432,4.9986&#10;&#9;&#9;&#9;&#9;&#9;&#9;&#9;&#9;c-0.43111,0.04749-0.79501,0.49091-1.10211,1.15729c-0.54671,1.18652-0.91231,3.08801-1.14519,4.76831&#10;&#9;&#9;&#9;&#9;&#9;&#9;&#9;&#9;c-0.0009,0.0062-0.0018,0.0123-0.00259,0.01819c-0.0923,0.66312-0.16301,1.29022-0.2171,1.8255&#10;&#9;&#9;&#9;&#9;&#9;&#9;&#9;&#9;c-0.00089,0.0141-0.00259,0.02792-0.004,0.04172c-0.02501,0.2533-0.0466,0.48578-0.06461,0.68988&#10;&#9;&#9;&#9;&#9;&#9;&#9;&#9;&#9;c-0.04881,0.56842-0.0703,0.92371-0.0703,0.92371l-9.12831-5.17902c0,0,0.54671-9.19839,2.60599-9.42468L228.03339,259.81729&#10;&#9;&#9;&#9;&#9;&#9;&#9;&#9;&#9;z"/><path fill="#434856" d="M242.07477,266.37531c24.83881-1.70862,41.59161-20.81931,41.7977-35.7168&#10;&#9;&#9;&#9;&#9;&#9;&#9;&#9;&#9;c0.20081-14.5327-7.5177-90.8605-8.76581-124.764c-1.02969-27.97759,11.0668-76.12149,15.10742-91.32069&#10;&#9;&#9;&#9;&#9;&#9;&#9;&#9;&#9;c0.72119-2.713,3.71771-4.101,6.26068-2.912c21.56482,10.0831,100.75427,58.69939,113.45029,66.5144&#10;&#9;&#9;&#9;&#9;&#9;&#9;&#9;&#9;c1.01999,0.6279,1.50241,1.8447,1.18768,3.0004c-2.93997,10.796-16.96689,64.0836-15.86087,94.12288&#10;&#9;&#9;&#9;&#9;&#9;&#9;&#9;&#9;c1.23438,33.5399,8.97098,109.8667,8.76529,124.76401c-0.20569,14.89749-16.95889,34.00818-41.7981,35.7168&#10;&#9;&#9;&#9;&#9;&#9;&#9;&#9;&#9;c-9.86661,0.67871-11.7659-3.00574-12.767-5.13373c1.07578,0.0567,2.27939,0.04831,3.6391-0.04532&#10;&#9;&#9;&#9;&#9;&#9;&#9;&#9;&#9;c24.83923-1.70871,41.59201-20.81927,41.7981-35.7168c0.20569-14.89749-7.53131-91.22429-8.76578-124.76398&#10;&#9;&#9;&#9;&#9;&#9;&#9;&#9;&#9;c-0.9343-25.38629,8.93689-67.369,13.79248-86.2845c-14.44037-9.4922-42.95236-28.08229-52.27026-33.0593&#10;&#9;&#9;&#9;&#9;&#9;&#9;&#9;&#9;c-10.1384-5.4154-38.564-19.6024-49.5253-25.059c-4.8212,21.2265-14.82581,68.8075-13.88541,94.3559&#10;&#9;&#9;&#9;&#9;&#9;&#9;&#9;&#9;c1.24802,33.90369,8.96622,101.23121,8.76529,115.76391c-0.20569,14.89749-16.9585,34.00818-41.79808,35.7168&#10;&#9;&#9;&#9;&#9;&#9;&#9;&#9;&#9;c-9.86659,0.67868-11.7659-3.00562-12.767-5.1337c1.07579,0.0567,2.27988,0.04828,3.63959-0.04532L242.07477,266.37531z"/><path fill="#434856" d="M339.05026,324.0433c0.21881-0.02411,0.3916,0.04471,0.54401,0.18051l8.5838,4.9986&#10;&#9;&#9;&#9;&#9;&#9;&#9;&#9;&#9;c-0.43073,0.04742-0.79449,0.49078-1.10168,1.15729c-0.54712,1.18649-0.91229,3.08789-1.14572,4.76831&#10;&#9;&#9;&#9;&#9;&#9;&#9;&#9;&#9;c-0.00092,0.00623-0.00177,0.01227-0.00259,0.01819c-0.09177,0.66299-0.16257,1.2901-0.21671,1.82541&#10;&#9;&#9;&#9;&#9;&#9;&#9;&#9;&#9;c-0.00128,0.01413-0.00259,0.02789-0.004,0.0419c-0.02548,0.2533-0.04663,0.48578-0.06458,0.68988&#10;&#9;&#9;&#9;&#9;&#9;&#9;&#9;&#9;c-0.0488,0.5683-0.07031,0.92368-0.07031,0.92368l-9.1283-5.17899c0,0,0.54666-9.19839,2.60599-9.42477H339.05026z"/></g></g><g><path fill="#F59E0B" d="M185.98428,278.7901c0,0,0.93501-0.68149,1.4865-1l71.2863-31.56421&#10;&#9;&#9;&#9;&#9;&#9;&#9;&#9;c8.0152-4.6277,20.35547-5.006,27.5625-0.8448c22.7984,23.12141,55.04016,30.7606,95.08759,43.92311&#10;&#9;&#9;&#9;&#9;&#9;&#9;&#9;c7.207,4.16119,5.73312,21.78851-2.2821,26.4162l-69.41428,40.07642&#10;&#9;&#9;&#9;&#9;&#9;&#9;&#9;c-22.73132,13.12399-113.97881-34.37341-123.21999-59.18689c-1.20808-3.24371-2.8329-13.3606-0.50648-17.81979&#10;&#9;&#9;&#9;&#9;&#9;&#9;&#9;L185.98428,278.7901z"/><path fill="#F59E0B" d="M286.31979,234.37071c22.79819,23.12138,54.2211,41.26341,94.26846,54.42592&#10;&#9;&#9;&#9;&#9;&#9;&#9;&#9;c7.20718,4.16107,6.55203,11.2858-1.46332,15.91348l-69.41428,40.07642&#10;&#9;&#9;&#9;&#9;&#9;&#9;&#9;c-26.80161,15.47391-147.16969-54.0206-120.36809-69.49448l69.41429-40.0764&#10;&#9;&#9;&#9;&#9;&#9;&#9;&#9;c8.01541-4.6277,20.35571-5.00589,27.56293-0.84489V234.37071z"/><linearGradient id="SVGID_1_" gradientUnits="userSpaceOnUse" x1="-1587.09485" y1="782.17249" x2="-1571.29492" y2="791.29456" gradientTransform="matrix(-10 0 0 -10 -15508.68848 8159.99902)"><stop offset="0" style="stop-color: rgb(255, 255, 255); stop-opacity: 0.3;"/><stop offset="0.50866" style="stop-color: rgb(255, 255, 255); stop-opacity: 0.1;"/><stop offset="1" style="stop-color: rgb(255, 255, 255); stop-opacity: 0.3;"/></linearGradient><path fill="url(#SVGID_1_)" d="M286.31979,234.37071c22.79819,23.12138,54.2211,41.26341,94.26846,54.42592&#10;&#9;&#9;&#9;&#9;&#9;&#9;&#9;c7.20718,4.16107,6.55203,11.2858-1.46332,15.91348l-69.41428,40.07642&#10;&#9;&#9;&#9;&#9;&#9;&#9;&#9;c-26.80161,15.47391-147.16969-54.0206-120.36809-69.49448l69.41429-40.0764&#10;&#9;&#9;&#9;&#9;&#9;&#9;&#9;c8.01541-4.6277,20.35571-5.00589,27.56293-0.84489V234.37071z"/></g><g><path fill="#3D4356" d="M269.39587,223.32951c6.0054,3.11391,48.1214,33.46791,37.46362,43.19899&#10;&#9;&#9;&#9;&#9;&#9;&#9;&#9;c-10.65781,9.73111-83.47171,74.01682-115.4453,73.0437c0,0-20.11378-27.06769-22.48219-33.87949&#10;&#9;&#9;&#9;&#9;&#9;&#9;&#9;c-2.36842-6.81183,47.8972-56.84419,93.53128-61.80861c0,0,0.92731-23.6684,6.93271-20.5545L269.39587,223.32951z"/><g><path fill="#FFD3D4" d="M256.39706,98.41702c-6.7395,10.9915-3.58769,94.38348,7.80591,95.03379&#10;&#9;&#9;&#9;&#9;&#9;&#9;&#9;&#9;c11.39362,0.65031,12.03461-40.72679,17.3642-75.35748C287.03308,82.57682,263.13657,87.42552,256.39706,98.41702z"/><path fill="#F59E0B" d="M280.80157,82.60952c-5.4173-0.0306-22.9426,4.7149-26.7935,12.78049&#10;&#9;&#9;&#9;&#9;&#9;&#9;&#9;&#9;c-3.49078,7.3114-2.01599,7.0391-1.2218,8.0148c0.7019,0.8624,2.9787,13.64581,6.4926,15.1142&#10;&#9;&#9;&#9;&#9;&#9;&#9;&#9;&#9;c3.51389,1.4684,21.52267-35.9095,21.52267-35.9095H280.80157z"/></g><g><path fill="#F59E0B" d="M348.01706,137.64651c-0.79764-8.80559-2.0947-15.866-4.92853-22.41049&#10;&#9;&#9;&#9;&#9;&#9;&#9;&#9;&#9;c-2.25281-5.2023-5.66299-10.5234-10.9169-15.1488c-11.4852-10.1112-20.25217-18.4795-44.50967-18.3528&#10;&#9;&#9;&#9;&#9;&#9;&#9;&#9;&#9;c-4.11072,0.0215-21.33383,3.8793-28.51871,12.8598c-9.68559,12.107-7.8495,34.7738-4.81581,55.74689&#10;&#9;&#9;&#9;&#9;&#9;&#9;&#9;&#9;c3.03371,20.97308,23.9489,38.1243,23.84639,71.98779c-0.10669,35.24731,43.50339,40.74408,61.40491,38.70181&#10;&#9;&#9;&#9;&#9;&#9;&#9;&#9;&#9;c17.90161-2.04181-1.427-18.39561,8.05933-19.56111c9.4859-1.1664,7.7684-20.4805,4.54367-29.2449&#10;&#9;&#9;&#9;&#9;&#9;&#9;&#9;&#9;c-0.59027-1.6044-0.19699-7.47231,0.0007-11.70178c0.17712-3.7877,0.41431-15.8889,0-21.73401&#10;&#9;&#9;&#9;&#9;&#9;&#9;&#9;&#9;c-0.89459-12.6122-3.81052-37.22299-4.1655-41.1423L348.01706,137.64651z"/><path opacity="0.05" d="M324.80515,143.43192c0.5188,35.8481,10.06952,49.5101,27.323,57.20599&#10;&#9;&#9;&#9;&#9;&#9;&#9;&#9;&#9;c0.08493-3.7776,0.4686-16.0041,0.05429-21.8492c-0.89459-12.61221-3.81052-37.22299-4.1655-41.14229&#10;&#9;&#9;&#9;&#9;&#9;&#9;&#9;&#9;c-0.79761-8.8056-2.0947-15.86601-4.92853-22.4105c-9.97598,4.3321-18.418,18.8928-18.28339,28.19599H324.80515z" enable-background="new"/></g><path fill="#3C4358" d="M262.19577,262.64059c0,0,0-36.20898,6.40131-44.50229c2.595-3.36201,0.43619-16.2784,2.84531-16.2738&#10;&#9;&#9;&#9;&#9;&#9;&#9;&#9;c1.26828,0.0024,23.14929,21.8289,53.01288,21.1908c17.01779-0.3636,30.13062-8.7415,30.7785-8.09361&#10;&#9;&#9;&#9;&#9;&#9;&#9;&#9;s1.58218,15.1837,1.58218,15.1837c5.62921,1.5011,18.2962,59.67728-24.14471,83.77969&#10;&#9;&#9;&#9;&#9;&#9;&#9;&#9;c-20.20227,11.47299-70.47549-51.28452-70.47549-51.28452L262.19577,262.64059z"/><g><path fill="#FFC9CA" d="M285.48788,74.07522c-1.41992,6.4646-4.96051,13.7541,0,16.0089&#10;&#9;&#9;&#9;&#9;&#9;&#9;&#9;&#9;c4.96048,2.25481,16.24139-0.90189,20.18369-3.6076c3.94229-2.7057,1.46909-14.4305,0-15.78339&#10;&#9;&#9;&#9;&#9;&#9;&#9;&#9;&#9;c-1.46909-1.35291-20.18369,3.3822-20.18369,3.3822V74.07522z"/><path fill="#3C4358" d="M259.99747,38.80722c0.27521,3.3303,0.9613,6.0687,1.50522,8.2102&#10;&#9;&#9;&#9;&#9;&#9;&#9;&#9;&#9;c3.12219,12.2863,0.978,31.67809-0.16141,34.7155c-1.8063,4.81599,30.70181-18.7232,34.3407-25.5765&#10;&#9;&#9;&#9;&#9;&#9;&#9;&#9;&#9;c2.3107-4.3512,2.1944-29.4032-6.93661-48.10439c0,0-29.02316,27.4249-28.74799,30.7552L259.99747,38.80722z"/><path fill="#FFD3D4" d="M263.65347,41.79292c-1.41669,18.348,4.84351,37.0654,23.19162,38.4821&#10;&#9;&#9;&#9;&#9;&#9;&#9;&#9;&#9;c18.34808,1.4167,38.94107-14.5033,40.35779-32.8514c1.41669-18.348-12.30881-34.3705-30.6568-35.7873&#10;&#9;&#9;&#9;&#9;&#9;&#9;&#9;&#9;c-18.34799-1.4167-31.47577,11.8085-32.89249,30.1565L263.65347,41.79292z"/><path fill="#F59E0B" d="M281.06485,84.83412c0,0,1.37851-2.1572,1.86771-1.99741s0.4093,3.1559,2.84619,3.875&#10;&#9;&#9;&#9;&#9;&#9;&#9;&#9;&#9;c2.43692,0.7191,21.8916-4.7938,22.49081-4.3544c0.59921,0.43939,6.91101,7.2306,5.55283,7.8698&#10;&#9;&#9;&#9;&#9;&#9;&#9;&#9;&#9;s-20.6532,5.9523-29.08231,3.03609c-8.42911-2.9162-3.6752-8.42909-3.6752-8.42909L281.06485,84.83412z"/><path opacity="0.05" d="M281.06485,84.83412c0,0,1.37851-2.1572,1.86771-1.99741&#10;&#9;&#9;&#9;&#9;&#9;&#9;&#9;&#9;s0.4093,3.1559,2.84619,3.875c2.43692,0.7191,21.8916-4.7938,22.49081-4.3544c0.59921,0.43939,6.91101,7.2306,5.55283,7.8698&#10;&#9;&#9;&#9;&#9;&#9;&#9;&#9;&#9;s-20.6532,5.9523-29.08231,3.03609c-8.42911-2.9162-3.6752-8.42909-3.6752-8.42909L281.06485,84.83412z" enable-background="new"/><path fill="#3C4358" d="M258.66437,42.43853c0,0,14.3161,11.3594,36.5054,6.7906&#10;&#9;&#9;&#9;&#9;&#9;&#9;&#9;&#9;c13.9682-2.876,13.2345,40.2753,11.42819,45.09119s30.19931-18.0969,33.83871-24.95029&#10;&#9;&#9;&#9;&#9;&#9;&#9;&#9;&#9;c3.6394-6.8534,1.2674-65.0639-32.8833-68.921c-49.03479-5.5382-48.88889,41.98949-48.88889,41.98949L258.66437,42.43853z"/></g><path fill="#F59E0B" d="M270.78506,188.47971c0.0437,1.54359-2.1225,5.6312-2.1611,7.4847&#10;&#9;&#9;&#9;&#9;&#9;&#9;&#9;c-0.0386,1.85352,1.67862,6.3521,3.28522,8.18291c0.3407,0.3882,8.72668,9.61751,12.89359,9.53421&#10;&#9;&#9;&#9;&#9;&#9;&#9;&#9;c1.91119-0.03821,15.40253,5.2737,15.37592,4.53899c-0.14352-3.96289-28.21909-27.5535-28.41769-28.52208&#10;&#9;&#9;&#9;&#9;&#9;&#9;&#9;c-0.29892-1.4572-0.97592-1.2188-0.97592-1.2188V188.47971z"/><path fill="#3D4356" d="M356.26877,256.39441c0,0,5.00671,24.9986-2.69489,37.36508&#10;&#9;&#9;&#9;&#9;&#9;&#9;&#9;c-10.92389,17.5408-83.9299,69.561-130.02969,66.76709c0,0-13.96959,6.98477-18.16049-25.14529&#10;&#9;&#9;&#9;&#9;&#9;&#9;&#9;c-0.93451-7.16461,75.37659-71.62219,121.7995-76.5867c26.41312-2.8246,29.08551-2.40021,29.08551-2.40021&#10;&#9;&#9;&#9;&#9;&#9;&#9;&#9;L356.26877,256.39441z"/></g><g><ellipse transform="matrix(0.89955 -0.43682 0.43682 0.89955 -115.69171 185.80772)" fill="#4A4C56" cx="346.15286" cy="344.45047" rx="13.00739" ry="4.2318"/><ellipse transform="matrix(0.89955 -0.43682 0.43682 0.89955 -95.9854 168.87505)" fill="#4A4C56" cx="319.1897" cy="293.13708" rx="13.00741" ry="4.2318"/><polygon fill="#4A4C56" points="357.18216,338.0827 330.21884,286.76941 308.16037,299.50491 335.12369,350.81821"/><path fill="#4F5056" d="M274.41916,310.5918l8.1492,4.7049c3.80072,2.19431,9.55002,2.43259,12.84149,0.53229l55.009-31.75949&#10;&#9;&#9;&#9;&#9;&#9;&#9;&#9;c3.2915-1.9003,5.97229-10.00821,2.1716-12.20248l-10.63943-1.65872c-3.80069-2.19431-9.55002-2.43259-12.84149-0.53229&#10;&#9;&#9;&#9;&#9;&#9;&#9;&#9;l-57.61649,28.51279c-3.29147,1.9003-0.8746,10.20871,2.92603,12.40298L274.41916,310.5918z"/><path fill="#545456" d="M273.21198,304.95221l9.35638,5.40189c3.80072,2.19431,9.55002,2.43259,12.84149,0.53232&#10;&#9;&#9;&#9;&#9;&#9;&#9;&#9;l56.81961-32.80481c3.2915-1.90027,2.87869-5.2197-0.922-7.414l-9.35638-5.40189&#10;&#9;&#9;&#9;&#9;&#9;&#9;&#9;c-3.80072-2.19431-9.55002-2.43259-12.84149-0.53229l-56.81961,32.80478&#10;&#9;&#9;&#9;&#9;&#9;&#9;&#9;C268.99847,299.43851,269.41129,302.7579,273.21198,304.95221z"/></g><g><path fill="#3C4358" d="M164.97578,504.51639c-3.78571,2.8175-16.569,13.98502-12.63879,18.38992&#10;&#9;&#9;&#9;&#9;&#9;&#9;&#9;s20.15729,1.22681,29.12898-2.24609s17.06209-28.45264,17.06209-28.45264s-0.8454,10.89221,0.68979,11.94641&#10;&#9;&#9;&#9;&#9;&#9;&#9;&#9;s2.74139-1.2486,2.74139-2.4549c0-1.20633-0.2984-12.94263,0.2883-14.40961s0.26279-7.08438-1.51581-8.75272&#10;&#9;&#9;&#9;&#9;&#9;&#9;&#9;c-1.77859-1.6683-4.16879-4.21878-9.61398-4.13989c-5.44521,0.07889-17.61549,23.77362-26.14211,30.11951H164.97578z"/><path fill="#FFD3D4" d="M196.31738,435.79559c7.14041,10.97769-4.02719,31.60739,3.22421,41.43649&#10;&#9;&#9;&#9;&#9;&#9;&#9;&#9;c2.4035,3.258-5.3289,19.34027-10.07401,24.93326c-3.09071,3.64288-13.83971,12.90485-20.63811,7.203&#10;&#9;&#9;&#9;&#9;&#9;&#9;&#9;c-4.34911-3.64761,10.5262-27.51019,14.95551-31.35989c2.8297-2.45941-4.067-35.16449-5.35941-38.30319&#10;&#9;&#9;&#9;&#9;&#9;&#9;&#9;s14.80681-8.65262,17.8918-3.90961V435.79559z"/></g><path fill="#3C4358" d="M216.02977,295.8837c0,0-4.27348,80.67276-3.63519,156.84167&#10;&#9;&#9;&#9;&#9;&#9;&#9;c0.03621,4.3187-16.4249,9.29529-21.0701,9.50531c-5.68019,0.25681-20.6945-4.8956-20.25189-12.91403&#10;&#9;&#9;&#9;&#9;&#9;&#9;c2.5387-45.99557-17.1935-131.33139,1.4463-148.68417c22.7144-21.146,43.51079-4.74881,43.51079-4.74881L216.02977,295.8837z"/><g><path fill="#3C4358" d="M197.19308,520.38635c-3.78571,2.8175-16.569,13.98499-12.63879,18.38989&#10;&#9;&#9;&#9;&#9;&#9;&#9;&#9;s20.1573,1.22681,29.12901-2.24609s17.06209-28.45258,17.06209-28.45258s-0.8454,10.89221,0.68979,11.94641&#10;&#9;&#9;&#9;&#9;&#9;&#9;&#9;s2.74139-1.2486,2.74139-2.4549c0-1.20636-0.2984-12.94266,0.2883-14.40964s0.26279-7.08438-1.51581-8.75269&#10;&#9;&#9;&#9;&#9;&#9;&#9;&#9;c-1.77861-1.66833-4.16879-4.21881-9.614-4.13992c-5.44519,0.07889-17.61548,23.77362-26.14209,30.11951H197.19308z"/><path fill="#FFD3D4" d="M228.53468,451.6655c7.1404,10.97769-4.02721,31.60739,3.2242,41.43649&#10;&#9;&#9;&#9;&#9;&#9;&#9;&#9;c2.4035,3.258-5.3289,19.34027-10.07401,24.93329c-3.09071,3.64288-13.83971,12.90479-20.63811,7.20294&#10;&#9;&#9;&#9;&#9;&#9;&#9;&#9;c-4.34909-3.64758,10.5262-27.51016,14.95551-31.35986c2.8297-2.45941-4.067-35.16449-5.35941-38.30319&#10;&#9;&#9;&#9;&#9;&#9;&#9;&#9;s14.80681-8.65262,17.89182-3.90961V451.6655z"/></g><path fill="#3C4358" d="M248.24709,311.7536c0,0-4.2735,80.67276-3.63519,156.84167&#10;&#9;&#9;&#9;&#9;&#9;&#9;c0.03619,4.3187-16.42491,9.29529-21.0701,9.50531c-5.68021,0.25681-20.6945-4.8956-20.25191-12.91403&#10;&#9;&#9;&#9;&#9;&#9;&#9;c2.5387-45.99557-17.1935-131.33139,1.4463-148.68417c22.7144-21.146,43.5108-4.74881,43.5108-4.74881L248.24709,311.7536z"/><g><path fill="#FFD3D4" d="M346.44177,126.46762c6.6626,11.5966,2.91672,98.81418-8.48389,99.33398&#10;&#9;&#9;&#9;&#9;&#9;&#9;&#9;c-11.4006,0.51982-11.74728-42.7865-16.83151-79.09938c-5.2142-37.24181,18.65268-31.8312,25.31528-20.2346&#10;&#9;&#9;&#9;&#9;&#9;&#9;&#9;L346.44177,126.46762z"/><path fill="#F59E0B" d="M317.32248,147.29991c2.3049,4.68761,22.86447-16.2061,27.7106-15.37859&#10;&#9;&#9;&#9;&#9;&#9;&#9;&#9;c3.84869,0.6572,3.65262,6.9711,3.65262,6.9711s4.5705-6.0197,1.35687-14.11131&#10;&#9;&#9;&#9;&#9;&#9;&#9;&#9;c-2.91168-7.3314-15.15308-22.101-19.06461-24.1216c-3.9115-2.02059-20.68558,32.34299-13.65536,46.6403L317.32248,147.29991z"/></g></g><g><g><polygon fill="#D3C2A8" points="28.12,449.24219 35.4393,445.01639 35.4393,240.35831 28.12,244.58411"/><polygon fill="#D3CDC5" points="20.8007,445.01639 28.12,449.24219 28.12,244.58411 20.8007,240.35831"/></g><g><polygon fill="#D3C2A8" points="127.53229,391.05301 134.85159,386.82721 134.85159,182.16911 127.53229,186.39491"/><polygon fill="#D3C7B7" points="120.21299,386.82721 127.53229,391.05301 127.53229,186.39491 120.21299,182.16911"/></g><g><polygon fill="#D3C2A8" points="395.86237,527.30396 403.18164,523.07819 403.18164,318.4201 395.86237,322.6459"/><polygon fill="#D3C7B7" points="388.54306,523.07819 395.86237,527.30396 395.86237,322.6459 388.54306,318.4201"/></g><g><polygon fill="#D3C2A8" points="286.55518,590.38379 293.87445,586.15796 293.87445,381.49991 286.55518,385.72571"/><polygon fill="#D3C7B7" points="279.23587,586.15796 286.55518,590.38379 286.55518,385.72571 279.23587,381.49991"/></g><g><polygon fill="#D3C2A8" points="275.22488,395.1438 275.22488,402.03738 408.81903,324.9068 408.81903,318.01318"/><polygon fill="#D3CDC5" points="0,242.99811 275.21527,395.20758 408.80948,318.077 133.59409,165.86742"/><polygon fill="#D3C7B7" points="0,242.9287 0,249.8223 275.22488,402.03738 275.22488,395.1438"/></g></g><path fill="#E5E5EC" d="M327.29108,120.69092h0.00018c-0.3873,0.41859-0.75989,0.8068-1.13892,1.2083&#10;&#9;&#9;&#9;&#9;&#9;c0.37891-0.4013,0.7515-0.7899,1.1387-1.2083H327.29108z"/><polygon opacity="0.1" fill="#333333" enable-background="new" points="308.33698,361.98181 253.79578,330.4924 &#10;&#9;&#9;&#9;&#9;&#9;330.93036,285.9588 385.47159,317.44809"/><g><g><polygon fill="#FFFFFF" points="308.87128,330.18399 256.90979,300.18399 330.39609,257.75659 382.35757,287.75659"/><path fill="#BFBFBF" d="M300.95306,314.75549l-17.3205-10c-0.4783-0.27609-0.4783-0.72388,0-1&#10;&#9;&#9;&#9;&#9;&#9;&#9;&#9;c0.4783-0.27609,1.25381-0.27609,1.73203,0l17.3205,10c0.4783,0.27612,0.4783,0.72391,0,1&#10;&#9;&#9;&#9;&#9;&#9;&#9;&#9;C302.20679,315.03162,301.43127,315.03162,300.95306,314.75549z"/><g><path fill="#BFBFBF" d="M323.90237,314.0058l-38.9711-22.5c-0.23929-0.13821-0.23929-0.36182,0-0.5l44.16599-25.4993&#10;&#9;&#9;&#9;&#9;&#9;&#9;&#9;&#9;c0.23929-0.13821,0.62671-0.13821,0.866,0l38.9711,22.5c0.23932,0.13821,0.23932,0.36182,0,0.5l-44.16599,25.4993&#10;&#9;&#9;&#9;&#9;&#9;&#9;&#9;&#9;C324.52908,314.14401,324.14166,314.14401,323.90237,314.0058z M286.23026,291.2558l38.1051,22l43.30002-24.9993&#10;&#9;&#9;&#9;&#9;&#9;&#9;&#9;&#9;l-38.10507-22l-43.29999,24.9993H286.23026z"/><path fill="#BFBFBF" d="M358.54236,294.00632l-38.97107-22.5c-0.23932-0.13821-0.23932-0.36182,0-0.5&#10;&#9;&#9;&#9;&#9;&#9;&#9;&#9;&#9;c0.23929-0.13818,0.62671-0.13821,0.866,0l38.9711,22.5c0.23929,0.13821,0.23929,0.36182,0,0.5&#10;&#9;&#9;&#9;&#9;&#9;&#9;&#9;&#9;S358.78168,294.14453,358.54236,294.00632z"/><path fill="#BFBFBF" d="M351.61438,298.0062l-38.9711-22.5c-0.23929-0.13821-0.23929-0.36182,0-0.5&#10;&#9;&#9;&#9;&#9;&#9;&#9;&#9;&#9;c0.23932-0.13818,0.62671-0.13818,0.866,0l38.97107,22.5c0.23932,0.13821,0.23932,0.36182,0,0.5&#10;&#9;&#9;&#9;&#9;&#9;&#9;&#9;&#9;c-0.23929,0.13818-0.62671,0.13821-0.866,0H351.61438z"/><path fill="#BFBFBF" d="M341.22235,304.00601l-38.9711-22.5c-0.23929-0.13821-0.23929-0.36182,0-0.5s0.62671-0.13821,0.866,0&#10;&#9;&#9;&#9;&#9;&#9;&#9;&#9;&#9;l38.9711,22.5c0.23932,0.13821,0.23932,0.36182,0,0.5C341.84906,304.1442,341.46164,304.14423,341.22235,304.00601z"/><path fill="#BFBFBF" d="M335.16037,307.50589l-38.9711-22.5c-0.23929-0.13821-0.23929-0.36179,0-0.5&#10;&#9;&#9;&#9;&#9;&#9;&#9;&#9;&#9;c0.23932-0.13818,0.62671-0.13818,0.866,0l38.97107,22.5c0.23932,0.13821,0.23932,0.36182,0,0.5&#10;&#9;&#9;&#9;&#9;&#9;&#9;&#9;&#9;c-0.23929,0.13818-0.62671,0.13821-0.866,0H335.16037z"/><path fill="#BFBFBF" d="M315.24176,296.00589c-0.23929-0.13818-0.23929-0.36179,0-0.49997l6.06198-3.49991&#10;&#9;&#9;&#9;&#9;&#9;&#9;&#9;&#9;c0.23932-0.13821,0.62674-0.13821,0.86603,0c0.23929,0.13818,0.23929,0.36179,0,0.49997l-6.06198,3.49991&#10;&#9;&#9;&#9;&#9;&#9;&#9;&#9;&#9;c-0.23932,0.13821-0.62671,0.13821-0.866,0H315.24176z"/></g></g><g><polygon fill="#E7E7EE" points="308.87128,360.1843 256.90979,330.1843 256.90979,300.18521 308.87128,330.18521"/><path fill="#BFBFBF" d="M292.84979,327.935l-31.17691-18c-0.23932-0.13821-0.43301-0.4736-0.43301-0.75&#10;&#9;&#9;&#9;&#9;&#9;&#9;&#9;c0-0.27643,0.1937-0.38821,0.43301-0.25l31.17691,18c0.23929,0.13821,0.43298,0.4736,0.43298,0.75&#10;&#9;&#9;&#9;&#9;&#9;&#9;&#9;c0,0.27643-0.1937,0.38818-0.43298,0.25003V327.935z"/><path fill="#BFBFBF" d="M301.51007,338.93478l-25.11469-14.5c-0.23932-0.13821-0.43301-0.4736-0.43301-0.75003&#10;&#9;&#9;&#9;&#9;&#9;&#9;&#9;c0-0.2764,0.1937-0.38818,0.43301-0.25l25.11469,14.5c0.23929,0.13821,0.43301,0.4736,0.43301,0.75&#10;&#9;&#9;&#9;&#9;&#9;&#9;&#9;C301.94308,338.96118,301.74939,339.07294,301.51007,338.93478z"/><path fill="#BFBFBF" d="M285.92157,342.93442l-24.24869-14.00003c-0.23932-0.13818-0.43301-0.47357-0.43301-0.75&#10;&#9;&#9;&#9;&#9;&#9;&#9;&#9;c0-0.2764,0.1937-0.38818,0.43301-0.25l24.24869,14c0.23929,0.13821,0.43301,0.4736,0.43301,0.75&#10;&#9;&#9;&#9;&#9;&#9;&#9;&#9;C286.35458,342.96082,286.16089,343.07257,285.92157,342.93442z"/></g><g><polygon fill="#DDDDEE" points="308.86908,360.1843 308.86908,330.18521 382.35757,287.75659 382.35757,317.75571"/><path fill="#BFBFBF" d="M372.39838,300.5065l-56.29169,32.5c-0.23929,0.13821-0.43301,0.0264-0.43301-0.25&#10;&#9;&#9;&#9;&#9;&#9;&#9;&#9;c0-0.27643,0.1937-0.61182,0.43301-0.75l56.29169-32.5c0.23929-0.13821,0.43301-0.0264,0.43301,0.25&#10;&#9;&#9;&#9;&#9;&#9;&#9;&#9;S372.63766,300.36829,372.39838,300.5065z"/><path fill="#BFBFBF" d="M376.72849,308.0062l-47.63141,27.5c-0.23932,0.13821-0.43301,0.0264-0.43301-0.25&#10;&#9;&#9;&#9;&#9;&#9;&#9;&#9;c0-0.27643,0.1937-0.61182,0.43301-0.75l47.63141-27.5c0.23929-0.13821,0.43301-0.0264,0.43301,0.25&#10;&#9;&#9;&#9;&#9;&#9;&#9;&#9;S376.96777,307.86798,376.72849,308.0062z"/></g></g><polygon opacity="0.1" fill="#333333" enable-background="new" points="89.39799,258.9837 34.8568,227.4944 &#10;&#9;&#9;&#9;&#9;&#9;111.99139,182.96071 166.53258,214.4501"/><g><g><polygon fill="#E7E7EE" points="88.87129,257.18469 36.9098,227.18471 36.9098,211.18521 88.87129,241.18521"/><path fill="#BFBFBF" d="M72.84949,238.93481c-0.085,0-0.1709-0.0215-0.25-0.06689l-31.1768-17.99998&#10;&#9;&#9;&#9;&#9;&#9;&#9;&#9;c-0.2393-0.13821-0.3213-0.4438-0.1826-0.68311c0.1377-0.2397,0.4434-0.3203,0.6826-0.18311l31.1768,18&#10;&#9;&#9;&#9;&#9;&#9;&#9;&#9;c0.2393,0.1382,0.3213,0.4438,0.18259,0.68309C73.19029,238.84541,73.02139,238.93481,72.84949,238.93481z"/><path fill="#BFBFBF" d="M81.50959,249.93481c-0.085,0-0.1709-0.0215-0.24999-0.06689l-25.1143-14.5&#10;&#9;&#9;&#9;&#9;&#9;&#9;&#9;c-0.2393-0.13821-0.3213-0.4438-0.1826-0.68311c0.1377-0.24019,0.4443-0.31931,0.6826-0.18311l25.1143,14.50002&#10;&#9;&#9;&#9;&#9;&#9;&#9;&#9;c0.2393,0.1382,0.3213,0.4438,0.1826,0.68309C81.8504,249.84541,81.6815,249.93481,81.50959,249.93481z"/></g><g><polygon fill="#DDDDEE" points="88.86909,257.18469 88.86909,241.18521 162.35757,198.75661 162.35757,214.75621"/><path fill="#BFBFBF" d="M96.10629,243.00659c-0.1719,0-0.3408-0.08939-0.43259-0.24998&#10;&#9;&#9;&#9;&#9;&#9;&#9;&#9;c-0.1387-0.2393-0.0566-0.54489,0.18259-0.68311l56.29199-32.5c0.2373-0.13768,0.54491-0.0571,0.6826,0.18311&#10;&#9;&#9;&#9;&#9;&#9;&#9;&#9;c0.1387,0.2393,0.05661,0.54489-0.1826,0.68311l-56.29198,32.5C96.2772,242.98511,96.19129,243.00659,96.10629,243.00659z"/></g><g><polygon fill="#FFFFFF" points="88.87129,241.18401 36.9098,211.18402 110.39609,168.75661 162.35757,198.75661"/><path fill="#BFBFBF" d="M80.95309,225.75551l-17.3205-10c-0.4783-0.27611-0.4783-0.72389,0-1&#10;&#9;&#9;&#9;&#9;&#9;&#9;&#9;c0.47831-0.27611,1.2538-0.27611,1.73201,0l17.3205,10c0.4783,0.27611,0.4783,0.72389,0,1&#10;&#9;&#9;&#9;&#9;&#9;&#9;&#9;C82.2068,226.03162,81.4313,226.03162,80.95309,225.75551z"/><g><path fill="#BFBFBF" d="M103.90239,225.00581l-38.9711-22.5c-0.2393-0.13821-0.2393-0.36182,0-0.5l44.166-25.4993&#10;&#9;&#9;&#9;&#9;&#9;&#9;&#9;&#9;c0.2393-0.13821,0.62669-0.13821,0.866,0l38.97109,22.5c0.2393,0.1382,0.2393,0.3618,0,0.49998l-44.166,25.49931&#10;&#9;&#9;&#9;&#9;&#9;&#9;&#9;&#9;C104.52909,225.14401,104.14169,225.14401,103.90239,225.00581z M66.23029,202.25581l38.1051,22l43.3-24.99928&#10;&#9;&#9;&#9;&#9;&#9;&#9;&#9;&#9;l-38.10509-22.00002C109.5303,177.25652,66.2303,202.25581,66.23029,202.25581z"/><path fill="#BFBFBF" d="M138.54239,205.0063l-38.97109-22.5c-0.2393-0.1382-0.2393-0.3618,0-0.49998s0.62669-0.13821,0.866,0&#10;&#9;&#9;&#9;&#9;&#9;&#9;&#9;&#9;l38.97111,22.5c0.23929,0.1382,0.23929,0.3618,0,0.49998C139.1691,205.14449,138.78169,205.14452,138.54239,205.0063z"/><path fill="#BFBFBF" d="M131.61438,209.00621l-38.97109-22.5c-0.2393-0.13821-0.2393-0.3618,0-0.5&#10;&#9;&#9;&#9;&#9;&#9;&#9;&#9;&#9;c0.2393-0.13818,0.6267-0.1382,0.866,0l38.9711,22.5c0.23929,0.13821,0.23929,0.3618,0,0.5&#10;&#9;&#9;&#9;&#9;&#9;&#9;&#9;&#9;C132.24109,209.14439,131.8537,209.14441,131.61438,209.00621z"/><path fill="#BFBFBF" d="M121.22239,215.00601l-38.9711-22.49998c-0.2393-0.13821-0.2393-0.36182,0-0.5s0.6267-0.1382,0.866,0&#10;&#9;&#9;&#9;&#9;&#9;&#9;&#9;&#9;l38.9711,22.5c0.2393,0.1382,0.2393,0.3618,0,0.49998C121.8491,215.14421,121.46169,215.14423,121.22239,215.00601z"/><path fill="#BFBFBF" d="M115.16039,218.50591l-38.97109-22.5c-0.2393-0.1382-0.2393-0.3618,0-0.49998&#10;&#9;&#9;&#9;&#9;&#9;&#9;&#9;&#9;c0.2393-0.13818,0.6267-0.13821,0.866,0l38.9711,22.5c0.2393,0.1382,0.2393,0.3618,0,0.49998&#10;&#9;&#9;&#9;&#9;&#9;&#9;&#9;&#9;S115.3997,218.64412,115.16039,218.50591z"/><path fill="#BFBFBF" d="M95.2418,207.00591c-0.2393-0.1382-0.2393-0.3618,0-0.49998l6.062-3.49991&#10;&#9;&#9;&#9;&#9;&#9;&#9;&#9;&#9;c0.2393-0.13821,0.6267-0.13821,0.866,0c0.2393,0.1382,0.2393,0.3618,0,0.49998l-6.062,3.49991&#10;&#9;&#9;&#9;&#9;&#9;&#9;&#9;&#9;C95.8685,207.14412,95.4811,207.14412,95.2418,207.00591z"/></g></g></g><path opacity="0.05" d="M221.21248,312.89209l-64.08589-37&#10;&#9;&#9;&#9;&#9;&#9;c-2.39151-1.38068-2.0916-3.79239,0.66989-5.38678l46.28999-26.72551c2.7614-1.5943,6.93871-1.7675,9.33011-0.3868l64.08589,37&#10;&#9;&#9;&#9;&#9;&#9;c2.39148,1.38071,2.09161,3.79242-0.66989,5.38681l-46.28999,26.72549&#10;&#9;&#9;&#9;&#9;&#9;C227.78117,314.09961,223.60388,314.2728,221.21248,312.89209z" enable-background="new"/><g><g><path fill="#3E5F94" d="M205.24858,241.38461l68.37788,38.52429c1.04831,0,0.9953,4.2381-1.89938,5.90939l-39.44719,22.77481&#10;&#9;&#9;&#9;&#9;&#9;&#9;&#9;c-2.89481,1.6713-7.2737,1.85278-9.7807,0.4054l-67.18059-38.78677c-2.5069-1.44739-2.2455-6.02731-0.1489-6.02731&#10;&#9;&#9;&#9;&#9;&#9;&#9;&#9;l40.29829-22.3945c2.89481-1.6713,7.2737-1.8528,9.7807-0.40541L205.24858,241.38461z"/><path fill="#697A94" d="M205.24858,239.28801l67.18059,38.78679c2.5069,1.44739,2.1926,3.97562-0.70221,5.64691&#10;&#9;&#9;&#9;&#9;&#9;&#9;&#9;l-39.44719,22.77478c-2.89479,1.6713-7.27368,1.85278-9.78069,0.4054l-67.18059-38.78677&#10;&#9;&#9;&#9;&#9;&#9;&#9;&#9;c-2.50691-1.44739-2.19261-3.97562,0.70219-5.64691l39.4472-22.77478&#10;&#9;&#9;&#9;&#9;&#9;&#9;&#9;C198.3627,238.02213,202.74158,237.84062,205.24858,239.28801z"/><g><path fill="#3D4356" d="M229.79218,302.73679c0.14351,0.02151,0.42,0.00311,0.62201-0.03989&#10;&#9;&#9;&#9;&#9;&#9;&#9;&#9;&#9;c0.34549-0.07059,0.4306-0.11362,1.94559-0.98828c1.53629-0.88699,1.5842-0.92081,1.70111-1.11722&#10;&#9;&#9;&#9;&#9;&#9;&#9;&#9;&#9;c0.22859-0.40817,0.27638-0.36218-1.79691-1.55917c-1.77029-1.02209-1.83411-1.05283-2.08919-1.07733&#10;&#9;&#9;&#9;&#9;&#9;&#9;&#9;&#9;c-0.4838-0.03989-0.5103-0.0307-2.47191,1.10181l-1.8181,1.04971l-0.0213,0.22101l-0.01591,0.2179l1.83942,1.08038&#10;&#9;&#9;&#9;&#9;&#9;&#9;&#9;&#9;c1.72769,1.00983,1.85529,1.07733,2.10519,1.11111V302.73679z"/><path fill="#3D4356" d="M223.74239,299.25012c0.56351,0.09821,0.6326,0.07059,2.5676-1.0466&#10;&#9;&#9;&#9;&#9;&#9;&#9;&#9;&#9;c1.94031-1.12021,2.0041-1.1694,1.81801-1.47931c-0.07971-0.14429-0.28178-0.27322-1.84999-1.17862&#10;&#9;&#9;&#9;&#9;&#9;&#9;&#9;&#9;c-1.7437-1.00668-1.75961-1.0159-2.06261-1.04971c-0.51572-0.05829-0.5316-0.0553-2.4772,1.06812&#10;&#9;&#9;&#9;&#9;&#9;&#9;&#9;&#9;c-1.69582,0.9791-1.78619,1.03738-1.8499,1.1908c-0.1223,0.2916-0.0425,0.35599,1.8606,1.45477&#10;&#9;&#9;&#9;&#9;&#9;&#9;&#9;&#9;c1.5629,0.9024,1.7437,0.99442,1.9935,1.0405V299.25012z"/><path fill="#3D4356" d="M217.56508,295.7327c0.2552,0.0798,0.6167,0.09213,0.8665,0.02762&#10;&#9;&#9;&#9;&#9;&#9;&#9;&#9;&#9;c0.0957-0.0246,0.95691-0.49722,1.91371-1.04971c1.632-0.9422,1.74359-1.01282,1.80209-1.16321&#10;&#9;&#9;&#9;&#9;&#9;&#9;&#9;&#9;c0.1329-0.31,0.1116-0.3284-1.9351-1.4917l-1.84999-1.04971l-0.34549,0.00311l-0.3455-0.00311l-1.83929,1.04352&#10;&#9;&#9;&#9;&#9;&#9;&#9;&#9;&#9;c-1.66919,0.94528-1.84459,1.0527-1.9191,1.19388c-0.15948,0.30692-0.12759,0.33762,1.7543,1.43643&#10;&#9;&#9;&#9;&#9;&#9;&#9;&#9;&#9;c0.93031,0.5433,1.78619,1.01898,1.8978,1.0528L217.56508,295.7327z"/><path fill="#3D4356" d="M212.06287,292.31671h0.4147l1.84459-1.065l1.8446-1.065v-0.23941v-0.23938l-1.866-1.0773&#10;&#9;&#9;&#9;&#9;&#9;&#9;&#9;&#9;l-1.866-1.07733l-0.38281-0.0123l-0.3774-0.00919l-1.81271,1.0282c-1.95628,1.11099-2.00938,1.14789-1.96159,1.43939&#10;&#9;&#9;&#9;&#9;&#9;&#9;&#9;&#9;l0.02661,0.16879l1.8606,1.07422l1.8606,1.07419h0.4147L212.06287,292.31671z"/><path fill="#3D4356" d="M205.71548,288.82999c0.07971,0.02151,0.29239,0.03381,0.46249,0.02151l0.3136-0.01532&#10;&#9;&#9;&#9;&#9;&#9;&#9;&#9;&#9;l1.81812-1.04968c1.8127-1.0466,1.82339-1.0527,1.88181-1.22772c0.09569-0.28241-0.00531-0.3591-1.8447-1.42111&#10;&#9;&#9;&#9;&#9;&#9;&#9;&#9;&#9;c-1.79149-1.0405-1.88721-1.08337-2.4241-1.06808l-0.2764,0.0061l-1.78619,1.01279&#10;&#9;&#9;&#9;&#9;&#9;&#9;&#9;&#9;c-1.9882,1.12952-2.0679,1.18781-1.94031,1.48862c0.0638,0.1535,0.15421,0.21179,1.8553,1.18781&#10;&#9;&#9;&#9;&#9;&#9;&#9;&#9;&#9;c0.9782,0.5647,1.84999,1.04349,1.9404,1.065L205.71548,288.82999z"/><path fill="#3D4356" d="M199.72958,285.3494c0.1329,0.02762,0.35089,0.043,0.4944,0.03381&#10;&#9;&#9;&#9;&#9;&#9;&#9;&#9;&#9;c0.2605-0.01529,0.2977-0.0368,2.1104-1.0834c1.7915-1.0343,1.8446-1.07108,1.87651-1.21228&#10;&#9;&#9;&#9;&#9;&#9;&#9;&#9;&#9;c0.0638-0.30081,0.03189-0.32529-1.8606-1.418c-2.48792-1.4364-2.11581-1.4364-4.5771-0.01538&#10;&#9;&#9;&#9;&#9;&#9;&#9;&#9;&#9;c-1.8553,1.07108-1.86591,1.0773-1.8446,1.40259l0.0106,0.15961l1.77562,1.03741&#10;&#9;&#9;&#9;&#9;&#9;&#9;&#9;&#9;c1.4088,0.82559,1.82339,1.0528,2.0148,1.0957L199.72958,285.3494z"/><path fill="#3D4356" d="M193.63728,281.8566c0.28178,0.08289,0.64319,0.08289,0.9303-0.00919&#10;&#9;&#9;&#9;&#9;&#9;&#9;&#9;&#9;c0.13821-0.043,0.9516-0.48801,1.85001-1.00671c1.80209-1.04041,1.9191-1.13251,1.7968-1.4364&#10;&#9;&#9;&#9;&#9;&#9;&#9;&#9;&#9;c-0.06381-0.1535-0.15422-0.21179-1.8553-1.19391c-1.951-1.1264-1.9935-1.14478-2.49319-1.08957&#10;&#9;&#9;&#9;&#9;&#9;&#9;&#9;&#9;c-0.2339,0.0246-0.3721,0.09821-2.0679,1.0773c-2.49319,1.43939-2.48792,1.2215-0.03711,2.63028&#10;&#9;&#9;&#9;&#9;&#9;&#9;&#9;&#9;c0.91971,0.53101,1.77031,0.99139,1.8766,1.0282H193.63728z"/><path fill="#3D4356" d="M187.91718,278.4313c0.505,0.07059,0.62201,0.02148,2.4826-1.0527s1.94559-1.14169,1.82341-1.43329&#10;&#9;&#9;&#9;&#9;&#9;&#9;&#9;&#9;c-0.0638-0.1535-0.1595-0.21481-1.866-1.2001c-1.9882-1.14792-2.03079-1.16632-2.5358-1.0773&#10;&#9;&#9;&#9;&#9;&#9;&#9;&#9;&#9;c-0.23921,0.03989-0.44121,0.1442-2.0201,1.05579s-1.75961,1.0282-1.8287,1.16629&#10;&#9;&#9;&#9;&#9;&#9;&#9;&#9;&#9;c-0.15422,0.2916-0.1223,0.3161,1.866,1.46402c1.7065,0.9852,1.81279,1.0405,2.0786,1.0773H187.91718z"/><path fill="#3D4356" d="M181.90999,274.9631c0.51028,0.0675,0.6167,0.0246,2.51979-1.07422&#10;&#9;&#9;&#9;&#9;&#9;&#9;&#9;&#9;c2.42941-1.40259,2.4241-1.1908,0.05841-2.58118c-1.89792-1.11411-2.0414-1.17862-2.54642-1.1203&#10;&#9;&#9;&#9;&#9;&#9;&#9;&#9;&#9;c-0.30299,0.03378-0.3136,0.03989-2.13168,1.0896l-1.82341,1.0527l-0.0213,0.22098l-0.01591,0.2179l1.83942,1.08041&#10;&#9;&#9;&#9;&#9;&#9;&#9;&#9;&#9;C181.55919,274.8833,181.63358,274.9263,181.90999,274.9631z"/><path fill="#3D4356" d="M175.81769,271.4212c0.10629,0.0184,0.3083,0.0184,0.4519,0.00311&#10;&#9;&#9;&#9;&#9;&#9;&#9;&#9;&#9;c0.2392-0.02759,0.36681-0.09509,2.052-1.06808c1.9722-1.1387,1.9882-1.15402,1.86591-1.44562&#10;&#9;&#9;&#9;&#9;&#9;&#9;&#9;&#9;c-0.0585-0.12579-0.63789-0.46649-6.5229-3.8642l-6.45911-3.7291l-0.2977-0.0184&#10;&#9;&#9;&#9;&#9;&#9;&#9;&#9;&#9;c-0.5901-0.02759-0.6326-0.00919-2.4507,1.04041s-1.84999,1.07422-1.80209,1.41492l0.03189,0.17191l6.4644,3.73221&#10;&#9;&#9;&#9;&#9;&#9;&#9;&#9;&#9;c5.1673,2.9772,6.51221,3.74139,6.6664,3.76288V271.4212z"/><path fill="#3D4356" d="M235.73007,299.2533c0.12761,0.0307,0.3987,0.03378,0.5901,0.00919l0.35619-0.04599l1.68521-0.9729&#10;&#9;&#9;&#9;&#9;&#9;&#9;&#9;&#9;c1.65331-0.9545,1.69049-0.98212,1.77548-1.16632c0.18071-0.38669,0.4093-0.23019-3.9924-2.77148&#10;&#9;&#9;&#9;&#9;&#9;&#9;&#9;&#9;c-3.77979-2.18219-3.918-2.25589-4.18381-2.29272c-0.38626-0.05527-1.19783,0.26807-2.43469,0.96991&#10;&#9;&#9;&#9;&#9;&#9;&#9;&#9;&#9;c-1.0419,0.58929-1.733,1.00671-1.82341,1.0957c-0.0851,0.08591-0.14351,0.2363-0.14351,0.3345l0.00531,0.18719&#10;&#9;&#9;&#9;&#9;&#9;&#9;&#9;&#9;l3.96049,2.29892c3.2907,1.91208,3.99771,2.30811,4.205,2.3541L235.73007,299.2533z"/><path fill="#3D4356" d="M177.21567,265.5007c0.20201,0.0491,0.58479,0.0368,0.83461-0.02759&#10;&#9;&#9;&#9;&#9;&#9;&#9;&#9;&#9;c0.1329-0.03381,0.81868-0.40512,1.86589-1.00983c1.85001-1.06808,1.90311-1.11099,1.78081-1.45169l-0.0585-0.1749&#10;&#9;&#9;&#9;&#9;&#9;&#9;&#9;&#9;l-4.205-2.42783c-4.73669-2.73468-4.423-2.58429-5.0981-2.4769c-0.319,0.0491-0.36679,0.07059-2.0041,1.0159&#10;&#9;&#9;&#9;&#9;&#9;&#9;&#9;&#9;c-1.6373,0.94531-1.6745,0.9729-1.76491,1.1601c-0.1861,0.3775-0.4359,0.20871,4.29541,2.9342&#10;&#9;&#9;&#9;&#9;&#9;&#9;&#9;&#9;c2.30721,1.33209,4.2688,2.44012,4.3539,2.4585V265.5007z"/><path fill="#3D4356" d="M225.50188,293.25601c0.505,0.07059,0.6167,0.0246,2.49319-1.05893&#10;&#9;&#9;&#9;&#9;&#9;&#9;&#9;&#9;c1.8606-1.07419,1.9137-1.11719,1.8287-1.4425c-0.03719-0.14429-0.101-0.18719-1.8553-1.2001&#10;&#9;&#9;&#9;&#9;&#9;&#9;&#9;&#9;c-1.6958-0.9791-1.83411-1.0528-2.06799-1.0773c-0.49971-0.0553-0.54221-0.0368-2.48792,1.08652&#10;&#9;&#9;&#9;&#9;&#9;&#9;&#9;&#9;c-1.96159,1.13251-1.97749,1.14789-1.8553,1.43939c0.0585,0.11969,0.2924,0.267,1.866,1.17551&#10;&#9;&#9;&#9;&#9;&#9;&#9;&#9;&#9;c1.70651,0.9852,1.81281,1.0405,2.07861,1.0773V293.25601z"/><path fill="#3D4356" d="M219.44148,289.76932c0.53691,0.10739,0.62201,0.07059,2.5623-1.04959&#10;&#9;&#9;&#9;&#9;&#9;&#9;&#9;&#9;c2.47191-1.42722,2.4666-1.21542,0.0106-2.63342c-1.9032-1.09879-2.01482-1.14478-2.51981-1.07419&#10;&#9;&#9;&#9;&#9;&#9;&#9;&#9;&#9;c-0.26581,0.0368-0.36679,0.08899-2.06261,1.06808c-1.94559,1.12329-1.951,1.13251-1.8499,1.43021&#10;&#9;&#9;&#9;&#9;&#9;&#9;&#9;&#9;c0.0585,0.17493,0.07442,0.1842,1.81812,1.19089c1.5683,0.90543,1.79149,1.02209,2.0414,1.06812L219.44148,289.76932z"/><path fill="#3D4356" d="M213.21098,286.24582c0.28709,0.0798,0.48911,0.09821,0.7442,0.06137&#10;&#9;&#9;&#9;&#9;&#9;&#9;&#9;&#9;c0.26051-0.03378,0.37741-0.09509,2.04662-1.0589c1.66919-0.96381,1.78079-1.0343,1.83929-1.18469&#10;&#9;&#9;&#9;&#9;&#9;&#9;&#9;&#9;c0.1329-0.30389,0.10098-0.3284-1.8553-1.45789c-1.66389-0.96069-1.78619-1.02512-2.04671-1.0589&#10;&#9;&#9;&#9;&#9;&#9;&#9;&#9;&#9;c-0.52629-0.07669-0.5688-0.05832-2.5145,1.065c-1.9137,1.10489-1.951,1.13251-1.85529,1.42099&#10;&#9;&#9;&#9;&#9;&#9;&#9;&#9;&#9;c0.0425,0.13501,0.1754,0.2179,1.79149,1.16321c0.95689,0.55859,1.7915,1.03427,1.84999,1.04968L213.21098,286.24582z"/><path fill="#3D4356" d="M207.19318,282.75299c0.2924,0.10129,0.54761,0.12582,0.8293,0.0737&#10;&#9;&#9;&#9;&#9;&#9;&#9;&#9;&#9;c0.2126-0.0368,0.4731-0.1749,2.052-1.10492l1.81271-1.065l-0.01601-0.2179l-0.0213-0.22101l-1.81812-1.04968&#10;&#9;&#9;&#9;&#9;&#9;&#9;&#9;&#9;c-1.9935-1.15103-1.9989-1.15402-2.53049-1.09271l-0.30301,0.03381l-1.8074,1.06189l-1.8074,1.06189v0.19031&#10;&#9;&#9;&#9;&#9;&#9;&#9;&#9;&#9;c0.00531,0.10129,0.0744,0.25168,0.16479,0.33447c0.1861,0.1749,3.15781,1.89072,3.44481,1.995L207.19318,282.75299z"/><path fill="#3D4356" d="M201.74948,279.3645h0.41469l1.81271-1.0466c2.00938-1.16013,2.04129-1.18469,1.88721-1.47632&#10;&#9;&#9;&#9;&#9;&#9;&#9;&#9;&#9;c-0.06911-0.13809-0.2552-0.25778-1.8553-1.1817c-1.98289-1.14478-1.9563-1.13559-2.54111-1.04971&#10;&#9;&#9;&#9;&#9;&#9;&#9;&#9;&#9;c-0.2605,0.03381-0.38811,0.10132-2.02008,1.04352c-1.92441,1.11099-1.96159,1.1387-1.82872,1.4425&#10;&#9;&#9;&#9;&#9;&#9;&#9;&#9;&#9;c0.0585,0.15039,0.1701,0.22101,1.89252,1.21539l1.82339,1.0528h0.4147L201.74948,279.3645z"/><path fill="#3D4356" d="M195.40208,275.87781c0.07971,0.02148,0.28709,0.0307,0.45192,0.02148&#10;&#9;&#9;&#9;&#9;&#9;&#9;&#9;&#9;c0.4146-0.0184,0.7336-0.17798,2.51979-1.2338c2.1104-1.24301,2.13699-1.06808-0.39339-2.50452&#10;&#9;&#9;&#9;&#9;&#9;&#9;&#9;&#9;c-2.45599-1.39337-2.08389-1.39337-4.55049,0.03073c-2.4453,1.4118-2.4453,1.19699,0.05849,2.63651&#10;&#9;&#9;&#9;&#9;&#9;&#9;&#9;&#9;c0.9622,0.55548,1.82341,1.0282,1.9138,1.04971L195.40208,275.87781z"/><path fill="#3D4356" d="M189.45337,272.3942c0.1488,0.03073,0.3934,0.043,0.5316,0.03073&#10;&#9;&#9;&#9;&#9;&#9;&#9;&#9;&#9;c0.24991-0.02151,0.34019-0.0675,1.94559-0.97601c1.0472-0.59232,1.74361-1.01282,1.834-1.10181&#10;&#9;&#9;&#9;&#9;&#9;&#9;&#9;&#9;c0.0851-0.08591,0.14351-0.2363,0.14351-0.3345l-0.00531-0.18719l-1.8819-1.08652l-1.88191-1.08649l-0.3243-0.00311&#10;&#9;&#9;&#9;&#9;&#9;&#9;&#9;&#9;c-0.1754-0.00311-0.42531,0.0307-0.56351,0.0737c-0.1488,0.0491-0.86121,0.44202-1.9084,1.0589&#10;&#9;&#9;&#9;&#9;&#9;&#9;&#9;&#9;c-2.31779,1.3627-2.3284,1.16013,0.133,2.58121c1.51511,0.87469,1.73309,0.98828,1.9776,1.03131L189.45337,272.3942z"/><path fill="#3D4356" d="M183.32388,268.90451c0.10629,0.0307,0.28709,0.0614,0.3987,0.06448&#10;&#9;&#9;&#9;&#9;&#9;&#9;&#9;&#9;c0.4519,0.01532,0.60069-0.05219,2.37088-1.07419c1.86061-1.07419,1.9456-1.14169,1.82341-1.43329&#10;&#9;&#9;&#9;&#9;&#9;&#9;&#9;&#9;c-0.0638-0.1535-0.15948-0.21481-1.87129-1.20309c-1.71181-0.98831-1.81281-1.0405-2.07861-1.07733&#10;&#9;&#9;&#9;&#9;&#9;&#9;&#9;&#9;c-0.49971-0.06747-0.5901-0.02759-2.5251,1.08951c-2.43469,1.4057-2.42941,1.16931-0.03709,2.56891&#10;&#9;&#9;&#9;&#9;&#9;&#9;&#9;&#9;c0.94629,0.55249,1.8075,1.03128,1.9191,1.065H183.32388z"/><path fill="#3D4356" d="M241.64668,295.76361c0.2233,0.05521,0.70169,0.0307,0.97281-0.04602&#10;&#9;&#9;&#9;&#9;&#9;&#9;&#9;&#9;c0.15421-0.04599,0.77609-0.38058,1.8127-0.9791c1.52042-0.88388,1.57352-0.91458,1.68521-1.11411&#10;&#9;&#9;&#9;&#9;&#9;&#9;&#9;&#9;c0.22328-0.40509,0.63789-0.12888-5.29491-3.55417c-4.9706-2.86981-5.25229-3.02631-5.5128-3.0723&#10;&#9;&#9;&#9;&#9;&#9;&#9;&#9;&#9;c-0.56351-0.09824-0.63789-0.0675-2.541,1.03119c-1.8978,1.0957-1.94031,1.13251-1.82341,1.47632l0.0585,0.1749&#10;&#9;&#9;&#9;&#9;&#9;&#9;&#9;&#9;l5.24699,3.02319c2.8813,1.66351,5.31081,3.0416,5.3958,3.06L241.64668,295.76361z"/><path fill="#3D4356" d="M228.85088,288.1918c0.521,0.0737,0.62201,0.02759,2.5782-1.12021l1.75961-1.0343l0.00529-0.18719&#10;&#9;&#9;&#9;&#9;&#9;&#9;&#9;&#9;c0-0.09821-0.0585-0.24863-0.14351-0.3345c-0.09041-0.08899-0.7921-0.5126-1.84999-1.11111&#10;&#9;&#9;&#9;&#9;&#9;&#9;&#9;&#9;c-1.5683-0.88699-1.7224-0.96368-1.951-0.99139c-0.49971-0.0553-0.54221-0.0368-2.5145,1.10181l-1.8074,1.04349&#10;&#9;&#9;&#9;&#9;&#9;&#9;&#9;&#9;l-0.02132,0.22101l-0.0159,0.2179l1.8394,1.08038c1.77031,1.0343,1.8447,1.07733,2.12111,1.11411V288.1918z"/><path fill="#3D4356" d="M222.73196,284.6713c0.1488,0.03073,0.3934,0.043,0.5316,0.03073&#10;&#9;&#9;&#9;&#9;&#9;&#9;&#9;&#9;c0.24991-0.02151,0.34019-0.0675,2.0307-1.02512c1.96159-1.11411,2.036-1.1694,1.90309-1.47931&#10;&#9;&#9;&#9;&#9;&#9;&#9;&#9;&#9;c-0.0585-0.14429-0.1754-0.2179-1.92439-1.21539l-1.87131-1.06198l-0.37741,0.00919l-0.3828,0.0123l-1.8553,1.07111&#10;&#9;&#9;&#9;&#9;&#9;&#9;&#9;&#9;l-1.8553,1.07108l-0.0266,0.1749c-0.01591,0.09512,0.03719,0.2363,0.11159,0.3161&#10;&#9;&#9;&#9;&#9;&#9;&#9;&#9;&#9;c0.08511,0.08591,0.8293,0.54022,1.7915,1.0957c1.4619,0.84399,1.6799,0.95761,1.92439,1.00061L222.73196,284.6713z"/><path fill="#3D4356" d="M216.82048,281.2522c0.55821,0.07669,0.49971,0.1044,2.53041-1.06808&#10;&#9;&#9;&#9;&#9;&#9;&#9;&#9;&#9;c1.8074-1.04349,1.84459-1.065,1.8712-1.21542c0.0638-0.28848-0.02661-0.35297-1.88721-1.42719&#10;&#9;&#9;&#9;&#9;&#9;&#9;&#9;&#9;c-2.45599-1.418-2.08919-1.42111-4.56119,0.0061s-2.47722,1.2092,0.0266,2.65491&#10;&#9;&#9;&#9;&#9;&#9;&#9;&#9;&#9;c1.632,0.94229,1.77031,1.01587,2.0201,1.04971L216.82048,281.2522z"/><path fill="#3D4356" d="M210.66447,277.7471c0.2818,0.08899,0.6539,0.07669,0.9622-0.03378&#10;&#9;&#9;&#9;&#9;&#9;&#9;&#9;&#9;c0.32431-0.11972,3.2321-1.79852,3.43411-1.9888c0.09041-0.08289,0.15948-0.23331,0.16479-0.3345v-0.19028l-1.8022-1.05893&#10;&#9;&#9;&#9;&#9;&#9;&#9;&#9;&#9;c-1.96159-1.151-2.02539-1.18167-2.5145-1.1326c-0.28169,0.02762-0.3083,0.043-2.09981,1.07733&#10;&#9;&#9;&#9;&#9;&#9;&#9;&#9;&#9;c-2.49318,1.43939-2.4879,1.2215-0.03709,2.63028c0.91971,0.53101,1.7756,0.99438,1.89252,1.03131L210.66447,277.7471z"/><path fill="#3D4356" d="M204.92838,274.3187c0.505,0.07059,0.62201,0.02151,2.4613-1.0466&#10;&#9;&#9;&#9;&#9;&#9;&#9;&#9;&#9;c1.83929-1.06189,1.94031-1.1387,1.84459-1.42099c-0.05849-0.1749-0.06909-0.18109-1.8606-1.21539&#10;&#9;&#9;&#9;&#9;&#9;&#9;&#9;&#9;c-1.96159-1.1326-2.0042-1.151-2.50389-1.0957c-0.2339,0.0246-0.3721,0.09821-2.0573,1.07111&#10;&#9;&#9;&#9;&#9;&#9;&#9;&#9;&#9;c-1.68521,0.97287-1.81271,1.0527-1.8553,1.18777c-0.09569,0.28851-0.0638,0.31311,1.8925,1.44254&#10;&#9;&#9;&#9;&#9;&#9;&#9;&#9;&#9;c1.70651,0.9852,1.81281,1.0405,2.07861,1.0773L204.92838,274.3187z"/><path fill="#3D4356" d="M198.92119,270.85052c0.505,0.07059,0.6167,0.0246,2.49318-1.05893&#10;&#9;&#9;&#9;&#9;&#9;&#9;&#9;&#9;c1.86061-1.07419,1.91371-1.11719,1.82872-1.4425c-0.0372-0.14429-0.101-0.18719-1.86061-1.20309&#10;&#9;&#9;&#9;&#9;&#9;&#9;&#9;&#9;c-2.02008-1.16629-1.9935-1.15707-2.55698-1.0589c-0.2339,0.0368-0.45192,0.15039-1.74361,0.87781&#10;&#9;&#9;&#9;&#9;&#9;&#9;&#9;&#9;c-0.81329,0.45731-1.6214,0.92999-1.7915,1.0527c-0.27109,0.19339-0.3083,0.24548-0.30299,0.4512v0.23331l1.82341,1.0528&#10;&#9;&#9;&#9;&#9;&#9;&#9;&#9;&#9;c1.73839,1.0036,1.84468,1.0589,2.11049,1.0957L198.92119,270.85052z"/><path fill="#3D4356" d="M192.85547,267.36072c0.5529,0.1044,0.6326,0.07059,2.5676-1.0466&#10;&#9;&#9;&#9;&#9;&#9;&#9;&#9;&#9;c2.47191-1.42719,2.46661-1.21539,0.0106-2.63339c-1.90318-1.09882-2.0148-1.14481-2.51979-1.07422&#10;&#9;&#9;&#9;&#9;&#9;&#9;&#9;&#9;c-0.26581,0.0368-0.36681,0.08899-2.06261,1.06812c-1.94559,1.12329-1.951,1.13251-1.8499,1.43021&#10;&#9;&#9;&#9;&#9;&#9;&#9;&#9;&#9;c0.0585,0.1749,0.0744,0.18417,1.8181,1.19089c1.5683,0.9054,1.7915,1.02209,2.0361,1.065H192.85547z"/><path fill="#3D4356" d="M186.90138,263.91092c0.52629,0.07669,0.5741,0.0553,2.4879-1.04959&#10;&#9;&#9;&#9;&#9;&#9;&#9;&#9;&#9;c1.98291-1.14481,2.0094-1.16632,1.81271-1.50082c-0.117-0.19028-0.1861-0.23019-5.93282-3.5481&#10;&#9;&#9;&#9;&#9;&#9;&#9;&#9;&#9;c-5.70419-3.2933-5.81578-3.35779-6.14009-3.4222c-0.20729-0.0399-0.44121-0.04601-0.64859-0.01231&#10;&#9;&#9;&#9;&#9;&#9;&#9;&#9;&#9;c-0.31361,0.05222-0.37212,0.0798-2.00412,1.022l-1.67979,0.96991l-0.07971,0.19949&#10;&#9;&#9;&#9;&#9;&#9;&#9;&#9;&#9;c-0.14351,0.3775-0.60069,0.08292,5.9913,3.8887c5.7733,3.33322,5.92751,3.41611,6.1933,3.45291H186.90138z"/><path fill="#3D4356" d="M238.83429,286.98871c0.11699,0.0184,0.32961,0.0246,0.46249,0.00919&#10;&#9;&#9;&#9;&#9;&#9;&#9;&#9;&#9;c0.22859-0.02759,0.3828-0.10431,1.88719-0.9545c0.9037-0.50949,1.72771-0.9975,1.8446-1.0834&#10;&#9;&#9;&#9;&#9;&#9;&#9;&#9;&#9;c0.14879-0.11658,0.1967-0.21179,0.1861-0.36517l-0.00529-0.2056l-2.48792-1.4364&#10;&#9;&#9;&#9;&#9;&#9;&#9;&#9;&#9;c-2.44539-1.4119-2.4933-1.43951-2.74309-1.4548c-0.521-0.0368-0.56351-0.0184-2.4613,1.0773&#10;&#9;&#9;&#9;&#9;&#9;&#9;&#9;&#9;c-1.73299,1.00052-1.7489,1.00983-1.8074,1.18469c-0.03189,0.0921-0.0266,0.22409,0.00531,0.2854&#10;&#9;&#9;&#9;&#9;&#9;&#9;&#9;&#9;c0.101,0.18109,4.8217,2.89432,5.1194,2.94339L238.83429,286.98871z"/><path fill="#3D4356" d="M231.70007,282.82071c0.48911,0.05521,0.62201-0.00311,2.4613-1.065&#10;&#9;&#9;&#9;&#9;&#9;&#9;&#9;&#9;c1.8127-1.04041,1.8978-1.108,1.83929-1.3934l-0.03189-0.1535l-17.1817-9.9198l-17.1817-9.9198l-0.2552-0.0184&#10;&#9;&#9;&#9;&#9;&#9;&#9;&#9;&#9;c-0.521-0.03677-0.56351-0.0184-2.4613,1.0773c-1.73299,1.00052-1.7489,1.00983-1.8074,1.18469&#10;&#9;&#9;&#9;&#9;&#9;&#9;&#9;&#9;c-0.03189,0.09213-0.0266,0.22412,0.00531,0.2854c0.05319,0.0921,3.59898,2.15771,17.187,10.00272l17.1232,9.88608&#10;&#9;&#9;&#9;&#9;&#9;&#9;&#9;&#9;l0.30301,0.03381L231.70007,282.82071z"/><path fill="#3D4356" d="M195.07208,261.67352c0.17009,0.0184,0.4093,0.00311,0.54759-0.03381&#10;&#9;&#9;&#9;&#9;&#9;&#9;&#9;&#9;c0.31902-0.0921,3.43411-1.87219,3.6414-2.08401c0.0744-0.0798,0.12759-0.22098,0.1116-0.3161l-0.02661-0.1749&#10;&#9;&#9;&#9;&#9;&#9;&#9;&#9;&#9;l-2.4826-1.43329c-2.472-1.42719-2.48792-1.4364-2.75369-1.4548c-0.49442-0.03378-0.61131,0.01529-2.43469,1.06812&#10;&#9;&#9;&#9;&#9;&#9;&#9;&#9;&#9;c-1.86061,1.07419-1.9456,1.14169-1.82341,1.43329c0.06911,0.15649,0.15421,0.21179,2.4933,1.56219l2.4241,1.3996&#10;&#9;&#9;&#9;&#9;&#9;&#9;&#9;&#9;l0.30301,0.03378V261.67352z"/><path fill="#3D4356" d="M187.98039,257.48093h0.41469l1.82341-1.0527c1.71709-0.99132,1.83398-1.06502,1.88181-1.20311&#10;&#9;&#9;&#9;&#9;&#9;&#9;&#9;&#9;c0.101-0.2916,0.21799-0.21179-3.44481-2.3326l-3.3864-1.95511l-0.3828-0.0123l-0.37741-0.0092l-1.8978,1.0957&#10;&#9;&#9;&#9;&#9;&#9;&#9;&#9;&#9;l-1.8978,1.09569l0.01601,0.2179l0.0213,0.22101l3.40759,1.96739l3.40759,1.96739h0.4147L187.98039,257.48093z"/><path fill="#3D4356" d="M248.03647,292.13589c0.49442,0.03381,0.61131-0.01529,2.43469-1.06808&#10;&#9;&#9;&#9;&#9;&#9;&#9;&#9;&#9;c1.82339-1.0528,1.9084-1.12021,1.8499-1.4057l-0.03189-0.1535l-3.37039-1.94589&#10;&#9;&#9;&#9;&#9;&#9;&#9;&#9;&#9;c-3.71599-2.14542-3.57771-2.07791-4.10931-1.98581c-0.2392,0.03992-0.44121,0.1442-2.02008,1.05582&#10;&#9;&#9;&#9;&#9;&#9;&#9;&#9;&#9;c-1.57889,0.91159-1.75961,1.0282-1.82872,1.16629c-0.15948,0.30688-0.27638,0.22711,3.43951,2.3725l3.37039,1.94589&#10;&#9;&#9;&#9;&#9;&#9;&#9;&#9;&#9;l0.26581,0.0184L248.03647,292.13589z"/></g><path fill="#BDBDBD" d="M204.66988,258.8895l12.96021-7.48259c0.68279-0.3943,1.71561-0.4371,2.30708-0.09569&#10;&#9;&#9;&#9;&#9;&#9;&#9;&#9;l32.3568,18.68118c0.1864,0.10773,0.29921,0.242,0.35509,0.38611c0.1076-0.28748-0.0032-0.58099-0.35509-0.7843&#10;&#9;&#9;&#9;&#9;&#9;&#9;&#9;l-32.3568-18.6812c-0.59151-0.34138-1.6243-0.29858-2.30708,0.0957l-12.96021,7.48259&#10;&#9;&#9;&#9;&#9;&#9;&#9;&#9;c-0.4675,0.26993-0.64211,0.63321-0.5208,0.94589C204.22227,259.24179,204.39348,259.0491,204.66988,258.8895z"/></g><g><path fill="#FFD3D4" d="M343.28928,218.48851c3.46808,13.79851-86.74179,58.81679-91.008,52.243&#10;&#9;&#9;&#9;&#9;&#9;&#9;&#9;c-3.8212-5.88809,55.71658-49.3999,73.74301-56.2934c18.0264-6.89351,17.26489,4.05049,17.26489,4.05049L343.28928,218.48851z"/><path fill="#FFD3D4" d="M246.90106,261.0434c3.99631-2.42209,11.70871-3.89679,16.8587,1.5477&#10;&#9;&#9;&#9;&#9;&#9;&#9;&#9;c5.34769,5.6535-2.46829,15.36661-4.55429,16.97711c-14.18521,10.952-19.50189,6.83807-24.26611,2.6387&#10;&#9;&#9;&#9;&#9;&#9;&#9;&#9;c-4.76421-4.1994,3.64401-16.12231,11.9617-21.16342V261.0434z"/></g><g><path fill="#FFD3D4" d="M269.65338,187.28922c7.69629,11.88881-61.3455,79.1326-67.43629,74.2012&#10;&#9;&#9;&#9;&#9;&#9;&#9;&#9;c-5.4554-4.41702,35.6311-61.6597,50.11008-73.1373C266.80615,176.8755,269.65338,187.28922,269.65338,187.28922z"/><path fill="#FFD3D4" d="M197.99078,251.8788c3.24619-3.40959,10.3553-6.87889,16.79919-2.94479&#10;&#9;&#9;&#9;&#9;&#9;&#9;&#9;c6.69141,4.0851,1.6559,15.5916,0.05289,17.7079c-10.90089,14.392-17.15588,11.7955-22.89618,8.97&#10;&#9;&#9;&#9;&#9;&#9;&#9;&#9;c-5.74031-2.8255-0.71231-16.6366,6.04401-23.73311H197.99078z"/></g><g><path fill="#3E5F94" d="M223.09097,262.41409c-0.37531-2.69028-2.75819-6.06329-5.3231-7.54459l-68.68089-39.65228&#10;&#9;&#9;&#9;&#9;&#9;&#9;&#9;c-1.40219-0.80891-2.5681-0.8856-3.2756-0.34981l-1.8255,1.38148c0.70911-0.53659,1.875-0.45999,3.27719,0.34981&#10;&#9;&#9;&#9;&#9;&#9;&#9;&#9;l68.68091,39.6523c2.5649,1.4805,4.94778,4.85428,5.3231,7.54379l6.1248,43.8063c0.1693,1.2218-0.1022,2.0914-0.6931,2.53778&#10;&#9;&#9;&#9;&#9;&#9;&#9;&#9;l1.8239-1.38147c0.5909-0.44641,0.86241-1.31522,0.6931-2.53702L223.09097,262.41409z"/><path fill="#536C92" d="M221.26718,263.7948c-0.37531-2.68948-2.75819-6.06329-5.3231-7.54379l-68.68089-39.6523&#10;&#9;&#9;&#9;&#9;&#9;&#9;&#9;c-2.5649-1.4805-4.3409-0.50871-3.964,2.1808l6.1232,43.8063c0.37531,2.69031,2.75981,6.07211,5.32471,7.55261&#10;&#9;&#9;&#9;&#9;&#9;&#9;&#9;l68.68089,39.65311c2.56491,1.4805,4.33929,0.49988,3.964-2.1904l-6.1248-43.8063V263.7948z"/><path fill="#DDDDDD" d="M184.49208,257.09271c3.2168,1.85721,6.19659,6.09061,6.6669,9.45499&#10;&#9;&#9;&#9;&#9;&#9;&#9;&#9;c0.4715,3.37299-1.7453,4.59802-4.96201,2.74081c-3.2077-1.85199-6.19449-6.0813-6.66599-9.45432&#10;&#9;&#9;&#9;&#9;&#9;&#9;&#9;c-0.47031-3.36438,1.7534-4.59351,4.96111-2.74161L184.49208,257.09271z"/></g></g></g></g></g></g></svg>