<svg xmlns="http://www.w3.org/2000/svg" xmlns:xlink="http://www.w3.org/1999/xlink" version="1.1" id="_レイヤー_2" x="0px" y="0px" viewBox="0 0 1523.01001 969.6759" enable-background="new 0 0 1523.01001 969.6759" width="1523px" height="970px" class="lg:!max-h-[405px] hoverScaleIllustration rectangleModalImage" role="img" aria-label="整理 アイソメトリック イラスト"><title>整理 アイソメトリック イラスト</title><g id="_レイヤー_2-2"><g><path fill="#CFCFCF" d="M1522.00854,813.39478c-0.1698,0-0.3418-0.04303-0.49902-0.13385L586.20197,273.26102&#10;&#9;&#9;&#9;c-0.47852-0.27637-0.64258-0.88818-0.36621-1.36618c0.27643-0.47849,0.88867-0.64212,1.36621-0.36618l935.30756,540&#10;&#9;&#9;&#9;c0.47852,0.27637,0.64246,0.88763,0.36621,1.36615c-0.18555,0.32031-0.52161,0.50006-0.86719,0.50006V813.39478z"/><g><path opacity="0.05" fill="#1A1A1A" d="M797.02533,808.22607&#10;&#9;&#9;&#9;&#9;c-0.62439-2.09741-2.42993-4.75616-4.96234-7.32812c-1.6955-1.72186,0.02802-3.89136,3.40912-4.22687l35.79755-3.55176&#10;&#9;&#9;&#9;&#9;c2.67596-0.2655,4.47229-1.73309,4.01239-3.27808l-6.60498-22.18713c-0.6217-2.0882,2.78424-3.8006,6.29834-3.18964&#10;&#9;&#9;&#9;&#9;c6.91614,1.20239,14.59607,1.59143,19.69342,1.08569c10.87927-1.07941,18.18286-7.04633,16.31299-13.32751&#10;&#9;&#9;&#9;&#9;s-12.20514-10.49811-23.08441-9.4187c-5.09741,0.50568-12.11163,2.35266-17.93561,4.81903&#10;&#9;&#9;&#9;&#9;c-2.95923,1.25317-7.16003,0.29547-7.78162-1.79266l-6.60498-22.18713c-0.4599-1.54486-3.00201-2.58209-5.67792-2.31659&#10;&#9;&#9;&#9;&#9;l-35.79755,3.5517c-3.3811,0.33545-5.10461,2.50488-3.40912,4.22693c2.53241,2.57184,4.33795,5.23065,4.96234,7.32812&#10;&#9;&#9;&#9;&#9;c1.86987,6.28119-5.43378,12.24805-16.31305,13.32745s-21.21454-3.13751-23.08441-9.4187&#10;&#9;&#9;&#9;&#9;c-0.62439-2.09741-0.45996-4.95166,0.4397-7.86401c0.60242-1.94989-2.27692-3.66272-5.65802-3.32733l-35.79761,3.5517&#10;&#9;&#9;&#9;&#9;c-2.6759,0.2655-4.47229,1.73309-4.01239,3.27814l19.70685,66.19794c0.4599,1.54492,3.00201,2.58209,5.67786,2.31659&#10;&#9;&#9;&#9;&#9;l35.79755-3.5517c3.38116-0.33545,6.26031,1.37744,5.65808,3.32733c-0.89978,2.91235-1.06409,5.7666-0.4397,7.86401&#10;&#9;&#9;&#9;&#9;c1.86987,6.28119,12.20514,10.49811,23.08441,9.4187s18.18292-7.04626,16.31299-13.32745L797.02533,808.22607z" enable-background="new"/><path fill="#B1B1B1" d="M797.58429,804.28528c-0.61206-2.05627-2.90619-2.83954-5.38885-5.3609&#10;&#9;&#9;&#9;&#9;c-1.66223-1.68823,0.02747-3.81506,3.34229-4.14398l35.09564-3.48193c2.62341-0.26031,4.38464-1.69922,3.93372-3.21381&#10;&#9;&#9;&#9;&#9;l0.01721-3.79932l-6.49274-17.95282c-0.6095-2.04724,2.72974-3.72595,6.17493-3.12714&#10;&#9;&#9;&#9;&#9;c6.78052,1.17883,14.30981,1.56024,19.30737,1.06439c10.66595-1.05817,15.99438-7.55945,16.0105-13.9845&#10;&#9;&#9;&#9;&#9;c0.0174-6.91833-11.98322-9.37396-22.64923-8.31573c-4.9975,0.49579-11.87427,2.30658-17.58392,4.72455&#10;&#9;&#9;&#9;&#9;c-2.90106,1.22864-7.01959,0.28967-7.62909-1.75751l-6.47552-21.75208c-0.45093-1.51459-2.94312-2.53149-5.56665-2.27118&#10;&#9;&#9;&#9;&#9;l-37.09576-0.62799c-3.31482,0.32892-3.00439,6.56592-1.34216,8.25403c2.48267,2.52148,4.25293,5.12805,4.86505,7.18433&#10;&#9;&#9;&#9;&#9;c1.83319,6.15802-5.32727,12.008-15.99316,13.06622c-10.66589,1.05817-20.79852-3.07605-22.63184-9.23401&#10;&#9;&#9;&#9;&#9;c-0.61206-2.05627-0.45093-4.85455,0.43115-7.70984c0.59058-1.91168,0.9859-7.88971-2.32904-7.56079l-39,3&#10;&#9;&#9;&#9;&#9;c-5,2-3.69843,6.47992-3.2475,7.99463l19.32037,64.89996c0.45087,1.51459,2.94312,2.53149,5.56659,2.27118l35.0957-3.48193&#10;&#9;&#9;&#9;&#9;c3.31482-0.32892,6.13763,1.35028,5.547,3.26202c-0.88208,2.85529-1.04315,5.6535-0.43109,7.70978&#10;&#9;&#9;&#9;&#9;c1.83319,6.15802,11.96576,10.29224,22.63184,9.23401c10.66602-1.05817,18.35028-8.73163,16.51703-14.88959L797.58429,804.28528z"/><path fill="#F59E0B" d="M797.06042,801.10876c-0.61212-2.05627-2.38232-4.6629-4.86505-7.18439&#10;&#9;&#9;&#9;&#9;c-1.66223-1.68823,0.02747-3.81506,3.34229-4.14398l35.09564-3.48193c2.62335-0.26031,4.38464-1.69922,3.93372-3.21381&#10;&#9;&#9;&#9;&#9;l-6.47552-21.75214c-0.6095-2.04724,2.72974-3.72595,6.17493-3.12714c6.78046,1.17883,14.30975,1.56024,19.30731,1.06439&#10;&#9;&#9;&#9;&#9;c10.66602-1.05817,17.82635-6.9082,15.99316-13.06616c-1.83319-6.15802-11.96582-10.29224-22.63184-9.23401&#10;&#9;&#9;&#9;&#9;c-4.9975,0.49585-11.87427,2.30658-17.58392,4.72455c-2.90112,1.22864-7.01959,0.28973-7.62909-1.75751l-6.47552-21.75208&#10;&#9;&#9;&#9;&#9;c-0.45093-1.51459-2.94312-2.53149-5.56665-2.27118l-35.09564,3.48199c-3.31482,0.32886-5.00452,2.45581-3.34229,4.14398&#10;&#9;&#9;&#9;&#9;c2.48267,2.52148,4.25293,5.12805,4.86499,7.18433c1.83319,6.15802-5.32721,12.008-15.9931,13.06622&#10;&#9;&#9;&#9;&#9;c-10.66589,1.05817-20.79858-3.07605-22.63184-9.23401c-0.61212-2.05627-0.45099-4.85455,0.43115-7.70984&#10;&#9;&#9;&#9;&#9;c0.59058-1.91168-2.23224-3.59094-5.54706-3.26202l-35.09564,3.48199c-2.62335,0.26031-4.38464,1.69922-3.93372,3.21381&#10;&#9;&#9;&#9;&#9;l19.32037,64.89996c0.45087,1.51459,2.94312,2.53149,5.56665,2.27118l35.09564-3.48193&#10;&#9;&#9;&#9;&#9;c3.31482-0.32892,6.13763,1.35028,5.54706,3.26202c-0.88214,2.85529-1.04321,5.6535-0.43115,7.70978&#10;&#9;&#9;&#9;&#9;c1.83319,6.15796,11.96576,10.29218,22.63184,9.23401c10.66602-1.05823,17.82629-6.9082,15.9931-13.06616L797.06042,801.10876z"/><path opacity="0.3" fill="#FFFFFF" d="M797.06042,801.10876&#10;&#9;&#9;&#9;&#9;c-0.61212-2.05627-2.38232-4.6629-4.86505-7.18439c-1.66223-1.68823,0.02747-3.81506,3.34229-4.14398l35.09564-3.48193&#10;&#9;&#9;&#9;&#9;c2.62335-0.26031,4.38464-1.69922,3.93372-3.21381l-6.47552-21.75214c-0.6095-2.04724,2.72974-3.72595,6.17493-3.12714&#10;&#9;&#9;&#9;&#9;c6.78046,1.17883,14.30975,1.56024,19.30731,1.06439c10.66602-1.05817,17.82635-6.9082,15.99316-13.06616&#10;&#9;&#9;&#9;&#9;c-1.83319-6.15802-11.96582-10.29224-22.63184-9.23401c-4.9975,0.49585-11.87427,2.30658-17.58392,4.72455&#10;&#9;&#9;&#9;&#9;c-2.90112,1.22864-7.01959,0.28973-7.62909-1.75751l-6.47552-21.75208c-0.45093-1.51459-2.94312-2.53149-5.56665-2.27118&#10;&#9;&#9;&#9;&#9;l-35.09564,3.48199c-3.31482,0.32886-5.00452,2.45581-3.34229,4.14398c2.48267,2.52148,4.25293,5.12805,4.86499,7.18433&#10;&#9;&#9;&#9;&#9;c1.83319,6.15802-5.32721,12.008-15.9931,13.06622c-10.66589,1.05817-20.79858-3.07605-22.63184-9.23401&#10;&#9;&#9;&#9;&#9;c-0.61212-2.05627-0.45099-4.85455,0.43115-7.70984c0.59058-1.91168-2.23224-3.59094-5.54706-3.26202l-35.09564,3.48199&#10;&#9;&#9;&#9;&#9;c-2.62335,0.26031-4.38464,1.69922-3.93372,3.21381l19.32037,64.89996c0.45087,1.51459,2.94312,2.53149,5.56665,2.27118&#10;&#9;&#9;&#9;&#9;l35.09564-3.48193c3.31482-0.32892,6.13763,1.35028,5.54706,3.26202c-0.88214,2.85529-1.04321,5.6535-0.43115,7.70978&#10;&#9;&#9;&#9;&#9;c1.83319,6.15796,11.96576,10.29218,22.63184,9.23401c10.66602-1.05823,17.82629-6.9082,15.9931-13.06616L797.06042,801.10876z" enable-background="new"/></g><g><path opacity="0.05" fill="#1A1A1A" d="M696.98889,601.76538l16.39417-25.46826l11.64886-18.09656&#10;&#9;&#9;&#9;&#9;c1.17664-1.828-0.43622-3.86072-3.60254-4.5401l-33.6377-7.21814c-4.20416-0.9021-5.31342-4.00049-2.14532-5.83337&#10;&#9;&#9;&#9;&#9;c4.71399-2.72711,8.59973-6.01068,10.25629-8.58423c3.84552-5.974-1.42535-12.61676-11.77271-14.83716&#10;&#9;&#9;&#9;&#9;s-21.85284,0.82245-25.69836,6.79651c-1.65662,2.57349-2.42847,6.52527-1.94348,10.36798&#10;&#9;&#9;&#9;&#9;c0.32593,2.5827-4.01892,4.51068-8.22308,3.60852l-33.6377-7.21808c-3.16632-0.67944-6.68701,0.25165-7.86371,2.07965&#10;&#9;&#9;&#9;&#9;l-11.64886,18.09662c-1.45642,2.26245,1.36469,4.66766,5.54279,4.75549c4.56567,0.09576,8.84442,0.51398,11.9585,1.18219&#10;&#9;&#9;&#9;&#9;c10.34729,2.2204,15.61823,8.86322,11.77271,14.83722s-15.35114,9.01691-25.69843,6.79651&#10;&#9;&#9;&#9;&#9;c-3.11407-0.66821-6.82721-1.96503-10.39307-3.61414c-3.26312-1.50909-8.12024-0.75146-9.57666,1.51105l-11.64886,18.09656&#10;&#9;&#9;&#9;&#9;c-1.1767,1.828,0.43622,3.86072,3.60248,4.5401l31.34448,6.72601c3.91895,0.84088,8.08478-0.78784,8.23651-3.20001&#10;&#9;&#9;&#9;&#9;c0.16589-2.63599,0.89001-5.10638,2.0473-6.90417c3.84546-5.974,15.35114-9.01691,25.69843-6.79651&#10;&#9;&#9;&#9;&#9;c10.34723,2.22046,15.61816,8.86322,11.77264,14.83722c-1.15729,1.79791-3.40338,3.94159-6.25952,6.00037&#10;&#9;&#9;&#9;&#9;c-2.61371,1.88391-1.30127,4.68823,2.61749,5.52911l31.34454,6.72601c3.16626,0.67938,6.68701-0.25171,7.86365-2.07971&#10;&#9;&#9;&#9;&#9;l11.64886-18.09662L696.98889,601.76538z" enable-background="new"/><path fill="#B1B1B1" d="M695.60852,599.9328l16.07263-24.96893l11.42053-17.74182&#10;&#9;&#9;&#9;&#9;c1.15356-1.79218,1.56964-7.64258-1.53455-8.30878l-34.97546-3.21893c-4.1217-0.88446-5.20929-3.92212-2.10321-5.71899&#10;&#9;&#9;&#9;&#9;c4.62158-2.67358,8.43109-5.89288,10.05524-8.41589c3.77008-5.85675,1.16797-15.4693-8.9765-17.64612&#10;&#9;&#9;&#9;&#9;c-10.14453-2.17679-23.98981,3.90631-27.75995,9.76318c-1.62408,2.52301-2.38086,6.3974-1.90527,10.16473&#10;&#9;&#9;&#9;&#9;c0.31952,2.53204-3.94012,4.42218-8.06195,3.53778l-32.97809-7.07648c-3.10419-0.66608-6.55579,0.2467-7.70947,2.03894&#10;&#9;&#9;&#9;&#9;l-11.58539,14.5719c-1.4278,2.2182,1.50293,7.74603,5.599,7.83197c4.4762,0.09399,8.67096,0.50391,11.72406,1.159&#10;&#9;&#9;&#9;&#9;c10.14453,2.17682,15.31189,8.68939,11.54181,14.54633c-3.77014,5.85693-15.05011,8.84009-25.19452,6.66327&#10;&#9;&#9;&#9;&#9;c-3.05304-0.65509-6.69336-1.92651-10.18927-3.54321c-3.19922-1.47949-7.961-0.73682-9.38885,1.48138l-11.09229,12.86127&#10;&#9;&#9;&#9;&#9;c-1.15356,1.79205,0.09943,8.66559,3.20361,9.33167l30.72986,6.59412c3.84204,0.8244,7.92633-0.7724,8.07501-3.13733&#10;&#9;&#9;&#9;&#9;c0.16272-2.58429,0.8725-5.00616,2.00708-6.76886c3.77014-5.85681,15.05011-8.84015,25.19452-6.66333&#10;&#9;&#9;&#9;&#9;s15.31189,8.68939,11.54181,14.54633c-1.13452,1.76257-3.95203,0.07904-6.75201,2.09729&#10;&#9;&#9;&#9;&#9;c-2.56244,1.84686-0.66046,8.38159,3.18158,9.20612l30.72986,6.59406c3.10419,0.66608,6.55591-0.24683,7.70953-2.03894&#10;&#9;&#9;&#9;&#9;l11.42053-17.74176L695.60852,599.9328z"/><path fill="#F59E0B" d="M695.60852,594.9328l16.07263-24.96893l11.42053-17.74182&#10;&#9;&#9;&#9;&#9;c1.15356-1.79218-0.42767-3.78497-3.5318-4.45105l-32.97815-7.07654c-4.1217-0.88452-5.20929-3.92206-2.10321-5.71899&#10;&#9;&#9;&#9;&#9;c4.62158-2.67358,8.43109-5.89288,10.05524-8.41589c3.77008-5.85681-1.3974-12.36938-11.54181-14.54633&#10;&#9;&#9;&#9;&#9;c-10.14441-2.17691-21.42444,0.8064-25.19446,6.66327c-1.62408,2.52301-2.38086,6.3974-1.90533,10.16473&#10;&#9;&#9;&#9;&#9;c0.31952,2.53204-3.94012,4.42218-8.06189,3.53778l-32.97809-7.07648c-3.10419-0.66608-6.55579,0.2467-7.70947,2.03894&#10;&#9;&#9;&#9;&#9;l-11.42053,17.74182c-1.4278,2.2182,1.33801,4.57617,5.43408,4.66217c4.47626,0.09399,8.67102,0.50391,11.72412,1.159&#10;&#9;&#9;&#9;&#9;c10.14447,2.17682,15.31189,8.68939,11.54181,14.54633c-3.77014,5.85693-15.05011,8.84009-25.19452,6.66327&#10;&#9;&#9;&#9;&#9;c-3.05304-0.65509-6.69342-1.92651-10.18933-3.54321c-3.19916-1.47949-7.961-0.73682-9.38879,1.48138l-11.42053,17.74182&#10;&#9;&#9;&#9;&#9;c-1.15356,1.79211,0.42761,3.78503,3.5318,4.45111l30.72992,6.59412c3.84204,0.82434,7.92633-0.7724,8.07501-3.13733&#10;&#9;&#9;&#9;&#9;c0.16266-2.58429,0.8725-5.00623,2.00708-6.76892c3.77014-5.85681,15.05011-8.84009,25.19452-6.66327&#10;&#9;&#9;&#9;&#9;s15.31189,8.68939,11.54181,14.54633c-1.13458,1.76263-3.33655,3.86432-6.13672,5.88269&#10;&#9;&#9;&#9;&#9;c-2.56244,1.84686-1.27576,4.59631,2.56622,5.42065l30.72992,6.59412c3.10419,0.66608,6.55585-0.24683,7.70953-2.03894&#10;&#9;&#9;&#9;&#9;l11.42047-17.74182H695.60852z"/><path opacity="0.3" fill="#FFFFFF" d="M695.60852,594.9328l16.07263-24.96893l11.42053-17.74182&#10;&#9;&#9;&#9;&#9;c1.15356-1.79218-0.42767-3.78497-3.5318-4.45105l-32.97815-7.07654c-4.1217-0.88452-5.20929-3.92206-2.10321-5.71899&#10;&#9;&#9;&#9;&#9;c4.62158-2.67358,8.43109-5.89288,10.05524-8.41589c3.77008-5.85681-1.3974-12.36938-11.54181-14.54633&#10;&#9;&#9;&#9;&#9;c-10.14441-2.17691-21.42444,0.8064-25.19446,6.66327c-1.62408,2.52301-2.38086,6.3974-1.90533,10.16473&#10;&#9;&#9;&#9;&#9;c0.31952,2.53204-3.94012,4.42218-8.06189,3.53778l-32.97809-7.07648c-3.10419-0.66608-6.55579,0.2467-7.70947,2.03894&#10;&#9;&#9;&#9;&#9;l-11.42053,17.74182c-1.4278,2.2182,1.33801,4.57617,5.43408,4.66217c4.47626,0.09399,8.67102,0.50391,11.72412,1.159&#10;&#9;&#9;&#9;&#9;c10.14447,2.17682,15.31189,8.68939,11.54181,14.54633c-3.77014,5.85693-15.05011,8.84009-25.19452,6.66327&#10;&#9;&#9;&#9;&#9;c-3.05304-0.65509-6.69342-1.92651-10.18933-3.54321c-3.19916-1.47949-7.961-0.73682-9.38879,1.48138l-11.42053,17.74182&#10;&#9;&#9;&#9;&#9;c-1.15356,1.79211,0.42761,3.78503,3.5318,4.45111l30.72992,6.59412c3.84204,0.82434,7.92633-0.7724,8.07501-3.13733&#10;&#9;&#9;&#9;&#9;c0.16266-2.58429,0.8725-5.00623,2.00708-6.76892c3.77014-5.85681,15.05011-8.84009,25.19452-6.66327&#10;&#9;&#9;&#9;&#9;s15.31189,8.68939,11.54181,14.54633c-1.13458,1.76263-3.33655,3.86432-6.13672,5.88269&#10;&#9;&#9;&#9;&#9;c-2.56244,1.84686-1.27576,4.59631,2.56622,5.42065l30.72992,6.59412c3.10419,0.66608,6.55585-0.24683,7.70953-2.03894&#10;&#9;&#9;&#9;&#9;l11.42047-17.74182H695.60852z" enable-background="new"/></g><g><path opacity="0.05" fill="#1A1A1A" d="M156.18839,686.09741&#10;&#9;&#9;&#9;&#9;c-3.284-0.29022-7.6207-0.19922-12.12531,0.24091c-4.12219,0.40283-7.72879-1.62262-7.09639-4.00861l5.05769-19.08386&#10;&#9;&#9;&#9;&#9;c0.51091-1.9278-1.7818-3.72974-5.12079-4.02472l-35.4727-3.13434c-4.43349-0.39166-6.6069-3.2962-4.1476-5.46155&#10;&#9;&#9;&#9;&#9;c3.6594-3.22192,6.3123-6.89203,7.0316-9.6059c1.6696-6.29987-5.82269-12.1886-16.73449-13.15265&#10;&#9;&#9;&#9;&#9;c-10.9118-0.96411-21.1111,3.36139-22.7807,9.66125c-0.7192,2.71387-0.0885,6.67407,1.7348,10.38037&#10;&#9;&#9;&#9;&#9;c1.2253,2.49097-2.3529,4.88721-6.7864,4.49548l-35.4727-3.13434c-3.339-0.29504-6.46,1.0285-6.9709,2.9563l-3.6096,13.62&#10;&#9;&#9;&#9;&#9;l-1.4481,5.46387l-7.0544,26.61829l0.0253,0.0022c-0.0305,0.07892-0.0672,0.15582-0.0888,0.2373L0.0712,717.25159&#10;&#9;&#9;&#9;&#9;c-0.5109,1.92773,1.7818,3.72968,5.1208,4.02472l33.05439,2.92059c4.1326,0.36511,7.6407-1.71704,6.9429-4.09698&#10;&#9;&#9;&#9;&#9;c-0.7624-2.60077-0.9202-5.10455-0.4177-7.00055c1.6696-6.29993,11.8689-10.62537,22.7807-9.66132&#10;&#9;&#9;&#9;&#9;s18.4041,6.85278,16.7345,13.15265c-0.5025,1.896-1.9498,4.258-4.0243,6.60815c-1.89849,2.15051,0.3706,4.74316,4.5033,5.1084&#10;&#9;&#9;&#9;&#9;l33.0544,2.92059c3.339,0.29504,6.45999-1.02856,6.97089-2.9563l5.05769-19.08398&#10;&#9;&#9;&#9;&#9;c0.63231-2.38605,5.1228-3.69592,8.84781-2.59979c4.07059,1.19781,8.1617,2.03339,11.44569,2.32361&#10;&#9;&#9;&#9;&#9;c10.9118,0.96411,21.11111-3.36145,22.7807-9.66138c1.6696-6.29987-5.82269-12.18854-16.7345-13.15265L156.18839,686.09741z" enable-background="new"/><path fill="#B1B1B1" d="M154.60759,685.39679c-3.231,0.08698-7.47121-0.19531-11.8876,0.23621&#10;&#9;&#9;&#9;&#9;c-4.0414,0.3949-7.57719-1.59082-6.95729-3.92999l4.95848-18.70972c0.5009-1.89001,1.11951-6.79065-2.1541-7.0799&#10;&#9;&#9;&#9;&#9;l-37.64339,0.0614c-4.3466-0.38403-6.4774-3.23151-4.0662-5.35455c3.58759-3.15869,6.1886-6.75677,6.8937-9.41748&#10;&#9;&#9;&#9;&#9;c1.63689-6.17639-0.48621-13.34412-11.184-14.28925c-10.69779-0.94519-26.3631,1.82361-28,8&#10;&#9;&#9;&#9;&#9;c-0.7051,2.66071,0.3569,9.40961,2.1444,13.04315c1.2013,2.4422-2.3068,4.79144-6.6533,4.40747l-34.7771-3.07281&#10;&#9;&#9;&#9;&#9;c-3.2735-0.28925-6.3333,1.00836-6.8342,2.89832l-3.5388,13.35291l-1.4197,5.35681l-6.9161,26.09644l0.0248,0.0022&#10;&#9;&#9;&#9;&#9;c-0.0299,0.07727-5.0088,14.83563-5.0299,14.91559l-0.0156,4.02679c-0.5009,1.88989,1.7468,3.65649,5.0204,3.9458&#10;&#9;&#9;&#9;&#9;l32.4063,2.86328c4.0516,0.35797,6.4172-1.61658,6.8068-4.01672c0.7822-4.81915-0.9021-5.00446-0.4095-6.86328&#10;&#9;&#9;&#9;&#9;c1.6369-6.17639,11.6362-10.41711,22.334-9.47186c10.6978,0.94531,18.04321,6.71857,16.4064,12.89484&#10;&#9;&#9;&#9;&#9;c-0.4926,1.85883-4.1519,1.76361-4.5486,4.62115c-0.3868,2.78571,0.9666,6.50769,5.0183,6.8656l32.4063,2.86328&#10;&#9;&#9;&#9;&#9;c3.2735,0.28925,6.33331-1.00836,6.8342-2.89832l4.9585-18.70978c0.6199-2.33917,5.0224-3.62341,8.6743-2.54883&#10;&#9;&#9;&#9;&#9;c3.99069,1.17432,8.0016,1.99365,11.22119,2.27814c10.69791,0.94519,20.6971-3.29553,22.334-9.4718&#10;&#9;&#9;&#9;&#9;c1.63692-6.17633,1.55319-13.3783-16.40639-12.89484L154.60759,685.39679z"/><path fill="#F59E0B" d="M154.60759,680.39679c-3.2196-0.28448-7.47121-0.19531-11.8876,0.23621&#10;&#9;&#9;&#9;&#9;c-4.0414,0.3949-7.57719-1.59082-6.95729-3.92999l4.95848-18.70972c0.5009-1.89001-1.7468-3.65643-5.02039-3.94574&#10;&#9;&#9;&#9;&#9;l-34.7771-3.07281c-4.3466-0.38409-6.4774-3.23151-4.0662-5.35449c3.5876-3.15869,6.1886-6.75677,6.8937-9.41748&#10;&#9;&#9;&#9;&#9;c1.63689-6.17639-5.7085-11.94958-16.4064-12.89478c-10.69789-0.94513-20.69709,3.29553-22.334,9.4718&#10;&#9;&#9;&#9;&#9;c-0.7051,2.66077-0.0868,6.54321,1.70081,10.17688c1.2013,2.4422-2.3068,4.79144-6.6533,4.40747l-34.7771-3.07281&#10;&#9;&#9;&#9;&#9;c-3.2735-0.28925-6.3333,1.00836-6.8342,2.89832l-3.5388,13.35291l-1.4197,5.35681l-6.9161,26.09644l0.0248,0.0022&#10;&#9;&#9;&#9;&#9;c-0.0299,0.07727-0.0659,0.15283-0.0871,0.23267l-4.9585,18.70984c-0.5009,1.88983,1.7468,3.65643,5.0204,3.94574&#10;&#9;&#9;&#9;&#9;l32.4063,2.86334c4.0516,0.35797,7.4909-1.68347,6.8068-4.01672c-0.7475-2.54987-0.9021-5.00452-0.4095-6.86334&#10;&#9;&#9;&#9;&#9;c1.6369-6.17639,11.6362-10.41711,22.334-9.4718c10.69779,0.94525,18.0432,6.71851,16.40639,12.89478&#10;&#9;&#9;&#9;&#9;c-0.4926,1.85883-1.9116,4.1745-3.9454,6.47852c-1.8613,2.1084,0.3634,4.65021,4.415,5.00818l32.4063,2.86328&#10;&#9;&#9;&#9;&#9;c3.2735,0.28925,6.33331-1.00836,6.8342-2.89832l4.9585-18.70978c0.61989-2.33917,5.0224-3.62341,8.67429-2.54883&#10;&#9;&#9;&#9;&#9;c3.99071,1.17432,8.0016,1.99365,11.22121,2.27814c10.69789,0.94519,20.6971-3.29553,22.334-9.4718&#10;&#9;&#9;&#9;&#9;c1.6369-6.17633-5.70851-11.94965-16.4064-12.89484L154.60759,680.39679z"/><path opacity="0.5" fill="#FFFFFF" d="M154.60759,680.39679&#10;&#9;&#9;&#9;&#9;c-3.2196-0.28448-7.47121-0.19531-11.8876,0.23621c-4.0414,0.3949-7.57719-1.59082-6.95729-3.92999l4.95848-18.70972&#10;&#9;&#9;&#9;&#9;c0.5009-1.89001-1.7468-3.65643-5.02039-3.94574l-34.7771-3.07281c-4.3466-0.38409-6.4774-3.23151-4.0662-5.35449&#10;&#9;&#9;&#9;&#9;c3.5876-3.15869,6.1886-6.75677,6.8937-9.41748c1.63689-6.17639-5.7085-11.94958-16.4064-12.89478&#10;&#9;&#9;&#9;&#9;c-10.69789-0.94513-20.69709,3.29553-22.334,9.4718c-0.7051,2.66077-0.0868,6.54321,1.70081,10.17688&#10;&#9;&#9;&#9;&#9;c1.2013,2.4422-2.3068,4.79144-6.6533,4.40747l-34.7771-3.07281c-3.2735-0.28925-6.3333,1.00836-6.8342,2.89832l-3.5388,13.35291&#10;&#9;&#9;&#9;&#9;l-1.4197,5.35681l-6.9161,26.09644l0.0248,0.0022c-0.0299,0.07727-0.0659,0.15283-0.0871,0.23267l-4.9585,18.70984&#10;&#9;&#9;&#9;&#9;c-0.5009,1.88983,1.7468,3.65643,5.0204,3.94574l32.4063,2.86334c4.0516,0.35797,7.4909-1.68347,6.8068-4.01672&#10;&#9;&#9;&#9;&#9;c-0.7475-2.54987-0.9021-5.00452-0.4095-6.86334c1.6369-6.17639,11.6362-10.41711,22.334-9.4718&#10;&#9;&#9;&#9;&#9;c10.69779,0.94525,18.0432,6.71851,16.40639,12.89478c-0.4926,1.85883-1.9116,4.1745-3.9454,6.47852&#10;&#9;&#9;&#9;&#9;c-1.8613,2.1084,0.3634,4.65021,4.415,5.00818l32.4063,2.86328c3.2735,0.28925,6.33331-1.00836,6.8342-2.89832l4.9585-18.70978&#10;&#9;&#9;&#9;&#9;c0.61989-2.33917,5.0224-3.62341,8.67429-2.54883c3.99071,1.17432,8.0016,1.99365,11.22121,2.27814&#10;&#9;&#9;&#9;&#9;c10.69789,0.94519,20.6971-3.29553,22.334-9.4718c1.6369-6.17633-5.70851-11.94965-16.4064-12.89484L154.60759,680.39679z" enable-background="new"/></g><g><path opacity="0.05" fill="#1A1A1A" d="M934.55518,952.92572&#10;&#9;&#9;&#9;&#9;c-1.49939-1.71161-4.14777-3.69641-7.38599-5.55737c-2.96332-1.70276-2.20416-4.5744,1.52655-5.66364l29.83978-8.71277&#10;&#9;&#9;&#9;&#9;c3.01428-0.88013,4.22186-3.00439,2.69739-4.74475l-4.00531-4.5722l-12.19073-13.91638l-19.03137-21.7254l-16.19598-18.48865&#10;&#9;&#9;&#9;&#9;c-1.52454-1.74023-5.20398-2.43762-8.21826-1.55743l-29.83978,8.71277c-3.73071,1.08929-4.48987,3.96082-1.52655,5.6637&#10;&#9;&#9;&#9;&#9;c3.23822,1.86078,5.8866,3.84558,7.38599,5.55731c4.98212,5.68732,1.0354,12.62946-8.81519,15.50568&#10;&#9;&#9;&#9;&#9;c-9.85065,2.87622-21.87494,0.59735-26.85699-5.0899c-1.49945-1.71155-2.69897-4.11945-3.37604-6.72809&#10;&#9;&#9;&#9;&#9;c-0.61957-2.38727-5.07562-3.7359-8.80627-2.64667l-29.83978,8.71277c-3.01422,0.88013-4.22186,3.00439-2.69739,4.74475&#10;&#9;&#9;&#9;&#9;l15.09192,17.22815c1.8869,2.15399,6.8606,2.59241,9.80981,0.88159c3.22302-1.86951,6.66071-3.39856,9.62518-4.2641&#10;&#9;&#9;&#9;&#9;c9.85059-2.87622,21.87488-0.59735,26.85699,5.0899c4.98206,5.68726,1.03534,12.62946-8.81525,15.50568&#10;&#9;&#9;&#9;&#9;c-2.96448,0.8656-7.13507,1.55804-11.65332,1.94891c-4.13458,0.3576-6.47052,2.9303-4.58362,5.08429l15.09192,17.22815&#10;&#9;&#9;&#9;&#9;c1.52448,1.7403,5.20392,2.43762,8.2182,1.5575l29.83978-8.71277c3.73071-1.08936,8.18677,0.2594,8.80634,2.64661&#10;&#9;&#9;&#9;&#9;c0.67712,2.60858,1.87659,5.01648,3.37598,6.72815c4.98212,5.68732,17.00641,7.96625,26.85699,5.08984&#10;&#9;&#9;&#9;&#9;c9.85065-2.87634,13.7973-9.81836,8.81525-15.50562H934.55518z" enable-background="new"/><path fill="#B1B1B1" d="M933.49622,950.25281c-1.47003-1.6781-4.06635-3.62396-7.24109-5.4483&#10;&#9;&#9;&#9;&#9;c-2.90521-1.66937-2.16089-3.48474,1.4967-4.55261l29.2547-8.54199c2.95514-0.86292,4.05536-6.09039,2.56079-7.79663&#10;&#9;&#9;&#9;&#9;l-3.84302-1.33777l-11.95166-13.64349l-18.65826-21.29944l-15.87854-18.12604c-1.49463-1.70624-5.10181-2.38995-8.05701-1.52704&#10;&#9;&#9;&#9;&#9;l-30.61151,4.93378c-3.65759,1.06793-3.04498,7.49139-0.13977,9.16077c3.17468,1.82428,5.77118,3.7702,7.24115,5.4483&#10;&#9;&#9;&#9;&#9;c4.8844,5.57581,1.01508,12.38184-8.64246,15.20172s-21.44592,0.58569-26.33026-4.99011&#10;&#9;&#9;&#9;&#9;c-1.47003-1.67804-2.646-4.0387-3.30975-6.59619c-0.60742-2.34039-4.97614-3.66272-8.63361-2.59467l-29.18518,4.37018&#10;&#9;&#9;&#9;&#9;c-2.95508,0.86285-4.20868,7.11731-2.71405,8.82349l14.79596,16.89038c1.84991,2.11169,6.72607,2.5415,9.61749,0.86432&#10;&#9;&#9;&#9;&#9;c3.15979-1.83276,6.53003-3.33191,9.43646-4.18048c9.65735-2.81982,21.44592-0.58575,26.33026,4.99005&#10;&#9;&#9;&#9;&#9;s1.01508,12.38184-8.6424,15.20172c-2.90643,0.84863-8.39417-1.97247-12.82391-1.58929&#10;&#9;&#9;&#9;&#9;c-4.05353,0.35059-4.94464,6.37292-3.09479,8.48462l14.79602,16.89038c1.49457,1.70624,5.10193,2.38983,8.05701,1.52704&#10;&#9;&#9;&#9;&#9;l29.2547-8.54205c3.65759-1.06793,8.02618,0.25439,8.63354,2.59473c0.66388,2.5575,1.83984,4.91809,3.30981,6.59619&#10;&#9;&#9;&#9;&#9;c4.8844,5.57581,16.67291,7.81,26.33032,4.99005c9.65747-2.81989,13.52679-10.62585,8.64246-16.20166L933.49622,950.25281z"/><path fill="#F59E0B" d="M933.49622,946.25281c-1.47003-1.6781-4.06635-3.62396-7.24109-5.4483&#10;&#9;&#9;&#9;&#9;c-2.90521-1.66937-2.16089-4.48474,1.4967-5.55261l29.2547-8.54199c2.95514-0.86292,4.1391-2.9455,2.64447-4.65173&#10;&#9;&#9;&#9;&#9;l-3.9267-4.4826l-11.95166-13.64349l-18.65826-21.29932l-15.87854-18.1261c-1.49463-1.70624-5.10181-2.38989-8.05701-1.52704&#10;&#9;&#9;&#9;&#9;l-29.2547,8.54205c-3.65759,1.06793-4.40179,3.88318-1.49677,5.55261c3.17468,1.82422,5.77118,3.7702,7.24115,5.4483&#10;&#9;&#9;&#9;&#9;c4.8844,5.57574,1.01508,12.38177-8.6424,15.20172c-9.65753,2.81989-21.44592,0.58569-26.33026-4.99011&#10;&#9;&#9;&#9;&#9;c-1.47003-1.6781-2.64606-4.0387-3.30981-6.59619c-0.60736-2.34039-4.97614-3.66272-8.63354-2.59473l-29.2547,8.54205&#10;&#9;&#9;&#9;&#9;c-2.95508,0.86285-4.1391,2.9455-2.64447,4.65173l14.79596,16.89038c1.84991,2.11169,6.72607,2.5415,9.61743,0.86432&#10;&#9;&#9;&#9;&#9;c3.15979-1.83276,6.53009-3.33191,9.43652-4.18048c9.65735-2.81982,21.44592-0.58575,26.33032,4.99005&#10;&#9;&#9;&#9;&#9;s1.01508,12.38184-8.6424,15.20172c-2.90643,0.84863-6.99518,1.52747-11.4248,1.91071&#10;&#9;&#9;&#9;&#9;c-4.05359,0.35059-6.34369,2.87292-4.4939,4.98462l14.79602,16.89038c1.49457,1.70624,5.10193,2.38983,8.05701,1.52704&#10;&#9;&#9;&#9;&#9;l29.2547-8.54205c3.65759-1.06793,8.02618,0.25439,8.63354,2.59473c0.66388,2.5575,1.83984,4.91809,3.30981,6.59619&#10;&#9;&#9;&#9;&#9;c4.8844,5.57581,16.67291,7.81,26.33032,4.99005c9.65747-2.81989,13.52679-9.62592,8.64246-15.20166L933.49622,946.25281z"/><path opacity="0.5" fill="#FFFFFF" d="M933.49622,946.25281&#10;&#9;&#9;&#9;&#9;c-1.47003-1.6781-4.06635-3.62396-7.24109-5.4483c-2.90521-1.66937-2.16089-4.48474,1.4967-5.55261l29.2547-8.54199&#10;&#9;&#9;&#9;&#9;c2.95514-0.86292,4.1391-2.9455,2.64447-4.65173l-3.9267-4.4826l-11.95166-13.64349l-18.65826-21.29932l-15.87854-18.1261&#10;&#9;&#9;&#9;&#9;c-1.49463-1.70624-5.10181-2.38989-8.05701-1.52704l-29.2547,8.54205c-3.65759,1.06793-4.40179,3.88318-1.49677,5.55261&#10;&#9;&#9;&#9;&#9;c3.17468,1.82422,5.77118,3.7702,7.24115,5.4483c4.8844,5.57574,1.01508,12.38177-8.6424,15.20172&#10;&#9;&#9;&#9;&#9;c-9.65753,2.81989-21.44592,0.58569-26.33026-4.99011c-1.47003-1.6781-2.64606-4.0387-3.30981-6.59619&#10;&#9;&#9;&#9;&#9;c-0.60736-2.34039-4.97614-3.66272-8.63354-2.59473l-29.2547,8.54205c-2.95508,0.86285-4.1391,2.9455-2.64447,4.65173&#10;&#9;&#9;&#9;&#9;l14.79596,16.89038c1.84991,2.11169,6.72607,2.5415,9.61743,0.86432c3.15979-1.83276,6.53009-3.33191,9.43652-4.18048&#10;&#9;&#9;&#9;&#9;c9.65735-2.81982,21.44592-0.58575,26.33032,4.99005s1.01508,12.38184-8.6424,15.20172&#10;&#9;&#9;&#9;&#9;c-2.90643,0.84863-6.99518,1.52747-11.4248,1.91071c-4.05359,0.35059-6.34369,2.87292-4.4939,4.98462l14.79602,16.89038&#10;&#9;&#9;&#9;&#9;c1.49457,1.70624,5.10193,2.38983,8.05701,1.52704l29.2547-8.54205c3.65759-1.06793,8.02618,0.25439,8.63354,2.59473&#10;&#9;&#9;&#9;&#9;c0.66388,2.5575,1.83984,4.91809,3.30981,6.59619c4.8844,5.57581,16.67291,7.81,26.33032,4.99005&#10;&#9;&#9;&#9;&#9;c9.65747-2.81989,13.52679-9.62592,8.64246-15.20166L933.49622,946.25281z" enable-background="new"/></g><g><path opacity="0.05" fill="#1A1A1A" d="M1126.84924,851.409&#10;&#9;&#9;&#9;&#9;c-1.80933-1.60876-4.81213-3.4176-8.37793-5.06665c-3.26318-1.50897-3.04309-4.41101,0.46326-5.72559l28.04443-10.51453&#10;&#9;&#9;&#9;&#9;c2.83276-1.06213,3.63794-3.24915,1.7981-4.88477l-3.47266-3.08734l-16.07202-14.28888l-22.96655-20.41833l-19.5448-17.37628&#10;&#9;&#9;&#9;&#9;c-1.8396-1.63562-5.62756-2.10052-8.46045-1.03845l-20.01501,7.50409l-8.02942,3.01044l-39.11627,14.66559l0.01404,0.01245&#10;&#9;&#9;&#9;&#9;c-0.12231,0.03931-0.24622,0.07471-0.36591,0.11963l-28.04443,10.51453c-2.83289,1.06207-3.638,3.24908-1.79834,4.8847&#10;&#9;&#9;&#9;&#9;l18.21246,16.19171c2.27698,2.02435,7.30347,2.15149,9.91705,0.26758c2.8562-2.05872,5.9892-3.79224,8.77539-4.83691&#10;&#9;&#9;&#9;&#9;c9.25793-3.47101,21.63684-1.95166,27.64905,3.39349s3.38098,12.49207-5.87683,15.96295&#10;&#9;&#9;&#9;&#9;c-2.78613,1.04462-6.80359,1.99188-11.2229,2.66101c-4.04407,0.61218-5.88751,3.31494-3.61047,5.33929l18.2124,16.19171&#10;&#9;&#9;&#9;&#9;c1.8396,1.63556,5.62769,2.10052,8.46057,1.03839l28.04443-10.51453c3.50635-1.31458,8.18762-0.25012,9.24805,2.08478&#10;&#9;&#9;&#9;&#9;c1.15881,2.55145,2.7998,4.87091,4.60913,6.47955c6.01221,5.34509,18.39111,6.86444,27.64905,3.39349&#10;&#9;&#9;&#9;&#9;c9.25781-3.47101,11.88904-10.61792,5.87671-15.96301L1126.84924,851.409z" enable-background="new"/><path fill="#B1B1B1" d="M1125.56702,845.91327c-1.77393-1.57703-4.71472,0.51831-8.21057-1.09845&#10;&#9;&#9;&#9;&#9;c-3.19934-1.47943-2.9834-4.32458,0.4541-5.6134l27.49438-10.30829c2.77747-1.04138,4.06665-6.37628,2.26306-7.97992&#10;&#9;&#9;&#9;&#9;l-3.90454,0.16412l-15.75696-14.00879l-22.51611-20.01801l-19.16162-17.03558c-1.80371-1.60345-5.51721-2.05939-8.29456-1.01807&#10;&#9;&#9;&#9;&#9;l-19.62256,7.35687l-7.87195,2.95142l-38.34924,14.37799l0.01373,0.01221c-0.11993,0.03857-0.24139,0.07318-0.35876,0.11719&#10;&#9;&#9;&#9;&#9;l-28.17804,6.10046c-2.7774,1.04132-2.88318,7.39307-1.07959,8.9967l17.85529,15.87421&#10;&#9;&#9;&#9;&#9;c2.23242,1.98468,7.16028,2.10938,9.7226,0.26227c2.80023-2.01825,5.87183-3.7179,8.60333-4.74194&#10;&#9;&#9;&#9;&#9;c9.07635-3.40289,21.21246-1.91339,27.10675,3.32684c5.89441,5.24023,3.31482,12.24707-5.76147,15.65002&#10;&#9;&#9;&#9;&#9;c-2.73169,1.02411-8.11438-2.02405-12.4469-1.36816c-3.96478,0.60022-4.32794,7.22687-2.09558,9.21155l17.85535,15.87421&#10;&#9;&#9;&#9;&#9;c1.80371,1.60345,5.51733,2.05933,8.29468,1.01801l27.49451-10.30835c3.4375-1.28882,8.02698-0.24524,9.06665,2.04376&#10;&#9;&#9;&#9;&#9;c1.13623,2.50153,2.745,4.77539,4.51892,6.35266c5.89429,5.2403,18.03052,6.72986,27.10681,3.32684&#10;&#9;&#9;&#9;&#9;s11.65295-14.2785,5.75867-19.5188L1125.56702,845.91327z"/><path fill="#F59E0B" d="M1125.56995,844.7821c-1.77393-1.57709-4.71765-3.35052-8.21375-4.96729&#10;&#9;&#9;&#9;&#9;c-3.19922-1.47943-2.9834-4.32458,0.4541-5.6134l27.49451-10.30829c2.77747-1.04138,3.56665-3.1853,1.76306-4.78894&#10;&#9;&#9;&#9;&#9;l-3.40466-3.02679l-15.75696-14.00879l-22.51611-20.01801l-19.16162-17.03558c-1.80359-1.60345-5.51721-2.05939-8.29456-1.01807&#10;&#9;&#9;&#9;&#9;l-19.62256,7.35687l-7.87195,2.95142l-38.34924,14.37799l0.01373,0.01221c-0.11993,0.03864-0.24139,0.07318-0.35876,0.11719&#10;&#9;&#9;&#9;&#9;l-27.49451,10.30829c-2.7774,1.04132-3.56665,3.18542-1.76306,4.78888l17.85529,15.87421&#10;&#9;&#9;&#9;&#9;c2.23248,1.98468,7.16028,2.10938,9.7226,0.26227c2.80023-2.01825,5.87183-3.71783,8.60339-4.74194&#10;&#9;&#9;&#9;&#9;c9.07635-3.40289,21.21246-1.91339,27.10675,3.32684c5.89429,5.2403,3.31482,12.24713-5.7616,15.65002&#10;&#9;&#9;&#9;&#9;c-2.73157,1.02411-6.67017,1.95294-11.00281,2.60883c-3.96472,0.60022-5.77197,3.24994-3.53967,5.23462l17.85535,15.87415&#10;&#9;&#9;&#9;&#9;c1.80359,1.60345,5.51721,2.05933,8.29468,1.01801l27.49451-10.30829c3.4375-1.28888,8.02686-0.2453,9.06665,2.04376&#10;&#9;&#9;&#9;&#9;c1.13611,2.50153,2.74487,4.77539,4.51892,6.3526c5.89429,5.2403,18.0304,6.72986,27.10669,3.32684&#10;&#9;&#9;&#9;&#9;s11.65588-10.40967,5.7616-15.65002V844.7821z"/><path opacity="0.3" fill="#FFFFFF" d="M1125.56995,844.7821&#10;&#9;&#9;&#9;&#9;c-1.77393-1.57709-4.71765-3.35052-8.21375-4.96729c-3.19922-1.47943-2.9834-4.32458,0.4541-5.6134l27.49451-10.30829&#10;&#9;&#9;&#9;&#9;c2.77747-1.04138,3.56665-3.1853,1.76306-4.78894l-3.40466-3.02679l-15.75696-14.00879l-22.51611-20.01801l-19.16162-17.03558&#10;&#9;&#9;&#9;&#9;c-1.80359-1.60345-5.51721-2.05939-8.29456-1.01807l-19.62256,7.35687l-7.87195,2.95142l-38.34924,14.37799l0.01373,0.01221&#10;&#9;&#9;&#9;&#9;c-0.11993,0.03864-0.24139,0.07318-0.35876,0.11719l-27.49451,10.30829c-2.7774,1.04132-3.56665,3.18542-1.76306,4.78888&#10;&#9;&#9;&#9;&#9;l17.85529,15.87421c2.23248,1.98468,7.16028,2.10938,9.7226,0.26227c2.80023-2.01825,5.87183-3.71783,8.60339-4.74194&#10;&#9;&#9;&#9;&#9;c9.07635-3.40289,21.21246-1.91339,27.10675,3.32684c5.89429,5.2403,3.31482,12.24713-5.7616,15.65002&#10;&#9;&#9;&#9;&#9;c-2.73157,1.02411-6.67017,1.95294-11.00281,2.60883c-3.96472,0.60022-5.77197,3.24994-3.53967,5.23462l17.85535,15.87415&#10;&#9;&#9;&#9;&#9;c1.80359,1.60345,5.51721,2.05933,8.29468,1.01801l27.49451-10.30829c3.4375-1.28888,8.02686-0.2453,9.06665,2.04376&#10;&#9;&#9;&#9;&#9;c1.13611,2.50153,2.74487,4.77539,4.51892,6.3526c5.89429,5.2403,18.0304,6.72986,27.10669,3.32684&#10;&#9;&#9;&#9;&#9;s11.65588-10.40967,5.7616-15.65002V844.7821z" enable-background="new"/></g><g><path opacity="0.05" fill="#1A1A1A" d="M1009.94702,677.34259l6.47131-12.17957l3.33527-6.2774&#10;&#9;&#9;&#9;&#9;c0.99072-1.86444-0.8241-3.83954-4.05353-4.41162l-34.30768-6.07672c-4.28784-0.75952-5.70728-3.81537-2.72906-5.75146&#10;&#9;&#9;&#9;&#9;c4.43134-2.88074,7.9798-6.28931,9.37439-8.914c3.2373-6.09302-2.69348-12.54761-13.24701-14.41687&#10;&#9;&#9;&#9;&#9;c-10.55353-1.86932-21.73309,1.55469-24.9704,7.64771c-1.39459,2.62482-1.76721,6.59576-0.896,10.41565&#10;&#9;&#9;&#9;&#9;c0.58539,2.56732-3.55786,4.638-7.84576,3.87848l-34.30762-6.07666c-3.22931-0.57202-6.65033,0.47565-7.64093,2.34021&#10;&#9;&#9;&#9;&#9;l-9.80658,18.45697c-1.22614,2.30762,1.83252,4.61414,6.01227,4.56134c4.56757-0.05756,8.88123,0.21619,12.05725,0.77881&#10;&#9;&#9;&#9;&#9;c10.55347,1.86926,16.48431,8.32391,13.24701,14.41687c-3.2373,6.09302-14.41705,9.51697-24.9704,7.64771&#10;&#9;&#9;&#9;&#9;c-3.17615-0.56256-7.01349-1.7326-10.7395-3.25909c-3.40961-1.39703-8.18207-0.47772-9.4082,1.8299l-9.8067,18.45709&#10;&#9;&#9;&#9;&#9;c-0.9906,1.86438,0.82422,3.8396,4.05359,4.41162l26.39868,4.67584l5.57007,0.98663l44.99164,7.96899l1.98724,0.35199&#10;&#9;&#9;&#9;&#9;l29.98151,5.31036c3.22949,0.57196,6.65033-0.47577,7.64093-2.34015l0.40448-0.76117l9.40222-17.69592l13.80145-25.97559&#10;&#9;&#9;&#9;&#9;L1009.94702,677.34259z" enable-background="new"/><path fill="#B1B1B1" d="M1008.48895,675.99347l6.34442-11.94073l3.26984-6.15436c0.97125-1.828,0.46375-9.98511-3.97406-4.32507&#10;&#9;&#9;&#9;&#9;l-33.63489-5.95752c-4.2038-0.74463-5.5954-3.7406-2.6756-5.63879c4.34448-2.82422,7.8233-6.16595,9.19061-8.7392&#10;&#9;&#9;&#9;&#9;c3.17389-5.97351-0.4422-16.32446-12.98724-14.13422c-10.35101,1.80725-21.30688,1.52435-24.48077,7.4978&#10;&#9;&#9;&#9;&#9;c-1.36719,2.5733-1.73248,6.46649-0.87842,10.21149c0.57404,2.51703-3.48804,4.547-7.69183,3.80237l-33.63489-5.95746&#10;&#9;&#9;&#9;&#9;c-3.16595-0.56085-6.51996-3.53375-7.49109-1.70575l-9.61438,18.09509c-1.20203,2.26245-1.66351,8.86615,5.89447,8.47192&#10;&#9;&#9;&#9;&#9;c4.47223-0.23334,8.70709,0.21204,11.82086,0.76349c10.34656,1.83258,16.16113,8.16071,12.98724,14.13422&#10;&#9;&#9;&#9;&#9;s-14.13428,9.33032-24.48083,7.49774c-3.11395-0.55151-6.87598-1.69861-10.52887-3.19519&#10;&#9;&#9;&#9;&#9;c-3.34265-1.36963-8.02167-0.46826-9.22369,1.79401l-9.13263,14.39984c0,0-0.9635,1.39062-0.48181,3.69531&#10;&#9;&#9;&#9;&#9;c0.48175,2.30469,0.80811,3.76428,3.97412,4.32513l25.88092,4.58411l5.46094,0.96735l44.10938,7.81281l1.94836,0.34503&#10;&#9;&#9;&#9;&#9;l29.39368,5.2063c3.1662,0.56085,6.5199-0.46637,7.49103-2.29431l0.39655-0.74628l9.2179-17.34894l13.53082-25.46625&#10;&#9;&#9;&#9;&#9;L1008.48895,675.99347z"/><path fill="#F59E0B" d="M1008.48895,670.99347l6.34442-11.94073l3.26984-6.15436c0.97125-1.828-0.80786-3.76422-3.97406-4.32507&#10;&#9;&#9;&#9;&#9;l-33.63489-5.95752c-4.2038-0.74463-5.5954-3.7406-2.6756-5.63879c4.34448-2.82422,7.8233-6.16595,9.19061-8.7392&#10;&#9;&#9;&#9;&#9;c3.17389-5.97351-2.64069-12.30157-12.98724-14.13422c-10.3465-1.83258-21.30688,1.52435-24.48077,7.4978&#10;&#9;&#9;&#9;&#9;c-1.36719,2.5733-1.73248,6.46649-0.87842,10.21149c0.57404,2.51703-3.48804,4.547-7.69183,3.80243l-33.63489-5.95752&#10;&#9;&#9;&#9;&#9;c-3.16595-0.56079-6.51996,0.46631-7.49109,2.29431l-9.61438,18.09515c-1.20203,2.26239,1.79657,4.52362,5.89447,4.47186&#10;&#9;&#9;&#9;&#9;c4.47803-0.0564,8.70709,0.21204,11.82086,0.76349c10.34656,1.83258,16.16113,8.16071,12.98724,14.13422&#10;&#9;&#9;&#9;&#9;s-14.13428,9.33038-24.48083,7.4978c-3.11395-0.55157-6.87598-1.69861-10.52887-3.19519&#10;&#9;&#9;&#9;&#9;c-3.34265-1.36963-8.02167-0.46832-9.22369,1.79395l-9.61444,18.09515c-0.97119,1.82794,0.80811,3.76428,3.97412,4.32513&#10;&#9;&#9;&#9;&#9;l25.88092,4.58411l5.46094,0.96735l44.10938,7.81281l1.94836,0.34509l29.39368,5.2063&#10;&#9;&#9;&#9;&#9;c3.1662,0.56079,6.5199-0.46643,7.49103-2.29431l0.39655-0.74634l9.2179-17.34888l13.53082-25.46619L1008.48895,670.99347z"/><path opacity="0.5" fill="#FFFFFF" d="M1008.48895,670.99347l6.34442-11.94073l3.26984-6.15436&#10;&#9;&#9;&#9;&#9;c0.97125-1.828-0.80786-3.76422-3.97406-4.32507l-33.63489-5.95752c-4.2038-0.74463-5.5954-3.7406-2.6756-5.63879&#10;&#9;&#9;&#9;&#9;c4.34448-2.82422,7.8233-6.16595,9.19061-8.7392c3.17389-5.97351-2.64069-12.30157-12.98724-14.13422&#10;&#9;&#9;&#9;&#9;c-10.3465-1.83258-21.30688,1.52435-24.48077,7.4978c-1.36719,2.5733-1.73248,6.46649-0.87842,10.21149&#10;&#9;&#9;&#9;&#9;c0.57404,2.51703-3.48804,4.547-7.69183,3.80243l-33.63489-5.95752c-3.16595-0.56079-6.51996,0.46631-7.49109,2.29431&#10;&#9;&#9;&#9;&#9;l-9.61438,18.09515c-1.20203,2.26239,1.79657,4.52362,5.89447,4.47186c4.47803-0.0564,8.70709,0.21204,11.82086,0.76349&#10;&#9;&#9;&#9;&#9;c10.34656,1.83258,16.16113,8.16071,12.98724,14.13422s-14.13428,9.33038-24.48083,7.4978&#10;&#9;&#9;&#9;&#9;c-3.11395-0.55157-6.87598-1.69861-10.52887-3.19519c-3.34265-1.36963-8.02167-0.46832-9.22369,1.79395l-9.61444,18.09515&#10;&#9;&#9;&#9;&#9;c-0.97119,1.82794,0.80811,3.76428,3.97412,4.32513l25.88092,4.58411l5.46094,0.96735l44.10938,7.81281l1.94836,0.34509&#10;&#9;&#9;&#9;&#9;l29.39368,5.2063c3.1662,0.56079,6.5199-0.46643,7.49103-2.29431l0.39655-0.74634l9.2179-17.34888l13.53082-25.46619&#10;&#9;&#9;&#9;&#9;L1008.48895,670.99347z" enable-background="new"/></g><g><path opacity="0.05" fill="#1A1A1A" d="M573.12775,901.10706&#10;&#9;&#9;&#9;&#9;c0-2.12805-0.99963-4.92505-2.74078-7.70734c-1.16571-1.86285,1.16919-3.8324,4.59998-3.8324l36.32257,0.00031&#10;&#9;&#9;&#9;&#9;c2.71503,0,4.91602-1.27081,4.91602-2.83832l-0.00061-22.51227c0-2.1189,3.85919-3.47327,7.14331-2.52759&#10;&#9;&#9;&#9;&#9;c6.46332,1.86127,13.91809,2.99567,19.09033,2.99579c11.03882,0,19.98743-5.16638,19.98718-11.53961&#10;&#9;&#9;&#9;&#9;c-0.00018-6.37317-8.94897-11.53992-19.98779-11.53998c-5.1723,0-12.62695,1.13422-19.09015,2.99554&#10;&#9;&#9;&#9;&#9;c-3.28412,0.94556-7.14343-0.40881-7.14343-2.52771l-0.00061-22.51227c0-1.56763-2.20117-2.83838-4.91608-2.83838h-17.56989&#10;&#9;&#9;&#9;&#9;l-18.75275-0.00031l-43.69409-0.00037h-12.50647l-23.81589-0.00031c-2.71512,0-4.9162,1.27081-4.91611,2.83826l0.00171,67.16827&#10;&#9;&#9;&#9;&#9;c0,1.56763,2.2012,2.83838,4.91629,2.83838l36.32242,0.00031c3.43079,0,5.76599,1.9696,4.60016,3.83246&#10;&#9;&#9;&#9;&#9;c-1.74109,2.78229-2.74048,5.57922-2.74036,7.70734c0.00018,6.37329,8.94897,11.53992,19.98779,11.53998&#10;&#9;&#9;&#9;&#9;c11.03876,0.00006,19.98737-5.16638,19.98712-11.53961L573.12775,901.10706z" enable-background="new"/><path fill="#B1B1B1" d="M573.18542,899.45251c0-2.08643,0.38184-4.53918-1.61816-7.53925&#10;&#9;&#9;&#9;&#9;c-1.19513-1.7926,0.07751-3.77441,3.44098-3.77435l35.61041,0.00031c2.66168,0,4.81958-1.24579,4.81958-2.78265&#10;&#9;&#9;&#9;&#9;l-0.00061-22.07092c0-2.07739,3.78351-3.40521,7.00323-2.47809c6.33661,1.82477,13.6452,2.93701,18.716,2.93701&#10;&#9;&#9;&#9;&#9;c10.82239,0,19.59546-5.06506,19.59534-11.31342c-0.00018-6.24829,0.63727-11.51788-10.185-11.51801&#10;&#9;&#9;&#9;&#9;c-5.0708,0-21.79034,1.31628-28.12683,3.14099c-3.21967,0.92712-7.00323-0.40076-7.00336-2.47815l-0.00061-22.07092&#10;&#9;&#9;&#9;&#9;c0-1.5368-2.15802-2.78265-4.81976-2.78284h-17.2254l-18.38501-0.00031l-42.83728-0.00037h-12.26129l-23.34891-0.00031&#10;&#9;&#9;&#9;&#9;c-2.6619,0-4.81979,1.24579-4.8197,2.78265l0.00171,65.85132c0,1.53674,2.15802,2.78265,4.81992,2.78278l35.61017,0.00031&#10;&#9;&#9;&#9;&#9;c3.36353,0,4.53931,0.94843,3.39642,2.77478c-1.70697,2.72772-1.57312,6.45239-1.573,8.53888&#10;&#9;&#9;&#9;&#9;c0.00018,6.24829,8.77362,11.3136,19.59595,11.31372c10.82227,0.00006,19.59546-5.06512,19.59528-11.31342L573.18542,899.45251z"/><path fill="#F59E0B" d="M573.18542,894.45251c0-2.08643-0.97998-4.82849-2.68707-7.55634&#10;&#9;&#9;&#9;&#9;c-1.14282-1.82642,1.1463-3.75732,4.50977-3.75732l35.61041,0.00031c2.66168,0,4.81958-1.24579,4.81958-2.78265&#10;&#9;&#9;&#9;&#9;l-0.00061-22.07092c0-2.07739,3.78351-3.40521,7.00323-2.47809c6.33661,1.82477,13.6452,2.93701,18.71594,2.93701&#10;&#9;&#9;&#9;&#9;c10.82239,0,19.59552-5.06512,19.59534-11.31342c-0.00012-6.24835-8.77356-11.31366-19.59583-11.31372&#10;&#9;&#9;&#9;&#9;c-5.0708,0-12.37946,1.112-18.71588,2.93671c-3.21973,0.92712-7.0033-0.40076-7.00342-2.47815l-0.00061-22.07092&#10;&#9;&#9;&#9;&#9;c0-1.5368-2.15802-2.78271-4.8197-2.78284h-17.22546l-18.38501-0.00031l-42.83728-0.00037h-12.26129l-23.34891-0.00031&#10;&#9;&#9;&#9;&#9;c-2.6619,0-4.81979,1.24579-4.8197,2.78265l0.00171,65.85126c0,1.5368,2.15802,2.78271,4.81992,2.78284l35.61017,0.00031&#10;&#9;&#9;&#9;&#9;c3.36353,0,5.65289,1.93103,4.51001,3.75739c-1.70697,2.72778-2.68665,5.46985-2.68665,7.55627&#10;&#9;&#9;&#9;&#9;c0.00018,6.24829,8.77356,11.3136,19.59589,11.31366c10.82227,0.00012,19.59546-5.06506,19.59528-11.31335L573.18542,894.45251z"/><path opacity="0.5" fill="#FFFFFF" d="M573.18542,894.45251&#10;&#9;&#9;&#9;&#9;c0-2.08643-0.97998-4.82849-2.68707-7.55634c-1.14282-1.82642,1.1463-3.75732,4.50977-3.75732l35.61041,0.00031&#10;&#9;&#9;&#9;&#9;c2.66168,0,4.81958-1.24579,4.81958-2.78265l-0.00061-22.07092c0-2.07739,3.78351-3.40521,7.00323-2.47809&#10;&#9;&#9;&#9;&#9;c6.33661,1.82477,13.6452,2.93701,18.71594,2.93701c10.82239,0,19.59552-5.06512,19.59534-11.31342&#10;&#9;&#9;&#9;&#9;c-0.00012-6.24835-8.77356-11.31366-19.59583-11.31372c-5.0708,0-12.37946,1.112-18.71588,2.93671&#10;&#9;&#9;&#9;&#9;c-3.21973,0.92712-7.0033-0.40076-7.00342-2.47815l-0.00061-22.07092c0-1.5368-2.15802-2.78271-4.8197-2.78284h-17.22546&#10;&#9;&#9;&#9;&#9;l-18.38501-0.00031l-42.83728-0.00037h-12.26129l-23.34891-0.00031c-2.6619,0-4.81979,1.24579-4.8197,2.78265l0.00171,65.85126&#10;&#9;&#9;&#9;&#9;c0,1.5368,2.15802,2.78271,4.81992,2.78284l35.61017,0.00031c3.36353,0,5.65289,1.93103,4.51001,3.75739&#10;&#9;&#9;&#9;&#9;c-1.70697,2.72778-2.68665,5.46985-2.68665,7.55627c0.00018,6.24829,8.77356,11.3136,19.59589,11.31366&#10;&#9;&#9;&#9;&#9;c10.82227,0.00012,19.59546-5.06506,19.59528-11.31335L573.18542,894.45251z" enable-background="new"/></g><g><path opacity="0.05" fill="#1A1A1A" d="M256.75067,570.47809l-5.39191-3.11298l-19.98328-11.53741&#10;&#9;&#9;&#9;&#9;l-29.8177-17.21515l-25.37529-14.65039c-2.38849-1.37903-6.26109-1.37909-8.64949-0.00012l-23.6447,13.65131&#10;&#9;&#9;&#9;&#9;c-2.95619,1.70679-2.1263,4.57178,1.6089,5.65607c4.0818,1.185,7.6702,2.59393,10.01939,3.9502&#10;&#9;&#9;&#9;&#9;c7.80569,4.50665,7.80589,11.81335,0.0004,16.31982c-7.80548,4.50647-20.46089,4.50641-28.26669-0.00018&#10;&#9;&#9;&#9;&#9;c-2.3492-1.35632-4.7896-3.4281-6.842-5.78467c-1.8782-2.15662-6.84049-2.63568-9.7966-0.92902l-23.6448,13.65131&#10;&#9;&#9;&#9;&#9;c-2.3884,1.37903-2.3884,3.61481,0.00021,4.99377l23.64539,13.65173c2.95631,1.70679,7.9187,1.22778,9.7966-0.92883&#10;&#9;&#9;&#9;&#9;c2.05241-2.35657,4.4926-4.42841,6.8417-5.78461c7.8055-4.50647,20.4609-4.50641,28.2667,0.00018&#10;&#9;&#9;&#9;&#9;c7.80579,4.50665,7.80588,11.81335,0.0004,16.31982c-2.34911,1.3562-5.9375,2.76508-10.0192,3.95013&#10;&#9;&#9;&#9;&#9;c-3.7352,1.08423-4.5649,3.94928-1.6087,5.65607l23.6454,13.65173c2.3885,1.37897,6.26111,1.37909,8.64951,0.00006&#10;&#9;&#9;&#9;&#9;l23.64479-13.65131l33.27649-19.21216l23.6447-13.65131c2.38849-1.37903,2.3884-3.61481-0.00018-4.99377L256.75067,570.47809z" enable-background="new"/><path fill="#B1B1B1" d="M255.56718,564.91327l-5.7672,1.58044L230.2085,555.1825l-29.233-16.87769l-24.8777-14.36322&#10;&#9;&#9;&#9;&#9;c-2.34171-1.35199-6.13831-1.35211-8.4799-0.00012l-23.05058,8.97174c-2.89819,1.67328-2.2151,8.89404,1.4469,9.95715&#10;&#9;&#9;&#9;&#9;c4.00179,1.16168,7.51979,2.54315,9.823,3.8728c7.65269,4.41833,7.65288,11.5816,0.0004,15.99982&#10;&#9;&#9;&#9;&#9;c-7.6525,4.41815-20.05971,4.41797-27.7124-0.00018c-2.30311-1.32971-4.6957-3.3609-6.7078-5.67133&#10;&#9;&#9;&#9;&#9;c-1.84129-2.11432-6.70629-2.58398-9.6046-0.91071l-23.24549,8.75262c-2.34161,1.35187-2.27721,8.17499,0.0645,9.52698&#10;&#9;&#9;&#9;&#9;l23.18169,13.38403c2.8983,1.67334,7.7634,1.20367,9.60459-0.91046c2.0121-2.31042,4.4045-4.34155,6.7075-5.6712&#10;&#9;&#9;&#9;&#9;c7.6525-4.41815,20.05969-4.41803,27.71239,0.00018c7.65271,4.41815,7.65291,11.5816,0.00041,15.99976&#10;&#9;&#9;&#9;&#9;c-2.30301,1.32965-7.2695-1.49084-11.27121-0.32916c-3.662,1.06299-3.02699,8.07367-0.12869,9.74701l23.18169,13.38397&#10;&#9;&#9;&#9;&#9;c2.34172,1.35205,6.13831,1.35205,8.4799,0.00012l23.18109-13.38361l32.62399-18.83545l23.18109-13.38361&#10;&#9;&#9;&#9;&#9;c2.3416-1.35199,2.82262-8.17633,0.4808-9.52832L255.56718,564.91327z"/><path fill="#F59E0B" d="M255.08617,564.54578l-5.28619-3.052l-19.59151-11.31116l-29.23299-16.87769l-24.8777-14.36322&#10;&#9;&#9;&#9;&#9;c-2.34171-1.35199-6.13831-1.35211-8.4799-0.00012l-23.18109,13.38361c-2.89819,1.67328-2.08459,4.48212,1.57739,5.54517&#10;&#9;&#9;&#9;&#9;c4.0018,1.16168,7.51981,2.54315,9.823,3.8728c7.65271,4.41833,7.65289,11.5816,0.00041,15.99982&#10;&#9;&#9;&#9;&#9;c-7.6525,4.41815-20.05971,4.41797-27.7124-0.00018c-2.30311-1.32971-4.69571-3.3609-6.70781-5.67133&#10;&#9;&#9;&#9;&#9;c-1.84129-2.11432-6.70629-2.58398-9.60459-0.91071l-23.18111,13.38361c-2.3416,1.35187-2.3415,3.54388,0.00021,4.89587&#10;&#9;&#9;&#9;&#9;l23.18169,13.38403c2.8983,1.67334,7.7634,1.20367,9.60459-0.91046c2.0121-2.31042,4.4045-4.34155,6.7075-5.6712&#10;&#9;&#9;&#9;&#9;c7.6525-4.41809,20.05969-4.41803,27.71239,0.00018c7.65271,4.41815,7.65291,11.5816,0.00041,15.99982&#10;&#9;&#9;&#9;&#9;c-2.30301,1.32959-5.82111,2.71088-9.8228,3.87256c-3.662,1.06305-4.4754,3.87195-1.5771,5.54523l23.18169,13.38403&#10;&#9;&#9;&#9;&#9;c2.34172,1.35199,6.13831,1.35199,8.4799,0.00006l23.18109-13.38354l32.62399-18.83551l23.18109-13.38361&#10;&#9;&#9;&#9;&#9;c2.34161-1.35199,2.34149-3.54388-0.00018-4.89587L255.08617,564.54578z"/><path opacity="0.3" fill="#FFFFFF" d="M255.08617,564.54578l-5.28619-3.052l-19.59151-11.31116&#10;&#9;&#9;&#9;&#9;l-29.23299-16.87769l-24.8777-14.36322c-2.34171-1.35199-6.13831-1.35211-8.4799-0.00012l-23.18109,13.38361&#10;&#9;&#9;&#9;&#9;c-2.89819,1.67328-2.08459,4.48212,1.57739,5.54517c4.0018,1.16168,7.51981,2.54315,9.823,3.8728&#10;&#9;&#9;&#9;&#9;c7.65271,4.41833,7.65289,11.5816,0.00041,15.99982c-7.6525,4.41815-20.05971,4.41797-27.7124-0.00018&#10;&#9;&#9;&#9;&#9;c-2.30311-1.32971-4.69571-3.3609-6.70781-5.67133c-1.84129-2.11432-6.70629-2.58398-9.60459-0.91071l-23.18111,13.38361&#10;&#9;&#9;&#9;&#9;c-2.3416,1.35187-2.3415,3.54388,0.00021,4.89587l23.18169,13.38403c2.8983,1.67334,7.7634,1.20367,9.60459-0.91046&#10;&#9;&#9;&#9;&#9;c2.0121-2.31042,4.4045-4.34155,6.7075-5.6712c7.6525-4.41809,20.05969-4.41803,27.71239,0.00018&#10;&#9;&#9;&#9;&#9;c7.65271,4.41815,7.65291,11.5816,0.00041,15.99982c-2.30301,1.32959-5.82111,2.71088-9.8228,3.87256&#10;&#9;&#9;&#9;&#9;c-3.662,1.06305-4.4754,3.87195-1.5771,5.54523l23.18169,13.38403c2.34172,1.35199,6.13831,1.35199,8.4799,0.00006&#10;&#9;&#9;&#9;&#9;l23.18109-13.38354l32.62399-18.83551l23.18109-13.38361c2.34161-1.35199,2.34149-3.54388-0.00018-4.89587L255.08617,564.54578z" enable-background="new"/></g><g><path fill="#B1B1B1" d="M1065.6012,106.41045c-2.3031-1.3297-5.25842-2.3861-8.26538-2.9735&#10;&#9;&#9;&#9;&#9;c-2.75159-0.5375-5.59094-4.51589-5.59094-7.8625V68.80726c0-2.7039-1.89832-5.99181-4.24011-7.3438l-24.87775-14.3632&#10;&#9;&#9;&#9;&#9;c-3.10944-1.7952-5.1261-6.6769-3.83398-9.1965c1.92249-3.7489,3.07385-8.4352,3.07385-12.2417&#10;&#9;&#9;&#9;&#9;c0-8.8363-6.20367-19.5813-13.85645-23.9995c-7.65271-4.4182-16.44336,0.4145-16.44336,9.2508&#10;&#9;&#9;&#9;&#9;c0,3.8065,3.7384,8.5711,5.66089,14.5399c1.29211,4.0116-0.72467,6.5645-3.83398,4.7693l-24.87775-14.3632&#10;&#9;&#9;&#9;&#9;c-2.34174-1.352-6.9491,1.3501-6.9491,4.0539l2.70911,25.1611c0,3.3466,2.83942,7.325,5.591,7.8625&#10;&#9;&#9;&#9;&#9;c3.00696,0.5874,5.96228,1.6438,8.26538,2.9735c7.65265,4.4183,13.85638,15.16319,13.85638,23.9995&#10;&#9;&#9;&#9;&#9;s-6.20367,12.4178-13.85638,7.9995c-2.3031-1.3297-5.25842-3.6858-8.26538-6.5706&#10;&#9;&#9;&#9;&#9;c-2.75165-2.63979-8.30011-0.77219-8.30011,2.5744l2.70911,25.5993c0,2.7039,1.89825,5.9918,4.24005,7.3438l20.0509,15.05689&#10;&#9;&#9;&#9;&#9;c3,3,8.05493-2.10849,7.14459-5.8113c-0.99481-4.0464-1.55762-7.7838-1.55762-10.44309c0-8.8363,6.20367-12.4178,13.85645-7.9995&#10;&#9;&#9;&#9;&#9;c7.65271,4.4183,13.85645,15.1632,13.85645,23.9995c0,2.6593-0.56287,5.74681-1.55762,8.6445&#10;&#9;&#9;&#9;&#9;c-0.91046,2.6516,1.11542,7.09972,4.01367,8.7731l19.24402,14.8369c4,3,8.17773-1.19681,8.17773-3.9007v-26.7672&#10;&#9;&#9;&#9;&#9;c0-3.34659,2.83948-4.0463,5.59094-1.40649c3.00708,2.8848,4.92822,7.74471,7.23132,9.0744&#10;&#9;&#9;&#9;&#9;c7.65271,4.41829,14.8905-1.6671,14.8905-10.5034s-6.20361-19.58129-13.85645-23.9995V106.41045z"/><path fill="#F59E0B" d="M1062.6012,108.41045c-2.3031-1.3297-5.25842-2.3861-8.26538-2.9735&#10;&#9;&#9;&#9;&#9;c-2.75159-0.53751-5.59094-4.5159-5.59094-7.8625v-26.7672c0-2.7039-1.89832-5.9918-4.23999-7.3438l-24.87781-14.36319&#10;&#9;&#9;&#9;&#9;c-3.10944-1.7952-5.12616-6.6769-3.83405-9.1965c1.92255-3.7489,3.07391-8.4352,3.07391-12.2417&#10;&#9;&#9;&#9;&#9;c0-8.8363-6.20367-19.5813-13.85645-23.9995c-7.65271-4.4182-13.85645-0.8368-13.85645,7.9995&#10;&#9;&#9;&#9;&#9;c0,3.8065,1.15143,9.8224,3.07391,15.7912c1.29211,4.0116-0.72473,6.5645-3.83398,4.7693l-24.87781-14.3632&#10;&#9;&#9;&#9;&#9;c-2.34167-1.352-4.24005-0.256-4.24005,2.4478v26.76719c0,3.3466,2.83948,7.325,5.591,7.8625&#10;&#9;&#9;&#9;&#9;c3.00696,0.5874,5.96228,1.6438,8.26538,2.9735c7.65265,4.4183,13.85645,15.1632,13.85645,23.9995&#10;&#9;&#9;&#9;&#9;s-6.20374,12.4178-13.85645,7.9995c-2.3031-1.3297-5.25842-3.6858-8.26538-6.57059c-2.75165-2.6398-5.591-1.9401-5.591,1.40649&#10;&#9;&#9;&#9;&#9;v26.7672c0,2.7039,1.89832,5.99181,4.24005,7.3438l23.18182,13.384c2.89838,1.67331,4.92413-0.43559,4.01367-4.1384&#10;&#9;&#9;&#9;&#9;c-0.99475-4.0464-1.55762-7.78381-1.55762-10.44309c0-8.8363,6.20374-12.41781,13.85645-7.9995&#10;&#9;&#9;&#9;&#9;c7.65277,4.4183,13.85645,15.1632,13.85645,23.99949c0,2.6593-0.56281,5.74681-1.55762,8.64452&#10;&#9;&#9;&#9;&#9;c-0.9104,2.6516,1.11542,7.0997,4.01367,8.77309l23.18176,13.384c2.34167,1.35201,4.23999,0.256,4.23999-2.4478v-26.7672&#10;&#9;&#9;&#9;&#9;c0-3.34659,2.83948-4.0463,5.59106-1.40649c3.00696,2.8848,5.96228,5.24091,8.26538,6.5706&#10;&#9;&#9;&#9;&#9;c7.65259,4.41829,13.85632,0.83679,13.85632-7.9995C1076.45752,123.57365,1070.25391,112.82866,1062.6012,108.41045&#10;&#9;&#9;&#9;&#9;L1062.6012,108.41045z"/></g><g><path fill="#E5E5EC" d="M309.24377,301.14151l-19.5032-29.41669c0,0-14.77841-90.33897,33.14758-90.33807&#10;&#9;&#9;&#9;&#9;c4.7803,0,0.34439,109.79266-13.64441,119.75488L309.24377,301.14151z"/><g><ellipse transform="matrix(0.39156 -0.92015 0.92015 0.39156 -478.17694 791.90735)" opacity="0.05" cx="359.71683" cy="757.52991" rx="29.52491" ry="73.34792" enable-background="new"/><g><path fill="#4A4C56" d="M432.95444,748.11536c-0.01239,0.01361-0.01517,0.03253-0.02258,0.04938l-10.68839,1.83997&#10;&#9;&#9;&#9;&#9;&#9;&#9;l7.73889,2.13116c-11.72357,23.65735-25.40579,6.70123-26.978,7.35394c-1.61758,0.67169-5.20529,13.30688-0.5918,23.03864&#10;&#9;&#9;&#9;&#9;&#9;&#9;c1.00052,2.11035,0.92529,2.39081,2.4176,3.61713c0.1366,0.77301,0.35727,1.59155,0.71942,2.28986&#10;&#9;&#9;&#9;&#9;&#9;&#9;c1.04486,2.01434,7.50098,4.81018,13.44409,4.31024s16.30261-11.26392,16.30261-11.26392l-0.18713-2.22455&#10;&#9;&#9;&#9;&#9;&#9;&#9;c4.97812-3.89801,9.97031-7.52039,12.31073-7.84796c4.60233-0.6441,26.1955-17.86377,25.18613-26.62958&#10;&#9;&#9;&#9;&#9;&#9;&#9;c-2.3031-20.00159-30.47403-6.72791-39.65173,3.33569H432.95444z"/><path fill="#FFD6D6" d="M430.97897,751.92749l-8.25723-1.94122c-0.06079-1.07245-0.12717-2.14435-0.17361-3.19678&#10;&#9;&#9;&#9;&#9;&#9;&#9;c-0.33148-7.53961,1.85751-19.7558-5.09171-19.33563c-6.94919,0.4201-16.47949-3.0011-15.19058,18.47668&#10;&#9;&#9;&#9;&#9;&#9;&#9;c0,0,0.81244,13.39655,1.28769,15.30707c0.47528,1.91058,3.92252,5.56897,15.2934,4.6123&#10;&#9;&#9;&#9;&#9;&#9;&#9;c2.71722-0.22858,6.09439-2.07739,6.09439-2.07739s7.50723-3.53314,9.84482-8.91132l-3.80716-2.93378V751.92749z"/></g><g><path fill="#4A4C56" d="M343.19559,724.88953c-0.01352,0.01251-0.01782,0.03113-0.02661,0.0473l-10.80499,0.9375&#10;&#9;&#9;&#9;&#9;&#9;&#9;l7.53299,2.77228c-13.6655,22.59131-25.8782,4.54791-27.49951,5.06659c-1.66818,0.53387-6.30249,12.82373-2.521,22.9079&#10;&#9;&#9;&#9;&#9;&#9;&#9;c0.8201,2.18683,0.72162,2.45984,2.1059,3.80707c0.07132,0.78168,0.22272,1.61597,0.5249,2.34222&#10;&#9;&#9;&#9;&#9;&#9;&#9;c0.87231,2.09479,7.07132,5.42212,13.03543,5.42212c5.96408,0,17.18948-9.8576,17.18948-9.8576v-2.23254&#10;&#9;&#9;&#9;&#9;&#9;&#9;c5.28738-3.46704,10.56567-6.65808,12.92529-6.78833c4.64008-0.25598,27.32977-15.60083,27.32977-24.4245&#10;&#9;&#9;&#9;&#9;&#9;&#9;c0-8.82373-29.8027-9.25879-39.79172,0H343.19559z"/><path fill="#FFD6D6" d="M340.90747,728.52258l-8.06549-2.62659c0.0293-1.07391,0.05301-2.14752,0.095-3.20007&#10;&#9;&#9;&#9;&#9;&#9;&#9;c0.30182-7.54083,3.50711-19.53058-3.45291-19.69427c-6.96002-0.16376-16.16989-4.37207-16.686,17.13818&#10;&#9;&#9;&#9;&#9;&#9;&#9;c0,0-0.31348,13.41754,0,15.36108c0.31351,1.9436,3.4418,5.87811,14.853,5.87811c2.72678,0,6.2471-1.55927,6.2471-1.55927&#10;&#9;&#9;&#9;&#9;&#9;&#9;s7.77692-2.8913,10.55722-8.05457l-3.54791-3.24274V728.52258z"/></g><path fill="#4F5056" d="M305.65738,360.93024c-15.3779,15.39767-13.19119,38.98898-6.8761,61.14819&#10;&#9;&#9;&#9;&#9;&#9;c6.31509,22.15918,68.30478-37.58652,68.30478-37.58652l-61.42868-23.56171V360.93024z"/><path fill="#3C4358" d="M351.99695,533.5116c0,0-6.17142,103.53796-5.5318,179.70685&#10;&#9;&#9;&#9;&#9;&#9;c0.03632,4.31873-16.45551,18.3172-21.10931,18.52722c-5.6907,0.25684-20.73297-4.89563-20.28958-12.91394&#10;&#9;&#9;&#9;&#9;&#9;c2.5434-45.99561-6.2504-150.06549-7.423-189.92279c-2.0163-68.5369,54.3537,4.60272,54.3537,4.60272V533.5116z"/><path fill="#3C4358" d="M296.87399,384.93564c-0.5144,106.96399-7.37012,196.81839,27.77689,198.89755&#10;&#9;&#9;&#9;&#9;&#9;c45.14511,2.67059,27.86951-130.81726,32.58548-177.51157C363.65634,342.75574,297.01248,356.14734,296.87399,384.93564z"/><path opacity="0.1" fill="#1A1A1A" d="M354.82758,534.44202l-24.26428-85.12619&#10;&#9;&#9;&#9;&#9;&#9;c-3.84338-2.80161-8.19144-9.85532-12.68192-18.10983c0,0,6.95621,21.84641,11.16092,24.17728&#10;&#9;&#9;&#9;&#9;&#9;c0,0-0.5545,1.45682-0.37604,2.64648c5.2395,34.90909,8.85312,34.27951,26.16132,76.4122V534.44202z" enable-background="new"/><path fill="#3C4358" d="M427.05325,572.9743c0,0,0.52042,88.83508,7.54291,164.68225&#10;&#9;&#9;&#9;&#9;&#9;c0.39822,4.30054-15.20868,15.51111-19.82849,16.11053c-5.64917,0.73285-21.07037-3.14044-21.30078-11.16766&#10;&#9;&#9;&#9;&#9;&#9;c-1.32132-46.04694-20.31714-133.77533-22.78043-173.57367C368.76926,538.05121,427.05325,572.9743,427.05325,572.9743&#10;&#9;&#9;&#9;&#9;&#9;L427.05325,572.9743z"/><path fill="#3C4358" d="M339.45496,410.73611c-0.5144,106.96396,31.95569,198.90958,66.6333,192.81851&#10;&#9;&#9;&#9;&#9;&#9;c47.55402-8.35291,2.8537-144.70999-3.46729-174.36172c-13.3204-62.4852-63.0275-47.24521-63.16589-18.45679H339.45496z"/></g><g><path fill="#E5E5EC" d="M402.02496,352.66953c-1.41763-14.96283-5.24973-35.24481-10.56351-53.93552&#10;&#9;&#9;&#9;&#9;&#9;c-6.6579-23.4191,5.79077-49.06189,3.46432-74.43318c-0.03799-0.41501-0.06891-0.83031-0.11502-1.24559&#10;&#9;&#9;&#9;&#9;&#9;c-2.86591-25.7766-32.93491-31.8459-32.93491-31.8459l-38.98782-9.82269c0,0-19.84888,0.4003-23.76151,14.65361&#10;&#9;&#9;&#9;&#9;&#9;c-3.9129,14.2533-6.9411,57.0237-5.22537,74.85651c1.7157,17.83279,1.6756,99.52768-2.508,128.52087&#10;&#9;&#9;&#9;&#9;&#9;c-1.47012,10.1882,59.819,28.83807,75.69269,27.58942c15.87378-1.24841,37.27328-13.0134,41.57797-19.58359&#10;&#9;&#9;&#9;&#9;&#9;c1.79193-2.73523-5.62802-44.08218-6.6391-54.75391L402.02496,352.66953z"/><path opacity="0.1" d="M393.63956,230.55434c-14.36249,6.75539-29.92529,19.18309-29.0386,41.2007&#10;&#9;&#9;&#9;&#9;&#9;c1.1572,28.7355,18.69702,67.81766,36.93698,87.63116c-1.41763-14.9628-3.68741-39.8844-8.80469-53.95691&#10;&#9;&#9;&#9;&#9;&#9;c-7.87833-21.66528,1.4585-49.21777,0.90628-74.87497L393.63956,230.55434z" enable-background="new"/><g><path fill="#FFD3D4" d="M384.94119,239.08385c-5.14993,12.343,25.87918,98.73369,46.66049,87.33208&#10;&#9;&#9;&#9;&#9;&#9;&#9;c16.71136-9.1687-3.7153-24.77509-9.116-62.62277C417.17337,226.56525,390.09122,226.74095,384.94119,239.08385z"/><path fill="#E5E5EC" d="M374.92227,196.11565c-0.48932-1.34229,29.20346,15.54761,35.05716,26.10161&#10;&#9;&#9;&#9;&#9;&#9;&#9;c5.06378,9.12991,23.8078,37.95499,25.45459,65.3028c0.77432,12.8584,6.74692,14.2887,6.06412,21.88971&#10;&#9;&#9;&#9;&#9;&#9;&#9;c0,0-26.47202,27.8237-55.4317,15.80722c0,0-9.98242-75.0775-15.77078-82.0611c0,0,5.43008-44.83629,4.62668-47.04031&#10;&#9;&#9;&#9;&#9;&#9;&#9;L374.92227,196.11565z"/><path fill="#FFD3D4" d="M428.57806,292.81833c-0.10739-2.94049,1.16312-7.44672,4.98059-8.1077&#10;&#9;&#9;&#9;&#9;&#9;&#9;c3.96399-0.6864,6.47202,6.8819,6.68799,8.54321c1.46851,11.29739-1.77667,12.53009-4.9216,13.44739&#10;&#9;&#9;&#9;&#9;&#9;&#9;c-3.1449,0.9173-6.5235-7.76279-6.74701-13.88281L428.57806,292.81833z"/></g></g><g><path fill="#FFCCCC" d="M344.31668,194.97223c6.84921,0.00981,16.5929-1.53958,20.67859-2.5632&#10;&#9;&#9;&#9;&#9;&#9;c-0.06439-0.4035-0.11029-0.8463-0.13049-1.34689c-0.28171-6.99431,9.02618-28.1871-1.24741-34.77899&#10;&#9;&#9;&#9;&#9;&#9;s-28.29922-6.86681-29.8147,5.20389c-1.33899,10.66481-6.29501,22.17101-6.99588,23.4351&#10;&#9;&#9;&#9;&#9;&#9;c2.81329,3.53081,9.04831,10.03789,17.51001,10.0502L344.31668,194.97223z"/><path fill="#FFD2D2" d="M385.03497,113.76085c1.9285,2.78849-0.89349,14.5416,0.57449,20.545&#10;&#9;&#9;&#9;&#9;&#9;c4.63791,18.9669,3.72632,44.5649-28.302,45.5723c-31.29459,0.98431-32.70648-14.63159-33.69757-34.60609&#10;&#9;&#9;&#9;&#9;&#9;s-9.17239-29.14879,11.68997-40.69459c20.8624-11.5458,41.68082-2.4626,49.73511,9.1835V113.76085z"/><path fill="#3D4356" d="M390.18466,116.09055c1.19339-21.86709-31.76077-30.54369-47.75-28.746&#10;&#9;&#9;&#9;&#9;&#9;c-6.4285,0.7228-21.97202,5.2815-24.24069,14.3562c-26.4783,24.0234,3.61987,70.3951,22.32449,72.8979&#10;&#9;&#9;&#9;&#9;&#9;c8.0896,1.0824,17.08371-0.42522,21.60461-5.2961c0.6391-0.68871,3.4433-4.48482,2.51221-4.35901&#10;&#9;&#9;&#9;&#9;&#9;c-3.0874,0.41701-8.2561-2.7701-7.70322-13.64919c0.88483-17.4079,7.9577-8.91121,9.63361-5.8486s2.40897,9.1619,2.40897,9.1619&#10;&#9;&#9;&#9;&#9;&#9;l2.12631,3.4568l2.65302-9.9724c5.29388-6.49741,7.9928-11.2617,9.67542-17.7066c2.1814-6.45389,5.689-8.37289,6.75528-14.29479&#10;&#9;&#9;&#9;&#9;&#9;V116.09055z"/></g><path fill="#FFCCCC" d="M328.17017,183.11786c-0.93979,0.36949-2.90759,0.99278-2.55298,2.41109&#10;&#9;&#9;&#9;&#9;s8.73508,9.54109,16.0509,10.25761c7.31583,0.71651,23.59589-0.61279,24.72018-2.11501&#10;&#9;&#9;&#9;&#9;c1.70929-2.2838-36.83521-11.0974-38.21811-10.5538V183.11786z"/></g></g></g></svg>